<?xml version="1.0" encoding="UTF-8" standalone="no"?>
<!-- Created with Inkscape (http://www.inkscape.org/) -->

<svg
   xmlns:dc="http://purl.org/dc/elements/1.1/"
   xmlns:cc="http://creativecommons.org/ns#"
   xmlns:rdf="http://www.w3.org/1999/02/22-rdf-syntax-ns#"
   xmlns:svg="http://www.w3.org/2000/svg"
   xmlns="http://www.w3.org/2000/svg"
   xmlns:sodipodi="http://sodipodi.sourceforge.net/DTD/sodipodi-0.dtd"
   xmlns:inkscape="http://www.inkscape.org/namespaces/inkscape"
   width="157.15559mm"
   height="157.15559mm"
   viewBox="0 0 157.15559 157.15559"
   version="1.1"
   id="svg848"
   inkscape:version="0.92.2 (5c3e80d, 2017-08-06)"
   sodipodi:docname="Fossekall-Logo.svg">
  <defs
     id="defs842" />
  <sodipodi:namedview
     id="base"
     pagecolor="#ffffff"
     bordercolor="#666666"
     borderopacity="1.0"
     inkscape:pageopacity="0.0"
     inkscape:pageshadow="2"
     inkscape:zoom="0.98994949"
     inkscape:cx="289.3404"
     inkscape:cy="282.80695"
     inkscape:document-units="mm"
     inkscape:current-layer="layer2"
     showgrid="false"
     fit-margin-top="0"
     fit-margin-left="0"
     fit-margin-right="0"
     fit-margin-bottom="0"
     inkscape:window-width="1920"
     inkscape:window-height="1017"
     inkscape:window-x="1912"
     inkscape:window-y="-8"
     inkscape:window-maximized="1" />
  <metadata
     id="metadata845">
    <rdf:RDF>
      <cc:Work
         rdf:about="">
        <dc:format>image/svg+xml</dc:format>
        <dc:type
           rdf:resource="http://purl.org/dc/dcmitype/StillImage" />
        <dc:title></dc:title>
      </cc:Work>
    </rdf:RDF>
  </metadata>
  <g
     inkscape:groupmode="layer"
     id="layer2"
     inkscape:label="Circle background"
     style="display:none"
     transform="translate(0.53128052,41.219692)">
    <circle
       style="opacity:0.34000017;fill:#808080;fill-opacity:1;stroke:none;stroke-width:0.6509403;stroke-linecap:round;stroke-linejoin:bevel;stroke-miterlimit:4;stroke-dasharray:none;stroke-dashoffset:0;stroke-opacity:1"
       id="path842"
       cx="78.046516"
       cy="37.358105"
       r="78.577797" />
  </g>
  <g
     inkscape:groupmode="layer"
     id="layer3"
     inkscape:label="Rectangle background"
     style="display:inline"
     transform="translate(0.53128052,41.219692)">
    <rect
       transform="translate(-24.535425,-71.267852)"
       style="display:inline;opacity:0.29200003;fill:#4d4d4d;fill-opacity:1;stroke:none;stroke-width:0.02091315;stroke-linecap:round;stroke-linejoin:bevel;stroke-miterlimit:4;stroke-dasharray:none;stroke-dashoffset:0;stroke-opacity:1"
       id="rect832"
       width="161.22441"
       height="86.336143"
       x="24.535425"
       y="71.267853" />
  </g>
  <g
     inkscape:label="Main layer"
     inkscape:groupmode="layer"
     id="layer1"
     transform="translate(-24.004144,-30.048161)"
     style="display:inline">
    <path
       style="display:inline;opacity:1;fill:#333333;stroke:none;stroke-width:0.26458332px;stroke-linecap:butt;stroke-linejoin:miter;stroke-opacity:1"
       d="m 45.726263,85.357315 c -3.620029,0.493896 -6.304089,1.036873 -10.521445,1.146338 -4.215863,0.109426 -6.229629,1.457406 -5.21777,1.963334 6.914676,2.861092 14.850991,2.106282 15.997295,3.184642 1.610426,1.51497 2.223929,-0.94985 0.623721,-3.297841 -0.902629,-1.32443 -0.881801,-2.996473 -0.881801,-2.996473 z"
       id="path820"
       inkscape:connector-curvature="0"
       sodipodi:nodetypes="cscssc" />
    <path
       style="display:inline;opacity:1;fill:#784421;fill-opacity:1;stroke:none;stroke-width:0.26458332px;stroke-linecap:butt;stroke-linejoin:miter;stroke-opacity:1"
       d="m 95.181535,98.713199 c -5.247204,-2.9984 -7.683527,-3.85135 -10.608564,-8.33151 -3.845999,-5.890765 -15.912145,-15.397946 -27.297637,-12.23687 -8.049572,2.234887 -7.409448,5.141574 -12.22764,7.108184 -2.921598,1.192488 -1.959493,1.469274 -0.319823,2.244389 0.894366,0.566434 0.736574,1.116902 1.511692,1.683333 2.58803,1.536134 -0.495581,1.292104 -0.960348,1.917334 -0.71965,0.9681 19.714965,13.142691 19.714965,13.142691 0,0 11.590814,2.78424 15.005841,1.13996 3.415025,-1.64427 15.181514,-6.667511 15.181514,-6.667511 z"
       id="path828"
       inkscape:connector-curvature="0"
       sodipodi:nodetypes="csssccscsc" />
    <path
       style="display:inline;opacity:1;fill:#483e37;stroke:none;stroke-width:0.26458332px;stroke-linecap:butt;stroke-linejoin:miter;stroke-opacity:1"
       d="m 62.09604,136.52401 c 0,0 12.231391,12.71716 35.742713,12.66507 11.939957,-0.0265 20.984777,-3.61354 30.435937,-8.20522 10.92554,-5.308 26.14366,-20.67845 29.20294,-21.79608 9.00661,-3.29034 21.64366,-7.63193 21.64366,-7.63193 l -3.75633,-1.78873 -0.2385,-2.74272 -35.29765,6.55868 c 0,0 -14.66761,-3.21972 -17.29108,-4.6507 -2.62348,-1.43099 -24.887432,-10.939301 -31.618061,-12.574081 -0.731144,-0.17759 -5.499619,2.94876 -10.765356,4.380991 -8.607587,2.34118 -19.042348,3.54525 -19.042348,3.54525 l -3.204221,21.92363 z"
       id="path825"
       inkscape:connector-curvature="0"
       sodipodi:nodetypes="csasccccsssccc" />
    <path
       style="display:inline;opacity:1;fill:#f9f9f9;stroke:none;stroke-width:0.02645833;stroke-linecap:butt;stroke-linejoin:miter;stroke-miterlimit:4;stroke-dasharray:none;stroke-opacity:1"
       d="m 62.09604,136.52401 c 0,0 0.519157,-4.87474 -0.196337,-7.85596 -0.715491,-2.98122 -0.775118,-3.16009 -0.775118,-3.16009 l 3.040846,1.19249 c 0,0 -0.238498,-3.63709 -1.371362,-5.00845 -1.132864,-1.37136 -1.49061,-1.84836 -1.49061,-1.84836 l 2.265728,-1.66948 4.591079,-17.35071 c 0,0 -1.520288,-5.674121 -8.94366,-7.989671 -9.748592,-3.04084 -13.945405,-1.8452 -13.077328,-0.67333 3.067542,4.14106 8.485728,6.64282 5.599576,20.629531 -2.430368,11.77793 10.357186,23.73403 10.357186,23.73403 z"
       id="path823"
       inkscape:connector-curvature="0"
       sodipodi:nodetypes="csccscccsssc" />
    <path
       style="display:inline;opacity:1;fill:#917c6f;stroke:none;stroke-width:0.26458332px;stroke-linecap:butt;stroke-linejoin:miter;stroke-opacity:1"
       d="m 141.73679,138.38684 -17.88733,-11.68639 c 0,0 3.81597,-3.93521 0.954,-6.20094 -7.56879,-6.21984 -15.99898,-10.38635 -23.34033,-12.85242 -12.521126,-4.05446 -31.648607,-9.238001 -38.692006,-1.09721 -7.345174,8.48959 3.481158,13.23414 3.481158,13.23414 l 2.14648,6.32019 c 0,0 5.996254,5.89696 12.602966,5.31081 0,0 12.829519,7.30223 17.924733,3.87135 0.294528,-0.19832 10.530839,1.75419 20.707079,2.52732 11.03713,0.83854 22.10325,0.57315 22.10325,0.57315 z"
       id="path829"
       inkscape:connector-curvature="0"
       sodipodi:nodetypes="ccccsccsssc" />
    <path
       style="display:inline;fill:#502d16;stroke:none;stroke-width:0.02645833;stroke-linecap:butt;stroke-linejoin:miter;stroke-miterlimit:4;stroke-dasharray:none;stroke-opacity:1"
       d="m 57.148411,85.892623 c 0,0 1.917255,-2.411277 4.285499,-0.427159 0.217527,1.839386 -0.810713,3.078546 -2.176751,3.209867 -2.269713,0.218191 -2.108748,-2.782708 -2.108748,-2.782708 z"
       id="path835"
       inkscape:connector-curvature="0"
       sodipodi:nodetypes="ccsc" />
    <ellipse
       style="display:inline;opacity:1;fill:#28170b;fill-opacity:1;stroke:none;stroke-width:0.03320738;stroke-linecap:round;stroke-linejoin:bevel;stroke-miterlimit:4;stroke-dasharray:none;stroke-dashoffset:0;stroke-opacity:1"
       id="path840"
       cx="58.963188"
       cy="86.453964"
       rx="0.83020514"
       ry="0.93908447" />
  </g>
  <g
     inkscape:groupmode="layer"
     id="layer10"
     inkscape:label="Conversion"
     transform="translate(-24.004144,-30.048161)"
     style="display:none">
    <path
       style="opacity:1;fill:#28170b;fill-opacity:1;stroke:#000000;stroke-width:3.77952766;stroke-linecap:round;stroke-linejoin:bevel;stroke-miterlimit:4;stroke-dasharray:none;stroke-dashoffset:0;stroke-opacity:1"
       d="m 67.22294,74.214925 c -20.914479,-2.223338 -30.044072,-3.839362 -39.855493,-7.0548 -3.358546,-1.100676 -6.447374,-2.221956 -6.864062,-2.491734 -2.079958,-1.346636 3.384709,-4.560227 9.848987,-5.791865 2.222336,-0.423421 8.415052,-1.003237 13.761592,-1.288478 8.299599,-0.44279 21.146687,-1.785432 27.402125,-2.863782 l 1.767767,-0.304739 -1.38896,1.113388 c -2.224028,1.782778 -1.807683,2.715218 2.13825,4.788745 2.571233,1.351145 3.953444,2.473015 5.099882,4.139305 0.864973,1.257195 2.686995,3.086365 4.048939,4.064823 3.519447,2.528473 3.325169,3.40897 -1.038942,4.708659 -1.933361,0.57578 -3.651409,1.267258 -3.817882,1.536617 -0.36366,0.588412 -0.310682,0.591066 -11.102203,-0.556139 z"
       id="path5142"
       inkscape:connector-curvature="0"
       transform="matrix(0.26458333,0,0,0.26458333,24.535425,71.267853)" />
    <path
       style="opacity:1;fill:#28170b;fill-opacity:1;stroke:#000000;stroke-width:3.77952766;stroke-linecap:round;stroke-linejoin:bevel;stroke-miterlimit:4;stroke-dasharray:none;stroke-dashoffset:0;stroke-opacity:1"
       d="m 163.88099,116.29325 1.26566,-4.96638 -1.56731,-3.34927 c -4.90191,-10.475127 -14.58297,-19.463864 -26.21733,-24.342446 -5.59402,-2.345716 -16.30144,-5.404695 -26.19743,-7.484281 -6.8766,-1.445073 -8.43892,-1.594647 -16.920059,-1.61988 -7.981373,-0.02374 -9.579615,0.101086 -10.960306,0.856074 -0.889016,0.486131 -1.810237,1.230249 -2.047158,1.653604 -0.364994,0.652205 -0.608254,0.580803 -1.593248,-0.467675 -0.639367,-0.680575 -1.035889,-1.442245 -0.88116,-1.692602 0.154728,-0.250356 1.658607,-0.872201 3.341953,-1.381876 4.305763,-1.303681 4.730859,-1.991202 2.457994,-3.975397 -3.769619,-3.290852 -4.249005,-3.764053 -5.858347,-5.78275 -0.926094,-1.161658 -3.019153,-2.801208 -4.768224,-3.735081 -1.714653,-0.915496 -3.200073,-1.928423 -3.300932,-2.250949 -0.324016,-1.036133 1.854041,-2.542594 6.481971,-4.483279 5.693606,-2.387568 10.579614,-5.626488 16.369843,-10.85152 8.246303,-7.441367 14.977243,-11.301821 25.790433,-14.791824 15.99522,-5.162525 30.3167,-5.006538 47.44563,0.516768 16.20741,5.226161 33.77946,16.082251 47.13698,29.121448 5.07721,4.956212 9.25603,9.93577 14.16875,16.883726 6.08184,8.601404 11.95942,14.192512 19.98183,19.007934 1.9345,1.161176 2.63646,1.801188 1.97553,1.801188 -0.56387,0 -3.39155,1.160443 -6.28374,2.578758 -17.82797,8.74277 -26.91091,12.2042 -41.41674,15.78359 -9.98491,2.46382 -14.9188,3.39038 -24.45094,4.59175 -5.18846,0.65392 -11.9044,2.0747 -14.48139,3.06359 -0.59228,0.22728 -0.48813,-0.69695 0.52774,-4.68322 z M 135.57897,64.207379 c 2.0907,-1.488705 3.6324,-4.547725 3.97758,-7.892256 l 0.27395,-2.654345 -2.21113,-1.284193 c -1.21612,-0.706306 -3.00663,-1.425307 -3.9789,-1.597779 -2.37985,-0.422166 -6.06231,0.764689 -8.59403,2.769852 -2.00847,1.590734 -2.04856,1.683439 -1.71587,3.968056 0.5292,3.634181 1.72317,6.138758 3.4415,7.219229 2.14154,1.346577 6.54463,1.082316 8.8069,-0.528564 z"
       id="path5144"
       inkscape:connector-curvature="0"
       transform="matrix(0.26458333,0,0,0.26458333,24.535425,71.267853)" />
    <path
       style="opacity:1;fill:#28170b;fill-opacity:1;stroke:#000000;stroke-width:0.67143363;stroke-linecap:round;stroke-linejoin:bevel;stroke-miterlimit:4;stroke-dasharray:none;stroke-dashoffset:0;stroke-opacity:1"
       d="m 58.589033,86.984506 c -0.415118,-0.36875 -0.209609,-1.131966 0.3048,-1.131966 0.278025,0 0.491936,0.276708 0.491936,0.636351 0,0.509275 -0.45955,0.795141 -0.796736,0.495615 z"
       id="path5148"
       inkscape:connector-curvature="0" />
    <path
       style="opacity:1;fill:#28170b;fill-opacity:1;stroke:#000000;stroke-width:3.77952766;stroke-linecap:round;stroke-linejoin:bevel;stroke-miterlimit:4;stroke-dasharray:none;stroke-dashoffset:0;stroke-opacity:1"
       d="m 138.63706,243.08555 c -17.79747,-18.36948 -31.00964,-41.16892 -35.40437,-61.09522 -1.58204,-7.17317 -1.57057,-18.89988 0.0263,-26.87263 3.58897,-17.91883 3.51255,-34.26281 -0.21229,-45.40199 -2.66751,-7.97725 -6.353147,-13.649433 -15.824205,-24.353377 -5.50001,-6.215968 -6.354923,-7.798859 -4.818796,-8.922102 3.611874,-2.641067 18.091551,-2.251332 32.193451,0.866519 7.76613,1.717048 18.53922,4.979942 23.20551,7.028356 11.58482,5.085523 22.25147,15.421072 25.97362,25.167364 0.7945,2.0804 0.77928,2.37362 -0.35844,6.90537 l -1.18817,4.73271 -5.07695,2.53207 c -6.30863,3.14636 -10.8376,6.85276 -14.80141,12.11313 -10.4985,13.93256 -10.20005,26.10905 0.92195,37.61505 l 3.8244,3.95645 -4.21129,3.05971 c -2.79892,2.03355 -4.06443,3.24973 -3.77337,3.62629 0.24086,0.31161 1.81516,2.31733 3.49844,4.45714 1.68328,2.13982 3.52393,5.12918 4.09033,6.64302 1.2068,3.22546 2.73093,10.93278 2.50234,12.65399 l -0.1588,1.19575 -5.1777,-2.04739 c -2.84774,-1.12605 -5.29597,-1.9291 -5.44053,-1.78454 -0.14456,0.14456 0.5654,3.53458 1.57768,7.53339 1.78348,7.0452 1.84806,7.62279 2.08368,18.63477 0.13373,6.25031 0.0478,12.10881 -0.19086,13.01886 l -0.43401,1.65465 z"
       id="path5150"
       inkscape:connector-curvature="0"
       transform="matrix(0.26458333,0,0,0.26458333,24.535425,71.267853)" />
    <path
       style="opacity:1;fill:#28170b;fill-opacity:1;stroke:#000000;stroke-width:3.77952766;stroke-linecap:round;stroke-linejoin:bevel;stroke-miterlimit:4;stroke-dasharray:none;stroke-dashoffset:0;stroke-opacity:1"
       d="m 389.96668,253.01087 c -29.71735,-1.14019 -50.95819,-3.1754 -86.87184,-8.32372 -10.55539,-1.51314 -19.74258,-2.75117 -20.41596,-2.75117 -0.67339,0 -2.68529,0.58447 -4.47088,1.29882 -11.83889,4.7363 -32.63093,0.15474 -58.77599,-12.95138 -5.56102,-2.78766 -6.2143,-2.99465 -9.45109,-2.99465 -12.4527,0 -26.65713,-5.94954 -40.33025,-16.89237 -3.35147,-2.68223 -3.72535,-3.17636 -4.74266,-6.26796 -0.6074,-1.8459 -2.45487,-7.25697 -4.10549,-12.02461 l -3.00112,-8.66843 -3.87298,-2.26965 c -11.26283,-6.60025 -18.01571,-15.47776 -18.63387,-24.49654 -0.43323,-6.32073 1.19551,-11.54399 5.72364,-18.35527 17.86686,-26.87558 62.11653,-27.96046 140.79822,-3.45197 23.01404,7.16862 40.4866,14.71624 60.09034,25.95723 8.2993,4.7589 19.59674,12.06702 25.3315,16.38652 14.9013,11.22386 15.65182,12.09046 15.30484,17.6718 -0.23983,3.85761 -1.75564,7.41287 -4.94026,11.5871 -1.11696,1.46404 -2.02724,2.82774 -2.02287,3.03046 0.005,0.2027 11.65269,7.97678 25.88516,17.27573 14.23246,9.29894 29.27819,19.12899 33.43495,21.84455 l 7.55775,4.93737 -21.19481,-0.0771 c -11.65714,-0.0424 -25.74049,-0.25156 -31.29633,-0.46472 z"
       id="path5152"
       inkscape:connector-curvature="0"
       transform="matrix(0.26458333,0,0,0.26458333,24.535425,71.267853)" />
    <path
       style="opacity:1;fill:#28170b;fill-opacity:1;stroke:#000000;stroke-width:3.77952766;stroke-linecap:round;stroke-linejoin:bevel;stroke-miterlimit:4;stroke-dasharray:none;stroke-dashoffset:0;stroke-opacity:1"
       d="m 400.46813,225.72123 -24.83693,-16.21475 1.966,-2.48716 c 2.7311,-3.45511 5.00627,-8.28875 5.37772,-11.42509 0.64164,-5.41757 -1.26115,-7.90779 -12.49273,-16.34956 -13.8763,-10.42957 -26.59506,-18.23415 -43.39751,-26.6299 -21.07647,-10.53135 -43.39338,-18.47446 -73.99367,-26.33607 -22.74052,-5.84233 -39.45767,-8.53754 -55.53831,-8.95413 l -11.09161,-0.28734 8.31369,-1.8722 c 17.90817,-4.03286 24.52705,-6.17175 37.10303,-11.98985 3.88908,-1.79924 9.54763,-4.418418 12.57456,-5.820406 l 5.50349,-2.549068 2.57773,0.656579 c 3.85266,0.981324 20.16651,6.534455 29.34677,9.989455 24.89096,9.36775 73.65348,29.74189 86.1155,35.9811 5.1978,2.60232 10.86081,4.53535 22.861,7.80346 9.25168,2.5196 31.67592,8.00101 41.28369,10.09145 l 3.78807,0.82421 29.7995,-5.55212 c 16.38972,-3.05368 45.82304,-8.51836 65.40738,-12.14375 19.58433,-3.62539 36.09992,-6.7035 36.70131,-6.84024 1.02861,-0.23389 1.11275,-0.0166 1.41915,3.66454 0.57033,6.85213 0.003,6.12666 7.63939,9.75788 l 6.82823,3.24667 -18.84416,6.51593 c -34.7436,12.01364 -63.77832,22.54952 -65.81627,23.88287 -3.70769,2.4258 -10.96651,8.31619 -28.53681,23.15708 -21.76863,18.38705 -43.80176,36.09516 -44.91102,36.09516 -0.17065,0 -11.48688,-7.29664 -25.14719,-16.21475 z"
       id="path5154"
       inkscape:connector-curvature="0"
       transform="matrix(0.26458333,0,0,0.26458333,24.535425,71.267853)" />
    <path
       style="opacity:1;fill:#28170b;fill-opacity:1;stroke:#000000;stroke-width:3.77952766;stroke-linecap:round;stroke-linejoin:bevel;stroke-miterlimit:4;stroke-dasharray:none;stroke-dashoffset:0;stroke-opacity:1"
       d="m 267.48568,294.15651 c -16.97587,-0.79356 -34.07523,-3.34632 -48.9566,-7.30875 -26.95247,-7.17657 -52.58379,-20.03745 -71.20558,-35.72838 l -4.75226,-4.0043 -0.0813,-13.32243 -0.0813,-13.32241 -1.80663,-7.32361 c -0.99364,-4.02798 -1.74479,-7.38992 -1.66921,-7.47097 0.0756,-0.081 2.44321,0.77127 5.26141,1.89404 2.81821,1.12277 5.26245,2.0414 5.43166,2.0414 0.51673,0 -0.34459,-6.97451 -1.34379,-10.88137 -1.21487,-4.7501 -2.24599,-6.71532 -5.94667,-11.33383 l -3.02873,-3.77991 3.9678,-2.91235 c 2.18228,-1.60179 4.14621,-2.90017 4.36427,-2.88529 0.21806,0.0149 2.53785,1.339 5.15509,2.94248 l 4.75861,2.91543 4.10872,11.96726 4.10871,11.96726 3.27738,2.72035 c 7.99251,6.63412 19.11041,12.79648 27.33347,15.15024 5.26075,1.50583 12.40765,2.52778 15.12703,2.16304 1.61575,-0.21672 2.58381,0.078 5.47304,1.66613 1.93055,1.06118 5.95851,3.06645 8.95104,4.45616 23.78896,11.04742 43.23015,14.46921 53.27841,9.37737 l 2.41424,-1.22339 17.30057,2.5015 c 19.56436,2.82882 29.43247,4.12046 42.55438,5.56996 16.96667,1.8742 44.7505,3.56059 58.66203,3.56059 3.95494,0 7.30707,0.18813 7.44919,0.41807 0.57432,0.92927 -13.79491,8.69307 -28.50772,15.40292 -31.23373,14.24429 -57.28067,21.75976 -83.31291,24.03874 -6.66503,0.58349 -22.69702,1.00522 -28.28427,0.74405 z"
       id="path5156"
       inkscape:connector-curvature="0"
       transform="matrix(0.26458333,0,0,0.26458333,24.535425,71.267853)" />
  </g>
  <g
     inkscape:groupmode="layer"
     id="layer12"
     inkscape:label="Fills"
     style="display:none"
     transform="translate(0.53128052,41.219692)">
    <path
       style="opacity:1;fill:#808080;fill-opacity:1;stroke:none;stroke-width:1.90894973;stroke-linecap:round;stroke-linejoin:bevel;stroke-miterlimit:4;stroke-dasharray:none;stroke-dashoffset:0;stroke-opacity:1"
       d="M 72.636601,72.853766 C 71.803226,72.750915 66.121117,72.089029 60.009695,71.382906 53.898272,70.676783 45.94332,69.55398 42.332025,68.887787 35.616275,67.648903 24.686416,64.587376 23.794282,63.695242 c -0.714549,-0.714549 4.472711,-2.545301 8.866808,-3.129383 1.985511,-0.263922 8.38299,-0.832683 14.216621,-1.263912 10.060249,-0.743666 17.855376,-1.528408 20.300603,-2.043678 0.832742,-0.175479 1.272512,0.111956 1.771646,1.157955 0.365168,0.765256 1.780888,2.073227 3.146045,2.906603 1.365159,0.833376 4.326542,3.351147 6.580849,5.595046 l 4.098749,4.079818 -3.143852,1.097214 c -3.056519,1.066734 -3.825003,1.150102 -6.99515,0.758861 z"
       id="path5180"
       inkscape:connector-curvature="0"
       transform="scale(0.26458333)" />
    <path
       style="opacity:1;fill:#808080;fill-opacity:1;stroke:none;stroke-width:1.90894973;stroke-linecap:round;stroke-linejoin:bevel;stroke-miterlimit:4;stroke-dasharray:none;stroke-dashoffset:0;stroke-opacity:1"
       d="m 166.23392,114.89217 c 0.96798,-4.04562 0.58642,-5.53451 -2.90865,-11.34976 C 156.6993,92.517833 146.79498,84.822258 133.1231,80.075567 127.1816,78.01276 113.61983,74.567242 107.0419,73.449349 104.43871,73.006948 99.431221,72.687043 95.10947,72.687043 h -7.44685 v -1.316071 c 0,-0.984847 -1.191713,-2.518025 -4.73509,-6.091848 -2.604299,-2.626677 -5.822919,-5.48732 -7.152489,-6.356984 l -2.417399,-1.581208 5.95817,-3.059815 c 6.894196,-3.54051 9.591103,-5.335432 14.675397,-9.767183 10.875201,-9.479427 20.706911,-14.408259 34.634231,-17.362836 6.82561,-1.448003 18.59403,-1.540987 25.58098,-0.202118 16.86038,3.230857 33.72143,11.388043 49.49747,23.94632 7.35001,5.850858 14.271,13.137717 21.18131,22.301021 7.06192,9.364347 12.20192,14.785821 17.57109,18.53331 l 3.64959,2.547287 -8.71874,4.081445 c -20.49003,9.591877 -34.64987,13.864497 -57.23414,17.269937 -5.45749,0.82293 -10.74385,1.72433 -11.74746,2.0031 -3.00544,0.83484 -3.02183,0.81416 -2.17162,-2.73923 z M 133.74916,67.070243 c 4.18049,-1.160568 7.83035,-6.688106 7.83035,-11.858694 0,-2.639892 -0.48828,-3.267557 -3.73787,-4.804887 -4.2038,-1.988746 -7.20967,-1.964381 -11.32444,0.0918 -4.41684,2.207121 -5.31512,3.506317 -4.98547,7.210527 0.666,7.483858 5.53674,11.215919 12.21743,9.361259 z"
       id="path5182"
       inkscape:connector-curvature="0"
       transform="scale(0.26458333)" />
    <path
       style="opacity:1;fill:#808080;fill-opacity:1;stroke:none;stroke-width:1.90894973;stroke-linecap:round;stroke-linejoin:bevel;stroke-miterlimit:4;stroke-dasharray:none;stroke-dashoffset:0;stroke-opacity:1"
       d="m 135.42101,236.6897 c -14.15092,-15.90629 -24.53355,-34.2031 -29.51676,-52.01596 -1.10819,-3.96133 -1.34081,-6.0177 -1.55535,-13.74936 -0.22605,-8.14676 -0.11828,-9.87855 1.03724,-16.66752 3.97459,-23.35169 3.02545,-38.67384 -3.19133,-51.51778 -2.302873,-4.757765 -5.97889,-9.864399 -13.063561,-18.147582 -2.83463,-3.314164 -5.073027,-6.26886 -4.974215,-6.565991 0.473523,-1.423906 10.931576,-1.680168 20.126766,-0.493183 10.56896,1.364322 28.12163,6.204223 34.99625,9.649719 8.86913,4.445126 17.20004,12.317221 21.24234,20.072457 2.00383,3.84438 2.08388,4.6151 0.94874,9.13413 l -0.81651,3.25054 -4.36052,2.31774 c -8.97329,4.76955 -15.42697,11.12005 -19.71445,19.39924 -2.69691,5.20779 -3.58643,8.54229 -3.58643,13.44426 0,7.19252 2.50918,12.94336 8.49713,19.47468 l 2.60889,2.84565 -2.77327,2.09383 c -1.5253,1.15161 -3.13117,2.64006 -3.5686,3.30768 -0.95159,1.4523 -0.78563,1.83504 2.905,6.69998 1.42715,1.88124 3.10706,4.55685 3.73314,5.94581 1.09129,2.42103 3.05286,10.20941 2.6682,10.59407 -0.10188,0.10187 -1.89077,-0.40345 -3.97532,-1.12294 -4.46913,-1.54254 -6.55964,-1.34882 -6.55964,0.60784 0,0.67149 0.71337,4.13324 1.58526,7.69279 1.42597,5.82158 1.60904,7.46156 1.82187,16.32089 0.13014,5.41694 0.15544,10.41495 0.0562,11.10669 -0.16237,1.13218 -0.61861,0.76511 -4.57111,-3.67768 z"
       id="path5184"
       inkscape:connector-curvature="0"
       transform="scale(0.26458333)" />
    <path
       style="opacity:1;fill:#808080;fill-opacity:1;stroke:none;stroke-width:1.90894973;stroke-linecap:round;stroke-linejoin:bevel;stroke-miterlimit:4;stroke-dasharray:none;stroke-dashoffset:0;stroke-opacity:1"
       d="m 386.79404,250.9353 c -25.72217,-0.99913 -45.92181,-2.98891 -84.52843,-8.32652 l -20.38374,-2.81818 -3.60738,1.37282 c -2.94396,1.12035 -4.69657,1.41743 -9.52992,1.61539 -12.13725,0.49712 -25.35979,-3.27185 -46.04932,-13.12596 l -8.5353,-4.06523 -5.62732,-0.38621 c -9.14962,-0.62794 -16.76766,-3.05258 -25.78281,-8.20606 -5.88401,-3.36358 -14.22766,-9.65921 -15.08846,-11.38487 -0.37067,-0.74309 -2.33361,-6.19174 -4.3621,-12.10812 -4.10191,-11.9638 -3.27596,-10.77297 -10.94106,-15.77451 -11.0048,-7.18072 -16.53855,-16.9382 -14.89567,-26.26502 1.01219,-5.74625 4.8379,-12.5922 9.98018,-17.85912 18.29705,-18.74051 56.90674,-19.05537 120.15333,-0.97985 12.35641,3.53139 28.33817,8.84951 37.62819,12.52122 9.6893,3.82952 29.75818,13.75722 38.85247,19.21958 13.77527,8.27394 28.91879,18.99221 34.00478,24.06788 2.35482,2.35005 2.3991,2.45297 2.39871,5.57503 -4.4e-4,3.56913 -1.49236,7.2714 -4.74114,11.76546 -2.19623,3.03804 -2.28416,4.32841 -0.40145,5.89136 1.24771,1.03581 24.72758,16.52971 51.61001,34.05642 l 8.83883,5.76271 -19.44543,-0.0779 c -10.69499,-0.0429 -23.99113,-0.25449 -29.54697,-0.4703 z"
       id="path5186"
       inkscape:connector-curvature="0"
       transform="scale(0.26458333)" />
    <path
       style="opacity:1;fill:#808080;fill-opacity:1;stroke:none;stroke-width:1.90894973;stroke-linecap:round;stroke-linejoin:bevel;stroke-miterlimit:4;stroke-dasharray:none;stroke-dashoffset:0;stroke-opacity:1"
       d="m 422.907,238.17911 c -1.96086,-1.43484 -9.52464,-6.39453 -38.73925,-25.40193 l -5.65676,-3.68036 2.05143,-3.07205 c 2.47639,-3.70842 4.43869,-9.03419 4.4532,-12.08623 0.0225,-4.73027 -3.24888,-8.60596 -14.19224,-16.8139 -22.62417,-16.96897 -51.44777,-31.94738 -80.4989,-41.83186 -29.91537,-10.17853 -61.85197,-17.56281 -84.25769,-19.48179 l -3.95055,-0.33836 4.70817,-1.20526 c 10.3196,-2.64175 15.97261,-4.79244 31.91899,-12.14359 l 11.55346,-5.326047 5.36659,1.633837 c 21.15662,6.44104 81.0053,30.39927 110.42247,44.2036 6.85213,3.21543 8.86659,3.96063 17.81837,6.59149 7.02953,2.06591 35.34459,9.18628 47.09065,11.84185 l 4.80496,1.08631 24.48947,-4.5594 c 83.69285,-15.58176 106.19336,-19.75354 106.54083,-19.75354 0.21467,0 0.50516,1.4308 0.64554,3.17955 0.39497,4.92056 1.25209,6.10126 6.21653,8.56337 2.35023,1.16559 4.27192,2.23907 4.27043,2.38551 -0.002,0.14644 -2.55845,1.15024 -5.68211,2.23067 -13.94348,4.82288 -42.26925,14.8128 -52.41541,18.48585 -19.74753,7.14887 -21.21307,7.80053 -26.31614,11.70155 -4.66691,3.56759 -6.68938,5.23648 -28.97325,23.908 -18.83422,15.78108 -38.50151,31.60805 -39.21583,31.55839 -0.0991,-0.007 -1.2029,-0.76093 -2.45296,-1.67566 z"
       id="path5188"
       inkscape:connector-curvature="0"
       transform="scale(0.26458333)" />
    <path
       style="opacity:1;fill:#808080;fill-opacity:1;stroke:none;stroke-width:1.90894973;stroke-linecap:round;stroke-linejoin:bevel;stroke-miterlimit:4;stroke-dasharray:none;stroke-dashoffset:0;stroke-opacity:1"
       d="m 263.80797,292.03959 c -12.1207,-0.73637 -30.06192,-3.42839 -41.35567,-6.20528 -27.09466,-6.66201 -53.97825,-19.79376 -73.55898,-35.93115 l -4.1672,-3.43439 -0.25932,-13.78107 c -0.24059,-12.78604 -0.35346,-14.12752 -1.56318,-18.5793 -0.71712,-2.63902 -1.30842,-4.9518 -1.31398,-5.1395 -0.006,-0.1877 1.4104,0.2162 3.1466,0.89756 3.9661,1.55647 5.87145,1.73212 6.60093,0.60853 0.78314,-1.20624 -0.30475,-9.33035 -1.92468,-14.37309 -1.13924,-3.54638 -2.2549,-5.47231 -6.21234,-10.72423 l -1.15728,-1.53583 2.83531,-1.88254 2.83531,-1.88254 2.15103,1.17505 c 6.17424,3.37282 5.68114,2.61414 10.19469,15.68573 l 4.08501,11.83055 3.23859,2.66687 c 7.38197,6.07881 19.02871,12.80844 26.21956,15.14997 4.73177,1.54079 10.33842,2.61598 15.47446,2.96755 4.26295,0.2918 4.83675,0.48193 12.0522,3.99361 21.2576,10.34583 40.46309,15.34849 51.54702,13.42699 1.92846,-0.33432 4.86193,-1.15402 6.51883,-1.82157 l 3.01253,-1.21371 17.19052,2.48254 c 38.88446,5.61543 62.24684,7.87 92.32558,8.90978 7.97235,0.27559 9.8014,0.46631 9.09137,0.94795 -1.76338,1.19618 -10.8074,5.79631 -18.64665,9.4844 -29.12018,13.7 -54.63185,21.75134 -78.71177,24.84098 -10.748,1.37905 -29.44235,2.0562 -39.64849,1.43614 z"
       id="path5190"
       inkscape:connector-curvature="0"
       transform="scale(0.26458333)" />
    <path
       inkscape:connector-curvature="0"
       id="path5196"
       d="M 33.738839,17.947184 C 32.880495,17.716051 32.370408,17.092474 32.066357,15.902586 31.880832,15.176547 31.851588,14.6457 31.981,14.353143 c 0.254972,-0.576406 1.464922,-1.337917 2.457561,-1.546725 0.712553,-0.149891 1.204776,-0.08012 1.972357,0.279584 0.76047,0.356367 1.020423,0.54013 1.163502,0.822483 0.125215,0.247097 0.126847,0.264483 0.0725,0.771991 -0.08016,0.748523 -0.179501,1.113546 -0.463782,1.704118 -0.542848,1.127729 -1.394902,1.646799 -2.688647,1.637921 -0.26859,-0.0019 -0.608635,-0.03574 -0.755655,-0.07534 z m 1.572154,-1.090251 c 0.506196,-0.192339 0.833851,-0.574677 1.080233,-1.260514 0.16553,-0.460773 0.266107,-1.185288 0.173574,-1.25034 -0.0349,-0.02453 -0.279789,-0.151366 -0.544194,-0.281842 -0.538116,-0.265545 -0.931064,-0.325515 -1.430741,-0.218353 -0.386217,0.08282 -1.047708,0.409305 -1.377818,0.680017 l -0.284874,0.233617 0.04367,0.321924 c 0.102907,0.758444 0.387554,1.483692 0.661908,1.686439 0.338967,0.250496 1.141304,0.293071 1.678236,0.08905 z"
       style="display:inline;opacity:1;fill:#808080;fill-opacity:1;stroke:none;stroke-width:0.19246231;stroke-linecap:round;stroke-linejoin:bevel;stroke-miterlimit:4;stroke-dasharray:none;stroke-dashoffset:0;stroke-opacity:1" />
  </g>
  <g
     inkscape:groupmode="layer"
     id="layer11"
     inkscape:label="Lines"
     style="display:none"
     transform="translate(0.53128052,41.219692)">
    <path
       style="opacity:1;fill:#808080;fill-opacity:1;stroke:#000000;stroke-width:0.67491567;stroke-linecap:round;stroke-linejoin:bevel;stroke-miterlimit:4;stroke-dasharray:none;stroke-dashoffset:0;stroke-opacity:1"
       d=""
       id="path5165"
       inkscape:connector-curvature="0"
       transform="scale(0.26458333)" />
    <path
       style="opacity:1;fill:#808080;fill-opacity:1;stroke:#000000;stroke-width:0.67491567;stroke-linecap:round;stroke-linejoin:bevel;stroke-miterlimit:4;stroke-dasharray:none;stroke-dashoffset:0;stroke-opacity:1"
       d=""
       id="path5167"
       inkscape:connector-curvature="0"
       transform="scale(0.26458333)" />
    <path
       style="display:inline;opacity:1;fill:#808080;fill-opacity:1;stroke:#808080;stroke-width:3;stroke-linecap:round;stroke-linejoin:bevel;stroke-miterlimit:4;stroke-dasharray:none;stroke-dashoffset:0;stroke-opacity:1"
       d="m 259.43631,295.39594 c -7.04099,-0.66426 -19.4662,-2.35702 -25.56931,-3.48348 -36.45793,-6.72902 -71.78261,-23.81792 -94.25112,-45.59551 -17.91335,-17.36252 -32.59005,-41.91809 -37.7913,-63.22859 -1.0125,-4.1484 -1.16971,-6.06369 -1.16078,-14.14214 0.009,-7.859 0.22194,-10.51874 1.34196,-16.73661 3.16078,-17.54732 2.88266,-31.71056 -0.83743,-42.64575 C 98.799444,102.60056 95.612241,97.651423 87.16772,87.823527 84.330822,84.521899 81.667712,81.252354 81.249691,80.557874 79.359983,77.4184 78.289176,77.035285 68.501778,75.996894 49.023941,73.930404 39.636328,72.411155 30.889293,69.90986 22.394633,67.480734 19.068687,66.027964 18.707496,64.588865 c -0.446725,-1.779897 0.815021,-3.31649 4.006453,-4.879181 4.15139,-2.032738 8.046051,-2.755511 19.53956,-3.626166 11.235635,-0.85112 22.753392,-2.02089 27.472477,-2.79017 1.636953,-0.266848 3.134585,-0.387338 3.328069,-0.267758 0.19349,0.119581 2.620235,-0.895443 5.39277,-2.255607 4.735247,-2.323039 7.72446,-4.456124 18.102383,-12.917763 7.353542,-5.995709 16.262302,-10.362666 26.641882,-13.05951 7.74497,-2.012313 12.29993,-2.47161 21.50434,-2.168383 12.92683,0.425856 22.74407,3.089245 36.70659,9.95839 19.04037,9.367296 33.66037,21.525017 46.45513,38.631246 3.32443,4.444671 7.83949,9.849977 10.03346,12.011794 5.43775,5.358072 12.56373,9.95366 17.75762,11.452024 18.04149,5.20471 76.59507,28.444909 106.48458,42.264239 10.96463,5.06947 14.74373,6.53057 23.40938,9.05065 7.66986,2.23049 34.83218,9.03283 45.36751,11.3615 l 5.05076,1.1164 61.61931,-11.47301 c 76.37056,-14.21957 70.80826,-13.24574 71.86796,-12.58253 0.58048,0.36327 0.99626,1.59829 1.26996,3.77231 0.88954,7.0653 0.1594,6.10338 7.21896,9.51058 6.25057,3.01674 6.32658,3.07391 6.16986,4.64206 -0.15193,1.52022 -0.3626,1.6584 -4.95692,3.25146 -34.83011,12.07718 -60.66505,21.25998 -72.07003,25.61666 -8.48704,3.24204 -8.00986,2.90122 -31.12283,22.22895 -18.86295,15.77373 -34.67683,28.73523 -41.95133,34.38447 -2.8138,2.18515 -5.18204,4.14472 -5.26276,4.35461 -0.0807,0.20989 3.10126,2.48535 7.07106,5.05657 3.96981,2.57121 7.27568,4.72272 7.34638,4.78112 0.0707,0.0584 -0.13061,0.84959 -0.44735,1.7582 l -0.5759,1.65201 -16.4727,-0.18115 -16.47271,-0.18115 -1.76777,1.33449 c -3.70476,2.79673 -15.33254,8.83889 -28.41422,14.76493 -28.51062,12.91538 -52.73631,20.22186 -77.39925,23.34365 -5.86102,0.74188 -36.82163,1.39608 -42.17387,0.89114 z m 42.305,-4.43097 c 23.48247,-3.08949 46.15007,-9.79508 72.39844,-21.41708 7.45536,-3.30101 25.3719,-12.18852 26.9135,-13.35045 0.83716,-0.631 -0.42321,-0.75802 -10.35406,-1.04348 -27.7624,-0.79804 -52.72951,-3.23586 -93.6347,-9.14262 l -15.15229,-2.18801 -1.87814,0.9494 c -11.4119,5.76869 -33.55388,1.32017 -60.39176,-12.13325 -5.42781,-2.72088 -6.49974,-3.08411 -9.10162,-3.08411 -4.02074,0 -11.67451,-1.34394 -16.25921,-2.855 -7.95229,-2.62097 -19.05492,-8.92171 -26.7979,-15.20783 -3.33812,-2.71003 -3.08495,-2.18779 -7.99435,-16.49056 l -3.45211,-10.0572 -3.96051,-2.44344 c -2.17828,-1.34389 -4.14149,-2.44344 -4.3627,-2.44344 -0.50824,0 -5.45529,3.5366 -5.45529,3.89994 0,0.14831 1.10864,1.7748 2.46366,3.61443 3.12703,4.24541 4.27653,6.56616 5.28419,10.66838 1.05027,4.27566 1.71591,10.03931 1.34224,11.62219 -0.41596,1.76204 -1.64822,1.81485 -5.65607,0.24244 -1.91995,-0.75327 -3.62478,-1.23563 -3.78851,-1.07191 -0.16372,0.16373 0.30558,2.85942 1.04289,5.99042 1.2655,5.37402 1.34032,6.40539 1.33623,18.4209 l -0.005,12.72815 4.56528,3.74603 c 16.7216,13.72082 36.56939,24.36105 59.32687,31.80462 16.1519,5.28299 29.27714,7.86842 51.51778,10.14804 5.25275,0.5384 36.12897,-0.12723 42.05246,-0.90656 z M 435.43013,251.3195 c -0.2639,-0.25257 -11.11482,-7.41434 -24.11316,-15.91504 -32.00312,-20.92952 -37.21836,-24.45088 -37.28819,-25.17718 -0.13203,-1.37319 0.237,-2.18016 2.57085,-5.62184 2.84978,-4.20251 4.05498,-7.45008 4.05498,-10.92668 0,-2.1863 -0.24181,-2.77423 -1.89403,-4.60508 -4.6093,-5.10762 -23.62655,-18.4864 -37.95613,-26.70242 -9.36065,-5.36703 -26.62613,-13.75691 -35.65874,-17.32779 -25.82251,-10.20846 -64.41735,-20.59739 -89.3985,-24.06421 -9.63251,-1.33678 -24.44413,-2.02055 -32.15788,-1.48456 -19.87337,1.38091 -33.14938,7.92627 -41.25187,20.33803 -4.00992,6.14258 -4.84214,8.7102 -4.86105,14.99755 -0.0155,5.16323 0.0436,5.45009 1.89429,9.19475 1.05067,2.12588 3.09622,5.16626 4.54568,6.7564 2.88671,3.16688 8.86535,7.80063 12.62053,9.78155 2.85957,1.50847 2.71121,1.20851 7.45382,15.07115 l 3.68731,10.77801 3.32646,2.67377 c 12.1802,9.79033 25.59976,15.57865 37.67164,16.2491 4.97084,0.27607 5.17065,0.33693 12.62691,3.84666 10.38403,4.88785 16.7882,7.53007 23.54796,9.71535 9.62068,3.11016 14.47148,3.9824 22.16144,3.98491 6.18114,0.002 7.15474,-0.125 10.41517,-1.35886 1.97815,-0.7486 4.2779,-1.36109 5.11055,-1.36109 0.83265,0 8.7601,1.01251 17.61656,2.25004 44.22885,6.18013 65.05889,8.09746 95.90471,8.82768 23.98137,0.56771 39.91423,0.60001 39.37069,0.0798 z m -295.3264,-21.76413 c -0.22184,-8.80944 -0.41441,-10.53208 -1.82449,-16.32088 -1.90633,-7.8261 -1.94871,-8.78498 -0.41905,-9.48194 0.92105,-0.41966 2.00772,-0.21704 5.32077,0.99207 l 4.16334,1.51943 -0.31522,-1.86513 c -0.17337,-1.02582 -0.77902,-3.64392 -1.34589,-5.818 -1.00317,-3.84745 -1.7768,-5.18129 -7.441,-12.82927 -1.60359,-2.16522 -1.01198,-3.45344 2.9129,-6.34277 l 2.96824,-2.18509 -2.23304,-2.49729 c -9.86058,-11.02744 -11.49144,-21.62747 -5.14959,-33.47059 4.1049,-7.66571 10.2,-14.00647 17.11604,-17.80587 7.44993,-4.09271 6.79339,-3.42743 7.82053,-7.92465 l 0.92666,-4.0573 -1.51314,-3.20701 c -3.79573,-8.04481 -12.34353,-16.353264 -21.6101,-21.005001 -10.02726,-5.033595 -30.26022,-9.929254 -43.689096,-10.571206 -5.969234,-0.285353 -12.123528,0.352963 -12.120795,1.25716 5.05e-4,0.188646 2.522366,3.297694 5.603988,6.908989 6.76733,7.930501 10.061023,12.476142 12.442953,17.172598 6.45264,12.72261 7.64111,28.29887 3.83446,50.25508 -1.7569,10.13356 -1.96663,23.14754 -0.47614,29.54407 4.15041,17.81163 15.39964,38.16924 30.42026,55.05123 4.0392,4.53974 4.5078,4.91964 4.67244,3.78807 0.10065,-0.69174 0.0714,-5.68975 -0.065,-11.1067 z m 292.15689,5.218 c 9.15991,-7.1857 20.62406,-16.57919 36.31847,-29.7586 19.2318,-16.14994 27.5975,-22.83629 30.26337,-24.18824 3.90913,-1.98243 40.63238,-15.2644 71.62274,-25.9043 l 8.23563,-2.82754 -4.41816,-2.30711 c -2.42997,-1.26891 -4.84413,-2.89274 -5.36472,-3.60853 -0.58104,-0.79884 -1.08222,-2.6518 -1.29779,-4.79822 -0.33421,-3.32733 -0.41214,-3.4926 -1.60821,-3.41023 -1.15052,0.0792 -69.41783,12.71164 -111.86874,20.70056 l -17.67767,3.3268 -4.54569,-0.89076 c -7.09752,-1.39081 -40.06743,-9.62379 -48.54809,-12.12303 -8.50215,-2.50557 -10.0634,-3.12431 -25.19304,-9.98415 -32.52667,-14.74774 -84.17526,-35.21159 -102.94529,-40.788276 l -4.9605,-1.473797 -11.45448,5.244873 c -17.02402,7.79509 -20.73427,9.22103 -31.00242,11.91499 -3.06554,0.80428 -5.66341,1.55204 -5.77306,1.66168 -0.10964,0.10964 2.22546,0.34772 5.18912,0.52906 23.03592,1.40946 68.34254,12.90804 98.53514,25.0077 23.76055,9.52201 45.2679,21.42558 64.28078,35.57717 7.96091,5.92543 12.35192,9.96096 13.69032,12.582 2.08034,4.07401 0.9077,10.3246 -3.10032,16.52579 -1.10204,1.70507 -2.0037,3.17888 -2.0037,3.27513 0,0.0963 7.10077,4.80474 15.77949,10.4633 8.67872,5.65855 19.07698,12.48754 23.10724,15.17553 4.03026,2.68799 7.59473,4.90401 7.92105,4.9245 0.32631,0.0204 3.39465,-2.16036 6.81853,-4.8463 z M 170.82487,117.24029 c 2.20614,-0.43959 7.19314,-1.25904 11.08223,-1.82102 13.70489,-1.98037 31.04125,-6.49261 41.63294,-10.83606 7.04856,-2.89048 22.26271,-9.963629 22.24618,-10.342386 -0.007,-0.164134 -1.20025,-1.093924 -2.65131,-2.066196 -4.77466,-3.199234 -11.44819,-10.14774 -17.46317,-18.182746 -17.16301,-22.926885 -40.70525,-39.368041 -65.45413,-45.711087 -14.72846,-3.77485 -28.21546,-3.179395 -42.70774,1.88556 -8.65185,3.023767 -14.80092,6.735961 -23.233505,14.02608 -5.31072,4.59121 -11.084767,8.385641 -16.541248,10.870131 -2.291783,1.043513 -4.166879,2.071356 -4.166879,2.284093 0,0.212738 0.965958,0.956537 2.146574,1.652888 3.244358,1.913587 11.994885,11.046176 11.998597,12.522473 l 0.003,1.207172 7.955168,0.07265 c 10.297363,0.09405 21.373043,2.192177 35.778843,6.777805 15.67063,4.988239 26.5283,13.7097 33.23589,26.696823 l 2.41919,4.684 -0.80671,3.21151 c -0.97843,3.89515 -0.99801,4.44809 -0.14591,4.12111 0.36344,-0.13946 2.46582,-0.61323 4.67196,-1.05281 z M 78.620456,73.04797 c 1.07564,-0.449704 2.318582,-1.40664 2.993586,-1.663538 1.20292,-0.45782 1.157817,-0.537904 -2.272843,-4.03576 -1.925068,-1.96277 -5.028681,-4.561538 -6.896922,-5.77504 -2.09087,-1.358107 -3.509225,-2.65426 -3.689204,-3.371356 l -0.292393,-1.164988 -4.897096,0.623955 c -2.693403,0.343174 -10.963832,1.09864 -18.378732,1.678812 -13.280493,1.039122 -17.616632,1.739157 -20.723117,3.345582 -2.022872,1.046068 -1.758329,1.194681 6.208493,3.487773 9.645643,2.776307 21.912986,4.724032 43.906163,6.971116 0.972271,0.09934 1.796829,0.216991 1.832356,0.261448 0.03551,0.04445 1.134063,0.0917 2.209709,-0.358004 z"
       id="path5173"
       inkscape:connector-curvature="0"
       transform="scale(0.26458333)"
       sodipodi:nodetypes="scsscsccssssssscsssssscsssccscccsssscccsccccsssscscssccssscscssscccccccccsscccscsscsssssccsssccssscsscsccccscscsscsscccssscscscscccsscscccccscsssscssccssssssscscssccsssssssccsssccccccccsscssssccc" />
    <path
       style="display:inline;opacity:1;fill:#808080;fill-opacity:1;stroke:none;stroke-width:0.5291667;stroke-linecap:round;stroke-linejoin:bevel;stroke-miterlimit:4;stroke-dasharray:none;stroke-dashoffset:0;stroke-opacity:1"
       d="m 33.765135,17.883484 c -0.837117,-0.225416 -1.334589,-0.833572 -1.63112,-1.994033 -0.180938,-0.708084 -0.209458,-1.225803 -0.08324,-1.511124 0.248666,-0.562152 1.428693,-1.30483 2.396783,-1.508474 0.694931,-0.146183 1.174981,-0.07814 1.92358,0.27267 0.741662,0.347554 0.995187,0.526772 1.134727,0.802143 0.12212,0.240986 0.123711,0.257941 0.0707,0.752899 -0.07817,0.730011 -0.17506,1.086007 -0.452311,1.661974 -0.529423,1.09984 -1.360404,1.606072 -2.622155,1.597414 -0.261949,-0.0018 -0.593583,-0.03486 -0.736967,-0.07346 z m 1.533273,-1.063287 c 0.493678,-0.187584 0.813229,-0.560465 1.053519,-1.229342 0.161436,-0.449378 0.259526,-1.155974 0.169282,-1.219418 -0.03404,-0.02393 -0.272871,-0.147621 -0.530736,-0.274871 -0.524807,-0.258978 -0.908038,-0.317465 -1.395359,-0.212953 -0.376664,0.08078 -1.021797,0.399182 -1.343742,0.663199 l -0.27783,0.227839 0.04259,0.313963 c 0.100356,0.739687 0.377969,1.447 0.645538,1.644734 0.330584,0.244301 1.113079,0.285822 1.636732,0.08685 z"
       id="path5175"
       inkscape:connector-curvature="0" />
  </g>
</svg>
