<?xml version="1.0" encoding="UTF-8" standalone="no"?>
<svg
   xmlns:dc="http://purl.org/dc/elements/1.1/"
   xmlns:cc="http://creativecommons.org/ns#"
   xmlns:rdf="http://www.w3.org/1999/02/22-rdf-syntax-ns#"
   xmlns:svg="http://www.w3.org/2000/svg"
   xmlns="http://www.w3.org/2000/svg"
   xmlns:sodipodi="http://sodipodi.sourceforge.net/DTD/sodipodi-0.dtd"
   xmlns:inkscape="http://www.inkscape.org/namespaces/inkscape"
   version="1.2"
   id="Layer_1"
   x="0px"
   y="0px"
   viewBox="0 0 172.238 180.994"
   xml:space="preserve"
   sodipodi:docname="Open-source-hardware-logo.svg"
   inkscape:version="0.92.2 (5c3e80d, 2017-08-06)"><metadata
     id="metadata43"><rdf:RDF><cc:Work
         rdf:about=""><dc:format>image/svg+xml</dc:format><dc:type
           rdf:resource="http://purl.org/dc/dcmitype/StillImage" /><dc:title /></cc:Work></rdf:RDF></metadata><defs
     id="defs41" /><sodipodi:namedview
     pagecolor="#ffffff"
     bordercolor="#666666"
     borderopacity="1"
     objecttolerance="10"
     gridtolerance="10"
     guidetolerance="10"
     inkscape:pageopacity="0"
     inkscape:pageshadow="2"
     inkscape:window-width="1920"
     inkscape:window-height="1017"
     id="namedview39"
     showgrid="false"
     inkscape:zoom="2.6078213"
     inkscape:cx="87.604381"
     inkscape:cy="51.776579"
     inkscape:window-x="1912"
     inkscape:window-y="-8"
     inkscape:window-maximized="1"
     inkscape:current-layer="layer19" /><g
     inkscape:groupmode="layer"
     id="layer3"
     inkscape:label="Attribution"
     style="display:inline"><flowRoot
       xml:space="preserve"
       id="flowRoot4570"
       style="font-style:normal;font-variant:normal;font-weight:normal;font-stretch:normal;font-size:13.33333302px;line-height:1.25;font-family:'Segoe UI';-inkscape-font-specification:'Segoe UI';font-variant-ligatures:normal;font-variant-caps:normal;font-variant-numeric:normal;font-feature-settings:normal;text-align:start;letter-spacing:0px;word-spacing:0px;writing-mode:lr-tb;text-anchor:start;fill:#000000;fill-opacity:1;stroke:none"><flowRegion
         id="flowRegion4572"><rect
           id="rect4574"
           width="64.421593"
           height="33.361183"
           x="10.736933"
           y="211.28749" /></flowRegion><flowPara
         id="flowPara4576" /></flowRoot><flowRoot
       xml:space="preserve"
       id="flowRoot4578"
       style="font-style:normal;font-variant:normal;font-weight:normal;font-stretch:normal;font-size:13.33333302px;line-height:1.25;font-family:'Segoe UI';-inkscape-font-specification:'Segoe UI';font-variant-ligatures:normal;font-variant-caps:normal;font-variant-numeric:normal;font-feature-settings:normal;text-align:start;letter-spacing:0px;word-spacing:0px;writing-mode:lr-tb;text-anchor:start;fill:#000000;fill-opacity:1;stroke:none"><flowRegion
         id="flowRegion4580"
         style="font-size:13.33333302px"><rect
           id="rect4582"
           width="169.49014"
           height="69.790062"
           x="0.38346186"
           y="190.58055"
           style="font-size:13.33333302px" /></flowRegion><flowPara
         id="flowPara4584" /></flowRoot><flowRoot
       xml:space="preserve"
       id="flowRoot4586"
       style="font-style:normal;font-variant:normal;font-weight:normal;font-stretch:normal;font-size:13.33333302px;line-height:1.25;font-family:'Segoe UI';-inkscape-font-specification:'Segoe UI';font-variant-ligatures:normal;font-variant-caps:normal;font-variant-numeric:normal;font-feature-settings:normal;text-align:start;letter-spacing:0px;word-spacing:0px;writing-mode:lr-tb;text-anchor:start;fill:#000000;fill-opacity:1;stroke:none"
       transform="translate(5.3684662,-7.6692374)"><flowRegion
         id="flowRegion4588"><rect
           id="rect4590"
           width="170.25708"
           height="115.42203"
           x="0.38346186"
           y="195.56555" /></flowRegion><flowPara
         id="flowPara4592">Based on original design by</flowPara><flowPara
         id="flowPara4596">Macklin Chaffee, revised by</flowPara><flowPara
         id="flowPara4602">Mateo Zlatar.</flowPara><flowPara
         id="flowPara4610">Idea expanded upon by </flowPara><flowPara
         id="flowPara4600">Dave Jones.</flowPara></flowRoot></g><g
     inkscape:groupmode="layer"
     id="layer2"
     inkscape:label="Logo text"
     style="display:inline"><path
       style="fill:#0099b0;fill-rule:evenodd"
       d="m 45.597,180.781 h 3.613 v -12.254 c 0,-4.426 -3.046,-5.914 -7.473,-5.914 -2.692,0 -4.675,0.707 -6.056,2.621 l 2.833,2.16 c 0.637,-1.027 1.523,-1.383 3.4,-1.383 2.585,0 3.683,0.604 3.683,2.303 v 1.877 h -4.994 c -3.86,0 -5.843,2.445 -5.843,5.313 0,3.117 2.337,5.49 6.339,5.49 2.444,0 3.684,-0.566 4.427,-1.807 h 0.071 z m 0,-6.305 c 0,2.799 -1.027,3.117 -4.037,3.117 -2.444,0 -3.401,-1.063 -3.401,-2.266 0,-1.311 0.992,-2.162 3.118,-2.162 h 4.32 z"
       id="path4"
       inkscape:connector-curvature="0" /><path
       style="fill:#0099b0;fill-rule:evenodd"
       d="m 53.178,180.781 h 3.612 v -10.803 c 0,-2.619 1.736,-3.754 3.507,-3.754 0.921,0 1.523,0.248 2.373,0.887 l 2.62,-3.117 c -1.098,-0.85 -2.301,-1.381 -3.754,-1.381 -1.912,0 -3.542,0.709 -4.675,2.125 H 56.79 v -1.912 h -3.612 z"
       id="path6"
       inkscape:connector-curvature="0" /><path
       style="fill:#0099b0;fill-rule:evenodd"
       d="m 76.095,180.781 h 3.612 v -25.217 h -3.612 v 9.174 c -1.346,-1.275 -2.798,-2.125 -4.64,-2.125 -2.196,0 -3.789,0.99 -4.816,2.338 -0.992,1.273 -1.275,2.441 -1.275,6.836 0,4.426 0.283,5.594 1.275,6.869 1.027,1.346 2.62,2.338 4.816,2.338 1.842,0 3.507,-0.852 4.64,-2.09 z m -3.542,-14.557 c 3.365,0 3.542,2.977 3.542,5.563 0,2.621 -0.177,5.594 -3.542,5.594 -3.4,0 -3.577,-2.797 -3.577,-5.594 0,-2.764 0.177,-5.563 3.577,-5.563"
       id="path8"
       inkscape:connector-curvature="0" /><polygon
       style="fill:#0099b0;fill-rule:evenodd"
       points="98.143,180.781 101.332,180.781 107.068,162.826 103.242,162.826 99.809,175.398 99.736,175.398 95.664,162.826 93.043,162.826 88.971,175.398 88.9,175.398 85.464,162.826 81.64,162.826 87.377,180.781 90.564,180.781 94.318,168.208 94.389,168.208 "
       id="polygon10" /><path
       style="fill:#0099b0;fill-rule:evenodd"
       d="m 118.186,180.781 h 3.613 v -12.254 c 0,-4.426 -3.047,-5.914 -7.473,-5.914 -2.691,0 -4.676,0.707 -6.057,2.621 l 2.834,2.16 c 0.637,-1.027 1.521,-1.383 3.398,-1.383 2.586,0 3.684,0.604 3.684,2.303 v 1.877 h -4.994 c -3.859,0 -5.844,2.445 -5.844,5.313 0,3.117 2.338,5.49 6.34,5.49 2.443,0 3.684,-0.566 4.428,-1.807 h 0.07 v 1.594 z m 0,-6.305 c 0,2.799 -1.027,3.117 -4.037,3.117 -2.443,0 -3.4,-1.063 -3.4,-2.266 0,-1.311 0.992,-2.162 3.117,-2.162 h 4.32 z"
       id="path12"
       inkscape:connector-curvature="0" /><path
       style="fill:#0099b0;fill-rule:evenodd"
       d="m 125.768,180.781 h 3.611 v -10.803 c 0,-2.619 1.734,-3.754 3.506,-3.754 0.922,0 1.523,0.248 2.373,0.887 l 2.621,-3.117 c -1.098,-0.85 -2.303,-1.381 -3.754,-1.381 -1.912,0 -3.541,0.709 -4.674,2.125 h -0.072 v -1.912 h -3.611 z"
       id="path14"
       inkscape:connector-curvature="0" /><path
       style="fill:#0099b0;fill-rule:evenodd"
       d="m 152.748,173.167 v -2.977 c 0,-4.639 -3.434,-7.578 -7.4,-7.578 -3.471,0 -7.402,2.266 -7.402,9.242 0,7.367 4.285,9.139 7.969,9.139 2.408,0 4.709,-0.85 6.48,-2.904 l -2.621,-2.232 c -1.063,1.1 -2.551,1.736 -3.93,1.736 -2.48,0 -4.285,-1.488 -4.285,-4.426 z m -11.189,-2.976 c 0.07,-2.727 1.664,-4.18 3.789,-4.18 2.125,0 3.684,1.453 3.789,4.18 z"
       id="path16"
       inkscape:connector-curvature="0" /><path
       style="fill:#0099b0;fill-rule:evenodd"
       d="m 0,143.425 c 0,3.895 0.566,5.383 1.947,6.906 0.992,1.098 2.657,2.301 5.455,2.301 2.797,0 4.462,-1.203 5.454,-2.301 1.381,-1.523 1.948,-3.012 1.948,-6.906 0,-3.861 -0.567,-5.348 -1.948,-6.871 -0.992,-1.098 -2.657,-2.303 -5.454,-2.303 -2.798,0 -4.463,1.205 -5.455,2.303 C 0.566,138.078 0,139.564 0,143.425 m 11.191,0.035 c 0,2.586 -0.212,3.293 -0.885,4.25 -0.532,0.744 -1.665,1.311 -2.904,1.311 -1.24,0 -2.373,-0.566 -2.904,-1.311 -0.673,-0.957 -0.886,-1.664 -0.886,-4.285 0,-2.586 0.213,-3.295 0.886,-4.25 0.531,-0.744 1.664,-1.311 2.904,-1.311 1.239,0 2.372,0.566 2.904,1.311 0.673,0.955 0.885,1.664 0.885,4.285"
       id="path18"
       inkscape:connector-curvature="0" /><path
       style="fill:#0099b0;fill-rule:evenodd"
       d="m 49.469,144.806 v -2.975 c 0,-4.641 -3.435,-7.58 -7.401,-7.58 -3.472,0 -7.402,2.268 -7.402,9.244 0,7.365 4.285,9.137 7.968,9.137 2.409,0 4.71,-0.85 6.481,-2.904 l -2.621,-2.23 c -1.062,1.098 -2.549,1.736 -3.93,1.736 -2.48,0 -4.286,-1.488 -4.286,-4.428 z m -11.191,-2.974 c 0.071,-2.729 1.665,-4.18 3.79,-4.18 2.125,0 3.683,1.451 3.789,4.18 z"
       id="path20"
       inkscape:connector-curvature="0" /><path
       style="fill:#0099b0;fill-rule:evenodd"
       d="m 52.552,152.419 h 3.612 v -10.693 c 0,-2.445 1.523,-3.861 3.577,-3.861 2.019,0 3.542,1.416 3.542,3.861 v 10.693 h 3.612 v -11.934 c 0,-4.074 -3.187,-6.234 -5.985,-6.234 -1.912,0 -3.542,0.709 -4.674,2.125 h -0.072 v -1.912 h -3.612 z"
       id="path22"
       inkscape:connector-curvature="0" /><path
       style="fill:#0099b0;fill-rule:evenodd"
       d="m 76.662,149.41 c 2.302,2.16 4.994,3.223 7.898,3.223 4.179,0 7.437,-2.018 7.437,-5.525 0,-2.867 -1.486,-5.135 -5.206,-5.383 l -2.975,-0.211 c -1.806,-0.143 -2.372,-0.922 -2.372,-1.701 0,-1.238 0.779,-2.16 3.08,-2.16 1.949,0 3.402,0.674 4.818,1.664 l 2.23,-2.619 c -1.771,-1.488 -3.895,-2.445 -7.049,-2.445 -3.789,0 -6.693,1.877 -6.693,5.525 0,3.08 2.196,4.852 5.17,5.1 l 3.188,0.283 c 1.241,0.105 2.196,0.496 2.196,1.771 0,1.523 -1.489,2.301 -3.542,2.301 -2.408,0 -4.108,-0.777 -5.666,-2.301 z"
       id="path24"
       inkscape:connector-curvature="0" /><path
       style="fill:#0099b0;fill-rule:evenodd"
       d="m 94.051,143.425 c 0,3.895 0.568,5.383 1.949,6.906 0.992,1.098 2.656,2.301 5.453,2.301 2.799,0 4.463,-1.203 5.455,-2.301 1.381,-1.523 1.947,-3.012 1.947,-6.906 0,-3.861 -0.566,-5.348 -1.947,-6.871 -0.992,-1.098 -2.656,-2.303 -5.455,-2.303 -2.797,0 -4.461,1.205 -5.453,2.303 -1.381,1.524 -1.949,3.01 -1.949,6.871 m 11.191,0.035 c 0,2.586 -0.211,3.293 -0.885,4.25 -0.531,0.744 -1.664,1.311 -2.904,1.311 -1.238,0 -2.373,-0.566 -2.902,-1.311 -0.674,-0.957 -0.887,-1.664 -0.887,-4.285 0,-2.586 0.213,-3.295 0.887,-4.25 0.529,-0.744 1.664,-1.311 2.902,-1.311 1.24,0 2.373,0.566 2.904,1.311 0.674,0.955 0.885,1.664 0.885,4.285"
       id="path26"
       inkscape:connector-curvature="0" /><path
       style="fill:#0099b0;fill-rule:evenodd"
       d="m 111.939,146.4 c 0,4.072 3.188,6.232 6.021,6.232 1.875,0 3.506,-0.709 4.639,-2.125 h 0.07 v 1.914 h 3.611 v -17.957 h -3.611 v 10.695 c 0,2.443 -1.523,3.861 -3.543,3.861 -2.053,0 -3.576,-1.418 -3.576,-3.861 v -10.695 h -3.611 z"
       id="path28"
       inkscape:connector-curvature="0" /><path
       style="fill:#0099b0;fill-rule:evenodd"
       d="m 130.242,152.419 h 3.613 v -10.801 c 0,-2.621 1.734,-3.754 3.506,-3.754 0.922,0 1.523,0.248 2.373,0.885 l 2.621,-3.117 c -1.1,-0.85 -2.301,-1.381 -3.754,-1.381 -1.912,0 -3.543,0.709 -4.676,2.125 h -0.07 v -1.912 h -3.613 z"
       id="path30"
       inkscape:connector-curvature="0" /><path
       style="fill:#0099b0;fill-rule:evenodd"
       d="m 153.859,147.144 c -0.885,1.098 -2.16,1.877 -3.646,1.877 -2.939,0 -4.676,-1.666 -4.676,-5.563 0,-3.93 1.736,-5.594 4.676,-5.594 1.486,0 2.762,0.779 3.646,1.877 l 2.656,-2.373 c -1.557,-1.807 -3.719,-3.117 -6.445,-3.117 -4.143,0 -8.145,2.621 -8.145,9.207 0,6.555 4.002,9.174 8.145,9.174 2.727,0 4.889,-1.311 6.445,-3.115 z"
       id="path32"
       inkscape:connector-curvature="0" /><path
       style="fill:#0099b0;fill-rule:evenodd"
       d="m 172.238,144.806 v -2.975 c 0,-4.641 -3.438,-7.58 -7.402,-7.58 -3.473,0 -7.402,2.268 -7.402,9.244 0,7.365 4.285,9.137 7.969,9.137 2.408,0 4.711,-0.85 6.48,-2.904 l -2.621,-2.23 c -1.063,1.098 -2.549,1.736 -3.93,1.736 -2.48,0 -4.285,-1.488 -4.285,-4.428 z m -11.191,-2.974 c 0.07,-2.729 1.664,-4.18 3.789,-4.18 2.125,0 3.682,1.451 3.789,4.18 z"
       id="path34"
       inkscape:connector-curvature="0" /><path
       style="fill:#0099b0"
       d="m 25.041,149.021 c 3.4,0 3.577,-2.799 3.577,-5.561 0,-2.799 -0.177,-5.596 -3.577,-5.596 -3.364,0 -3.542,2.975 -3.542,5.596 0,2.586 0.177,5.561 3.542,5.561 m -7.168,31.76 v -46.316 h 3.626 v 1.877 c 1.134,-1.24 2.798,-2.09 4.64,-2.09 2.195,0 3.79,0.992 4.817,2.338 0.991,1.275 1.274,2.443 1.274,6.871 0,4.391 -0.283,5.561 -1.274,6.834 -1.027,1.346 -2.622,2.338 -4.817,2.338 -1.842,0 -3.294,-0.85 -4.64,-2.125 l -0.013,14.23 c 1.204,-1.416 2.833,-2.125 4.745,-2.125 2.798,0 5.985,2.16 5.985,6.232 v 11.936 h -3.612 v -10.695 c 0,-2.445 -1.523,-3.861 -3.542,-3.861 -2.054,0 -3.576,1.416 -3.576,3.861 v 10.695 z"
       id="path36"
       inkscape:connector-curvature="0" /></g><g
     inkscape:groupmode="layer"
     id="layer1"
     inkscape:label="Main logo"
     style="display:inline"><path
       style="fill:#0099b0"
       d="m 152.336,57.604 -16.439,-3.057 c -0.4,-0.075 -0.838,-0.451 -0.973,-0.837 l -5.039,-11.756 c -0.188,-0.363 -0.152,-0.933 0.08,-1.271 l 9.578,-13.96 c 0.229,-0.336 0.184,-0.847 -0.105,-1.136 L 127.475,13.624 c -0.289,-0.289 -0.799,-0.336 -1.135,-0.105 l -14.205,9.748 c -0.336,0.231 -0.912,0.272 -1.277,0.092 L 99.462,18.694 c -0.387,-0.128 -0.764,-0.561 -0.84,-0.962 L 95.457,0.729 C 95.383,0.328 94.988,0 94.58,0 H 77.66 C 77.253,0 76.858,0.328 76.784,0.729 L 73.62,17.732 c -0.076,0.401 -0.452,0.834 -0.84,0.962 l -11.397,4.665 c -0.366,0.18 -0.942,0.139 -1.277,-0.092 L 45.902,13.519 c -0.337,-0.231 -0.848,-0.184 -1.136,0.105 L 32.802,25.587 c -0.288,0.289 -0.336,0.8 -0.105,1.136 l 9.579,13.96 c 0.23,0.338 0.266,0.908 0.079,1.271 l -5.04,11.756 c -0.134,0.386 -0.571,0.762 -0.973,0.837 l -16.438,3.057 c -0.402,0.076 -0.729,0.47 -0.729,0.878 l 10e-4,16.919 c 0,0.408 0.328,0.805 0.729,0.878 l 16.035,2.984 c 0.401,0.073 0.83,0.454 0.952,0.843 l 5.006,12.505 c 0.179,0.367 0.137,0.941 -0.095,1.277 l -9.108,13.273 c -0.23,0.336 -0.183,0.848 0.105,1.137 l 11.965,11.963 c 0.288,0.287 0.799,0.334 1.136,0.105 l 13.038,-8.949 c 0.336,-0.23 0.899,-0.248 1.25,-0.043 l 5.75,3.07 c 0.364,0.186 0.789,0.029 0.945,-0.348 L 78.74,85.449 c 0.157,-0.377 0,-0.858 -0.348,-1.071 l -1.439,-0.881 c -0.266,-0.162 -0.627,-0.441 -0.91,-0.697 -5.191,-3.324 -8.635,-9.139 -8.635,-15.761 0,-10.334 8.378,-18.711 18.711,-18.711 10.333,0 18.71,8.377 18.71,18.711 0,6.622 -3.443,12.437 -8.635,15.761 -0.281,0.256 -0.643,0.535 -0.908,0.697 l -1.439,0.881 c -0.346,0.213 -0.504,0.694 -0.348,1.071 l 11.855,28.648 c 0.156,0.377 0.58,0.533 0.945,0.348 l 5.75,-3.07 c 0.352,-0.205 0.914,-0.188 1.25,0.043 l 13.039,8.949 c 0.336,0.229 0.848,0.182 1.135,-0.105 l 11.965,-11.963 c 0.289,-0.289 0.336,-0.801 0.105,-1.137 l -9.109,-13.273 c -0.23,-0.336 -0.273,-0.91 -0.094,-1.277 l 5.006,-12.505 c 0.123,-0.389 0.549,-0.77 0.951,-0.843 l 16.035,-2.984 c 0.4,-0.073 0.729,-0.47 0.729,-0.878 l 0.002,-16.919 c 0.001,-0.409 -0.327,-0.803 -0.727,-0.879"
       id="path2"
       inkscape:connector-curvature="0" /></g><g
     inkscape:groupmode="layer"
     id="layer6"
     inkscape:label="openSchematic"
     style="display:inline"><g
       aria-label="S"
       style="font-style:normal;font-variant:normal;font-weight:normal;font-stretch:normal;font-size:13.33333302px;line-height:1.25;font-family:'Alte DIN 1451 Mittelschrift';-inkscape-font-specification:'Alte DIN 1451 Mittelschrift';font-variant-ligatures:normal;font-variant-caps:normal;font-variant-numeric:normal;font-feature-settings:normal;text-align:start;letter-spacing:0px;word-spacing:0px;writing-mode:lr-tb;text-anchor:start;display:inline;fill:#000000;fill-opacity:1;stroke:none"
       id="text902-0"><path
         d="m 41.055194,111.72207 1.520833,-1.72916 q 0.854167,0.6875 1.96875,1.10416 1.114583,0.41667 2.333333,0.41667 1.40625,0 2.208334,-0.58333 0.802083,-0.58334 0.802083,-1.53125 0,-1.79167 -1.979167,-2.05209 -0.520833,-0.0625 -0.96875,-0.125 -0.447916,-0.0625 -1.041666,-0.14583 -1.96875,-0.27083 -3,-1.4375 -1.03125,-1.17708 -1.03125,-2.83333 0,-1.9375 1.291666,-3.187503 1.302084,-1.25 3.65625,-1.25 1.40625,0 2.645834,0.447916 1.239583,0.447917 2.28125,1.135417 l -1.28125,1.89583 q -0.833333,-0.52083 -1.791667,-0.84375 -0.958333,-0.32291 -1.958333,-0.32291 -1.0625,0 -1.802084,0.54166 -0.739583,0.54167 -0.739583,1.625 0,0.64584 0.5,1.20834 0.5,0.5625 1.65625,0.73958 0.302083,0.0521 0.729167,0.11458 0.427083,0.0521 0.979166,0.11459 2.125001,0.26041 3.135417,1.54166 1.020834,1.28125 1.020834,2.83334 0,2.09375 -1.447917,3.25 -1.447917,1.15625 -3.885417,1.15625 -3.427083,0 -5.802083,-2.08334 z"
         style="font-size:21.33333397px;fill:#ffffff;fill-opacity:1"
         id="path869"
         inkscape:connector-curvature="0" /></g></g><g
     inkscape:groupmode="layer"
     id="layer4"
     inkscape:label="openPCB"
     style="display:inline"><g
       aria-label="P"
       style="font-style:normal;font-variant:normal;font-weight:normal;font-stretch:normal;font-size:13.33333302px;line-height:1.25;font-family:'Alte DIN 1451 Mittelschrift';-inkscape-font-specification:'Alte DIN 1451 Mittelschrift';font-variant-ligatures:normal;font-variant-caps:normal;font-variant-numeric:normal;font-feature-settings:normal;text-align:start;letter-spacing:0px;word-spacing:0px;writing-mode:lr-tb;text-anchor:start;fill:#000000;fill-opacity:1;stroke:none"
       id="text902"><path
         d="m 27.506583,61.443049 v 4.895833 h 3.416667 q 1.28125,0 1.90625,-0.770833 0.635417,-0.770834 0.635417,-1.677084 0,-1.375 -0.989584,-2.020833 -0.635417,-0.427083 -1.635417,-0.427083 z m -2.302083,13 V 59.265965 h 5.510416 q 0.885417,0 1.697917,0.1875 0.822917,0.1875 1.708334,0.875 0.6875,0.53125 1.166666,1.46875 0.479167,0.927084 0.479167,2.15625 0,1.625001 -1.21875,3.093751 -1.208333,1.46875 -3.541667,1.46875 h -3.5 v 5.927083 z"
         style="font-size:21.33333397px;fill:#ffffff;fill-opacity:1"
         id="path872"
         inkscape:connector-curvature="0" /></g></g><g
     inkscape:groupmode="layer"
     id="layer5"
     inkscape:label="openFW/SW"
     style="display:inline"><g
       aria-label="F"
       style="font-style:normal;font-variant:normal;font-weight:normal;font-stretch:normal;font-size:13.33333302px;line-height:1.25;font-family:'Alte DIN 1451 Mittelschrift';-inkscape-font-specification:'Alte DIN 1451 Mittelschrift';font-variant-ligatures:normal;font-variant-caps:normal;font-variant-numeric:normal;font-feature-settings:normal;text-align:start;letter-spacing:0px;word-spacing:0px;writing-mode:lr-tb;text-anchor:start;display:inline;fill:#000000;fill-opacity:1;stroke:none"
       id="text902-9"><path
         d="M 42.71203,36.197097 V 21.020013 h 9.708333 v 2.177083 h -7.40625 v 4.46875 h 6.3125 v 2.052084 h -6.3125 v 6.479167 z"
         style="font-size:21.33333397px;fill:#ffffff;fill-opacity:1"
         id="path875"
         inkscape:connector-curvature="0" /></g></g><g
     inkscape:groupmode="layer"
     id="layer7"
     inkscape:label="openMechCAD"
     style="display:inline"><g
       aria-label="M"
       style="font-style:normal;font-variant:normal;font-weight:normal;font-stretch:normal;font-size:13.33333302px;line-height:1.25;font-family:'Alte DIN 1451 Mittelschrift';-inkscape-font-specification:'Alte DIN 1451 Mittelschrift';font-variant-ligatures:normal;font-variant-caps:normal;font-variant-numeric:normal;font-feature-settings:normal;text-align:start;letter-spacing:0px;word-spacing:0px;writing-mode:lr-tb;text-anchor:start;display:inline;fill:#000000;fill-opacity:1;stroke:none"
       id="text902-9-3"><path
         d="M 79.473012,19.114743 V 3.9376591 h 2.177084 l 4.354167,9.8958339 4.260416,-9.8958339 h 2.177084 V 19.114743 H 90.139679 V 9.6459926 h -0.04167 l -3.17708,7.3020834 H 85.004263 L 81.827179,9.6459926 h -0.05208 v 9.4687504 z"
         style="font-size:21.33333397px;fill:#ffffff;fill-opacity:1"
         id="path878"
         inkscape:connector-curvature="0" /></g></g><g
     inkscape:groupmode="layer"
     id="layer8"
     inkscape:label="openDesignDoc"
     style="display:inline"><g
       aria-label="D"
       style="font-style:normal;font-variant:normal;font-weight:normal;font-stretch:normal;font-size:13.33333302px;line-height:1.25;font-family:'Alte DIN 1451 Mittelschrift';-inkscape-font-specification:'Alte DIN 1451 Mittelschrift';font-variant-ligatures:normal;font-variant-caps:normal;font-variant-numeric:normal;font-feature-settings:normal;text-align:start;letter-spacing:0px;word-spacing:0px;writing-mode:lr-tb;text-anchor:start;display:inline;fill:#000000;fill-opacity:1;stroke:none"
       id="text902-9-3-8"><path
         d="M 119.55317,35.972468 V 20.795384 h 5.3125 q 3.11458,0 4.625,2.552084 0.5625,0.96875 0.6875,1.8125 0.125,0.84375 0.125,3.229166 0,2.562501 -0.17709,3.427084 -0.16666,0.854167 -0.67708,1.645833 -0.67708,1.0625 -1.86458,1.791667 -1.17709,0.71875 -2.86459,0.71875 z m 2.30208,-13 v 10.833333 h 2.76042 q 1.89583,0 2.8125,-1.322916 0.375,-0.572917 0.46875,-1.229167 0.10416,-0.666667 0.10416,-2.78125 0,-2.041667 -0.11458,-2.822917 -0.10417,-0.78125 -0.5625,-1.40625 -0.94792,-1.270833 -2.70833,-1.270833 z"
         style="font-size:21.33333397px;fill:#ffffff;fill-opacity:1"
         id="path881"
         inkscape:connector-curvature="0" /></g></g><g
     inkscape:groupmode="layer"
     id="layer9"
     inkscape:label="openBOM"
     style="display:inline"><g
       aria-label="B"
       style="font-style:normal;font-variant:normal;font-weight:normal;font-stretch:normal;font-size:13.33333302px;line-height:1.25;font-family:'Alte DIN 1451 Mittelschrift';-inkscape-font-specification:'Alte DIN 1451 Mittelschrift';font-variant-ligatures:normal;font-variant-caps:normal;font-variant-numeric:normal;font-feature-settings:normal;text-align:start;letter-spacing:0px;word-spacing:0px;writing-mode:lr-tb;text-anchor:start;display:inline;fill:#000000;fill-opacity:1;stroke:none"
       id="text902-9-3-8-9"><path
         d="M 135.93068,74.502642 V 59.325559 h 5.88542 q 2.21875,0 3.35417,1.145833 1.14583,1.135417 1.14583,2.927083 0,0.9375 -0.45833,1.802084 -0.45834,0.864583 -1.78125,1.458333 v 0.04167 q 1.25,0.291666 1.86458,1.322916 0.61458,1.020834 0.61458,2.177084 0,1.96875 -1.26041,3.135417 -1.25,1.166666 -2.95834,1.166666 z m 5.84375,-6.739583 h -3.54166 v 4.572917 h 3.54166 q 1.28125,0 1.875,-0.6875 0.60417,-0.697917 0.60417,-1.59375 0,-0.895834 -0.60417,-1.593751 -0.59375,-0.697916 -1.875,-0.697916 z m -0.20833,-6.395834 h -3.33333 v 4.354167 h 3.33333 q 1.23958,0 1.84375,-0.635417 0.60417,-0.635416 0.60417,-1.541666 0,-0.875 -0.60417,-1.520834 -0.60417,-0.65625 -1.84375,-0.65625 z"
         style="font-size:21.33333397px;fill:#ffffff;fill-opacity:1"
         id="path884"
         inkscape:connector-curvature="0" /></g></g><g
     inkscape:groupmode="layer"
     id="layer10"
     inkscape:label="commercial use allowed"
     style="display:inline"><g
       aria-label="C"
       style="font-style:normal;font-variant:normal;font-weight:normal;font-stretch:normal;font-size:13.33333302px;line-height:1.25;font-family:'Alte DIN 1451 Mittelschrift';-inkscape-font-specification:'Alte DIN 1451 Mittelschrift';font-variant-ligatures:normal;font-variant-caps:normal;font-variant-numeric:normal;font-feature-settings:normal;text-align:start;letter-spacing:0px;word-spacing:0px;writing-mode:lr-tb;text-anchor:start;display:inline;fill:#000000;fill-opacity:1;stroke:none"
       id="text902-9-3-8-9-5"><path
         d="m 128.31289,108.96368 h 2.42709 q -0.44792,2.125 -1.91667,3.25 -1.46875,1.11458 -3.41667,1.11458 -1.79166,0 -3.01041,-0.85416 -1.20834,-0.86459 -1.73959,-1.86459 -0.375,-0.66666 -0.52083,-1.45833 -0.14583,-0.79167 -0.14583,-3.53125 0,-2.73958 0.14583,-3.53125 0.14583,-0.79167 0.52083,-1.45833 0.53125,-0.989586 1.73959,-1.864586 1.21875,-0.875 3.01041,-0.875 2.15625,0 3.5625,1.333334 1.41667,1.322912 1.77084,3.166662 h -2.42709 q -0.28125,-0.875 -1.05208,-1.53125 -0.76042,-0.65625 -1.85417,-0.65625 -0.8125,0 -1.40625,0.33334 -0.59375,0.33333 -0.9375,0.77083 -0.44791,0.58333 -0.61458,1.28125 -0.15625,0.69792 -0.15625,3.03125 0,2.34375 0.15625,3.04167 0.16667,0.69791 0.61458,1.26041 0.34375,0.45834 0.9375,0.79167 0.59375,0.32292 1.40625,0.32292 1.91667,0 2.90625,-2.07292 z"
         style="font-size:21.33333397px;fill:#ffffff;fill-opacity:1"
         id="path887"
         inkscape:connector-curvature="0" /></g></g><g
     inkscape:groupmode="layer"
     id="layer17"
     inkscape:label="Gear only"
     style="display:none"><path
       style="opacity:1;fill:#808080;fill-opacity:1;stroke:none;stroke-width:2.30077124;stroke-linecap:round;stroke-linejoin:bevel;stroke-miterlimit:4;stroke-dasharray:none;stroke-dashoffset:0;stroke-opacity:1"
       d="m 38.827715,114.13143 c -4.575976,-4.57755 -6.273426,-6.39276 -6.187482,-6.61672 0.06514,-0.16975 2.179178,-3.30703 4.697865,-6.97172 2.518687,-3.6647 4.638023,-6.847694 4.709634,-7.073323 0.09191,-0.28957 -0.609267,-2.259662 -2.383829,-6.697873 -1.382719,-3.458201 -2.637406,-6.526214 -2.788194,-6.817806 -0.178747,-0.345658 -0.523996,-0.601792 -0.992035,-0.735973 -0.394831,-0.113192 -4.197749,-0.849201 -8.45093,-1.635576 -4.253181,-0.786376 -7.812186,-1.478678 -7.908901,-1.538452 -0.240482,-0.148626 -0.233535,-18.050468 0.0071,-18.199167 0.100599,-0.06217 3.875302,-0.800793 8.388228,-1.641378 4.512927,-0.840585 8.43689,-1.622565 8.719919,-1.737732 0.561971,-0.228674 0.61774,-0.344412 4.063836,-8.43373 1.014503,-2.381432 1.844553,-4.504421 1.844553,-4.717749 0,-0.213327 -2.20681,-3.603001 -4.904023,-7.532609 -2.697213,-3.92961 -4.952982,-7.272329 -5.012821,-7.428266 -0.123625,-0.322164 12.322862,-12.899699 12.765292,-12.899699 0.144243,0 3.515757,2.232542 7.492253,4.961205 3.976495,2.728662 7.413807,5.019546 7.638468,5.090851 0.288476,0.09156 2.164962,-0.588626 6.387546,-2.315347 3.288489,-1.344745 6.143684,-2.578712 6.344879,-2.742147 0.298052,-0.242114 0.668669,-1.930772 2.000902,-9.1167772 1.199505,-6.4700832 1.717773,-8.88346888 1.945457,-9.05928635 0.237808,-0.18363378 2.340255,-0.23966366 8.993059,-0.23966366 h 8.682691 l 0.270227,0.43139459 c 0.148626,0.23726703 0.978779,4.27080642 1.844787,8.96342092 1.336948,7.2444967 1.636803,8.5929787 1.98703,8.9359367 0.22686,0.22215 2.698864,1.338036 5.493344,2.479746 7.06872,2.887989 6.81101,2.79763 7.37137,2.584581 0.26371,-0.100264 3.63827,-2.352267 7.49901,-5.004451 3.86074,-2.652184 7.19348,-4.867643 7.4061,-4.923243 0.3081,-0.08057 1.64752,1.159417 6.59842,6.108561 4.09509,4.093634 6.20976,6.340697 6.20571,6.594219 -0.003,0.211512 -1.60889,2.714099 -3.56779,5.561304 -6.01692,8.745399 -6.25227,9.106388 -6.25227,9.589826 0,0.771879 5.22137,12.737716 5.68401,13.026073 0.2219,0.138305 4.0703,0.921542 8.55201,1.740522 4.48171,0.818983 8.34269,1.607489 8.57996,1.752239 l 0.4314,0.263183 v 8.791726 c 0,7.391822 -0.0437,8.827976 -0.27432,9.019389 -0.15088,0.125216 -3.96872,0.918566 -8.48409,1.763 -5.24002,0.979952 -8.32686,1.641188 -8.53343,1.827957 -0.37915,0.342786 -5.52414,13.100781 -5.52414,13.698147 0,0.222868 2.08349,3.436635 4.62999,7.141707 2.5465,3.70507 4.67216,6.93986 4.72369,7.18843 0.0797,0.38472 -0.82984,1.37581 -6.1148,6.66265 -3.41468,3.41589 -6.3434,6.21071 -6.50828,6.21071 -0.16488,0 -3.31456,-2.07009 -6.99929,-4.60019 -4.91378,-3.37402 -6.84636,-4.60054 -7.25046,-4.60154 -0.32869,-7.7e-4 -1.7707,0.6568 -3.57459,1.63015 -1.663,0.89733 -3.14065,1.58656 -3.28366,1.53162 -0.31604,-0.12141 -12.127863,-28.564224 -12.139273,-29.231321 -0.0064,-0.371783 0.266874,-0.659332 1.285763,-1.353114 4.195958,-2.857119 6.37106,-5.173395 8.00844,-8.528244 1.46162,-2.994727 1.80863,-4.57201 1.8138,-8.24443 0.004,-2.621686 -0.0604,-3.304637 -0.44058,-4.697407 -1.91976,-7.032217 -7.390431,-12.207503 -14.510117,-13.726644 -1.811712,-0.386568 -5.54247,-0.375722 -7.466543,0.0217 -3.552957,0.733883 -6.50503,2.300083 -9.183365,4.872161 -3.84022,3.68787 -5.765729,8.206379 -5.765729,13.530185 0,6.664449 2.905638,11.867848 8.994472,16.107247 1.159972,0.807639 2.173799,1.583015 2.252947,1.723053 0.149832,0.265099 -11.580059,28.918904 -12.038892,29.408634 -0.208866,0.22293 -0.743565,0.003 -3.37758,-1.39005 -1.721188,-0.9102 -3.363518,-1.65491 -3.649623,-1.65491 -0.365175,0 -2.517151,1.37126 -7.221381,4.60154 -3.685655,2.53085 -6.817875,4.60155 -6.96049,4.60155 -0.142615,0 -3.096963,-2.83864 -6.565216,-6.30809 z"
       id="path2427"
       inkscape:connector-curvature="0" /></g><g
     inkscape:groupmode="layer"
     id="layer18"
     inkscape:label="Gear with specifiers"
     style="display:none"><path
       style="opacity:1;fill:#808080;fill-opacity:1;stroke:none;stroke-width:2.30077124;stroke-linecap:round;stroke-linejoin:bevel;stroke-miterlimit:4;stroke-dasharray:none;stroke-dashoffset:0;stroke-opacity:1"
       d="m 38.827715,114.13143 c -4.575976,-4.57755 -6.273426,-6.39276 -6.187482,-6.61672 0.06514,-0.16975 2.179178,-3.30703 4.697865,-6.97172 2.518687,-3.6647 4.638023,-6.847694 4.709634,-7.073323 0.09191,-0.28957 -0.609267,-2.259662 -2.383829,-6.697873 -1.382719,-3.458201 -2.637406,-6.526214 -2.788194,-6.817806 -0.178747,-0.345658 -0.523996,-0.601792 -0.992035,-0.735973 -0.394831,-0.113192 -4.197749,-0.849201 -8.45093,-1.635576 -4.253181,-0.786376 -7.812186,-1.478678 -7.908901,-1.538452 -0.240482,-0.148626 -0.233535,-18.050468 0.0071,-18.199167 0.100599,-0.06217 3.875302,-0.800793 8.388228,-1.641378 4.512927,-0.840585 8.43689,-1.622565 8.719919,-1.737732 0.561971,-0.228674 0.61774,-0.344412 4.063836,-8.43373 1.014503,-2.381432 1.844553,-4.504421 1.844553,-4.717749 0,-0.213327 -2.20681,-3.603001 -4.904023,-7.532609 -2.697213,-3.92961 -4.952982,-7.272329 -5.012821,-7.428266 -0.123625,-0.322164 12.322862,-12.899699 12.765292,-12.899699 0.144243,0 3.515757,2.232542 7.492253,4.961205 3.976495,2.728662 7.413807,5.019546 7.638468,5.090851 0.288476,0.09156 2.164962,-0.588626 6.387546,-2.315347 3.288489,-1.344745 6.143684,-2.578712 6.344879,-2.742147 0.298052,-0.242114 0.668669,-1.930772 2.000902,-9.1167772 1.199505,-6.4700832 1.717773,-8.88346888 1.945457,-9.05928635 0.237808,-0.18363378 2.340255,-0.23966366 8.993059,-0.23966366 h 8.682691 l 0.270227,0.43139459 c 0.148626,0.23726703 0.978779,4.27080642 1.844787,8.96342092 1.336948,7.2444967 1.636803,8.5929787 1.98703,8.9359367 0.22686,0.22215 2.698864,1.338036 5.493344,2.479746 7.06872,2.887989 6.81101,2.79763 7.37137,2.584581 0.26371,-0.100264 3.63827,-2.352267 7.49901,-5.004451 3.86074,-2.652184 7.19348,-4.867643 7.4061,-4.923243 0.3081,-0.08057 1.64752,1.159417 6.59842,6.108561 4.09509,4.093634 6.20976,6.340697 6.20571,6.594219 -0.003,0.211512 -1.60889,2.714099 -3.56779,5.561304 -6.01692,8.745399 -6.25227,9.106388 -6.25227,9.589826 0,0.771879 5.22137,12.737716 5.68401,13.026073 0.2219,0.138305 4.0703,0.921542 8.55201,1.740522 4.48171,0.818983 8.34269,1.607489 8.57996,1.752239 l 0.4314,0.263183 v 8.791726 c 0,7.391822 -0.0437,8.827976 -0.27432,9.019389 -0.15088,0.125216 -3.96872,0.918566 -8.48409,1.763 -5.24002,0.979952 -8.32686,1.641188 -8.53343,1.827957 -0.37915,0.342786 -5.52414,13.100781 -5.52414,13.698147 0,0.222868 2.08349,3.436635 4.62999,7.141707 2.5465,3.70507 4.67216,6.93986 4.72369,7.18843 0.0797,0.38472 -0.82984,1.37581 -6.1148,6.66265 -3.41468,3.41589 -6.3434,6.21071 -6.50828,6.21071 -0.16488,0 -3.31456,-2.07009 -6.99929,-4.60019 -4.91378,-3.37402 -6.84636,-4.60054 -7.25046,-4.60154 -0.32869,-7.7e-4 -1.7707,0.6568 -3.57459,1.63015 -1.663,0.89733 -3.14065,1.58656 -3.28366,1.53162 -0.31604,-0.12141 -12.127863,-28.564224 -12.139273,-29.231321 -0.0064,-0.371783 0.266874,-0.659332 1.285763,-1.353114 4.195958,-2.857119 6.37106,-5.173395 8.00844,-8.528244 1.46162,-2.994727 1.80863,-4.57201 1.8138,-8.24443 0.004,-2.621686 -0.0604,-3.304637 -0.44058,-4.697407 -1.91976,-7.032217 -7.390431,-12.207503 -14.510117,-13.726644 -1.811712,-0.386568 -5.54247,-0.375722 -7.466543,0.0217 -3.552957,0.733883 -6.50503,2.300083 -9.183365,4.872161 -3.84022,3.68787 -5.765729,8.206379 -5.765729,13.530185 0,6.664449 2.905638,11.867848 8.994472,16.107247 1.159972,0.807639 2.173799,1.583015 2.252947,1.723053 0.149832,0.265099 -11.580059,28.918904 -12.038892,29.408634 -0.208866,0.22293 -0.743565,0.003 -3.37758,-1.39005 -1.721188,-0.9102 -3.363518,-1.65491 -3.649623,-1.65491 -0.365175,0 -2.517151,1.37126 -7.221381,4.60154 -3.685655,2.53085 -6.817875,4.60155 -6.96049,4.60155 -0.142615,0 -3.096963,-2.83864 -6.565216,-6.30809 z m 10.492906,-0.62285 c 0.403512,-0.13005 1.114937,-0.57207 1.580948,-0.98226 1.616507,-1.42291 1.816666,-3.8317 0.479851,-5.7747 -0.736714,-1.07078 -1.778609,-1.58258 -3.757061,-1.84556 -0.841442,-0.11184 -1.770087,-0.29797 -2.063654,-0.4136 -1.25754,-0.49534 -1.701248,-2.06298 -0.830398,-2.93383 0.962679,-0.96268 2.822133,-1.00191 4.855549,-0.10243 0.479214,0.21198 0.899324,0.38542 0.93358,0.38542 0.114343,0 1.231089,-1.69626 1.231089,-1.869941 0,-0.199471 -1.287939,-0.867748 -2.506699,-1.300657 -1.243238,-0.441604 -3.759685,-0.411186 -4.809788,0.05814 -1.519764,0.679231 -2.400628,1.868308 -2.594084,3.501738 -0.224197,1.89299 0.832568,3.83709 2.434074,4.47789 0.42718,0.17092 1.615484,0.43608 2.640679,0.58925 1.665868,0.24888 1.92003,0.34085 2.391249,0.86521 1.291099,1.43672 -0.04839,3.26491 -2.392156,3.26491 -1.071941,0 -2.975073,-0.56927 -3.751572,-1.12219 l -0.570772,-0.40643 -0.805881,0.87428 c -0.750761,0.81448 -0.784764,0.89762 -0.49712,1.21546 0.520557,0.57521 2.155117,1.36605 3.416181,1.65282 1.328141,0.30203 3.455444,0.2405 4.615985,-0.13352 z m 78.451219,-0.61422 c 1.08181,-0.50485 2.24477,-1.69025 2.67987,-2.73159 0.48022,-1.14933 0.42585,-1.22711 -0.85781,-1.22711 -1.12871,0 -1.16671,0.0176 -2.0738,0.95865 -0.91073,0.94487 -0.94086,0.95866 -2.09494,0.95866 -0.98346,0 -1.26647,-0.0804 -1.76771,-0.50217 -1.10719,-0.93164 -1.22886,-1.39245 -1.23417,-4.67457 -0.004,-2.49817 0.0512,-3.08702 0.34681,-3.69459 1.00247,-2.060622 3.83438,-2.218785 5.0818,-0.28382 0.45537,0.70634 0.48488,0.71899 1.67765,0.71899 1.39513,0 1.4453,-0.0876 0.81654,-1.42521 -0.49598,-1.055148 -1.48789,-2.090562 -2.5371,-2.648382 -1.14611,-0.609335 -3.71383,-0.613533 -4.852,-0.0079 -1.06098,0.564529 -2.43999,2.135352 -2.73292,3.113052 -0.28666,0.95681 -0.31889,7.27099 -0.0419,8.21312 0.43108,1.46631 1.78862,2.89641 3.24228,3.41557 1.17889,0.42103 3.23928,0.33446 4.34742,-0.18266 z m 15.76572,-38.501296 c 1.1538,-0.290528 2.61252,-1.669612 2.90783,-2.74907 0.5392,-1.971 -0.0648,-3.771185 -1.57826,-4.704161 l -0.54394,-0.335312 0.61012,-0.356227 c 0.61818,-0.360929 1.17753,-1.247196 1.41832,-2.247282 0.22414,-0.930944 -0.21712,-2.484424 -0.94835,-3.338693 -1.02944,-1.202672 -1.81525,-1.38497 -5.97001,-1.38497 h -3.51287 v 7.669237 7.669237 h 3.36626 c 1.92131,0 3.74598,-0.09562 4.2509,-0.222759 z M 27.592428,71.574014 v -2.850078 l 2.376152,-0.09154 c 2.009718,-0.07742 2.519539,-0.162722 3.305948,-0.553143 3.194748,-1.586073 3.405903,-6.246099 0.368194,-8.125778 l -0.937748,-0.580262 -3.802524,-0.05911 -3.802524,-0.05911 v 7.584546 7.584547 h 1.246251 1.246251 z M 45.039943,33.010212 v -3.259426 h 3.16356 3.16356 v -1.05452 -1.05452 h -3.16356 -3.16356 V 25.43684 23.231934 h 3.738753 3.738753 v -1.150385 -1.150386 h -4.985004 -4.985004 v 7.669237 7.669237 h 1.246251 1.246251 z m 82.077977,2.564382 c 1.06023,-0.489838 2.1263,-1.518074 2.71373,-2.617408 0.40662,-0.760982 0.43269,-1.034996 0.43269,-4.548517 0,-3.556098 -0.0221,-3.780903 -0.45206,-4.601542 -0.58196,-1.110699 -1.45834,-2.035268 -2.4239,-2.557194 -0.69359,-0.374911 -1.11068,-0.420566 -4.36188,-0.477464 l -3.59496,-0.06291 v 7.699703 7.699703 l 3.40323,-0.06392 c 2.9797,-0.05596 3.51272,-0.114506 4.28315,-0.470451 z m -45.221177,-20.915233 0.0514,-4.546224 1.511275,3.491704 1.511274,3.491703 h 0.995134 0.995135 l 1.562678,-3.594954 1.562678,-3.5949554 0.0052,4.6494754 0.0052,4.649475 h 1.246251 1.246251 V 11.536348 3.8671104 h -1.202561 -1.20256 L 88.098016,8.7530581 86.011941,13.639006 83.881063,8.8009908 81.750186,3.9629758 80.554982,3.9058943 79.359779,3.8488125 v 7.6783865 7.678386 h 1.242781 1.24278 z"
       id="path2430"
       inkscape:connector-curvature="0" /><path
       style="opacity:1;fill:#808080;fill-opacity:1;stroke:none;stroke-width:2.30077124;stroke-linecap:round;stroke-linejoin:bevel;stroke-miterlimit:4;stroke-dasharray:none;stroke-dashoffset:0;stroke-opacity:1"
       d="m 27.592428,63.862834 v -2.316829 l 2.316953,0.06399 2.316953,0.06399 0.559011,0.626151 c 0.642994,0.72022 0.751057,1.801614 0.27251,2.727023 -0.521965,1.009369 -0.932202,1.152503 -3.303182,1.152503 h -2.162245 z"
       id="path2432"
       inkscape:connector-curvature="0" /><path
       style="opacity:1;fill:#808080;fill-opacity:1;stroke:none;stroke-width:2.30077124;stroke-linecap:round;stroke-linejoin:bevel;stroke-miterlimit:4;stroke-dasharray:none;stroke-dashoffset:0;stroke-opacity:1"
       d="m 121.92405,28.430969 v -5.390766 h 1.68495 c 2.18274,0 3.18623,0.451445 3.83572,1.725579 0.4134,0.810992 0.43642,1.049034 0.38346,3.965077 -0.0509,2.804322 -0.0951,3.154212 -0.45984,3.642888 -0.74106,0.992842 -1.51428,1.290137 -3.57021,1.372714 l -1.87408,0.07527 z"
       id="path2434"
       inkscape:connector-curvature="0" /><path
       style="opacity:1;fill:#808080;fill-opacity:1;stroke:none;stroke-width:2.30077124;stroke-linecap:round;stroke-linejoin:bevel;stroke-miterlimit:4;stroke-dasharray:none;stroke-dashoffset:0;stroke-opacity:1"
       d="m 138.22117,63.495429 v -2.10904 h 1.70162 c 2.17938,0 2.78436,0.128459 3.37187,0.715968 0.67329,0.673285 0.81126,1.609556 0.35286,2.394449 -0.54691,0.936434 -1.05018,1.101662 -3.36524,1.104837 l -2.06111,0.0028 z"
       id="path2436"
       inkscape:connector-curvature="0" /><path
       style="opacity:1;fill:#808080;fill-opacity:1;stroke:none;stroke-width:2.30077124;stroke-linecap:round;stroke-linejoin:bevel;stroke-miterlimit:4;stroke-dasharray:none;stroke-dashoffset:0;stroke-opacity:1"
       d="m 138.22117,70.110146 v -2.204905 h 2.29775 c 2.24225,0 2.31217,0.01288 2.89481,0.53348 0.78756,0.703681 0.9571,1.952111 0.38812,2.857978 -0.49657,0.79059 -1.31861,1.015915 -3.7113,1.017284 l -1.86938,0.0011 z"
       id="path2438"
       inkscape:connector-curvature="0" /></g><g
     inkscape:groupmode="layer"
     id="layer19"
     inkscape:label="Logo text output"
     style="display:none"><path
       style="opacity:1;fill:#808080;fill-opacity:1;stroke:none;stroke-width:3.2537818;stroke-linecap:round;stroke-linejoin:bevel;stroke-miterlimit:4;stroke-dasharray:none;stroke-dashoffset:0;stroke-opacity:1"
       d="m 4.8712572,152.04464 c -1.6281317,-0.56232 -3.0714258,-1.81457 -3.93714211,-3.41599 -0.52673616,-0.97436 -0.58632361,-1.49794 -0.58632361,-5.15182 0,-4.52035 0.19486484,-5.24112 1.88841342,-6.98491 1.4518674,-1.49494 2.6825382,-1.96299 5.1614471,-1.96299 2.5530907,0 3.723781,0.47146 5.335366,2.14864 1.545798,1.60871 1.927785,3.18646 1.799981,7.43459 -0.0859,2.85524 -0.200968,3.61725 -0.684815,4.53499 -0.840093,1.59345 -2.523001,2.9994 -4.1788268,3.49113 -1.8342731,0.54472 -3.0166003,0.52165 -4.7981,-0.0936 z m 4.5492077,-3.45274 c 1.4376701,-0.84925 1.7732661,-1.81729 1.7732661,-5.11507 0,-2.33996 -0.103232,-3.17152 -0.4791,-3.85927 -1.2958537,-2.37112 -5.3381044,-2.37112 -6.6339582,0 -0.3758676,0.68775 -0.4790996,1.51931 -0.4790996,3.85927 0,3.27064 0.3254547,4.23157 1.7279762,5.10201 0.9268139,0.5752 3.1273956,0.58223 4.0909155,0.0131 z"
       id="path2441"
       inkscape:connector-curvature="0" /><path
       style="opacity:1;fill:#808080;fill-opacity:1;stroke:none;stroke-width:3.2537818;stroke-linecap:round;stroke-linejoin:bevel;stroke-miterlimit:4;stroke-dasharray:none;stroke-dashoffset:0;stroke-opacity:1"
       d="m 18.108017,157.71213 v -23.04762 h 1.626891 1.626891 v 0.81344 c 0,0.98005 0.06904,0.99025 1.170472,0.17302 3.196612,-2.37179 7.469396,-1.23434 9.026388,2.40289 0.682662,1.59475 0.668038,9.25192 -0.02086,10.91992 -0.959255,2.32262 -3.837897,3.88043 -6.377667,3.45133 -0.603924,-0.10203 -1.70561,-0.60344 -2.448191,-1.11425 l -1.350145,-0.92873 v 7.20678 7.20677 l 1.250555,-0.89808 c 1.175431,-0.84413 1.385777,-0.89808 3.501573,-0.89808 2.064688,0 2.347114,0.0675 3.41194,0.81593 0.702234,0.49355 1.434607,1.34733 1.853609,2.16089 0.679358,1.31908 0.694393,1.47426 0.781337,8.06419 l 0.08865,6.71922 h -1.783327 -1.783327 v -5.8384 c 0,-6.32586 -0.170159,-7.28503 -1.43999,-8.11705 -1.651892,-1.08236 -4.073888,-0.72526 -5.130798,0.75648 -0.588454,0.82499 -0.618317,1.12459 -0.700763,7.03034 l -0.08612,6.16863 h -1.608561 -1.608562 z m 8.908576,-9.06314 c 1.152108,-0.59578 1.481241,-1.60618 1.596476,-4.90101 0.0945,-2.7019 0.04527,-3.09748 -0.523056,-4.2028 -0.497717,-0.968 -0.851522,-1.2936 -1.711967,-1.57548 -2.260073,-0.74038 -4.192483,0.35651 -4.754373,2.69873 -0.42364,1.76593 -0.208419,5.53257 0.381281,6.67292 0.241088,0.46622 0.710221,1.03809 1.042519,1.27084 0.759063,0.53167 2.972461,0.55219 3.96912,0.0368 z"
       id="path2443"
       inkscape:connector-curvature="0" /><path
       style="opacity:1;fill:#808080;fill-opacity:1;stroke:none;stroke-width:3.2537818;stroke-linecap:round;stroke-linejoin:bevel;stroke-miterlimit:4;stroke-dasharray:none;stroke-dashoffset:0;stroke-opacity:1"
       d="m 39.89004,152.07603 c -2.027965,-0.72634 -3.196074,-1.73551 -4.066189,-3.51291 -0.661152,-1.35055 -0.777719,-1.95044 -0.863353,-4.4431 -0.117542,-3.42147 0.327035,-5.30406 1.668402,-7.06495 1.412707,-1.85454 2.873237,-2.52707 5.475757,-2.52144 2.455849,0.005 3.720081,0.51033 5.189253,2.07294 1.462671,1.5557 1.819444,2.55494 1.944724,5.44673 l 0.114531,2.6437 h -5.59008 -5.590081 v 0.62042 c 0,1.09772 1.158486,2.96767 2.164958,3.49453 1.618312,0.84715 4.356471,0.48879 5.724414,-0.74918 0.409524,-0.37062 0.571331,-0.3069 1.698842,0.66895 l 1.246208,1.07859 -0.875474,0.74001 c -2.127909,1.79867 -5.656233,2.45182 -8.241912,1.52571 z m 5.999584,-10.97175 c -0.275171,-1.27777 -0.826519,-2.24557 -1.646928,-2.8909 -0.913842,-0.71883 -3.06711,-0.76885 -4.203363,-0.0976 -0.843887,0.49849 -1.866329,2.29404 -1.866329,3.27752 0,0.58184 0.0696,0.59227 3.953197,0.59227 h 3.953198 z"
       id="path2445"
       inkscape:connector-curvature="0" /><path
       style="opacity:1;fill:#808080;fill-opacity:1;stroke:none;stroke-width:3.2537818;stroke-linecap:round;stroke-linejoin:bevel;stroke-miterlimit:4;stroke-dasharray:none;stroke-dashoffset:0;stroke-opacity:1"
       d="m 52.543874,143.47683 v -8.81232 h 1.762465 1.762465 v 0.99975 0.99975 l 0.745658,-0.71422 c 2.800285,-2.68221 7.483461,-1.79989 9.311668,1.75434 0.468626,0.91105 0.517465,1.6468 0.517465,7.79551 v 6.78952 h -1.626891 -1.626891 l -4.34e-4,-5.76191 c -4.61e-4,-6.31671 -0.148688,-7.03504 -1.683875,-8.16037 -0.988887,-0.72488 -2.963528,-0.72488 -3.952416,0 -1.535174,1.12533 -1.6834,1.84366 -1.683863,8.16037 l -4.21e-4,5.76191 h -1.762465 -1.762465 z"
       id="path2447"
       inkscape:connector-curvature="0" /><path
       style="opacity:1;fill:#808080;fill-opacity:1;stroke:none;stroke-width:3.2537818;stroke-linecap:round;stroke-linejoin:bevel;stroke-miterlimit:4;stroke-dasharray:none;stroke-dashoffset:0;stroke-opacity:1"
       d="m 81.85628,152.13121 c -1.653743,-0.44472 -3.860136,-1.57278 -4.535196,-2.31872 -0.427169,-0.47201 -0.387495,-0.55575 0.73551,-1.55233 l 1.187035,-1.0534 0.83625,0.63784 c 2.679612,2.04384 7.485098,1.92873 8.226148,-0.19705 0.642687,-1.84361 -0.326746,-2.4961 -4.173355,-2.80891 -2.553344,-0.20764 -4.076957,-0.81172 -5.093071,-2.01931 -0.919712,-1.09301 -1.105673,-1.81874 -0.94928,-3.70464 0.265918,-3.20663 2.942107,-4.91223 7.313969,-4.66139 1.684065,0.0966 2.440199,0.29792 3.931653,1.04665 1.015624,0.50986 1.846589,1.0592 1.846589,1.22074 0,0.16155 -0.404375,0.75428 -0.898612,1.31719 l -0.898612,1.02346 -1.57563,-0.7071 c -1.812784,-0.81353 -4.184963,-0.94911 -5.421166,-0.30984 -1.269153,0.6563 -1.410529,2.52769 -0.238349,3.15502 0.306172,0.16386 1.788644,0.40494 3.294382,0.53573 3.455954,0.30019 4.881028,0.95818 5.787431,2.67222 1.279283,2.41916 0.546777,5.35964 -1.688233,6.77705 -2.13865,1.35629 -4.900007,1.69638 -7.687463,0.94679 z"
       id="path2449"
       inkscape:connector-curvature="0" /><path
       style="opacity:1;fill:#808080;fill-opacity:1;stroke:none;stroke-width:3.2537818;stroke-linecap:round;stroke-linejoin:bevel;stroke-miterlimit:4;stroke-dasharray:none;stroke-dashoffset:0;stroke-opacity:1"
       d="m 99.588135,152.30676 c -2.20754,-0.53742 -4.465841,-2.68917 -4.984624,-4.74945 -0.466011,-1.85069 -0.385706,-7.12983 0.13155,-8.64789 1.520156,-4.46141 7.751479,-6.00943 11.369729,-2.82453 1.9838,1.74622 2.37598,2.77713 2.51251,6.60464 0.0914,2.56231 0.0153,3.62961 -0.34762,4.87818 -1.03733,3.56827 -4.87828,5.66495 -8.681545,4.73905 z m 4.625655,-4.41465 c 1.02921,-1.12306 1.38104,-2.95286 1.11518,-5.79987 -0.2592,-2.77572 -1.06036,-3.80149 -3.35491,-4.29547 -0.6099,-0.13131 -1.23688,-0.0236 -2.109417,0.36236 -1.72892,0.76478 -2.296145,2.05582 -2.304167,5.24443 -0.01064,4.22898 1.13307,5.75421 4.168354,5.55884 1.42524,-0.0917 1.69445,-0.20769 2.48496,-1.07029 z"
       id="path2451"
       inkscape:connector-curvature="0" /><path
       style="opacity:1;fill:#808080;fill-opacity:1;stroke:none;stroke-width:3.2537818;stroke-linecap:round;stroke-linejoin:bevel;stroke-miterlimit:4;stroke-dasharray:none;stroke-dashoffset:0;stroke-opacity:1"
       d="m 116.53316,152.32207 c -2.01093,-0.65641 -3.20578,-1.68611 -3.97546,-3.42597 -0.40293,-0.91082 -0.49417,-2.11548 -0.57987,-7.65624 l -0.10171,-6.57535 h 1.7871 1.7871 v 5.70282 c 0,6.06486 0.14371,6.91743 1.34679,7.99018 0.47143,0.42035 0.99168,0.54229 2.31372,0.54229 1.32203,0 1.84228,-0.12194 2.31371,-0.54229 1.20308,-1.07275 1.34679,-1.92532 1.34679,-7.99018 v -5.70282 h 1.76247 1.76246 v 8.81232 8.81233 h -1.76246 -1.76247 v -0.99629 -0.99628 l -0.61008,0.55784 c -1.41684,1.29552 -4.05101,1.98244 -5.62809,1.46764 z"
       id="path2453"
       inkscape:connector-curvature="0" /><path
       style="opacity:1;fill:#808080;fill-opacity:1;stroke:none;stroke-width:3.2537818;stroke-linecap:round;stroke-linejoin:bevel;stroke-miterlimit:4;stroke-dasharray:none;stroke-dashoffset:0;stroke-opacity:1"
       d="m 130.36349,143.47683 v -8.81232 h 1.62689 c 1.61963,0 1.62689,0.004 1.62689,0.79744 0,0.8644 0.39787,1.32576 0.62743,0.72755 0.25782,-0.67187 2.92075,-1.79654 4.23869,-1.79019 1.21261,0.006 3.54486,0.84318 3.53391,1.26875 -0.003,0.11914 -0.52164,0.80103 -1.15239,1.51531 l -1.1468,1.2987 -1.10604,-0.44039 c -2.07444,-0.82598 -4.23296,0.30984 -4.73983,2.4941 -0.13312,0.57366 -0.24494,3.45285 -0.2485,6.3982 l -0.006,5.35518 h -1.62689 -1.62689 z"
       id="path2455"
       inkscape:connector-curvature="0" /><path
       style="opacity:1;fill:#808080;fill-opacity:1;stroke:none;stroke-width:3.2537818;stroke-linecap:round;stroke-linejoin:bevel;stroke-miterlimit:4;stroke-dasharray:none;stroke-dashoffset:0;stroke-opacity:1"
       d="m 148.12371,152.31157 c -1.60538,-0.4441 -2.31909,-0.8379 -3.51283,-1.93825 -1.80693,-1.66557 -2.42553,-3.45435 -2.43182,-7.03206 -0.004,-2.49668 0.0812,-3.03281 0.69508,-4.35643 0.90235,-1.94546 2.36922,-3.35401 4.21018,-4.0428 2.80085,-1.04793 5.94375,-0.51686 7.98685,1.34959 l 1.187,1.08437 -1.18423,1.08191 -1.18422,1.0819 -0.79393,-0.66805 c -1.08934,-0.91662 -2.63215,-1.29617 -4.01015,-0.98655 -2.5617,0.57558 -3.52235,2.1033 -3.53188,5.61677 -0.0106,3.91039 1.51381,5.65729 4.77438,5.47116 1.31895,-0.0753 1.87065,-0.25393 2.67206,-0.8652 l 1.00994,-0.77031 1.1115,1.1115 1.1115,1.1115 -0.65037,0.69229 c -1.54106,1.64039 -5.26034,2.66689 -7.45906,2.05866 z"
       id="path2457"
       inkscape:connector-curvature="0" /><path
       style="opacity:1;fill:#808080;fill-opacity:1;stroke:none;stroke-width:3.2537818;stroke-linecap:round;stroke-linejoin:bevel;stroke-miterlimit:4;stroke-dasharray:none;stroke-dashoffset:0;stroke-opacity:1"
       d="m 163.30803,152.32504 c -2.60455,-0.68447 -4.36049,-2.33158 -5.17831,-4.85737 -0.67883,-2.09652 -0.67883,-5.88515 0,-7.98167 1.70752,-5.27358 7.96175,-6.80898 11.8593,-2.91143 1.53947,1.53948 2.13133,3.24398 2.13133,6.13803 v 1.9844 h -5.59424 -5.59425 l 0.15142,1.12891 c 0.30789,2.29551 2.02303,3.57533 4.57278,3.41218 1.08083,-0.0692 1.85005,-0.30697 2.60151,-0.80426 l 1.06694,-0.70606 1.19456,1.05843 1.19456,1.05843 -0.81344,0.6796 c -1.8847,1.57457 -5.33705,2.39345 -7.59216,1.80081 z m 5.28739,-11.0261 c 0,-1.16499 -0.738,-2.52923 -1.67836,-3.10255 -1.15134,-0.70196 -3.05574,-0.71928 -4.17303,-0.0379 -0.92183,0.56213 -1.74076,2.03105 -1.74076,3.1224 v 0.70468 h 3.79607 3.79608 z"
       id="path2459"
       inkscape:connector-curvature="0" /><path
       style="opacity:1;fill:#808080;fill-opacity:1;stroke:none;stroke-width:3.2537818;stroke-linecap:round;stroke-linejoin:bevel;stroke-miterlimit:4;stroke-dasharray:none;stroke-dashoffset:0;stroke-opacity:1"
       d="m 142.8831,180.41567 c -1.28552,-0.41137 -3.43401,-2.44156 -3.95088,-3.73334 -0.71736,-1.79286 -1.00892,-4.62865 -0.6999,-6.80748 0.65772,-4.63751 3.05092,-6.99177 7.12083,-7.00495 2.95548,-0.01 4.96861,1.13445 6.30959,3.58559 0.67259,1.22941 0.79441,1.7871 0.88871,4.0684 l 0.10929,2.6437 h -5.59008 c -6.31424,0 -6.06193,-0.10563 -5.156,2.1585 0.93043,2.32538 4.11141,3.06345 6.69008,1.55225 l 1.28688,-0.75417 1.07699,0.89426 c 0.59234,0.49184 1.07918,0.97689 1.08187,1.07788 0.0107,0.40315 -2.07038,1.8594 -3.21422,2.24915 -1.37776,0.46945 -4.58725,0.5073 -5.95316,0.0702 z m 6.29649,-10.97637 c -0.40686,-1.73733 -1.00659,-2.57679 -2.22642,-3.11638 -2.4968,-1.10445 -4.95092,0.21006 -5.38489,2.88434 l -0.15866,0.9777 h 3.9723 3.97229 z"
       id="path2461"
       inkscape:connector-curvature="0" /><path
       style="opacity:1;fill:#808080;fill-opacity:1;stroke:none;stroke-width:3.2537818;stroke-linecap:round;stroke-linejoin:bevel;stroke-miterlimit:4;stroke-dasharray:none;stroke-dashoffset:0;stroke-opacity:1"
       d="m 125.75396,171.81185 v -8.9479 h 1.76247 1.76246 v 0.94902 c 0,1.10751 0.0894,1.14505 0.89257,0.37485 0.93258,-0.8943 2.20318,-1.32387 3.91584,-1.32387 1.41808,0 3.21868,0.59409 3.40161,1.12233 0.033,0.0953 -0.46546,0.79648 -1.1077,1.55814 -1.1604,1.37617 -1.17261,1.38229 -1.95236,0.97907 -1.08386,-0.56049 -2.40661,-0.50582 -3.47159,0.14349 -1.51786,0.92541 -1.67837,1.7148 -1.67837,8.25437 v 5.8384 h -1.76246 -1.76247 z"
       id="path2463"
       inkscape:connector-curvature="0" /><path
       style="opacity:1;fill:#808080;fill-opacity:1;stroke:none;stroke-width:3.2537818;stroke-linecap:round;stroke-linejoin:bevel;stroke-miterlimit:4;stroke-dasharray:none;stroke-dashoffset:0;stroke-opacity:1"
       d="m 110.36236,180.07246 c -1.89911,-0.95906 -2.77534,-2.40178 -2.77534,-4.56961 0,-1.71682 0.38382,-2.65245 1.53489,-3.74154 1.18698,-1.12305 2.11621,-1.36167 5.88726,-1.51179 l 3.49051,-0.13895 -0.15524,-1.31079 c -0.0854,-0.72093 -0.2855,-1.55416 -0.4447,-1.85163 -0.64378,-1.20291 -4.76986,-1.42198 -6.24474,-0.33156 l -0.71396,0.52785 -1.28876,-0.98786 -1.28876,-0.98787 1.01555,-0.88372 c 1.35651,-1.18043 2.71668,-1.50075 5.8001,-1.36593 1.91981,0.0839 2.85217,0.25658 3.66051,0.67778 2.61994,1.36516 2.82035,2.10398 2.83515,10.45198 l 0.0119,6.71093 h -1.62689 -1.6269 v -0.81345 c 0,-1.00377 -0.16817,-1.01364 -1.15501,-0.0678 -0.70754,0.67816 -0.99113,0.75331 -3.13304,0.83023 -2.10562,0.0756 -2.50629,0.008 -3.78254,-0.63629 z m 7.14988,-3.17167 c 0.40067,-0.41571 0.6522,-1.1202 0.77624,-2.1741 l 0.1835,-1.5591 h -2.98939 c -3.24625,0 -4.14916,0.24724 -4.61189,1.26283 -0.42304,0.92846 -0.38014,1.27498 0.2583,2.08663 0.74326,0.94489 1.91675,1.2708 4.0391,1.12173 1.36348,-0.0958 1.88269,-0.25922 2.34414,-0.73799 z"
       id="path2465"
       inkscape:connector-curvature="0" /><path
       style="opacity:1;fill:#808080;fill-opacity:1;stroke:none;stroke-width:3.2537818;stroke-linecap:round;stroke-linejoin:bevel;stroke-miterlimit:4;stroke-dasharray:none;stroke-dashoffset:0;stroke-opacity:1"
       d="m 87.381843,180.42081 c -0.09868,-0.27155 -4.65845,-14.58345 -5.399244,-16.94678 -0.18491,-0.58991 -0.132694,-0.61008 1.578999,-0.61008 h 1.770233 l 0.376847,1.28795 c 0.207266,0.70838 0.974598,3.51426 1.705183,6.2353 0.730584,2.72104 1.414268,4.94784 1.519296,4.94846 0.105029,6.1e-4 1.085466,-2.77476 2.178749,-6.16751 l 1.987786,-6.16863 1.228038,-0.0806 1.228037,-0.0806 2.012262,6.24921 c 1.106744,3.43707 2.099804,6.24922 2.206801,6.24922 0.106996,0 0.30268,-0.39656 0.43486,-0.88123 0.13218,-0.48468 0.892,-3.29107 1.68851,-6.23642 l 1.44818,-5.35518 h 1.7136 c 0.94247,0 1.71655,0.0915 1.72017,0.20336 0.004,0.11185 -1.24561,4.1384 -2.77605,8.9479 l -2.78262,8.74454 -1.494545,-6.7e-4 -1.494542,-6.6e-4 -1.881429,-6.37438 c -1.034786,-3.50591 -1.966096,-6.28149 -2.069577,-6.16796 -0.150089,0.16466 -2.218726,6.95576 -3.552494,11.66244 -0.24278,0.85673 -0.291061,0.88123 -1.736804,0.88123 -0.943211,0 -1.532126,-0.12396 -1.610246,-0.33894 z"
       id="path2467"
       inkscape:connector-curvature="0" /><path
       style="opacity:1;fill:#808080;fill-opacity:1;stroke:none;stroke-width:3.2537818;stroke-linecap:round;stroke-linejoin:bevel;stroke-miterlimit:4;stroke-dasharray:none;stroke-dashoffset:0;stroke-opacity:1"
       d="m 68.785758,180.2345 c -1.317257,-0.71592 -2.593356,-2.22103 -2.939305,-3.46678 -0.371705,-1.3385 -0.367477,-8.58843 0.0058,-9.93272 0.371366,-1.33744 2.184108,-3.30943 3.415856,-3.71594 0.524736,-0.17318 1.704899,-0.26706 2.622583,-0.20863 1.336792,0.0851 1.92445,0.28233 2.955812,0.99193 l 1.287296,0.88568 v -4.62255 -4.62255 h 1.762465 1.762465 v 12.6084 12.60841 H 77.896265 76.1338 v -0.94343 -0.94344 l -1.235942,0.87118 c -1.073205,0.75646 -1.492705,0.88103 -3.185995,0.94604 -1.523755,0.0585 -2.163424,-0.0411 -2.926097,-0.4556 z m 5.748832,-3.34801 c 1.20268,-0.80864 1.565441,-1.94092 1.582385,-4.93907 0.02353,-4.16409 -0.729509,-5.52748 -3.183214,-5.76325 -1.630235,-0.15665 -2.835936,0.40508 -3.504763,1.63283 -0.697345,1.2801 -0.688542,6.72521 0.01296,8.01476 0.900921,1.65613 3.421705,2.17821 5.092634,1.05473 z"
       id="path2469"
       inkscape:connector-curvature="0" /><path
       style="opacity:1;fill:#808080;fill-opacity:1;stroke:none;stroke-width:3.2537818;stroke-linecap:round;stroke-linejoin:bevel;stroke-miterlimit:4;stroke-dasharray:none;stroke-dashoffset:0;stroke-opacity:1"
       d="m 53.357319,171.81185 v -8.9479 h 1.626891 1.626891 v 0.94902 c 0,1.02595 0.27064,1.19634 0.829893,0.52248 0.194698,-0.2346 0.839645,-0.6743 1.433215,-0.97712 1.349616,-0.68852 4.282711,-0.61586 5.427848,0.13446 l 0.733756,0.48078 -0.548663,0.73314 c -1.668248,2.22919 -1.741277,2.28043 -2.606625,1.82918 -1.764013,-0.91988 -3.945725,-0.1882 -4.755569,1.59488 -0.437361,0.96297 -0.502711,1.84654 -0.5079,6.86707 l -0.006,5.76191 H 54.98421 53.357319 Z"
       id="path2471"
       inkscape:connector-curvature="0" /><path
       style="opacity:1;fill:#808080;fill-opacity:1;stroke:none;stroke-width:3.2537818;stroke-linecap:round;stroke-linejoin:bevel;stroke-miterlimit:4;stroke-dasharray:none;stroke-dashoffset:0;stroke-opacity:1"
       d="m 38.03743,180.24569 c -1.262397,-0.58447 -2.419794,-1.73997 -2.829809,-2.82516 -0.677467,-1.79307 -0.08676,-4.47762 1.241853,-5.64377 1.289258,-1.13161 2.347472,-1.40797 5.889045,-1.53797 l 3.487644,-0.12801 -0.124331,-1.49927 c -0.0929,-1.12022 -0.274948,-1.62124 -0.720058,-1.98167 -1.257999,-1.01866 -4.847832,-0.98067 -5.968263,0.0632 l -0.5946,0.55396 -1.207547,-0.9895 c -1.35508,-1.11038 -1.403794,-1.23383 -0.728162,-1.84527 1.162737,-1.05226 2.852121,-1.5362 5.384003,-1.5423 2.810879,-0.007 4.428965,0.44327 5.622187,1.56369 1.446383,1.35812 1.529552,1.86942 1.529552,9.40316 v 6.923 h -1.626891 -1.626891 v -0.81345 c 0,-0.83283 -0.373579,-1.10192 -0.623962,-0.44943 -0.477231,1.24365 -5.004284,1.72085 -7.10377,0.74882 z m 6.613119,-2.99481 c 0.634162,-0.33939 1.114613,-1.64941 1.114613,-3.03916 v -1.04413 h -3.081641 c -2.707041,0 -3.168487,0.0683 -3.796079,0.56198 -0.546249,0.42968 -0.714438,0.80278 -0.714438,1.58486 0,1.13368 0.542129,1.79609 1.801118,2.20072 0.923071,0.29667 3.947674,0.12575 4.676427,-0.26427 z"
       id="path2473"
       inkscape:connector-curvature="0" /></g></svg>