<?xml version="1.0" encoding="UTF-8" standalone="no"?>
<!-- Created with Inkscape (http://www.inkscape.org/) -->

<svg
   xmlns:dc="http://purl.org/dc/elements/1.1/"
   xmlns:cc="http://creativecommons.org/ns#"
   xmlns:rdf="http://www.w3.org/1999/02/22-rdf-syntax-ns#"
   xmlns:svg="http://www.w3.org/2000/svg"
   xmlns="http://www.w3.org/2000/svg"
   xmlns:sodipodi="http://sodipodi.sourceforge.net/DTD/sodipodi-0.dtd"
   xmlns:inkscape="http://www.inkscape.org/namespaces/inkscape"
   width="205.79755mm"
   height="218.77525mm"
   viewBox="0 0 205.79755 218.77525"
   version="1.1"
   id="svg970"
   inkscape:version="0.92.2 (5c3e80d, 2017-08-06)"
   sodipodi:docname="DerpyLogoOutput.svg">
  <defs
     id="defs964" />
  <sodipodi:namedview
     id="base"
     pagecolor="#ffffff"
     bordercolor="#666666"
     borderopacity="1.0"
     inkscape:pageopacity="0.0"
     inkscape:pageshadow="2"
     inkscape:zoom="0.98994949"
     inkscape:cx="360.65072"
     inkscape:cy="435.41079"
     inkscape:document-units="mm"
     inkscape:current-layer="layer1"
     showgrid="false"
     fit-margin-top="0"
     fit-margin-left="0"
     fit-margin-right="0"
     fit-margin-bottom="0"
     inkscape:window-width="1920"
     inkscape:window-height="1017"
     inkscape:window-x="1912"
     inkscape:window-y="-8"
     inkscape:window-maximized="1" />
  <metadata
     id="metadata967">
    <rdf:RDF>
      <cc:Work
         rdf:about="">
        <dc:format>image/svg+xml</dc:format>
        <dc:type
           rdf:resource="http://purl.org/dc/dcmitype/StillImage" />
        <dc:title></dc:title>
      </cc:Work>
    </rdf:RDF>
  </metadata>
  <g
     inkscape:label="Layer 1"
     inkscape:groupmode="layer"
     id="layer1"
     transform="translate(-2.6726949,-70.815589)">
    <path
       inkscape:connector-curvature="0"
       style="display:inline;opacity:1;fill:#b3b3b3;fill-opacity:1;stroke:#800080;stroke-width:0;stroke-linecap:round;stroke-linejoin:bevel;stroke-miterlimit:4;stroke-dasharray:none;stroke-dashoffset:0;stroke-opacity:1"
       d="m 44.199717,76.272394 c -0.0041,0.002 -0.0062,0.0062 -0.0062,0.0124 0,0.53838 3.69216,7.826576 6.708116,13.242085 1.456897,2.616031 2.574486,4.830747 2.48357,4.921665 -0.09092,0.09091 -0.641413,-0.08053 -1.223182,-0.381373 -1.826144,-0.944335 -1.465075,-0.283943 0.618051,1.130681 1.098402,0.745911 2.097844,1.519399 2.221053,1.718757 0.123211,0.199359 -0.03951,0.946825 -0.361736,1.661399 -0.494707,1.097063 -0.742958,1.299143 -1.594218,1.299143 -0.867667,0 -0.513826,0.307199 2.540415,2.203999 1.951774,1.21213 3.548619,2.39385 3.548619,2.62568 2e-6,0.28228 0.881562,0.0493 2.668571,-0.70435 3.061822,-1.29131 5.743025,-2.04269 9.261967,-2.59622 l 2.46755,-0.38809 -2.301666,-1.624193 C 63.172824,93.707375 55.153758,86.986246 48.925012,80.698997 46.404149,78.154459 44.327059,76.210588 44.199717,76.272394 Z m 122.786833,1.527555 c -0.0701,-0.07009 -2.51458,2.119556 -5.43223,4.865853 -6.97326,6.563725 -11.0353,9.818679 -18.15496,14.547432 l -5.87768,3.903636 2.05931,0.21136 c 3.08461,0.31675 7.86001,1.69447 10.76626,3.10575 l 2.58176,1.25367 1.1622,-0.70331 c 3.27289,-1.98098 9.03534,-5.770759 8.77001,-5.76761 -0.16699,0.0019 -1.03732,0.226221 -1.93374,0.49816 -0.89641,0.271936 -1.79237,0.49379 -1.9916,0.49299 -0.19924,-7.9e-4 -0.64659,-0.69129 -0.99374,-1.535303 -0.53275,-1.295241 -0.55798,-1.575567 -0.16175,-1.797306 0.881,-0.493033 7.23333,-5.306494 7.43624,-5.634797 0.35012,-0.566515 -0.2929,-0.375169 -5.00435,1.489313 -2.52482,0.999159 -4.63351,1.773335 -4.68602,1.720826 -0.0525,-0.05251 1.22219,-1.878375 2.83291,-4.057634 3.77846,-5.112161 8.79132,-12.429078 8.62738,-12.59303 z m -61.00662,25.853201 c -3.6781,-0.003 -7.370423,0.21757 -9.576683,0.66456 -1.689131,0.34222 -3.071127,0.71832 -3.071127,0.83561 0,0.11729 0.82795,0.70847 1.83968,1.31361 2.864507,1.71334 6.52985,4.80429 8.49147,7.16081 0.98308,1.18098 1.86207,2.14379 1.95338,2.1394 0.0913,-0.004 0.91984,-0.92956 1.84123,-2.05569 1.88743,-2.30684 6.04252,-5.77295 9.05164,-7.55044 l 2.00867,-1.18649 -3.04737,-0.63924 c -2.14871,-0.45096 -5.81279,-0.67878 -9.49089,-0.68213 z m -30.211595,0.99942 c -8.584988,0.0875 -17.117184,3.60313 -23.691062,10.48154 -6.461611,6.76094 -9.782385,15.21584 -9.764261,24.85998 0.01204,6.41272 0.917683,10.38285 3.641636,15.9644 4.673206,9.57566 12.655392,16.15949 22.556764,18.60506 4.091652,1.01061 10.240272,1.08222 14.5557,0.1695 4.062487,-0.85923 9.981645,-3.66335 13.302035,-6.30194 l 2.50217,-1.98851 -1.79782,-1.54461 c -0.988954,-0.84962 -2.643274,-2.72977 -3.676266,-4.17804 -1.032994,-1.44827 -2.128065,-2.54314 -2.433441,-2.43292 -0.305372,0.11021 -1.81936,0.34354 -3.364138,0.51831 -5.957824,0.67405 -13.179737,-2.12505 -17.351396,-6.72465 -7.079078,-7.80528 -7.256304,-20.29498 -0.393255,-27.69185 0.775147,-0.83544 1.318114,-1.58118 1.206643,-1.65727 -0.111472,-0.0761 -0.985237,-0.49357 -1.942,-0.9281 -4.756346,-2.1602 -3.795493,-9.22757 1.451592,-10.67636 0.904028,-0.24961 1.680136,-0.40689 1.724959,-0.34933 0.04482,0.0576 0.210137,0.84435 0.367419,1.74821 0.262313,1.50747 0.16075,1.70161 -1.228866,2.34767 -0.989713,0.46013 -1.571077,1.10237 -1.6769,1.85208 -0.317531,2.24958 0.458436,2.37402 14.807364,2.37402 11.586663,0 13.292215,0.0913 13.292215,0.71416 0,0.39299 1.14875,1.86293 2.552303,3.26647 1.58772,1.58773 3.18119,3.84571 4.21783,5.97638 0.91638,1.8835 1.67165,3.10762 1.67845,2.72025 0.0262,-1.48591 2.39191,-5.71852 4.3925,-7.85896 1.14956,-1.22992 2.16414,-2.76398 2.25464,-3.4096 l 0.16485,-1.17409 14.6606,-0.23461 c 14.1697,-0.22691 14.69438,-0.26825 15.65951,-1.23404 0.83692,-0.83749 0.91016,-1.16412 0.4532,-2.01796 -0.29987,-0.56033 -1.08421,-1.22384 -1.74304,-1.47433 -0.94113,-0.35782 -1.13746,-0.68033 -0.91674,-1.50379 0.15452,-0.57645 0.28357,-1.31223 0.28732,-1.63504 0.0177,-1.62061 4.27882,0.52032 5.41724,2.7218 1.05791,2.04576 0.87364,4.3868 -0.47129,5.98516 -1.04999,1.24785 -1.98503,1.78113 -4.61367,2.63085 -0.76398,0.24696 -0.70897,0.44843 0.55759,2.03967 7.05555,8.86425 6.12595,21.15952 -2.1761,28.78067 -4.82684,4.43097 -11.85829,6.42679 -17.95859,5.09736 l -3.05201,-0.66507 -1.69395,2.61844 c -0.93173,1.44007 -2.47903,3.38051 -3.43804,4.31189 l -1.74356,1.69343 2.49855,1.98541 c 1.37423,1.09206 4.18894,2.79956 6.25492,3.7946 18.81798,9.06335 41.15179,-1.88839 46.78888,-22.94382 1.25611,-4.69179 1.36078,-12.97669 0.22376,-17.69194 -2.43182,-10.08475 -9.38943,-18.94101 -18.44952,-23.48332 -5.21837,-2.61624 -8.44504,-3.32388 -14.94638,-3.27732 -6.53769,0.0468 -10.99117,1.2271 -16.13907,4.27726 -3.51493,2.0826 -8.23694,6.28318 -10.1229,9.00462 -1.095,1.58008 -1.60501,1.92443 -2.84943,1.92442 -1.24443,0 -1.75443,-0.34434 -2.84944,-1.92442 -0.73353,-1.05849 -2.63805,-3.11858 -4.232303,-4.57802 -6.579125,-6.02276 -14.690519,-8.96585 -22.755202,-8.8837 z m 1.316199,18.00511 -1.184942,0.78445 c -1.490565,0.98655 -3.610758,3.08361 -4.60747,4.55682 -1.966658,2.90686 -2.931544,5.81585 -3.056144,9.21443 -0.101552,2.76998 0.286809,5.04382 1.26142,7.38404 2.520119,6.05129 8.1842,10.23007 14.646135,10.80503 1.481865,0.13185 1.486566,0.13181 2.917134,0.005 4.3194,-0.38238 7.998605,-2.08734 11.01535,-5.10408 3.649963,-3.64997 5.423023,-8.40743 5.085483,-13.64568 -0.34225,-5.31129 -3.273413,-10.32547 -7.778343,-13.30672 l -1.04748,-0.6935 h -8.625832 z m 40.497796,0.0341 -1.23301,0.84284 c -8.96949,6.13076 -10.23595,18.85058 -2.64428,26.5591 2.70957,2.75127 5.50479,4.28128 9.23407,5.05344 1.73121,0.35845 5.89918,0.22914 7.58558,-0.23513 5.12988,-1.41225 9.06951,-4.62283 11.32437,-9.22837 0.49173,-1.00435 1.04479,-2.37844 1.22887,-3.05357 1.95915,-7.18568 -0.81226,-14.79795 -6.94635,-19.07997 l -1.2299,-0.85834 h -8.65942 z m 15.16755,1.68 c 0.40874,0.0249 0.82712,0.15476 1.30018,0.39222 1.06031,0.53225 1.60302,1.3283 1.69963,2.49339 0.0969,1.16867 -0.4051,2.25325 -1.32395,2.86132 -0.81375,0.53851 -2.11532,0.6646 -2.95692,0.28629 -1.26056,-0.56665 -1.88051,-1.52288 -1.88051,-2.89905 0,-1.39748 0.63867,-2.36256 1.91772,-2.89698 0.43558,-0.182 0.83511,-0.26214 1.24385,-0.23719 z m -0.077,2.48305 c -0.10022,-0.001 -0.20478,0.0198 -0.30799,0.0687 -0.46262,0.21952 -0.4741,0.93072 -0.0191,1.17822 0.34799,0.1893 0.79874,0.0207 0.94103,-0.35191 0.17439,-0.45665 -0.17966,-0.88906 -0.61392,-0.89504 z m -53.791042,14.39912 c 0.511289,0 1.022712,0.0903 1.363742,0.27078 1.213919,0.64258 1.835031,1.62062 1.835031,2.88923 0,1.2474 -0.562277,2.22035 -1.655713,2.86494 -0.620889,0.36602 -1.936514,0.48009 -2.613279,0.22686 -1.817041,-0.67989 -2.657152,-2.75205 -1.814359,-4.47466 0.336976,-0.68875 0.751414,-1.09908 1.520839,-1.50637 0.341029,-0.18052 0.852453,-0.27078 1.363739,-0.27078 z m 0,2.41587 c -0.623239,0 -0.949582,0.98852 -0.443384,1.34307 0.329602,0.23086 0.557168,0.23086 0.886767,0 0.506198,-0.35455 0.179853,-1.34307 -0.443383,-1.34307 z m 26.705352,5.1692 c -1.28857,-0.002 -2.27935,0.23615 -2.52388,0.60616 -1.73333,2.62269 -4.257163,4.96995 -7.070371,6.57583 -0.533789,0.3047 -1.033348,0.59505 -1.110009,0.64543 -0.153429,0.10084 0.591971,1.18597 2.344557,3.4122 1.26205,1.60312 2.18439,2.45355 3.718643,3.42925 0.65979,0.41959 1.92116,1.24035 2.80293,1.82366 l 1.603,1.0604 0.58705,-0.4284 c 0.60348,-0.44047 1.2461,-0.82106 3.57445,-2.1177 1.52256,-0.8479 2.50864,-1.69966 3.54759,-3.06441 0.73233,-0.96198 3.03186,-4.42681 3.03186,-4.5682 0,-0.046 -0.30256,-0.25664 -0.67231,-0.46819 -1.84899,-1.05788 -4.48702,-3.45499 -5.88905,-5.35161 -0.54116,-0.73205 -0.71373,-0.88029 -1.26555,-1.08675 -0.9911,-0.37082 -1.53626,-0.46609 -2.67891,-0.46767 z m -5.854433,5.19761 c 0.10086,-0.003 0.19299,0.0195 0.271823,0.0708 0.10881,0.0707 0.20048,0.43184 0.25529,1.00562 0.10139,1.06146 0.36568,1.62331 1.52445,3.24218 1.12291,1.56876 1.34445,2.13596 0.9772,2.50321 -0.74717,0.74717 -3.321703,-0.88362 -4.249873,-2.69183 -0.42551,-0.82895 -0.50826,-2.28003 -0.16795,-2.94194 0.35503,-0.69054 0.95203,-1.17656 1.38906,-1.18804 z m 11.462873,0.0806 c 0.41929,-1.7e-4 0.96845,0.39828 1.25471,0.9896 0.3578,0.73912 0.30847,2.08206 -0.10801,2.94246 -0.38263,0.79046 -1.65826,2.03696 -2.49649,2.43964 -0.87314,0.41947 -1.58832,0.51578 -1.94045,0.26149 -0.14526,-0.10491 -0.26331,-0.2798 -0.26251,-0.38913 0.002,-0.30202 0.49853,-1.10822 1.26297,-2.05052 1.37439,-1.69416 1.78749,-2.4993 1.78749,-3.48454 0,-0.23508 0.0631,-0.49096 0.14056,-0.56844 0.0964,-0.0963 0.22197,-0.14051 0.36173,-0.14056 z m -2.40502,13.78107 -1.68103,1.75286 -1.68104,1.75339 -1.62936,-1.60559 -1.62987,-1.60507 -1.76423,1.58698 c -4.42012,3.97636 -10.532069,7.08659 -16.704931,8.50025 -0.913045,0.2091 -3.303635,0.47492 -5.312336,0.59118 l -3.651975,0.21188 2.656168,1.89084 c 6.633001,4.72238 15.371043,8.19417 23.185664,9.21235 5.12716,0.66803 12.42324,0.15128 17.81804,-1.26193 6.01771,-1.5764 13.83916,-5.12534 18.2268,-8.2703 l 2.19263,-1.57096 -4.81469,-0.20154 c -2.64784,-0.11064 -5.56098,-0.37645 -6.47403,-0.59118 -6.43153,-1.51258 -12.61802,-4.75427 -17.28628,-9.05732 z m 44.56369,6.98407 -1.83089,0.74517 c -10.64911,4.33484 -17.42061,10.97426 -20.9579,20.54965 l -0.34054,0.92294 0.79995,1.9358 c 2.15776,5.22093 4.45377,8.72337 6.30969,9.62473 0.72374,0.35151 1.01233,0.35643 1.79007,0.0321 2.60177,-1.08517 5.52931,-7.05979 7.43934,-15.18151 0.73703,-3.13396 0.79565,-3.26289 1.12293,-2.48977 0.98426,2.32507 3.41594,7.46536 4.26124,9.00772 2.88812,5.26981 5.90374,8.57023 7.84551,8.58552 2.7126,0.0214 5.47594,-5.53776 7.01249,-14.10714 0.75767,-4.22551 0.75362,-4.20625 0.90951,-4.04214 0.0736,0.0775 0.74512,1.67223 1.49242,3.54397 2.63291,6.59458 4.97871,10.78594 7.27139,12.99198 1.33683,1.2863 2.26904,1.77403 3.40031,1.77922 2.65164,0.0122 5.62166,-3.61835 8.19329,-10.0149 0.39823,-0.99051 0.72399,-1.90815 0.72399,-2.03915 0,-0.32375 -0.64239,-1.56724 -1.93476,-3.74447 -6.81265,-11.47704 -18.0199,-18.0867 -30.68599,-18.0976 z m -93.683691,0.22169 -5.165061,0.19999 c -11.155108,0.43184 -20.651062,5.85515 -27.241745,15.5577 l -2.680457,3.9455 0.775147,2.3337 c 0.957578,2.88301 3.724587,7.57711 5.108215,8.66562 3.506486,2.7586 7.650203,-1.56317 12.090218,-12.61059 2.092689,-5.20693 2.430475,-5.38512 3.007568,-1.58285 1.207241,7.95409 4.52629,15.02544 7.052281,15.02544 2.273128,0 7.253631,-6.86275 10.642245,-14.66422 0.867191,-1.9965 1.682134,-3.63353 1.811258,-3.63802 0.129125,-0.005 0.794433,2.31257 1.478463,5.14904 1.37301,5.69344 3.468619,10.62993 5.281332,12.44265 1.597004,1.59699 2.237965,1.49486 4.193543,-0.66973 1.82101,-2.01565 2.728359,-3.59181 4.336168,-7.53029 l 1.050066,-2.57194 -1.42162,-2.82773 c -3.282587,-6.52868 -8.394046,-11.33722 -16.091524,-15.13758 z m 21.938713,12.65401 c -0.03257,0.0326 0.209153,0.50003 0.536916,1.03869 2.645751,4.34809 4.482804,10.21638 5.244126,16.7504 0.3076,2.63997 0.261639,9.68906 -0.08372,12.86537 -1.356206,12.47333 -5.300308,25.59493 -12.600781,41.91733 -0.735076,1.64348 -1.337625,3.06456 -1.338418,3.15795 -0.0021,0.23497 3.378054,6.05545 3.516579,6.05545 0.06159,0 1.553718,-1.34446 3.316079,-2.98794 1.76236,-1.64348 3.279849,-2.98844 3.371887,-2.98844 0.09204,0 1.169778,0.82618 2.395201,1.83606 1.422334,1.17216 2.303283,1.79083 2.436027,1.711 0.161946,-0.0974 6.206479,-4.59476 7.030061,-5.23068 0.122592,-0.0947 0.631828,0.93925 1.565798,3.17862 0.76135,1.82548 1.4267,3.31767 1.47846,3.31556 0.0518,-0.002 0.56693,-0.78639 1.14464,-1.74305 0.577703,-0.95666 1.104243,-1.73943 1.169953,-1.73943 0.0657,0 1.19908,1.5302 2.51871,3.40031 1.31963,1.87011 2.44216,3.4013 2.49442,3.40289 0.0523,0.002 1.09013,-1.39741 2.30684,-3.10937 1.21671,-1.71196 2.27154,-3.17932 2.34404,-3.26078 0.0725,-0.0815 1.28641,0.86759 2.69751,2.10891 l 2.56573,2.25671 4.37494,-3.47679 c 2.40614,-1.91227 4.41195,-3.47579 4.45761,-3.4742 0.0457,0.002 1.2034,1.53017 2.57297,3.39669 1.36956,1.86651 2.53997,3.39595 2.60087,3.39876 0.0609,0.003 1.87875,-1.12185 4.03955,-2.49908 2.1608,-1.37722 3.96785,-2.46482 4.01577,-2.4169 0.0479,0.0479 -0.11959,1.54854 -0.37258,3.33468 -0.25299,1.78614 -0.41182,3.29597 -0.35295,3.35483 0.18648,0.18649 3.79499,-0.49097 3.88658,-0.72967 0.11661,-0.30388 -0.36632,-2.85964 -0.86713,-4.58783 -0.22808,-0.78707 -1.3184,-3.46658 -2.42259,-5.95468 -6.03694,-13.60313 -9.80965,-25.15609 -11.58896,-35.48465 -0.97648,-5.66835 -1.09344,-7.07596 -1.08933,-13.11445 0.003,-4.91605 0.0464,-5.83084 0.37103,-7.88531 0.86092,-5.44851 2.39351,-10.13573 4.59404,-14.04875 0.41529,-0.73848 0.75499,-1.37146 0.75499,-1.40612 0,-0.0346 -0.42946,0.13078 -0.95447,0.36742 -8.37657,3.77577 -15.38026,5.3759 -23.53138,5.3759 -8.033483,0 -14.855505,-1.57656 -22.571755,-5.21622 -1.082423,-0.51056 -1.994694,-0.90177 -2.027266,-0.86919 z m 32.025438,10.23865 0.65061,0.51521 c 0.73311,0.58063 1.84397,1.89581 2.56366,3.03496 0.26492,0.41931 0.53591,0.76258 0.60204,0.76274 0.0661,1.7e-4 0.23301,-0.21833 0.37103,-0.48524 0.38775,-0.74982 2.16982,-2.90178 2.80242,-3.38429 l 0.56689,-0.43253 1.01131,1.27951 1.0113,1.27951 -0.88521,0.91312 c -1.44468,1.49026 -2.5874,3.44774 -3.07785,5.27099 l -0.19017,0.70539 -1.61179,-0.004 -1.61231,-0.004 -0.38189,-1.19993 c -0.5085,-1.59758 -1.4989,-3.23282 -2.77089,-4.57543 l -1.04231,-1.10019 0.99632,-1.28829 z m -49.576307,0.93741 -1.398881,2.42207 c -1.744326,3.02128 -5.266804,6.97887 -7.017657,7.88428 -0.728337,0.37663 -2.127084,0.68422 -3.108339,0.68316 -3.358919,-0.003 -5.6326,-2.24378 -7.874455,-7.75973 l -1.001489,-2.46342 -1.323432,2.52853 c -3.676576,7.02217 -8.692515,9.75771 -13.03073,7.10706 -2.072436,-1.26626 -3.350656,-2.83924 -5.35316,-6.5872 -1.308267,-2.4486 -1.564566,-2.69995 -1.963188,-1.92805 -0.837308,1.62138 -2.444623,6.93809 -3.341915,11.05411 l -0.885217,4.06177 1.938899,3.79976 c 2.308469,4.52344 4.963462,7.8101 7.153053,8.85425 1.472724,0.70229 1.718151,0.7008 3.224609,-0.0176 2.536148,-1.20941 4.635804,-4.46117 8.098729,-12.54342 0.486199,-1.13476 0.546452,-1.0801 1.801442,1.64331 2.645765,5.74149 6.245804,10.54575 9.364284,12.49691 1.704877,1.0667 2.671135,1.10627 4.459676,0.18138 2.492555,-1.28895 4.68005,-4.94522 7.108611,-11.87989 0.786863,-2.24686 1.590743,-4.25401 1.785937,-4.46019 0.195196,-0.20619 0.936572,1.22087 1.64796,3.17138 2.32351,6.37066 6.395985,11.52793 9.097637,11.52126 2.875621,-0.007 5.178695,-2.61458 8.652185,-9.7963 l 2.354895,-4.86947 -0.324012,-4.99091 c -0.178422,-2.74505 -0.4816,-5.73036 -0.673343,-6.63422 l -0.348298,-1.64331 -1.569413,2.93522 c -0.863007,1.61459 -2.485387,3.78069 -3.605466,4.81314 -1.680613,1.54914 -2.370749,1.87689 -3.948597,1.87689 -2.599634,0 -4.367525,-1.01636 -6.06888,-3.48919 -0.786919,-1.14375 -1.43092,-2.17373 -1.43092,-2.28875 0,-0.11503 -0.544552,-1.44079 -1.210262,-2.94607 z m 35.625214,0.32298 0.27389,0.34984 c 0.150733,0.19239 0.604143,0.77158 1.007173,1.28675 l 0.73278,0.93638 -0.9152,0.94567 c -0.50327,0.51997 -1.067303,1.16941 -1.253673,1.44332 -0.56818,0.8351 -1.41466,2.59485 -1.7141,3.56413 l -0.28371,0.91777 -1.390094,0.0476 c -1.620721,0.0552 -1.820743,-0.0506 -2.125967,-1.12655 -0.451276,-1.59074 -1.553731,-3.39316 -2.965196,-4.84777 l -0.918805,-0.94723 0.959115,-1.25263 c 0.527692,-0.68895 1.035137,-1.25264 1.12758,-1.25264 0.292695,0 2.241362,2.1008 3.006018,3.24063 l 0.735354,1.09606 0.379825,-0.63304 c 0.61838,-1.02977 2.1064,-2.82349 2.74815,-3.31298 z m 48.493173,0.87126 -0.45733,1.29811 c -0.64917,1.84452 -2.21596,5.07257 -3.15072,6.49108 -1.12147,1.70185 -2.54229,3.06683 -3.87521,3.72277 -0.96392,0.47435 -1.278,0.54656 -2.36007,0.54208 -1.05065,-0.004 -1.42671,-0.0893 -2.37866,-0.53588 -2.12803,-0.99821 -4.30954,-3.59889 -6.22133,-7.41609 -0.9356,-1.86808 -0.84648,-1.92724 -1.23506,0.81856 -0.13522,0.95544 -0.21011,3.34945 -0.20826,6.64042 l 0.003,5.14594 0.77359,1.84588 c 1.95044,4.65419 4.12364,8.35129 6.02961,10.25726 1.22407,1.22407 2.27695,1.79032 3.5202,1.89342 1.3143,0.10899 2.64256,-0.59629 4.18837,-2.22364 2.21511,-2.33193 3.9838,-5.51591 5.7335,-10.3203 0.54035,-1.48369 1.02522,-2.6975 1.07694,-2.6975 0.0517,0 0.56809,1.43805 1.14773,3.19567 1.71203,5.19129 2.79945,7.69163 4.45348,10.23916 1.10873,1.70766 2.47914,3.07656 3.60391,3.6003 1.94039,0.90353 4.07665,0.27556 6.41098,-1.88567 2.73106,-2.52854 5.3648,-6.64358 7.81038,-12.20236 0.31127,-0.70751 0.61089,-1.28664 0.66559,-1.28674 0.0547,-1e-4 0.57053,1.13923 1.14618,2.53163 2.01811,4.88138 3.74154,7.84238 5.59243,9.60768 1.86744,1.78108 3.3602,2.13773 5.26324,1.2578 2.66561,-1.23251 6.44517,-6.50311 8.74055,-12.1884 l 0.55087,-1.36374 -0.37982,-2.20555 c -0.20884,-1.2128 -0.70912,-3.53814 -1.11156,-5.16764 -0.72758,-2.94598 -2.50603,-8.58523 -2.70061,-8.56279 -0.056,0.006 -0.56447,0.95848 -1.12964,2.11615 -1.36428,2.79449 -2.49849,4.47854 -4.11293,6.10661 -1.80572,1.82094 -3.31264,2.58392 -5.30924,2.68872 -1.75849,0.0923 -3.07966,-0.31786 -4.70875,-1.46193 -1.96224,-1.37802 -4.27621,-4.33707 -6.00739,-7.68222 -0.41087,-0.79391 -0.78479,-1.44433 -0.83044,-1.44538 -0.0456,-10e-4 -0.29397,0.61465 -0.5519,1.36787 -0.25794,0.75322 -0.79016,2.05061 -1.18288,2.88355 -3.24944,6.89183 -8.1387,8.10082 -12.90722,3.19102 -1.69896,-1.74929 -3.11169,-3.81976 -5.39812,-7.9127 z m -44.14511,9.98389 c 0.29568,0 2.32253,2.19378 3.02255,3.27163 l 0.66973,1.03095 0.72967,-1.11363 c 0.75555,-1.15262 2.62003,-3.18895 2.91972,-3.18895 0.14998,0 1.59748,1.69753 1.9606,2.29908 0.0927,0.15362 -0.15263,0.51888 -0.78134,1.1622 -1.3936,1.42599 -2.27834,2.93141 -2.94194,5.00538 -0.28619,0.89442 -0.30523,0.91302 -0.93431,0.92656 -0.3532,0.008 -1.06354,-0.0144 -1.5782,-0.0491 l -0.93535,-0.0631 -0.44545,-1.25418 c -0.60156,-1.69452 -1.61841,-3.34525 -2.79466,-4.53616 -0.64295,-0.65097 -0.93153,-1.06039 -0.84646,-1.20148 0.35822,-0.59409 1.8061,-2.28926 1.95544,-2.28926 z m -13.114451,12.78268 c 0.295685,0 2.322531,2.19378 3.022555,3.27163 l 0.66921,1.03095 0.730189,-1.11363 c 0.755555,-1.15262 2.619514,-3.18895 2.919204,-3.18895 0.14997,0 1.598,1.69753 1.961123,2.29908 0.0927,0.15362 -0.15264,0.51888 -0.781353,1.16221 -1.3936,1.42598 -2.27834,2.93089 -2.94194,5.00486 -0.286187,0.89441 -0.305234,0.91353 -0.93431,0.92707 -0.3532,0.008 -1.063527,-0.0144 -1.578197,-0.0491 l -0.935861,-0.063 -0.445449,-1.25471 c -0.601568,-1.69452 -1.61842,-3.34473 -2.794662,-4.53564 -0.642951,-0.65097 -0.931013,-1.06039 -0.845944,-1.20147 0.358216,-0.5941 1.806104,-2.28927 1.955435,-2.28927 z m -27.880985,0.55655 -1.33015,2.67219 c -3.387127,6.80405 -7.175479,9.3572 -12.059214,8.12767 -2.441189,-0.61459 -6.752446,-4.40088 -9.001,-7.90494 -1.638321,-2.55311 -2.123067,-2.8164 -2.572969,-1.39888 -0.500621,1.57731 -3.81993,5.45468 -5.623947,6.56962 -2.418159,1.49451 -6.488369,1.1997 -8.907465,-0.64544 -1.499499,-1.14372 -3.915857,-3.92947 -5.794479,-6.67969 -0.936193,-1.37055 -0.317488,5.86304 0.867131,10.13788 1.883344,6.79627 3.594047,9.67956 8.543147,14.39757 2.707407,2.58099 5.532868,4.79521 7.091558,5.5578 4.3004,2.10399 5.596713,0.98512 6.555671,-5.65754 0.592685,-4.10551 0.620668,-4.16596 2.056723,-4.45967 1.438274,-0.29416 1.481277,-0.24642 3.589961,3.9765 1.173908,2.35091 2.795381,5.06686 3.602881,6.03529 2.917788,3.49929 5.047999,1.57892 7.179921,-6.47196 l 1.114664,-4.21008 1.678966,-0.14366 1.678451,-0.14314 0.540535,2.72593 c 0.708679,3.57336 2.618473,7.5274 3.819404,7.90856 2.384425,0.75679 5.391076,-1.69152 9.437669,-7.68532 2.870316,-4.2515 3.300722,-5.27459 5.321638,-12.64832 1.934565,-7.05867 1.994617,-7.84863 0.433565,-5.71748 -4.90461,6.69578 -11.650938,5.89817 -16.702857,-1.97456 z m 49.462096,0.60565 c 0.29568,0 2.32254,2.19378 3.02256,3.27164 l 0.66921,1.03043 0.73019,-1.11363 c 0.75555,-1.15263 2.61951,-3.18844 2.9192,-3.18844 0.14998,0 1.598,1.69753 1.96112,2.29909 0.0927,0.15362 -0.15263,0.51836 -0.78134,1.16168 -1.3936,1.42599 -2.27885,2.93141 -2.94246,5.00538 -0.28618,0.89442 -0.30523,0.91353 -0.93431,0.92708 -0.3532,0.008 -1.06302,-0.0144 -1.57768,-0.0491 l -0.93586,-0.0631 -0.44546,-1.2547 c -0.60156,-1.69452 -1.61842,-3.34473 -2.79466,-4.53565 -0.64295,-0.65097 -0.93101,-1.0609 -0.84594,-1.20199 0.35821,-0.59409 1.8061,-2.28875 1.95543,-2.28875 z m 82.95567,0.24908 -0.38189,0.63924 c -3.5572,5.95495 -6.6313,8.82029 -10.08931,9.40356 -3.92846,0.66262 -7.53712,-2.00616 -10.7704,-7.96489 -0.64672,-1.19186 -0.65654,-1.20099 -0.89503,-0.81184 -0.13267,0.21648 -0.56219,0.91685 -0.95447,1.55598 -1.03522,1.68668 -2.79748,3.98771 -4.00957,5.23586 -2.84006,2.92453 -5.23412,4.07768 -8.19743,3.94808 -1.35941,-0.0595 -1.67473,-0.13674 -2.76779,-0.67696 -2.75339,-1.3608 -5.02794,-4.16375 -7.19646,-8.8682 l -0.85473,-1.85518 -0.28732,0.6103 c -0.58836,1.24947 -2.78268,4.35245 -3.8685,5.47047 -4.66163,4.79985 -10.05033,4.09899 -14.33298,-1.86449 -0.29791,-0.41483 -0.5661,-0.72994 -0.59583,-0.70022 -0.17225,0.17226 1.8249,7.48875 3.28197,12.02356 0.72768,2.26471 1.02971,2.93179 2.2655,4.99969 5.10754,8.54667 9.27089,12.338 11.51558,10.48774 1.36808,-1.12769 2.68528,-4.75555 3.19722,-8.8067 l 0.19895,-1.57717 1.55753,-0.12919 c 0.85646,-0.0712 1.60594,-0.0712 1.66553,0 0.0596,0.0712 0.31534,1.10024 0.56844,2.2872 1.14312,5.36091 3.06707,9.63349 4.63538,10.29291 0.57174,0.24041 1.19521,0.11179 1.90376,-0.39274 1.77551,-1.26427 4.45116,-5.50284 6.27145,-9.93479 0.32963,-0.80257 0.65059,-1.51484 0.71365,-1.58233 0.0631,-0.0675 0.79257,-0.001 1.62057,0.14779 l 1.50534,0.27079 0.11162,2.11718 c 0.1708,3.2354 0.61972,5.54587 1.35702,6.98355 0.31374,0.61177 1.28974,1.42646 1.85829,1.55133 1.18612,0.26051 3.49292,-0.73776 6.01668,-2.60346 2.26973,-1.67791 7.0016,-6.49885 8.29614,-8.4522 1.22192,-1.84377 3.39709,-6.20741 4.23747,-8.50077 1.27778,-3.48704 2.14106,-7.71815 2.32802,-11.41171 z m -99.646638,13.69064 1.023705,1.25264 1.02371,1.25315 -1.05265,1.12344 c -1.277232,1.36356 -2.149312,2.81818 -2.72386,4.5434 l -0.430982,1.29449 H 92.07845 c -1.109488,0 -1.587389,-0.0605 -1.633492,-0.20722 -0.03585,-0.11413 -0.156316,-0.50657 -0.267169,-0.87178 -0.518295,-1.70762 -2.212334,-4.37932 -3.395657,-5.35471 l -0.558107,-0.45992 0.99839,-1.28416 c 0.54901,-0.70645 1.050393,-1.28468 1.11466,-1.28468 0.227589,0 2.32795,2.25531 2.984831,3.20497 0.366591,0.52999 0.705247,0.97797 0.752409,0.99581 0.04716,0.0179 0.378256,-0.41542 0.735872,-0.96325 0.766625,-1.17438 1.857965,-2.43078 2.522845,-2.90422 z m 8.196398,0.17673 0.6041,0.49816 c 0.76157,0.62743 1.98318,2.053 2.61173,3.04788 0.26542,0.42011 0.52294,0.76361 0.57206,0.76378 0.0491,1.6e-4 0.41952,-0.50246 0.82372,-1.11725 0.4042,-0.61478 1.21448,-1.5974 1.80041,-2.18333 1.05026,-1.05026 1.06897,-1.06042 1.33376,-0.71985 0.14772,0.19 0.61932,0.78747 1.048,1.32757 l 0.7798,0.98185 -0.75396,0.73122 c -1.36364,1.32287 -2.71412,3.60958 -3.20135,5.42086 l -0.18966,0.7059 h -1.63401 -1.634 l -0.19741,-0.78393 c -0.4248,-1.68702 -1.78389,-3.93983 -3.22358,-5.34283 l -0.75034,-0.7307 1.00563,-1.29966 z m 15.00013,0.002 c 0.28037,-0.0119 2.43664,2.29365 3.14037,3.35794 l 0.63407,0.9586 0.41652,-0.70952 c 0.22928,-0.3902 0.55735,-0.89622 0.72915,-1.12448 0.55215,-0.73363 2.3386,-2.49033 2.52388,-2.48202 0.0986,0.004 0.6015,0.54601 1.11776,1.20354 l 0.93896,1.1958 -0.87953,0.92345 c -1.42598,1.49769 -2.77564,3.90173 -3.15175,5.61413 -0.12529,0.57046 0.0857,0.53513 -2.35231,0.39533 l -1.01958,-0.0589 -0.1912,-0.7581 c -0.40836,-1.62174 -2.01308,-4.2423 -3.32331,-5.42602 l -0.68782,-0.62064 0.96274,-1.23093 c 0.52946,-0.67679 1.04334,-1.23396 1.14205,-1.23817 z m 2.79104,12.77493 c 0.29568,0 2.32201,2.1943 3.02204,3.27216 l 0.66973,1.03042 0.73018,-1.11362 c 0.75556,-1.15263 2.61951,-3.18896 2.9192,-3.18896 0.14998,0 1.598,1.69753 1.96112,2.29909 0.0927,0.15362 -0.15315,0.51887 -0.78186,1.1622 -1.3936,1.42599 -2.27833,2.9314 -2.94194,5.00538 -0.28618,0.89441 -0.30523,0.91353 -0.93431,0.92707 -0.3532,0.008 -1.06301,-0.0149 -1.57768,-0.0496 l -0.93586,-0.063 -0.44545,-1.25419 c -0.60157,-1.69451 -1.61842,-3.34524 -2.79466,-4.53615 -0.64295,-0.65097 -0.93153,-1.0604 -0.84646,-1.20148 0.35821,-0.59409 1.80662,-2.28927 1.95595,-2.28927 z m -39.84202,0.1664 c 0.29568,0 2.322529,2.19378 3.022553,3.27164 l 0.66921,1.03094 0.73019,-1.11414 c 0.755554,-1.15262 2.619509,-3.18844 2.9192,-3.18844 0.149977,0 1.597999,1.69753 1.961121,2.29909 0.09273,0.15362 -0.153151,0.51836 -0.781865,1.16168 -1.393595,1.42599 -2.278332,2.93141 -2.941939,5.00538 -0.286184,0.89441 -0.305231,0.91353 -0.93431,0.92708 -0.3532,0.008 -1.063011,-0.0144 -1.577681,-0.0491 l -0.93586,-0.063 -0.44545,-1.25471 c -0.601568,-1.69451 -1.61842,-3.34472 -2.794662,-4.53564 -0.642951,-0.65097 -0.931529,-1.0609 -0.84646,-1.20199 0.358217,-0.59409 1.80662,-2.28875 1.955953,-2.28875 z m -21.906674,0.57413 -1.526006,3.09955 c -3.25651,6.61491 -8.026254,6.58863 -12.502078,-0.0687 l -1.913578,-2.84634 -0.792717,2.23087 c -1.099741,3.0964 -3.058268,4.65154 -5.863206,4.6545 l -2.194182,0.002 1.4087,1.16685 c 5.382599,4.45803 16.013511,10.45116 25.12043,14.16141 2.711606,1.10474 5.194165,2.01544 5.516975,2.02417 0.407789,0.011 0.58965,-0.87974 0.595312,-2.91869 0.01167,-4.19668 1.023316,-8.39222 3.232362,-13.4028 2.172769,-4.92829 2.250112,-5.22278 1.102773,-4.21679 -3.957257,3.46972 -8.338283,2.8086 -10.896492,-1.64383 z m 43.852104,1.418 c 0.28272,-1e-5 2.27064,2.1392 2.96985,3.19567 0.34746,0.525 0.67722,0.95371 0.73277,0.95291 0.0556,-7.9e-4 0.39245,-0.45337 0.74827,-1.00562 0.69336,-1.07612 2.59601,-3.14296 2.89337,-3.14296 0.20177,0 2.02055,2.18993 2.02055,2.43292 0,0.0855 -0.30595,0.45092 -0.68007,0.81184 -1.30756,1.26147 -2.71339,3.66785 -3.15949,5.40846 -0.23258,0.90748 0.0464,0.82777 -2.39882,0.68678 l -1.00976,-0.0579 -0.29714,-0.94775 c -0.60717,-1.93526 -2.08972,-4.28252 -3.37292,-5.34024 l -0.59945,-0.49403 0.49661,-0.62787 c 0.27331,-0.34513 0.71733,-0.90766 0.98651,-1.25005 0.26917,-0.34239 0.57057,-0.62218 0.66972,-0.62218 z m 48.65079,0.31729 -0.35967,0.87902 c -1.4644,3.57759 -3.30351,5.27951 -5.85133,5.41569 -1.92465,0.10287 -3.74449,-0.67082 -5.70146,-2.42414 -0.48196,-0.43181 -0.83274,-0.67284 -0.77979,-0.53589 0.0529,0.13696 0.69363,1.59353 1.4242,3.23701 2.4716,5.56012 3.09599,8.22478 3.10369,13.24674 l 0.005,3.2861 0.41496,-0.10387 c 0.22826,-0.0571 1.51834,-0.50518 2.86649,-0.9958 9.21433,-3.35333 18.65121,-8.27141 25.58035,-13.33149 l 1.96835,-1.43763 -1.08727,-0.19896 c -2.6161,-0.47937 -4.28083,-2.14221 -5.19451,-5.18831 -0.23408,-0.78039 -0.45836,-1.52426 -0.49816,-1.65313 -0.0402,-0.13032 -0.51715,0.49566 -1.07487,1.41076 -2.72743,4.47513 -5.01559,6.38279 -7.70237,6.42029 -2.70311,0.0377 -4.83686,-2.15095 -6.64456,-6.81561 z m -58.392313,13.57798 c -0.03444,0.002 -1.141762,0.82342 -2.460834,1.8247 l -2.398303,1.82056 0.759127,-0.0775 c 2.417024,-0.24763 4.770279,1.28101 6.079215,3.94912 0.329755,0.67216 0.599445,1.28878 0.599445,1.36994 0,0.2257 0.0908,0.18204 0.52555,-0.2527 l 0.39998,-0.40049 -1.720312,-4.11913 c -0.94642,-2.26553 -1.749428,-4.11686 -1.783868,-4.11448 z m 29.755293,0.46509 c -0.034,0 -1.88681,1.45277 -4.11758,3.22823 -2.23076,1.77545 -4.10864,3.22771 -4.17287,3.22771 -0.0642,0 -1.07507,-0.84493 -2.24638,-1.87792 -1.17131,-1.03299 -2.16988,-1.87844 -2.21898,-1.87844 -0.0491,0 -1.16979,1.51166 -2.49029,3.35897 -2.30576,3.22562 -2.39568,3.37249 -2.2779,3.71037 l 0.12248,0.35191 0.36277,-0.68781 c 0.50861,-0.96396 1.71471,-2.14541 2.6572,-2.60294 1.06563,-0.51721 2.22253,-0.69681 3.31607,-0.5147 1.269,0.21133 2.65447,0.93483 3.64423,1.90324 l 0.80305,0.78548 0.19276,-0.48162 c 1.06076,-2.65116 3.02738,-4.54811 5.19813,-5.01365 1.30443,-0.27975 3.03987,0.079 4.1,0.84698 0.27105,0.19634 0.51888,0.3312 0.55036,0.29972 0.0607,-0.0607 -3.3177,-4.65553 -3.42305,-4.65553 z m -40.210986,0.46922 c -0.07372,0 -1.357337,1.14462 -2.852539,2.54352 -1.495203,1.39889 -2.811114,2.62893 -2.924371,2.73316 -0.190947,0.17575 -0.131223,0.18992 0.821655,0.19844 1.745708,0.0156 3.114244,0.59901 4.534607,1.93218 l 0.836125,0.78445 0.141076,-0.39946 c 0.508191,-1.43965 1.775122,-3.1855 2.886131,-3.97702 0.362487,-0.25824 0.657873,-0.49585 0.656291,-0.52813 -0.0052,-0.11136 -3.965258,-3.28714 -4.098975,-3.28714 z m 17.292486,2.82257 -1.043353,1.71618 c -0.57374,0.94382 -1.06059,1.76146 -1.0821,1.81694 -0.0215,0.0555 0.19119,0.002 0.47284,-0.11886 1.070853,-0.45902 2.416053,-0.60473 3.304193,-0.35812 0.24816,0.0689 0.47254,0.10366 0.49868,0.0775 0.0261,-0.0261 -0.44667,-0.74187 -1.0511,-1.5906 z m 32.57166,0.39584 c -0.0185,-0.0185 -1.07037,0.6252 -2.33733,1.43041 l -2.30373,1.46399 0.33745,0.61185 c 0.18563,0.33664 0.42218,0.86376 0.52555,1.17099 l 0.1881,0.5581 0.72295,-0.65422 c 0.39766,-0.35986 1.10771,-0.84415 1.57768,-1.07642 0.57661,-0.28497 0.87138,-0.50182 0.90693,-0.66715 0.10135,-0.47135 0.41577,-2.80418 0.3824,-2.83755 z m -59.191743,0.91622 c -0.01434,0.0179 -0.05736,0.83062 -0.0956,1.80558 l -0.06976,1.7725 0.699183,-0.68368 c 0.384413,-0.37614 0.698664,-0.71845 0.698664,-0.76016 0,-0.10025 -1.198825,-2.17622 -1.232482,-2.13424 z m 16.17369,1.73582 c -0.530759,0.002 -1.46449,0.5114 -1.993161,1.08727 -2.416572,2.6323 -2.460911,8.34825 -0.0832,10.72596 0.289367,0.28937 0.695923,0.60023 0.903304,0.6904 1.270066,0.55223 2.844157,-0.42042 3.780131,-2.33526 0.680109,-1.39139 0.823333,-2.12111 0.819073,-4.18269 -0.0035,-1.68219 -0.02842,-1.89026 -0.330729,-2.75849 -0.674047,-1.93586 -1.916605,-3.23135 -3.095419,-3.22719 z m 33.221233,0.35398 c -0.66078,0.004 -1.31104,0.3554 -1.98851,1.0759 -0.72581,0.77194 -1.10893,1.49666 -1.52083,2.87631 -0.26065,0.873 -0.31043,1.27149 -0.31885,2.56005 -0.0111,1.69963 0.15133,2.52328 0.75034,3.80804 0.4819,1.03357 1.04705,1.68637 1.78077,2.05776 1.00193,0.50713 1.82564,0.3024 2.83239,-0.70435 0.60486,-0.60487 1.37662,-2.07125 1.66657,-3.16622 0.29624,-1.11877 0.35205,-3.1193 0.11937,-4.29069 -0.47259,-2.37918 -1.9265,-4.22487 -3.32125,-4.2168 z m 16.09876,0.16278 c -0.0148,-0.004 -0.0319,-0.002 -0.0512,0.003 -0.0968,0.0268 -0.57205,0.10929 -1.05626,0.18345 -1.37986,0.21131 -1.34909,0.15521 -0.53176,0.97255 0.45951,0.4595 0.85697,0.99967 1.07074,1.45469 0.18703,0.39809 0.36686,0.69772 0.39946,0.66559 0.0326,-0.0321 0.11217,-0.79362 0.17673,-1.69189 0.0901,-1.25343 0.0957,-1.55926 -0.008,-1.5875 z m -61.03039,2.32906 c -0.236704,0.005 -0.469244,0.0493 -0.691946,0.13436 -1.436347,0.54854 -2.285876,2.31604 -2.14974,4.47259 0.0816,1.29266 0.415592,2.3121 1.072803,3.2737 0.521923,0.76366 1.38217,1.49586 1.985923,1.69034 3.202252,1.03151 5.016201,-4.09291 2.712498,-7.66362 -0.793075,-1.22925 -1.903815,-1.93085 -2.929538,-1.90737 z m 22.66064,0.31677 c -0.37236,-0.005 -0.78061,0.11452 -1.2144,0.36329 -2.504763,1.43643 -3.132773,6.35007 -0.956533,7.48481 0.828783,0.43215 1.657663,0.19132 2.606563,-0.75757 1.34356,-1.34357 1.92925,-3.57663 1.39113,-5.30562 -0.36185,-1.16262 -1.00759,-1.77449 -1.82676,-1.78491 z m 10.67686,0.0222 c -0.0767,-0.004 -0.15294,-0.003 -0.22892,10e-4 -0.28055,0.0155 -0.55542,0.0847 -0.81701,0.21135 -0.66018,0.31959 -1.06148,0.78209 -1.51412,1.74615 -0.4186,0.89156 -0.55474,2.38128 -0.32556,3.56774 0.32379,1.67623 1.45764,3.31172 2.70681,3.90467 2.07055,0.98285 3.99149,-0.90261 3.99149,-3.91811 0,-1.17313 -0.20592,-2.07685 -0.69091,-3.03547 -0.76197,-1.50607 -1.97183,-2.42399 -3.12178,-2.47737 z m 22.46634,0.33589 c -1.4343,0 -2.90263,1.66379 -3.35484,3.80132 -0.39865,1.88434 0.30491,3.81381 1.51981,4.16874 1.46385,0.42767 3.28852,-1.36684 3.7884,-3.72535 0.21342,-1.007 0.21144,-1.45356 -0.0114,-2.31252 -0.3283,-1.26561 -0.99836,-1.93219 -1.942,-1.93219 z m -62.07891,3.3228 c -0.0337,-0.004 -0.07747,0.008 -0.134874,0.0259 -0.134567,0.0427 -0.59485,0.19554 -1.023194,0.34003 l -0.77928,0.26303 0.93586,0.36432 c 0.514488,0.20049 0.974773,0.36802 1.023194,0.37207 0.04842,0.004 0.08837,-0.31314 0.08837,-0.70486 0,-0.50131 -0.009,-0.64886 -0.110072,-0.66043 z"
       id="path883" />
  </g>
</svg>
