<?xml version="1.0" encoding="UTF-8" standalone="no"?>
<!-- Created with Inkscape (http://www.inkscape.org/) -->

<svg
   xmlns:dc="http://purl.org/dc/elements/1.1/"
   xmlns:cc="http://creativecommons.org/ns#"
   xmlns:rdf="http://www.w3.org/1999/02/22-rdf-syntax-ns#"
   xmlns:svg="http://www.w3.org/2000/svg"
   xmlns="http://www.w3.org/2000/svg"
   xmlns:sodipodi="http://sodipodi.sourceforge.net/DTD/sodipodi-0.dtd"
   xmlns:inkscape="http://www.inkscape.org/namespaces/inkscape"
   width="161.69806mm"
   height="86.328056mm"
   viewBox="0 0 161.69806 86.328056"
   version="1.1"
   id="svg862"
   inkscape:version="0.92.2 (5c3e80d, 2017-08-06)"
   sodipodi:docname="FossekallFill.svg">
  <defs
     id="defs856">
    <filter
       style="color-interpolation-filters:sRGB"
       id="filter826"
       inkscape:label="filter0">
      <feMorphology
         id="feMorphology828"
         radius="0.69999999999999996" />
    </filter>
  </defs>
  <sodipodi:namedview
     id="base"
     pagecolor="#ffffff"
     bordercolor="#666666"
     borderopacity="1.0"
     inkscape:pageopacity="0.0"
     inkscape:pageshadow="2"
     inkscape:zoom="1.4"
     inkscape:cx="251.2366"
     inkscape:cy="200.14874"
     inkscape:document-units="mm"
     inkscape:current-layer="layer1"
     showgrid="false"
     fit-margin-top="0"
     fit-margin-left="0"
     fit-margin-right="0"
     fit-margin-bottom="0"
     inkscape:window-width="1920"
     inkscape:window-height="1017"
     inkscape:window-x="-8"
     inkscape:window-y="-8"
     inkscape:window-maximized="1"
     inkscape:snap-global="false" />
  <metadata
     id="metadata859">
    <rdf:RDF>
      <cc:Work
         rdf:about="">
        <dc:format>image/svg+xml</dc:format>
        <dc:type
           rdf:resource="http://purl.org/dc/dcmitype/StillImage" />
        <dc:title />
      </cc:Work>
    </rdf:RDF>
  </metadata>
  <g
     inkscape:label="Layer 1"
     inkscape:groupmode="layer"
     id="layer1"
     transform="translate(-25.657873,-86.391609)">
    <path
       style="display:inline;opacity:1;fill:#808080;fill-opacity:1;stroke:none;stroke-width:0.50507629;stroke-linecap:round;stroke-linejoin:bevel;stroke-miterlimit:4;stroke-dasharray:none;stroke-dashoffset:0;stroke-opacity:1;"
       d="m 45.453124,106.34962 c -0.220497,-0.0272 -1.723889,-0.20233 -3.340869,-0.38916 -1.616981,-0.18683 -3.721728,-0.4839 -4.677217,-0.66017 -1.776875,-0.32779 -4.668734,-1.13781 -4.904778,-1.37386 -0.189057,-0.18906 1.183405,-0.67344 2.34601,-0.82798 0.525333,-0.0698 2.217999,-0.22031 3.761481,-0.33441 2.661774,-0.19676 4.724235,-0.40439 5.371201,-0.54072 0.22033,-0.0464 0.336685,0.0296 0.468748,0.30637 0.09662,0.20248 0.471193,0.54854 0.832391,0.76904 0.361198,0.2205 1.144731,0.88666 1.741183,1.48036 l 1.084461,1.07945 -0.831811,0.2903 c -0.808704,0.28224 -1.012032,0.3043 -1.8508,0.20078 z"
       id="path5180"
       inkscape:connector-curvature="0" />
    <path
       style="display:inline;opacity:1;fill:#808080;fill-opacity:1;stroke:none;stroke-width:0.50507629;stroke-linecap:round;stroke-linejoin:bevel;stroke-miterlimit:4;stroke-dasharray:none;stroke-dashoffset:0;stroke-opacity:1;"
       d="m 70.217414,117.47229 c 0.256112,-1.07041 0.155157,-1.46434 -0.76958,-3.00296 -1.753121,-2.91692 -4.373639,-4.95304 -7.990991,-6.20894 -1.572022,-0.54578 -5.16024,-1.45741 -6.900651,-1.75318 -0.68876,-0.11706 -2.013658,-0.2017 -3.157122,-0.2017 h -1.970312 v -0.34821 c 0,-0.26057 -0.315308,-0.66623 -1.252826,-1.6118 -0.689054,-0.69497 -1.540647,-1.45185 -1.892429,-1.68195 l -0.639604,-0.41836 1.576433,-0.80958 c 1.824089,-0.93676 2.537646,-1.41166 3.882865,-2.584232 2.877397,-2.508098 5.478704,-3.812185 9.16364,-4.593917 1.805943,-0.383117 4.919671,-0.407719 6.768301,-0.05348 4.460976,0.854831 8.922129,3.013086 13.096206,6.335799 1.94469,1.54804 3.775869,3.47602 5.604221,5.90048 1.868467,2.47765 3.228425,3.91208 4.649018,4.9036 l 0.965621,0.67397 -2.306834,1.07988 c -5.42132,2.53785 -9.167778,3.66831 -15.143199,4.56934 -1.443961,0.21773 -2.842644,0.45622 -3.108182,0.52998 -0.79519,0.22089 -0.799526,0.21542 -0.574575,-0.72475 z M 61.622488,104.8194 c 1.106088,-0.30707 2.07178,-1.76956 2.07178,-3.13761 0,-0.69847 -0.12919,-0.86454 -0.988978,-1.27129 -1.112255,-0.526193 -1.907558,-0.519747 -2.996258,0.0243 -1.168622,0.58396 -1.406292,0.92771 -1.319072,1.90778 0.176212,1.9801 1.464929,2.96755 3.232528,2.47683 z"
       id="path5182"
       inkscape:connector-curvature="0" />
    <path
       style="display:inline;opacity:1;fill:#808080;fill-opacity:1;stroke:none;stroke-width:0.50507629;stroke-linecap:round;stroke-linejoin:bevel;stroke-miterlimit:4;stroke-dasharray:none;stroke-dashoffset:0;stroke-opacity:1;"
       d="m 62.064832,149.69789 c -3.744098,-4.20854 -6.491169,-9.04957 -7.809643,-13.76256 -0.293208,-1.0481 -0.354756,-1.59218 -0.41152,-3.63785 -0.05981,-2.1555 -0.03129,-2.6137 0.274437,-4.40995 1.05161,-6.17847 0.800483,-10.23245 -0.844373,-13.63075 -0.609302,-1.25882 -1.581915,-2.60995 -3.4564,-4.80155 -0.749996,-0.87687 -1.342239,-1.65863 -1.316095,-1.73725 0.125287,-0.37674 2.892313,-0.44454 5.325207,-0.13049 2.796371,0.36098 7.440515,1.64154 9.259425,2.55316 2.346624,1.1761 4.550843,3.25893 5.620369,5.31084 0.53018,1.01716 0.55136,1.22108 0.25102,2.41674 l -0.216034,0.86004 -1.153721,0.61323 c -2.374183,1.26194 -4.08172,2.94218 -5.216115,5.13272 -0.713558,1.37789 -0.94891,2.26014 -0.94891,3.55712 0,1.90303 0.663887,3.4246 2.248199,5.15268 l 0.690269,0.75291 -0.733761,0.55399 c -0.403569,0.3047 -0.828456,0.69852 -0.944192,0.87516 -0.251775,0.38426 -0.207865,0.48552 0.768614,1.7727 0.3776,0.49775 0.822077,1.20567 0.987727,1.57317 0.288737,0.64056 0.807736,2.70124 0.705961,2.80301 -0.02696,0.0269 -0.500266,-0.10675 -1.051803,-0.29711 -1.182457,-0.40813 -1.735572,-0.35688 -1.735572,0.16082 0,0.17767 0.188746,1.09359 0.419434,2.03539 0.377288,1.54029 0.425725,1.9742 0.482036,4.31823 0.03443,1.43324 0.04113,2.75563 0.01487,2.93865 -0.04296,0.29955 -0.163674,0.20243 -1.20944,-0.97305 z"
       id="path5184"
       inkscape:connector-curvature="0" />
    <path
       style="display:inline;opacity:1;fill:#808080;fill-opacity:1;stroke:none;stroke-width:0.50507629;stroke-linecap:round;stroke-linejoin:bevel;stroke-miterlimit:4;stroke-dasharray:none;stroke-dashoffset:0;stroke-opacity:1;"
       d="m 128.57395,153.46703 c -6.80566,-0.26435 -12.15015,-0.79081 -22.36482,-2.20305 l -5.3932,-0.74565 -0.954448,0.36323 c -0.778923,0.29642 -1.242634,0.37503 -2.521458,0.4274 -3.211314,0.13153 -6.709778,-0.86567 -12.183883,-3.47291 l -2.258298,-1.07559 -1.488895,-0.10218 c -2.420837,-0.16615 -4.436443,-0.80767 -6.821702,-2.17119 -1.556811,-0.88995 -3.764402,-2.55567 -3.992155,-3.01225 -0.09807,-0.19661 -0.617434,-1.63823 -1.154139,-3.2036 -1.085297,-3.16543 -0.866764,-2.85035 -2.894822,-4.17368 -2.911687,-1.8999 -4.375825,-4.48156 -3.941146,-6.94928 0.267809,-1.52037 1.280028,-3.33169 2.640589,-4.72523 4.841095,-4.95843 15.056575,-5.04173 31.790569,-0.25925 3.269298,0.93435 7.497808,2.34143 9.955788,3.3129 2.56363,1.01323 7.87352,3.63994 10.27972,5.08519 3.64471,2.18914 7.65143,5.02502 8.9971,6.36796 0.62304,0.62178 0.63476,0.64901 0.63466,1.47506 -1.2e-4,0.94433 -0.39486,1.92389 -1.25443,3.11294 -0.58109,0.80381 -0.60435,1.14523 -0.10622,1.55876 0.33013,0.27405 6.54251,4.37348 13.65515,9.01076 l 2.3386,1.52471 -5.14493,-0.0206 c -2.82971,-0.0113 -6.34765,-0.0673 -7.81763,-0.12443 z"
       id="path5186"
       inkscape:connector-curvature="0" />
    <path
       style="display:inline;opacity:1;fill:#808080;fill-opacity:1;stroke:none;stroke-width:0.50507629;stroke-linecap:round;stroke-linejoin:bevel;stroke-miterlimit:4;stroke-dasharray:none;stroke-dashoffset:0;stroke-opacity:1;"
       d="m 138.12884,150.09196 c -0.51882,-0.37964 -2.52007,-1.69189 -10.24977,-6.72093 l -1.49668,-0.97376 0.54277,-0.81281 c 0.65521,-0.98119 1.17441,-2.3903 1.17825,-3.19782 0.006,-1.25155 -0.8596,-2.27699 -3.75503,-4.44868 -5.98598,-4.4897 -13.61223,-8.45274 -21.29867,-11.06801 -7.91511,-2.69307 -16.365002,-4.64683 -22.293182,-5.15456 l -1.04525,-0.0895 1.245703,-0.31889 c 2.730395,-0.69896 4.226087,-1.268 8.445233,-3.21299 l 3.056853,-1.40919 1.41991,0.43229 c 5.597689,1.70419 21.432653,8.04314 29.215943,11.69554 1.81296,0.85075 2.34595,1.04792 4.71445,1.744 1.85989,0.5466 9.35159,2.43053 12.45939,3.13315 l 1.27131,0.28742 6.47951,-1.20634 c 22.14373,-4.12267 28.09699,-5.22646 28.18893,-5.22646 0.0568,0 0.13365,0.37857 0.17079,0.84126 0.10451,1.3019 0.33129,1.61429 1.64479,2.26572 0.62184,0.3084 1.13028,0.59243 1.12989,0.63117 -5.3e-4,0.0388 -0.67692,0.30434 -1.50339,0.5902 -3.68921,1.27605 -11.18374,3.91922 -13.86825,4.89105 -5.22486,1.89147 -5.61262,2.06389 -6.96281,3.09603 -1.23478,0.94393 -1.7699,1.38549 -7.66584,6.32566 -4.98322,4.17541 -10.18685,8.36296 -10.37584,8.34982 -0.0262,-0.002 -0.31827,-0.20133 -0.64901,-0.44335 z"
       id="path5188"
       inkscape:connector-curvature="0" />
    <path
       style="display:inline;opacity:1;fill:#808080;fill-opacity:1;stroke:none;stroke-width:0.50507629;stroke-linecap:round;stroke-linejoin:bevel;stroke-miterlimit:4;stroke-dasharray:none;stroke-dashoffset:0;stroke-opacity:1;"
       d="m 96.033882,164.34254 c -3.206936,-0.19483 -7.953883,-0.90709 -10.942021,-1.64181 -7.168796,-1.76266 -14.281746,-5.2371 -19.46248,-9.50678 l -1.102572,-0.90869 -0.06861,-3.64624 c -0.06366,-3.38297 -0.09352,-3.7379 -0.413593,-4.91577 -0.189738,-0.69824 -0.346186,-1.31016 -0.347657,-1.35983 -0.0016,-0.0497 0.373168,0.0572 0.832537,0.23748 1.049364,0.41182 1.553488,0.45829 1.746497,0.16101 0.207205,-0.31915 -0.08063,-2.46865 -0.509239,-3.80288 -0.301424,-0.93831 -0.596609,-1.44788 -1.643681,-2.83745 l -0.306197,-0.40636 0.750175,-0.49809 0.750176,-0.49808 0.569127,0.31089 c 1.633601,0.8924 1.503135,0.69166 2.697345,4.15019 l 1.080826,3.13016 0.856876,0.70561 c 1.953147,1.60835 5.03468,3.3889 6.937259,4.00843 1.251948,0.40767 2.735374,0.69215 4.094284,0.78517 1.127906,0.0772 1.279724,0.12751 3.188811,1.05664 5.624407,2.73733 10.70586,4.06095 13.638483,3.55256 0.510238,-0.0885 1.286386,-0.30534 1.724772,-0.48196 l 0.79707,-0.32113 4.54832,0.65684 c 10.28818,1.48575 16.46948,2.08227 24.42781,2.35738 2.10935,0.0729 2.59329,0.12338 2.40543,0.25081 -0.46656,0.31649 -2.85946,1.53361 -4.9336,2.50942 -7.70471,3.62479 -14.45467,5.75504 -20.82582,6.57251 -2.84374,0.36487 -7.789954,0.54403 -10.490328,0.37997 z"
       id="path5190"
       inkscape:connector-curvature="0" />
    <path
       inkscape:connector-curvature="0"
       id="path5196"
       d="m 59.870277,105.27302 c -0.942548,-0.25382 -1.502676,-0.93856 -1.836556,-2.24518 -0.203725,-0.79727 -0.235838,-1.3802 -0.09373,-1.70145 0.279986,-0.63296 1.608636,-1.469172 2.698655,-1.698466 0.782458,-0.164595 1.322969,-0.08798 2.165851,0.307007 0.835075,0.391329 1.12053,0.593119 1.277646,0.903179 0.137498,0.27133 0.13929,0.29043 0.07961,0.84772 -0.08802,0.82196 -0.19711,1.22279 -0.509278,1.8713 -0.596103,1.23837 -1.531746,1.80836 -2.952412,1.79861 -0.294938,-0.002 -0.668343,-0.0392 -0.829787,-0.0827 z m 1.726387,-1.19721 c 0.555856,-0.21121 0.915657,-0.63106 1.186207,-1.38418 0.18177,-0.50597 0.292214,-1.30157 0.190603,-1.373 -0.03832,-0.0269 -0.307237,-0.16621 -0.597582,-0.30949 -0.590905,-0.2916 -1.022404,-0.35746 -1.571099,-0.23977 -0.424106,0.0909 -1.150492,0.44945 -1.512986,0.74672 l -0.312821,0.25654 0.04795,0.3535 c 0.113002,0.83286 0.425573,1.62925 0.726843,1.85188 0.372222,0.27508 1.253269,0.32182 1.842876,0.0978 z"
       style="display:inline;opacity:1;fill:#808080;fill-opacity:1;stroke:none;stroke-width:0.21134344;stroke-linecap:round;stroke-linejoin:bevel;stroke-miterlimit:4;stroke-dasharray:none;stroke-dashoffset:0;stroke-opacity:1;" />
    <path
       style="display:inline;opacity:1;fill:#808080;fill-opacity:1;stroke:none;stroke-width:0.2575289;stroke-linecap:round;stroke-linejoin:bevel;stroke-miterlimit:4;stroke-dasharray:none;stroke-dashoffset:0;stroke-opacity:1;"
       d="m 59.617713,105.88968 c -1.148525,-0.30929 -1.83106,-1.14366 -2.237903,-2.73582 -0.248246,-0.9715 -0.287377,-1.68182 -0.114213,-2.07328 0.341172,-0.77128 1.960175,-1.790231 3.288399,-2.069633 0.953451,-0.200564 1.612081,-0.107206 2.63916,0.374098 1.017566,0.476847 1.365403,0.722735 1.556854,1.100555 0.167546,0.33062 0.169729,0.3539 0.09701,1.03297 -0.107255,1.00159 -0.240185,1.49001 -0.620572,2.28024 -0.726371,1.509 -1.866482,2.20355 -3.59761,2.19167 -0.359392,-0.002 -0.814398,-0.0478 -1.011123,-0.10077 z m 2.103659,-1.45884 c 0.677329,-0.25736 1.115758,-0.76897 1.445432,-1.68667 0.221493,-0.61654 0.356073,-1.586 0.232256,-1.67304 -0.04669,-0.0328 -0.374378,-0.20253 -0.728173,-0.37713 -0.720037,-0.35532 -1.245833,-0.43557 -1.914435,-0.29216 -0.516788,0.11076 -1.401913,0.54767 -1.843623,0.9099 l -0.381183,0.3126 0.05843,0.43075 c 0.137696,1.01487 0.518574,1.9853 0.885682,2.25658 0.453564,0.33519 1.527149,0.39215 2.245604,0.11917 z"
       id="path830"
       inkscape:connector-curvature="0" />
  </g>
</svg>
