<?xml version="1.0" encoding="UTF-8" standalone="no"?>
<!-- Created with Inkscape (http://www.inkscape.org/) -->

<svg
   xmlns:dc="http://purl.org/dc/elements/1.1/"
   xmlns:cc="http://creativecommons.org/ns#"
   xmlns:rdf="http://www.w3.org/1999/02/22-rdf-syntax-ns#"
   xmlns:svg="http://www.w3.org/2000/svg"
   xmlns="http://www.w3.org/2000/svg"
   xmlns:sodipodi="http://sodipodi.sourceforge.net/DTD/sodipodi-0.dtd"
   xmlns:inkscape="http://www.inkscape.org/namespaces/inkscape"
   width="161.69806mm"
   height="86.328056mm"
   viewBox="0 0 161.69806 86.328056"
   version="1.1"
   id="svg862"
   inkscape:version="0.92.2 (5c3e80d, 2017-08-06)"
   sodipodi:docname="FossekallOutline.svg">
  <defs
     id="defs856">
    <filter
       style="color-interpolation-filters:sRGB"
       id="filter814"
       inkscape:label="filter0">
      <feMorphology
         id="feMorphology816"
         operator="dilate"
         radius="0.59999999999999998" />
    </filter>
    <filter
       style="color-interpolation-filters:sRGB"
       id="filter818"
       inkscape:label="filter1">
      <feMorphology
         id="feMorphology820"
         operator="dilate"
         radius="0.20000000000000001" />
    </filter>
  </defs>
  <sodipodi:namedview
     id="base"
     pagecolor="#ffffff"
     bordercolor="#666666"
     borderopacity="1.0"
     inkscape:pageopacity="0.0"
     inkscape:pageshadow="2"
     inkscape:zoom="1.4"
     inkscape:cx="235.85509"
     inkscape:cy="156.89456"
     inkscape:document-units="mm"
     inkscape:current-layer="layer1"
     showgrid="false"
     fit-margin-top="0"
     fit-margin-left="0"
     fit-margin-right="0"
     fit-margin-bottom="0"
     inkscape:window-width="1920"
     inkscape:window-height="1017"
     inkscape:window-x="-8"
     inkscape:window-y="-8"
     inkscape:window-maximized="1" />
  <metadata
     id="metadata859">
    <rdf:RDF>
      <cc:Work
         rdf:about="">
        <dc:format>image/svg+xml</dc:format>
        <dc:type
           rdf:resource="http://purl.org/dc/dcmitype/StillImage" />
        <dc:title />
      </cc:Work>
    </rdf:RDF>
  </metadata>
  <g
     inkscape:label="Layer 1"
     inkscape:groupmode="layer"
     id="layer1"
     transform="translate(-25.657873,-86.391609)">
    <path
       style="display:inline;opacity:1;fill:#808080;fill-opacity:1;stroke:#808080;stroke-width:0.79374999;stroke-linecap:round;stroke-linejoin:bevel;stroke-miterlimit:4;stroke-dasharray:none;stroke-dashoffset:0;stroke-opacity:1;"
       d="m 95.44395,164.3764 c -1.862929,-0.17575 -5.150432,-0.62363 -6.765214,-0.92167 -9.64616,-1.78039 -18.992482,-6.30183 -24.937275,-12.06381 -4.739574,-4.59384 -8.622784,-11.09083 -9.998948,-16.72923 -0.267891,-1.0976 -0.309486,-1.60436 -0.307123,-3.74178 0.0024,-2.07936 0.05872,-2.78308 0.35506,-4.42823 0.836289,-4.64273 0.762704,-8.39008 -0.22157,-11.28335 -0.626768,-1.84237 -1.470049,-3.15183 -3.704328,-5.75213 -0.750596,-0.87356 -1.455211,-1.73862 -1.565812,-1.92237 -0.499985,-0.83065 -0.783303,-0.93202 -3.372885,-1.20676 -5.153512,-0.54676 -7.637317,-0.94873 -9.951637,-1.61053 -2.247546,-0.64271 -3.127535,-1.02709 -3.223101,-1.40785 -0.118196,-0.47093 0.215641,-0.87749 1.060041,-1.29095 1.098389,-0.53783 2.128851,-0.72906 5.169842,-0.95942 2.972762,-0.22519 6.020168,-0.53469 7.26876,-0.73823 0.43311,-0.0706 0.829359,-0.10249 0.880551,-0.0708 0.05119,0.0316 0.693271,-0.23692 1.426837,-0.5968 1.252868,-0.614637 2.043764,-1.179016 4.789589,-3.417825 1.945625,-1.586365 4.302734,-2.741789 7.048998,-3.455329 2.04919,-0.532424 3.254357,-0.653946 5.68969,-0.573718 3.420224,0.112675 6.017702,0.817363 9.711952,2.634824 5.037765,2.478431 8.905973,5.695158 12.291253,10.221188 0.879589,1.17598 2.074199,2.60614 2.654687,3.17812 1.438738,1.41765 3.324153,2.63357 4.69837,3.03001 4.773477,1.37708 20.265773,7.52605 28.174043,11.18241 2.90106,1.3413 3.90094,1.72788 6.19373,2.39465 2.02932,0.59015 9.21602,2.38994 12.0035,3.00607 l 1.33634,0.29538 16.30345,-3.03557 c 20.20637,-3.76226 18.73468,-3.5046 19.01506,-3.32913 0.15359,0.0961 0.26359,0.42288 0.33601,0.99809 0.23536,1.86936 0.0422,1.61486 1.91002,2.51635 1.65379,0.79817 1.6739,0.8133 1.63244,1.22821 -0.0402,0.40222 -0.0959,0.43878 -1.31152,0.86028 -9.21547,3.19542 -16.05096,5.62504 -19.06853,6.77774 -2.24553,0.85779 -2.11927,0.76761 -8.23458,5.88141 -4.99082,4.17347 -9.17491,7.60286 -11.09962,9.09756 -0.74449,0.57815 -1.37108,1.09662 -1.39244,1.15215 -0.0214,0.0555 0.82054,0.65759 1.87088,1.33789 1.05035,0.6803 1.92503,1.24955 1.94373,1.265 0.0187,0.0155 -0.0345,0.22479 -0.11836,0.46519 l -0.15237,0.4371 -4.3584,-0.0479 -4.35841,-0.0479 -0.46772,0.35308 c -0.98023,0.73997 -4.05675,2.33863 -7.51794,3.90656 -7.54343,3.41719 -13.95315,5.35037 -20.47855,6.17634 -1.55072,0.19629 -9.742387,0.36938 -11.1585,0.23578 z m 11.19319,-1.17236 c 6.21307,-0.81743 12.21054,-2.59162 19.15542,-5.6666 1.97257,-0.8734 6.71299,-3.22488 7.12087,-3.53231 0.2215,-0.16695 -0.11198,-0.20056 -2.73951,-0.27609 -7.34547,-0.21115 -13.95135,-0.85615 -24.77418,-2.41898 l -4.00904,-0.57891 -0.49693,0.25119 c -3.019397,1.5263 -8.877796,0.3493 -15.978652,-3.21025 -1.436108,-0.7199 -1.719723,-0.81601 -2.408137,-0.81601 -1.063821,0 -3.088881,-0.35558 -4.301916,-0.75538 -2.104043,-0.69347 -5.041614,-2.36054 -7.090278,-4.02374 -0.883211,-0.71703 -0.816226,-0.57885 -2.115172,-4.36313 l -0.91337,-2.66097 -1.047885,-0.64649 c -0.576337,-0.35557 -1.095769,-0.64649 -1.154298,-0.64649 -0.134472,0 -1.443379,0.93572 -1.443379,1.03186 0,0.0392 0.293328,0.46958 0.651844,0.95631 0.82736,1.12327 1.131498,1.7373 1.398108,2.82268 0.277884,1.13127 0.454001,2.65623 0.355135,3.07504 -0.110057,0.4662 -0.436092,0.48018 -1.496502,0.0641 -0.507987,-0.1993 -0.959057,-0.32692 -1.002377,-0.28361 -0.04332,0.0433 0.08085,0.75656 0.275931,1.58497 0.334831,1.42187 0.354627,1.69476 0.353545,4.87386 l -0.0013,3.36766 1.207897,0.99113 c 4.424256,3.63031 9.675651,6.44553 15.696901,8.41498 4.273523,1.39779 7.746243,2.08185 13.630746,2.685 1.38979,0.14245 9.559119,-0.0337 11.126369,-0.23986 z m 35.37185,-10.48953 c -0.0698,-0.0668 -2.9408,-1.96171 -6.37994,-4.21086 -8.46751,-5.5376 -9.84737,-6.46929 -9.86585,-6.66146 -0.0349,-0.36332 0.0627,-0.57683 0.68021,-1.48744 0.754,-1.11192 1.07288,-1.97117 1.07288,-2.89102 0,-0.57846 -0.064,-0.73402 -0.50113,-1.21843 -1.21955,-1.35139 -6.25119,-4.89119 -10.04256,-7.06501 -2.47667,-1.42003 -7.04483,-3.63985 -9.43471,-4.58465 -6.8322,-2.70099 -17.043752,-5.44972 -23.653348,-6.36699 -2.548602,-0.35369 -6.467509,-0.5346 -8.508439,-0.39279 -5.258163,0.36537 -8.770774,2.09716 -10.914557,5.38111 -1.060958,1.62522 -1.28115,2.30457 -1.286153,3.9681 -0.0041,1.3661 0.01154,1.442 0.501197,2.43278 0.27799,0.56247 0.819209,1.3669 1.202712,1.78763 0.763775,0.8379 2.345623,2.06391 3.339181,2.58803 0.756595,0.39912 0.717341,0.31975 1.972157,3.98758 l 0.975601,2.85168 0.880126,0.70743 c 3.222678,2.59036 6.773269,4.12186 9.967288,4.29925 1.315201,0.073 1.368068,0.0891 3.34087,1.01776 2.747441,1.29324 4.441878,1.99233 6.230397,2.57052 2.545472,0.82289 3.828913,1.05367 5.863548,1.05434 1.635427,5.3e-4 1.893025,-0.0331 2.75568,-0.35953 0.52339,-0.19807 1.13186,-0.36013 1.35217,-0.36013 0.2203,0 2.31777,0.2679 4.66104,0.59533 11.70222,1.63516 17.2135,2.14245 25.37479,2.33565 6.34508,0.15021 10.56065,0.15876 10.41684,0.0211 z m -78.138452,-5.75843 c -0.0587,-2.33083 -0.109646,-2.78661 -0.48273,-4.31823 -0.504383,-2.07066 -0.515596,-2.32436 -0.110873,-2.50876 0.243694,-0.11104 0.531209,-0.0574 1.407787,0.26248 l 1.10155,0.40202 -0.0834,-0.49349 c -0.04587,-0.27141 -0.206116,-0.96412 -0.3561,-1.53934 -0.265422,-1.01797 -0.470112,-1.37088 -1.968765,-3.39441 -0.424283,-0.57288 -0.267753,-0.91372 0.770705,-1.67819 l 0.785347,-0.57814 -0.590825,-0.66074 c -2.608945,-2.91768 -3.040444,-5.72227 -1.362496,-8.85576 1.086088,-2.02822 2.69875,-3.70588 4.528619,-4.71114 1.971127,-1.08286 1.797418,-0.90684 2.069182,-2.09673 l 0.245179,-1.07349 -0.400352,-0.84853 c -1.004287,-2.12852 -3.265892,-4.3268 -5.717672,-5.55757 -2.653046,-1.3318 -8.00635,-2.62711 -11.559407,-2.79696 -1.57936,-0.0755 -3.207683,0.0934 -3.20696,0.33262 1.33e-4,0.0499 0.667376,0.87252 1.482721,1.828 1.790523,2.09828 2.661979,3.30098 3.292198,4.54359 1.707261,3.36619 2.021711,7.48741 1.014535,13.29665 -0.464847,2.68117 -0.520338,6.12446 -0.125979,7.81687 1.098129,4.71266 4.074488,10.09895 8.048694,14.56564 1.068705,1.20114 1.192689,1.30165 1.23625,1.00226 0.02663,-0.18302 0.01889,-1.50541 -0.0172,-2.93865 z m 77.299852,1.3806 c 2.42356,-1.90122 5.45678,-4.38658 9.60926,-7.87363 5.08841,-4.27301 7.30184,-6.0421 8.00718,-6.39981 1.03429,-0.52451 10.75065,-4.0387 18.95019,-6.85384 l 2.17901,-0.74812 -1.16897,-0.61043 c -0.64293,-0.33573 -1.28168,-0.76537 -1.41942,-0.95475 -0.15373,-0.21136 -0.28634,-0.70162 -0.34337,-1.26953 -0.0884,-0.88036 -0.10905,-0.92409 -0.42551,-0.90229 -0.30441,0.0209 -18.3668,3.36329 -29.5986,5.47702 l -4.67722,0.88022 -1.20271,-0.23568 c -1.87789,-0.36799 -10.60119,-2.5463 -12.84503,-3.20755 -2.24953,-0.66294 -2.66261,-0.82665 -6.66566,-2.64164 -8.60601,-3.90201 -22.271365,-9.3164 -27.237602,-10.7919 l -1.312466,-0.38994 -3.030664,1.3877 c -4.504272,2.06245 -5.485943,2.43973 -8.202724,3.15251 -0.811091,0.2128 -1.498444,0.41064 -1.527456,0.43965 -0.02901,0.029 0.58882,0.092 1.372955,0.13998 6.094921,0.37292 18.082297,3.41525 26.070747,6.61662 6.28665,2.51937 11.97714,5.66885 17.00763,9.41313 2.10632,1.56777 3.26811,2.6355 3.62223,3.32899 0.55042,1.07791 0.24016,2.73171 -0.82029,4.37245 -0.29159,0.45113 -0.53015,0.84107 -0.53015,0.86654 0,0.0255 1.87875,1.27125 4.17499,2.76842 2.29624,1.49715 5.04746,3.30399 6.1138,4.01519 1.06634,0.71119 2.00944,1.29752 2.09578,1.30294 0.0863,0.005 0.89817,-0.5716 1.80407,-1.28225 z m -69.17155,-31.0973 c 0.583707,-0.1163 1.903184,-0.33312 2.932173,-0.48181 3.626085,-0.52397 8.212997,-1.71783 11.015382,-2.86704 1.864931,-0.76477 5.890342,-2.63621 5.885968,-2.73642 -0.0019,-0.0434 -0.317566,-0.28944 -0.701492,-0.54668 -1.263296,-0.84647 -3.029,-2.68492 -4.620464,-4.81085 -4.541046,-6.066078 -10.769931,-10.416134 -17.318072,-12.094398 -3.896905,-0.998763 -7.46534,-0.841215 -11.299756,0.498887 -2.289135,0.800039 -3.916077,1.782223 -6.147198,3.711067 -1.405128,1.214758 -2.932845,2.218704 -4.376539,2.876054 -0.606367,0.2761 -1.102487,0.54805 -1.102487,0.60434 0,0.0563 0.255577,0.25308 0.567948,0.43732 0.858403,0.50631 3.173647,2.92264 3.174629,3.31324 l 7.94e-4,0.3194 2.104805,0.0192 c 2.72451,0.0249 5.65495,0.58002 9.466485,1.7933 4.146188,1.3198 7.018946,3.62735 8.793663,7.06353 l 0.640077,1.23931 -0.213442,0.84971 c -0.258876,1.03059 -0.264057,1.17689 -0.03861,1.09038 0.09616,-0.0369 0.652415,-0.16225 1.236123,-0.27856 z M 47.603088,105.54683 c 0.284596,-0.11898 0.613458,-0.37217 0.792053,-0.44014 0.318273,-0.12114 0.306339,-0.14232 -0.601356,-1.0678 -0.509341,-0.51932 -1.330506,-1.20691 -1.824811,-1.52798 -0.553209,-0.35933 -0.928482,-0.70227 -0.976102,-0.892 l -0.07736,-0.30824 -1.29569,0.16509 c -0.71263,0.0908 -2.900847,0.29068 -4.862706,0.44418 -3.513797,0.27494 -4.661068,0.46016 -5.482992,0.88519 -0.535218,0.27677 -0.465224,0.31609 1.642664,0.92281 2.552076,0.73456 5.797811,1.2499 11.616839,1.84444 0.257247,0.0263 0.475411,0.0574 0.484811,0.0692 0.0094,0.0118 0.300054,0.0243 0.584652,-0.0947 z"
       id="path5173"
       inkscape:connector-curvature="0"
       sodipodi:nodetypes="scsscsccssssssscsssssscsssccscccsssscccsccccsssscscssccssscscssscccccccccsscccscsscsssssccsssccssscsscsccccscscsscsscccssscscscscccsscscccccscsssscssccssssssscscssccsssssssccsssccccccccsscssssccc" />
    <path
       style="display:inline;opacity:1;fill:#808080;fill-opacity:1;stroke:none;stroke-width:0.52916676;stroke-linecap:round;stroke-linejoin:bevel;stroke-miterlimit:4;stroke-dasharray:none;stroke-dashoffset:0;stroke-opacity:1;"
       d="m 60.566561,104.10304 c -0.837117,-0.22542 -1.33459,-0.83357 -1.631119,-1.99403 -0.180938,-0.70809 -0.20946,-1.22581 -0.08324,-1.51113 0.248666,-0.56215 1.428691,-1.304828 2.396783,-1.508472 0.694931,-0.146183 1.174981,-0.07814 1.923579,0.27267 0.741662,0.347554 0.995188,0.526772 1.134727,0.802142 0.122121,0.24099 0.123711,0.25794 0.0707,0.7529 -0.07817,0.73001 -0.175059,1.08601 -0.45231,1.66197 -0.529424,1.09984 -1.360403,1.60608 -2.622156,1.59742 -0.261948,-0.002 -0.593582,-0.0349 -0.736965,-0.0735 z m 1.533274,-1.06329 c 0.493678,-0.18758 0.813229,-0.56046 1.053518,-1.22934 0.161436,-0.44938 0.259527,-1.15597 0.169283,-1.21942 -0.03404,-0.0239 -0.272873,-0.14762 -0.530736,-0.27487 -0.524809,-0.25898 -0.908039,-0.317464 -1.395359,-0.21295 -0.376664,0.0808 -1.021797,0.39918 -1.343742,0.6632 l -0.277831,0.22784 0.04259,0.31396 c 0.100356,0.73969 0.37797,1.447 0.645538,1.64473 0.330584,0.2443 1.113078,0.28583 1.636731,0.0868 z"
       id="path5175"
       inkscape:connector-curvature="0" />
  </g>
</svg>
