<?xml version="1.0" encoding="UTF-8" standalone="no"?>
<!-- Created with Inkscape (http://www.inkscape.org/) -->

<svg
   xmlns:dc="http://purl.org/dc/elements/1.1/"
   xmlns:cc="http://creativecommons.org/ns#"
   xmlns:rdf="http://www.w3.org/1999/02/22-rdf-syntax-ns#"
   xmlns:svg="http://www.w3.org/2000/svg"
   xmlns="http://www.w3.org/2000/svg"
   xmlns:sodipodi="http://sodipodi.sourceforge.net/DTD/sodipodi-0.dtd"
   xmlns:inkscape="http://www.inkscape.org/namespaces/inkscape"
   width="152.90305mm"
   height="87.664398mm"
   viewBox="0 0 152.90305 87.664398"
   version="1.1"
   id="svg831"
   inkscape:version="0.92.2 (5c3e80d, 2017-08-06)"
   sodipodi:docname="FossekallOutlineDilated.svg">
  <defs
     id="defs825">
    <filter
       style="color-interpolation-filters:sRGB"
       id="filter826"
       inkscape:label="filter0">
      <feMorphology
         id="feMorphology828"
         radius="0.69999999999999996" />
    </filter>
    <filter
       style="color-interpolation-filters:sRGB"
       id="filter1391"
       inkscape:label="filter0">
      <feMorphology
         id="feMorphology1389"
         radius="0.69999999999999996" />
    </filter>
    <filter
       style="color-interpolation-filters:sRGB"
       id="filter1395"
       inkscape:label="filter0">
      <feMorphology
         id="feMorphology1393"
         radius="0.69999999999999996" />
    </filter>
    <filter
       style="color-interpolation-filters:sRGB"
       id="filter1399"
       inkscape:label="filter0">
      <feMorphology
         id="feMorphology1397"
         radius="0.69999999999999996" />
    </filter>
    <filter
       style="color-interpolation-filters:sRGB"
       id="filter1403"
       inkscape:label="filter0">
      <feMorphology
         id="feMorphology1401"
         radius="0.69999999999999996" />
    </filter>
  </defs>
  <sodipodi:namedview
     id="base"
     pagecolor="#ffffff"
     bordercolor="#666666"
     borderopacity="1.0"
     inkscape:pageopacity="0.0"
     inkscape:pageshadow="2"
     inkscape:zoom="0.7"
     inkscape:cx="282.97233"
     inkscape:cy="157.64366"
     inkscape:document-units="mm"
     inkscape:current-layer="layer1"
     showgrid="false"
     inkscape:window-width="968"
     inkscape:window-height="602"
     inkscape:window-x="2120"
     inkscape:window-y="185"
     inkscape:window-maximized="0"
     fit-margin-top="0"
     fit-margin-left="0"
     fit-margin-right="0"
     fit-margin-bottom="0" />
  <metadata
     id="metadata828">
    <rdf:RDF>
      <cc:Work
         rdf:about="">
        <dc:format>image/svg+xml</dc:format>
        <dc:type
           rdf:resource="http://purl.org/dc/dcmitype/StillImage" />
        <dc:title></dc:title>
      </cc:Work>
    </rdf:RDF>
  </metadata>
  <g
     inkscape:label="Layer 1"
     inkscape:groupmode="layer"
     id="layer1"
     transform="translate(-27.7836,-86.926147)">
    <path
       style="opacity:1;fill:#808080;fill-opacity:1;stroke:none;stroke-width:0.37797621;stroke-linecap:round;stroke-linejoin:bevel;stroke-miterlimit:4;stroke-dasharray:none;stroke-dashoffset:0;stroke-opacity:1"
       d="m 89.808145,168.96902 c -10.123549,-1.34057 -18.551446,-4.57361 -25.731079,-9.87075 -5.608264,-4.13778 -10.596838,-11.0025 -12.895009,-17.74468 l -0.791583,-2.32229 -0.07328,-3.36328 c -0.06106,-2.80248 -0.0021,-3.82663 0.352703,-6.14211 1.006112,-6.56319 0.304803,-10.05337 -2.788615,-13.878 -0.695315,-0.85967 -1.674279,-2.07065 -2.175474,-2.69106 -0.501196,-0.62041 -1.03348,-1.19642 -1.182853,-1.28001 -0.149374,-0.0836 -2.274732,-0.40278 -4.723018,-0.70929 -4.57341,-0.57258 -6.954841,-1.04167 -9.248281,-1.82172 -1.714422,-0.58311 -2.004351,-0.85884 -2.004351,-1.90624 0,-1.1252 0.230394,-1.48353 1.303498,-2.02732 1.107509,-0.56121 2.33114,-0.77154 6.634002,-1.14028 5.735791,-0.49154 6.765848,-0.66146 8.139893,-1.34277 0.683005,-0.33867 2.298264,-1.43768 3.589466,-2.44225 2.68891,-2.092009 4.051321,-2.901589 6.206739,-3.688219 2.908822,-1.06159 3.957974,-1.2258 7.67179,-1.20076 4.68819,0.0316 6.503739,0.45628 10.826555,2.53239 5.167336,2.481709 8.816332,5.464259 12.59645,10.295859 3.360121,4.29477 4.673814,5.27022 9.17744,6.81443 6.425772,2.20329 16.960342,6.4178 25.213792,10.08715 5.24122,2.33016 6.37665,2.70438 13.81862,4.55444 l 6.054,1.50501 14.73469,-2.74455 c 15.95922,-2.97263 19.91304,-3.68002 20.56879,-3.68002 0.7592,0 1.09278,0.43272 1.32057,1.71305 l 0.21639,1.21627 1.60614,0.85044 1.60614,0.85045 0.0558,1.05646 c 0.0367,0.69503 -0.028,1.1252 -0.18899,1.25737 -0.13462,0.11051 -3.09376,1.19824 -6.57586,2.4172 -9.89561,3.46409 -14.84277,5.29256 -15.72474,5.81186 -0.44645,0.26287 -3.36764,2.5969 -6.49154,5.18674 -3.1239,2.58984 -6.86587,5.67011 -8.31548,6.84503 -1.44961,1.17493 -2.65931,2.19642 -2.68823,2.26998 -0.0289,0.0736 0.54514,0.53119 1.27567,1.01696 l 1.32824,0.88322 v 1.10929 c 0,0.72759 -0.0923,1.1859 -0.26831,1.33196 -0.19876,0.16496 -1.36216,0.18926 -4.48847,0.0937 l -4.22015,-0.12894 -1.03292,0.69998 c -1.37035,0.92865 -6.37896,3.36834 -10.03366,4.88739 -5.06059,2.10339 -10.12486,3.64366 -14.7303,4.48015 -4.29308,0.77975 -13.370192,0.96089 -17.925163,0.35772 z m 10.743615,-2.51258 c 2.19427,-0.0534 4.07052,-0.21499 5.57515,-0.4801 5.79044,-1.02022 12.60502,-3.2992 18.89881,-6.32026 l 2.07887,-0.99787 -2.74032,-0.13433 c -5.77583,-0.28312 -12.10242,-0.93658 -20.31667,-2.09845 l -4.536159,-0.64162 -1.133487,0.38595 c -1.000474,0.34066 -1.443942,0.37404 -3.779311,0.28453 -3.743648,-0.1435 -6.805911,-1.03134 -12.000743,-3.47935 -1.82693,-0.86093 -2.429423,-1.05154 -3.779764,-1.1958 -0.883517,-0.0944 -2.116666,-0.30108 -2.740326,-0.45933 -2.510957,-0.6371 -7.923578,-3.78931 -8.799582,-5.1247 -0.195138,-0.29747 -0.803494,-1.83366 -1.351904,-3.41377 -0.833056,-2.40024 -1.082754,-2.92351 -1.517676,-3.18042 -0.634945,-0.37507 -0.636771,-0.35266 -0.05591,0.68661 0.255561,0.45725 0.594485,1.38219 0.753158,2.05542 0.349557,1.48312 0.389813,4.17105 0.0673,4.49356 -0.124732,0.12473 -0.571217,0.2267 -0.992187,0.22659 l -0.765403,-1.9e-4 0.05447,3.63822 c 0.02996,2.00101 0.08789,3.73623 0.12874,3.85602 0.189553,0.55594 4.632101,3.7344 7.565298,5.41268 3.586146,2.05187 9.652812,4.33929 14.079614,5.30869 3.870611,0.84759 8.560083,1.40492 10.961309,1.3027 0.571688,-0.0243 2.527717,-0.0805 4.346723,-0.12477 z m 29.73894,-14.5972 c -8.0275,-5.28258 -7.62745,-4.95831 -7.62684,-6.18199 2.6e-4,-0.78521 0.13345,-1.19682 0.67982,-2.10294 0.37364,-0.61965 0.72312,-1.39645 0.77664,-1.72622 0.0902,-0.55571 -0.005,-0.68472 -1.29404,-1.7628 -1.84671,-1.54392 -7.28943,-5.1704 -9.94176,-6.6242 -6.75524,-3.70268 -14.284016,-6.44662 -24.132536,-8.79534 -11.293647,-2.69337 -18.413574,-2.55395 -22.888493,0.44818 -2.172647,1.45759 -3.858472,3.9047 -4.018383,5.83302 -0.154456,1.86253 1.344377,3.95923 4.166388,5.8283 1.498063,0.9922 1.665872,1.27822 2.81278,4.79415 l 0.82794,2.53811 1.591775,1.17968 c 2.839001,2.10401 5.77504,3.31232 8.912032,3.66768 1.415325,0.16033 2.043253,0.35951 4.092258,1.29808 6.120384,2.80352 10.171951,3.81771 12.523726,3.13494 1.965607,-0.57066 2.843234,-0.53777 9.638393,0.36119 12.45722,1.64802 17.65103,2.05907 27.37658,2.16664 l 2.71364,0.03 z m 9.54831,-1.71585 c 1.51943,-1.21636 4.76115,-3.8787 7.20383,-5.91631 6.3017,-5.25672 8.27628,-6.79881 9.22787,-7.20671 1.06118,-0.45488 10.59804,-3.91064 15.0571,-5.45608 1.87098,-0.64845 3.43918,-1.21289 3.48487,-1.25432 0.0457,-0.0414 -0.0997,-0.20337 -0.32318,-0.35988 -0.23014,-0.16119 -0.46102,-0.58946 -0.53255,-0.98784 -0.0695,-0.3868 -0.17915,-0.79486 -0.24378,-0.9068 -0.12737,-0.22062 -0.67709,-0.12435 -21.28417,3.72725 -14.28534,2.67001 -11.90819,2.59322 -19.84375,0.64106 -7.4905,-1.84267 -9.07477,-2.35342 -13.79194,-4.4464 -7.87159,-3.49258 -16.72416,-7.09884 -22.87175,-9.3172 -5.478219,-1.97683 -4.399201,-1.96839 -8.678191,-0.0679 -2.024337,0.8991 -3.784314,1.63472 -3.911057,1.63472 -0.616532,0 0.142684,0.2156 2.016426,0.5726 9.668627,1.84219 19.048852,4.85623 26.447822,8.49817 7.13706,3.51303 14.57703,8.74984 15.22642,10.71752 0.34115,1.03371 0.13303,3.2427 -0.40844,4.335 l -0.45489,0.91764 3.87426,2.53162 c 2.13084,1.39239 4.55461,2.98154 5.38616,3.53144 0.83155,0.5499 1.5444,1.00526 1.58411,1.0119 0.0397,0.007 1.31539,-0.98312 2.83483,-2.19948 z m -79.627503,-2.77127 c -0.750803,-3.77334 -0.677805,-4.08859 0.946734,-4.08859 h 1.036627 l -0.380198,-0.74524 c -0.209108,-0.40989 -0.721103,-1.23191 -1.137769,-1.82672 -0.990288,-1.41369 -1.054108,-2.48004 -0.196385,-3.28127 0.558938,-0.52213 0.559666,-0.52561 0.181475,-0.86787 -0.20884,-0.189 -0.69525,-0.98208 -1.080905,-1.7624 -0.688871,-1.39384 -0.701053,-1.45713 -0.693197,-3.60194 0.0066,-1.81516 0.07868,-2.3525 0.42736,-3.18777 1.034891,-2.47911 2.864705,-4.56675 5.186548,-5.91732 0.753859,-0.43852 1.476962,-0.92644 1.606891,-1.0843 0.794917,-0.96573 -0.557437,-3.21177 -3.249046,-5.39615 -1.868895,-1.5167 -4.743434,-2.66732 -8.707994,-3.48562 -1.930387,-0.39845 -5.378229,-0.84977 -5.507111,-0.72089 -0.03917,0.0392 0.411756,0.65793 1.002064,1.37503 3.433283,4.17066 4.363182,7.05772 4.163562,12.92657 -0.05834,1.71507 -0.238019,3.88371 -0.399301,4.8192 -0.429149,2.48924 -0.563446,5.29244 -0.316894,6.61458 0.729874,3.91396 3.330086,9.13794 6.584752,13.22917 l 0.902066,1.13393 0.05595,-0.8571 c 0.03077,-0.47139 -0.160584,-1.94528 -0.425225,-3.2753 z m 14.070917,-27.90561 c 4.746585,-0.94064 7.145247,-1.7221 12.305863,-4.0091 l 0.87208,-0.38648 -1.167042,-1.15449 c -0.641877,-0.63497 -1.980452,-2.17502 -2.97461,-3.42234 -2.179244,-2.73418 -5.335014,-5.81545 -7.583284,-7.40425 -4.870167,-3.441629 -11.194113,-5.511659 -15.20771,-4.977959 -4.111591,0.54674 -6.743553,1.72835 -10.341281,4.642709 -0.935491,0.7578 -2.279452,1.71588 -2.986581,2.12906 l -1.285688,0.75124 0.532213,0.37897 c 0.292716,0.20843 0.948344,0.89779 1.456951,1.5319 l 0.92474,1.15294 h 1.827056 c 2.220341,0 4.660629,0.39841 7.595871,1.24014 4.023117,1.1537 6.321174,2.39329 8.377404,4.51885 1.442353,1.49098 2.92929,4.06877 2.929306,5.07831 l 8e-6,0.72644 0.992187,-0.12644 c 0.545703,-0.0696 2.225336,-0.37082 3.732517,-0.6695 z M 43.922805,108.17346 c -0.326695,-0.2828 -0.942569,-0.79479 -1.368609,-1.13776 l -0.774619,-0.62358 -3.780341,0.32533 c -2.079187,0.17892 -3.753755,0.3519 -3.721261,0.3844 0.21652,0.21652 8.365649,1.48866 9.95534,1.55411 0.16881,0.007 0.04321,-0.19632 -0.31051,-0.5025 z"
       id="path818"
       inkscape:connector-curvature="0" />
    <path
       style="opacity:1;fill:#808080;fill-opacity:1;stroke:none;stroke-width:0.13363476;stroke-linecap:round;stroke-linejoin:bevel;stroke-miterlimit:4;stroke-dasharray:none;stroke-dashoffset:0;stroke-opacity:1"
       d="m 58.204242,108.31693 c -0.90229,-0.17807 -1.45633,-0.83589 -1.755693,-2.08458 -0.158543,-0.66132 -0.17694,-1.57531 -0.03715,-1.84564 0.219176,-0.42383 1.01554,-0.98107 1.816796,-1.27126 1.103762,-0.39975 1.9417,-0.34023 3.047203,0.21646 0.877798,0.44202 0.986849,0.58763 0.986849,1.31771 0,0.77625 -0.158256,1.48554 -0.47465,2.12735 -0.445362,0.90343 -1.032367,1.37322 -1.928082,1.54309 -0.413946,0.0785 -1.24964,0.0769 -1.655276,-0.003 z m 1.327952,-1.41025 c 0.35528,-0.10644 0.765022,-0.47432 0.962623,-0.86427 0.149524,-0.29507 0.364268,-0.98134 0.364268,-1.16412 0,-0.0892 -0.732404,-0.45988 -1.104593,-0.55907 -0.408718,-0.10893 -1.017895,0.10268 -1.759749,0.6113 -0.28316,0.19413 -0.290714,0.20854 -0.253125,0.48279 0.05139,0.37494 0.281983,0.98129 0.458534,1.20574 0.266695,0.33905 0.78609,0.4512 1.332042,0.28763 z"
       id="path820"
       inkscape:connector-curvature="0" />
  </g>
</svg>
