<?xml version="1.0" encoding="UTF-8" standalone="no"?>
<!-- Created with Inkscape (http://www.inkscape.org/) -->

<svg
   xmlns:dc="http://purl.org/dc/elements/1.1/"
   xmlns:cc="http://creativecommons.org/ns#"
   xmlns:rdf="http://www.w3.org/1999/02/22-rdf-syntax-ns#"
   xmlns:svg="http://www.w3.org/2000/svg"
   xmlns="http://www.w3.org/2000/svg"
   xmlns:sodipodi="http://sodipodi.sourceforge.net/DTD/sodipodi-0.dtd"
   xmlns:inkscape="http://www.inkscape.org/namespaces/inkscape"
   width="152.90305mm"
   height="87.664398mm"
   viewBox="0 0 152.90305 87.664398"
   version="1.1"
   id="svg831"
   inkscape:version="0.92.2 (5c3e80d, 2017-08-06)"
   sodipodi:docname="FossekallFillEroded.svg">
  <defs
     id="defs825">
    <filter
       style="color-interpolation-filters:sRGB"
       id="filter826"
       inkscape:label="filter0">
      <feMorphology
         id="feMorphology828"
         radius="0.69999999999999996" />
    </filter>
    <filter
       style="color-interpolation-filters:sRGB"
       id="filter1391"
       inkscape:label="filter0">
      <feMorphology
         id="feMorphology1389"
         radius="0.69999999999999996" />
    </filter>
    <filter
       style="color-interpolation-filters:sRGB"
       id="filter1395"
       inkscape:label="filter0">
      <feMorphology
         id="feMorphology1393"
         radius="0.69999999999999996" />
    </filter>
    <filter
       style="color-interpolation-filters:sRGB"
       id="filter1399"
       inkscape:label="filter0">
      <feMorphology
         id="feMorphology1397"
         radius="0.69999999999999996" />
    </filter>
    <filter
       style="color-interpolation-filters:sRGB"
       id="filter1403"
       inkscape:label="filter0">
      <feMorphology
         id="feMorphology1401"
         radius="0.69999999999999996" />
    </filter>
  </defs>
  <sodipodi:namedview
     id="base"
     pagecolor="#ffffff"
     bordercolor="#666666"
     borderopacity="1.0"
     inkscape:pageopacity="0.0"
     inkscape:pageshadow="2"
     inkscape:zoom="0.49497475"
     inkscape:cx="403.18297"
     inkscape:cy="187.33906"
     inkscape:document-units="mm"
     inkscape:current-layer="layer1"
     showgrid="false"
     inkscape:window-width="968"
     inkscape:window-height="602"
     inkscape:window-x="2120"
     inkscape:window-y="185"
     inkscape:window-maximized="0"
     fit-margin-top="0"
     fit-margin-left="0"
     fit-margin-right="0"
     fit-margin-bottom="0" />
  <metadata
     id="metadata828">
    <rdf:RDF>
      <cc:Work
         rdf:about="">
        <dc:format>image/svg+xml</dc:format>
        <dc:type
           rdf:resource="http://purl.org/dc/dcmitype/StillImage" />
        <dc:title></dc:title>
      </cc:Work>
    </rdf:RDF>
  </metadata>
  <g
     inkscape:label="Layer 1"
     inkscape:groupmode="layer"
     id="layer1"
     transform="translate(-27.7836,-86.926147)">
    <path
       style="opacity:1;fill:#808080;fill-opacity:1;stroke:none;stroke-width:0.1889881;stroke-linecap:round;stroke-linejoin:bevel;stroke-miterlimit:4;stroke-dasharray:none;stroke-dashoffset:0;stroke-opacity:1"
       d="m 70.623015,118.05103 c -0.0037,-0.98046 -0.155625,-1.46764 -0.788829,-2.52953 -0.673359,-1.12923 -1.327655,-1.96914 -2.236835,-2.87141 -2.116005,-2.0999 -4.650917,-3.33887 -9.179031,-4.48637 -3.328834,-0.84359 -3.747696,-0.90756 -6.328572,-0.96663 l -2.33062,-0.0533 -0.05794,-0.30887 c -0.06767,-0.36069 -0.764288,-1.18747 -1.872262,-2.22207 l -0.764629,-0.71399 1.124795,-0.60892 c 1.23503,-0.66861 2.017047,-1.22205 3.579021,-2.53295 3.042235,-2.553216 6.541775,-4.079957 10.22154,-4.459341 4.354322,-0.448932 10.135341,1.526979 15.415636,5.268951 2.726431,1.93213 4.717251,3.89829 7.299732,7.20928 1.541114,1.97585 2.584707,3.15214 3.472784,3.91436 0.428453,0.36773 0.779264,0.69431 0.779573,0.72574 2.65e-4,0.0314 -0.605377,0.33548 -1.345972,0.67566 -5.240065,2.40695 -8.890164,3.49768 -14.764695,4.41204 -1.039437,0.16178 -1.964296,0.31017 -2.055246,0.32976 -0.14732,0.0317 -0.165701,-0.0537 -0.16845,-0.78237 z m -9.293608,-12.47978 c 0.21392,-0.0971 0.504999,-0.32878 0.646842,-0.51475 0.305925,-0.40109 0.617858,-1.34429 0.617858,-1.86824 0,-0.36545 -0.01283,-0.37965 -0.59059,-0.65297 -0.857676,-0.40575 -1.52695,-0.39129 -2.3969,0.0518 -1.009619,0.51419 -1.109764,0.62445 -1.032878,1.13714 0.08812,0.58763 0.396582,1.45649 0.595728,1.67804 0.241999,0.26922 0.472681,0.33736 1.156782,0.34172 0.405366,0.003 0.746461,-0.0561 1.003158,-0.17271 z"
       id="path1453"
       inkscape:connector-curvature="0" />
    <path
       style="opacity:1;fill:#808080;fill-opacity:1;stroke:none;stroke-width:0.1889881;stroke-linecap:round;stroke-linejoin:bevel;stroke-miterlimit:4;stroke-dasharray:none;stroke-dashoffset:0;stroke-opacity:1"
       d="m 42.703108,107.58836 c -3.779948,-0.45552 -5.73915,-0.7679 -7.453863,-1.18846 -1.547063,-0.37944 -2.878769,-0.78909 -3.022211,-0.92967 -0.219659,-0.21527 1.395398,-0.69977 2.822056,-0.84658 0.519717,-0.0535 2.029259,-0.18488 3.354539,-0.29199 2.551102,-0.20619 4.783219,-0.43317 5.139671,-0.52263 0.168129,-0.0422 0.271244,0.0205 0.476603,0.28973 0.14413,0.18896 0.579434,0.57828 0.967342,0.86515 0.699806,0.51753 2.582307,2.26072 2.582307,2.39121 0,0.10461 -1.616823,0.574 -1.937128,0.56238 -0.155915,-0.006 -1.474107,-0.15377 -2.929316,-0.32914 z"
       id="path1455"
       inkscape:connector-curvature="0" />
    <path
       style="opacity:1;fill:#808080;fill-opacity:1;stroke:none;stroke-width:0.1889881;stroke-linecap:round;stroke-linejoin:bevel;stroke-miterlimit:4;stroke-dasharray:none;stroke-dashoffset:0;stroke-opacity:1"
       d="m 61.50123,149.57676 c -2.781335,-3.33959 -4.977901,-7.08812 -6.314989,-10.77678 -0.720772,-1.9884 -0.904362,-2.83802 -1.015547,-4.69974 -0.106059,-1.77585 -0.109138,-1.73707 0.431503,-5.43341 0.565634,-3.86722 0.584393,-7.63151 0.05098,-10.22978 -0.543486,-2.64732 -1.581089,-4.5659 -4.098768,-7.57883 -0.770705,-0.92231 -0.881687,-1.09628 -0.747316,-1.17148 0.233059,-0.13043 2.699988,0.0831 4.246062,0.36748 2.669117,0.49098 6.098147,1.48484 7.685223,2.22745 2.360525,1.10452 4.798923,3.36138 5.853727,5.41793 0.31724,0.61853 0.318375,0.6254 0.197305,1.19591 -0.06697,0.31559 -0.175596,0.62343 -0.241388,0.6841 -0.06579,0.0607 -0.60139,0.37668 -1.190225,0.70227 -2.387087,1.31989 -3.94725,2.86556 -5.073994,5.02685 -0.848807,1.62815 -0.910508,1.91702 -0.908984,4.2558 0.0013,1.96327 0.01003,2.05747 0.260403,2.79991 0.257514,0.76364 0.867135,1.79806 1.508027,2.55886 l 0.335132,0.39784 -0.509101,0.5091 -0.509103,0.5091 v 0.89845 0.89845 l 0.758523,1.07031 c 0.692365,0.97695 1.222367,1.91532 1.3608,2.40931 0.05202,0.18563 0.02183,0.19109 -0.867347,0.15691 -0.518459,-0.0199 -1.034862,0.009 -1.181105,0.0652 l -0.259858,0.10061 v 0.99631 c 0,0.79804 0.06563,1.28494 0.329764,2.44662 0.381968,1.67989 0.542925,2.99414 0.502224,4.10076 l -0.02879,0.7827 z"
       id="path1457"
       inkscape:connector-curvature="0" />
    <path
       style="opacity:1;fill:#808080;fill-opacity:1;stroke:none;stroke-width:0.1889881;stroke-linecap:round;stroke-linejoin:bevel;stroke-miterlimit:4;stroke-dasharray:none;stroke-dashoffset:0;stroke-opacity:1"
       d="m 130.29909,154.35245 c -6.98485,-0.18076 -13.29107,-0.79103 -25.25093,-2.44357 -4.57092,-0.63159 -4.97248,-0.64217 -6.342635,-0.16715 -0.97105,0.33666 -1.052277,0.34896 -2.28255,0.34563 -2.736704,-0.007 -5.923843,-1.00648 -11.257378,-3.52885 l -1.986991,-0.9397 -1.197198,-0.10128 c -2.060196,-0.17427 -3.138196,-0.40468 -4.69139,-1.00275 -2.324711,-0.89514 -6.002176,-3.36265 -6.461133,-4.3353 -0.09809,-0.20788 -0.550066,-1.44103 -1.004385,-2.74032 -0.881906,-2.52215 -1.129313,-3.09332 -1.480526,-3.41799 -0.122082,-0.11286 -0.662416,-0.50197 -1.200746,-0.86471 -1.393287,-0.93882 -2.122527,-1.56512 -2.78943,-2.39565 -0.675336,-0.84104 -1.12739,-1.6989 -1.357442,-2.57603 -0.153985,-0.5871 -0.153956,-0.65434 5.29e-4,-1.25809 0.205899,-0.80467 0.971777,-2.35421 1.52959,-3.09468 2.323698,-3.0846 5.729537,-4.58488 11.155056,-4.9138 2.358917,-0.14301 7.027011,0.39229 11.613706,1.33176 5.519544,1.13056 13.805313,3.56419 18.527263,5.44171 3.00322,1.19412 8.19083,3.79474 11.02565,5.52731 4.08415,2.49613 8.65622,5.90904 8.82688,6.58899 0.0978,0.38958 -0.42027,1.53133 -1.22681,2.70383 -0.33552,0.48776 -0.33849,0.50077 -0.33849,1.483 0,0.98 0.003,0.99385 0.28454,1.25672 0.24306,0.22705 5.53508,3.73839 12.04576,7.99257 l 1.79421,1.17236 -3.4951,-0.0198 c -1.92231,-0.0109 -3.92033,-0.0308 -4.44005,-0.0442 z"
       id="path1459"
       inkscape:connector-curvature="0" />
    <path
       style="opacity:1;fill:#808080;fill-opacity:1;stroke:none;stroke-width:0.26726952;stroke-linecap:round;stroke-linejoin:bevel;stroke-miterlimit:4;stroke-dasharray:none;stroke-dashoffset:0;stroke-opacity:1"
       d="m 134.47433,148.32616 c -2.14696,-1.41032 -4.62035,-3.03015 -5.49642,-3.59963 l -1.59288,-1.03542 0.47484,-1.0983 c 0.40517,-0.93715 0.4839,-1.28662 0.53665,-2.38199 0.0526,-1.09206 0.0208,-1.37637 -0.21273,-1.90436 -0.36292,-0.82044 -1.20977,-1.70625 -2.87141,-3.00348 -5.4369,-4.2446 -12.97666,-8.33518 -20.24407,-10.98312 -5.620719,-2.04795 -13.278073,-4.11986 -18.537926,-5.01594 -1.102487,-0.18782 -2.153197,-0.37477 -2.334913,-0.41543 -0.264573,-0.0592 -0.03829,-0.18873 1.135896,-0.65011 0.806458,-0.31689 2.669,-1.12711 4.138983,-1.80048 l 2.672693,-1.22432 1.002261,0.29308 c 4.448228,1.30074 18.696616,6.9919 27.996486,11.18249 3.24397,1.46176 4.16527,1.77485 8.75409,2.97496 6.43867,1.68391 10.20602,2.53391 11.23065,2.53391 0.64501,0 5.35863,-0.82314 15.26347,-2.66547 18.01285,-3.35043 18.72163,-3.4807 18.74277,-3.44461 0.01,0.0163 0.0858,0.42058 0.16934,0.89833 0.12977,0.74184 0.2236,0.93149 0.64292,1.29935 l 0.49097,0.43073 -0.36414,0.13845 c -0.20027,0.0761 -1.75692,0.62533 -3.45921,1.22042 -9.42416,3.2945 -14.25151,5.05893 -15.33905,5.60654 -0.97,0.48841 -2.2514,1.49658 -8.08596,6.3618 -2.63637,2.19837 -6.05626,5.01198 -7.59974,6.25246 -1.54348,1.24049 -2.89716,2.33169 -3.00817,2.42488 -0.16999,0.14272 -0.81791,-0.23523 -4.1054,-2.39474 z"
       id="path1461"
       inkscape:connector-curvature="0" />
    <path
       style="opacity:1;fill:#808080;fill-opacity:1;stroke:none;stroke-width:0.26726952;stroke-linecap:round;stroke-linejoin:bevel;stroke-miterlimit:4;stroke-dasharray:none;stroke-dashoffset:0;stroke-opacity:1"
       d="m 94.348017,165.00842 c -8.165234,-0.91711 -13.800965,-2.48777 -19.913359,-5.5498 -3.244408,-1.62529 -5.828691,-3.2701 -8.429707,-5.3652 l -1.148389,-0.92502 -0.09236,-3.41766 c -0.0508,-1.87972 -0.128516,-3.68147 -0.172712,-4.0039 l -0.08035,-0.58625 h 1.006125 c 0.794182,0 1.023215,-0.0445 1.087245,-0.21138 0.142274,-0.37076 0.08637,-1.95495 -0.112152,-3.17797 -0.258543,-1.5928 -0.556024,-2.48939 -1.151975,-3.47199 -0.274415,-0.45246 -0.480467,-0.84212 -0.457893,-0.86592 0.09906,-0.10441 0.867037,0.40481 1.190805,0.78959 0.439219,0.52198 0.503912,0.67782 1.548596,3.73044 0.465336,1.35973 0.906319,2.55091 0.979964,2.64705 0.264202,0.34491 2.587352,2.00721 3.963699,2.83616 2.638343,1.58904 4.538945,2.24808 7.466626,2.58907 1.555086,0.18112 1.676572,0.21958 3.837419,1.21485 4.139946,1.90682 7.103491,2.91063 9.873064,3.3442 2.036747,0.31885 4.851308,0.22252 6.084383,-0.20825 0.477744,-0.16689 0.999974,-0.29519 1.160524,-0.28511 0.16054,0.0101 2.44684,0.31691 5.08067,0.68181 7.74831,1.07349 14.17575,1.73299 18.94896,1.94429 0.95549,0.0423 2.18827,0.11188 2.73951,0.15462 l 1.00226,0.0777 -0.93544,0.47536 c -7.96069,4.04534 -16.89273,6.85847 -23.85381,7.51271 -2.59599,0.24398 -7.741764,0.28173 -9.621701,0.0706 z"
       id="path1463"
       inkscape:connector-curvature="0" />
  </g>
</svg>
