<?xml version="1.0" encoding="UTF-8" standalone="no"?>
<!-- Created with Inkscape (http://www.inkscape.org/) -->

<svg
   xmlns:dc="http://purl.org/dc/elements/1.1/"
   xmlns:cc="http://creativecommons.org/ns#"
   xmlns:rdf="http://www.w3.org/1999/02/22-rdf-syntax-ns#"
   xmlns:svg="http://www.w3.org/2000/svg"
   xmlns="http://www.w3.org/2000/svg"
   xmlns:sodipodi="http://sodipodi.sourceforge.net/DTD/sodipodi-0.dtd"
   xmlns:inkscape="http://www.inkscape.org/namespaces/inkscape"
   version="1.1"
   id="svg2"
   width="252.96611"
   height="252.96611"
   viewBox="0 0 252.96611 252.96611"
   sodipodi:docname="FullQR.svg"
   inkscape:version="0.92.2 (5c3e80d, 2017-08-06)">
  <metadata
     id="metadata8">
    <rdf:RDF>
      <cc:Work
         rdf:about="">
        <dc:format>image/svg+xml</dc:format>
        <dc:type
           rdf:resource="http://purl.org/dc/dcmitype/StillImage" />
        <dc:title></dc:title>
      </cc:Work>
    </rdf:RDF>
  </metadata>
  <defs
     id="defs6" />
  <sodipodi:namedview
     pagecolor="#ffffff"
     bordercolor="#666666"
     borderopacity="1"
     objecttolerance="10"
     gridtolerance="10"
     guidetolerance="10"
     inkscape:pageopacity="0"
     inkscape:pageshadow="2"
     inkscape:window-width="1920"
     inkscape:window-height="1017"
     id="namedview4"
     showgrid="false"
     inkscape:zoom="1.5733333"
     inkscape:cx="242.43533"
     inkscape:cy="103.3796"
     inkscape:window-x="1912"
     inkscape:window-y="-8"
     inkscape:window-maximized="1"
     inkscape:current-layer="svg2"
     fit-margin-top="0"
     fit-margin-left="0"
     fit-margin-right="0"
     fit-margin-bottom="0" />
  <path
     style="fill:#000000"
     d="m 35.483057,241.98306 h -24.5 v -24.5 -24.5 h 24.5 24.499999 v 24.5 24.5 z m 0,-7 h 17.499999 v -17.5 -17.5 h -17.499999 -17.5 v 17.5 17.5 z m 0,-7 h -10.5 v -10.5 -10.5 h 10.5 10.5 v 10.5 10.5 z m 34.999995,14 h -3.5 v -17.5 -17.5 h 3.5 3.5 v -3.5 -3.5 h -3.5 -3.5 v -14 -14 h 3.5 3.5 v -3.5 -3.5 h 3.5 3.499996 v 3.5 3.5 h -3.499996 -3.5 v 10.5 10.5 h 13.999996 14.000002 v 3.5 3.5 h -3.500002 -3.5 v 7 7 h 10.500002 10.5 v -3.5 -3.5 h -3.5 -3.5 v -3.5 -3.5 h 3.5 3.5 v 3.5 3.5 h 3.5 3.5 v -3.5 -3.5 h 3.5 3.5 v 3.5 3.5 h -3.5 -3.5 v 3.5 3.5 h -3.5 -3.5 v 3.5 3.5 h 10.5 10.5 v -3.5 -3.5 h 7 7 v -17.5 -17.5 h -7 -7 v 3.5 3.5 h -3.5 -3.5 v -3.5 -3.5 h -3.5 -3.5 v 3.5 3.5 h -7 -7 v -3.5 -3.5 h -3.5 -3.5 v 3.5 3.5 h -3.500002 -3.5 v -7 -7 h 3.5 3.500002 v -3.5 -3.5 h -3.500002 -3.5 v -3.5 -3.5 h -3.5 -3.5 v -7 -7 h -7 -6.999996 v -7 -7 h -3.5 -3.5 v 10.5 10.5 h 3.5 3.5 v 3.5 3.5 h -10.5 -10.499996 v 3.5 3.5 h 3.5 3.5 v 3.5 3.5 h -3.5 -3.5 v -3.5 -3.5 h -3.499999 -3.5 v 7 7 h 6.999999 7 v 3.5 3.5 h -7 -6.999999 v -3.5 -3.5 h -7 -7 v 3.5 3.5 h -3.5 -3.5 v -3.5 -3.5 h 3.5 3.5 v -3.5 -3.5 h -3.5 -3.5 v -3.5 -3.5 h -3.5 -3.5 v 10.5 10.5 h -3.5 -3.5 v -14 -14 h 3.5 3.5 v -3.5 -3.5 h -3.5 -3.5 v -3.5 -3.5 h 3.5 3.5 v -3.5 -3.5 h -3.5 -3.5 v -3.5 -3.5 h 10.5 10.5 v 3.5 3.5 h 3.5 3.5 v 3.5 3.5 h 7 6.999999 v -3.5 -3.5 h -3.499999 -3.5 v -7 -7 h 6.999999 7 v 3.5 3.5 h 3.499996 3.5 v -3.5 -3.5 h 3.5 3.5 v -3.5 -3.5 h 3.5 3.499996 v 3.5 3.5 h 3.5 3.5 v 7 7 h 7 7.000002 v 3.5 3.5 h -3.500002 -3.5 v 7 7 h 10.500002 10.5 v -3.5 -3.5 h -3.5 -3.5 v -3.5 -3.5 h 3.5 3.5 v 3.5 3.5 h 14 14 v -3.5 -3.5 h 7 7 v 7 7 h 3.5 3.5 v -3.5 -3.5 h 3.5 3.5 v -3.5 -3.5 h 3.5 3.5 v -3.5 -3.5 h -3.5 -3.5 v -3.5 -3.5 h 17.5 17.5 v -3.5 -3.5 h 7 7 v -3.5 -3.5 h -7 -7 v -3.5 -3.5 h -3.5 -3.5 v -3.5 -3.5 h 3.5 3.5 v -3.5 -3.5 h 3.5 3.5 v 3.5 3.5 h 3.5 3.5 v -7 -7 h -7 -7 v -3.5 -3.5 h -3.5 -3.5 v -7.000002 -7 h 3.5 3.5 v 7 7.000002 h 3.5 3.5 v -7.000002 -7 h 3.5 3.5 v 3.5 3.5 h 3.5 3.5 v -3.5 -3.5 h 3.5 3.5 v 3.5 3.5 h -3.5 -3.5 v 3.5 3.500002 h 3.5 3.5 v 3.5 3.5 h 3.5 3.5 v 3.5 3.5 h -3.5 -3.5 v 3.5 3.5 h -3.5 -3.5 v 3.5 3.5 h 3.5 3.5 v 3.5 3.5 h 3.5 3.5 v 3.5 3.5 h -3.5 -3.5 v 3.5 3.5 h -3.5 -3.5 v 3.5 3.5 h -3.5 -3.5 v 3.5 3.5 h -10.5 -10.5 v 3.5 3.5 h 7 7 v 3.5 3.5 h -3.5 -3.5 v 3.5 3.5 h 3.5 3.5 v 3.5 3.5 h 3.5 3.5 v 7 7 h 3.5 3.5 v 3.5 3.5 h 3.5 3.5 v 3.5 3.5 h 3.5 3.5 v 7 7 h -3.5 -3.5 v 3.5 3.5 h -7 -7 v 3.5 3.5 h 10.5 10.5 v 3.5 3.5 h -3.5 -3.5 v 3.5 3.5 h -3.5 -3.5 v -3.5 -3.5 h -3.5 -3.5 v 3.5 3.5 h -3.5 -3.5 v -3.5 -3.5 h -7 -7 v 3.5 3.5 h -3.5 -3.5 v -3.5 -3.5 h -3.5 -3.5 v 3.5 3.5 h -3.5 -3.5 v -3.5 -3.5 h -3.5 -3.5 v 3.5 3.5 h -10.5 -10.5 v -3.5 -3.5 h -7 -7 v -3.5 -3.5 h -3.5 -3.5 v 7 7 h -10.5 -10.5 v -3.5 -3.5 h -3.5 -3.5 v 3.5 3.5 h -3.500002 -3.5 v -7 -7 h 3.5 3.500002 v -3.5 -3.5 h -3.500002 -3.5 v -3.5 -3.5 h -7 -7 v 3.5 3.5 h 3.5 3.5 v 3.5 3.5 h -3.5 -3.5 v 3.5 3.5 h -3.499996 -3.5 v 3.5 3.5 z m 45.499998,-7 h 7 v -3.5 -3.5 h -7 -7 v 3.5 3.5 z m 45.5,0 h 10.5 v -3.5 -3.5 h -3.5 -3.5 v -3.5 -3.5 h -7 -7 v 7 7 z m 21,0 h 3.5 v -3.5 -3.5 h 3.5 3.5 v 3.5 3.5 h 3.5 3.5 v -3.5 -3.5 h 3.5 3.5 v -7 -7 h -3.5 -3.5 v 7 7 h -3.5 -3.5 v -3.5 -3.5 h -3.5 -3.5 v -3.5 -3.5 h -7 -7 v 3.5 3.5 h 7 7 v 3.5 3.5 h -3.5 -3.5 v 3.5 3.5 z m -104.999998,-7 h 3.499996 v -3.5 -3.5 h -3.499996 -3.5 v 3.5 3.5 z m 62.999998,0 h 3.5 v -3.5 -3.5 h -3.5 -3.5 v 3.5 3.5 z m 21,-14 h 3.5 v -3.5 -3.5 h 7 7 v -7 -7 h -3.5 -3.5 v 3.5 3.5 h -3.5 -3.5 v -3.5 -3.5 h -3.5 -3.5 v 10.5 10.5 z m 66.5,0 h 7 v -7 -7 h -3.5 -3.5 v -3.5 -3.5 h -3.5 -3.5 v -3.5 -3.5 h -3.5 -3.5 v 7 7 h 3.5 3.5 v 7 7 z m -143.500002,-7 h 3.5 v -3.5 -3.5 h -3.5 -3.5 v 3.5 3.5 z m 112.000002,0 h 10.5 v -10.5 -10.5 h -10.5 -10.5 v 10.5 10.5 z m 0,-7 h -3.5 v -3.5 -3.5 h 3.5 3.5 v 3.5 3.5 z m -28,-14 h 10.5 v -3.5 -3.5 h 7 7 v -3.5 -3.5 h 3.5 3.5 v 3.5 3.5 h 7 7 v -3.5 -3.5 h -3.5 -3.5 v -3.5 -3.5 h -3.5 -3.5 v -7 -7 h -3.5 -3.5 v -3.5 -3.5 h 3.5 3.5 v -3.5 -3.5 h -3.5 -3.5 v 3.5 3.5 h -7 -7 v 3.5 3.5 h -3.5 -3.5 v 3.5 3.5 h -3.5 -3.5 v 3.5 3.5 h -3.5 -3.5 v -3.5 -3.5 h -3.5 -3.5 v -3.5 -3.5 h -3.5 -3.5 v 3.5 3.5 h -7 -7 v 3.5 3.5 h -3.5 -3.5 v 3.5 3.5 h -7 -7 v 3.5 3.5 h 7 7 v -3.5 -3.5 h 3.5 3.5 v -3.5 -3.5 h 7 7 v 3.5 3.5 h 3.5 3.5 v -3.5 -3.5 h 3.5 3.5 v 3.5 3.5 h 3.5 3.5 v 3.5 3.5 h -3.5 -3.5 v 3.5 3.5 z m 7,-7 h -3.5 v -3.5 -3.5 h -3.5 -3.5 v -3.5 -3.5 h 3.5 3.5 v -3.5 -3.5 h 3.5 3.5 v -3.5 -3.5 h 7 7 v 7 7 h -10.5 -10.5 v 3.5 3.5 h 3.5 3.5 v 3.5 3.5 z m -28,-14 h -3.5 v -3.5 -3.5 h 3.5 3.5 v 3.5 3.5 z m -108.499993,0 h 7 v -7 -7 h -3.5 -3.5 v 3.5 3.5 h -3.5 -3.5 v 3.5 3.5 z m -10.5,-14 h 3.5 v -3.5 -3.5 h -3.5 -3.5 v 3.5 3.5 z m 27.999999,0 h 3.5 v -3.5 -3.5 h -3.5 -3.5 v 3.5 3.5 z m 0,-14 h 3.5 v -3.5 -3.5 h -3.5 -3.5 v 3.5 3.5 z m 160.999994,0 h 3.5 v -3.5 -3.5 h 3.5 3.5 v -3.5 -3.5 h -3.5 -3.5 v 3.5 3.5 h -3.5 -3.5 v 3.5 3.5 z m 7,-21 h 3.5 v -3.5 -3.5 h -3.5 -3.5 v 3.5 3.5 z m -14,-7 h 3.5 v -3.5 -3.5 h -3.5 -3.5 v 3.5 3.5 z m 14,-21 h 3.5 v -3.5 -3.5 h -3.5 -3.5 v 3.5 3.5 z m -140.000002,98 h -3.5 v -3.5 -3.5 h 3.5 3.5 v 3.5 3.5 z m 150.500002,-7 h -7 v -7 -7 h -3.5 -3.5 v -3.5 -3.5 h 3.5 3.5 v -3.5 -3.5 h 3.5 3.5 v -7 -7 h 3.5 3.5 v 7 7 h -3.5 -3.5 v 3.5 3.5 h -3.5 -3.5 v 3.5 3.5 h 7 7 v 7 7 z m -101.5,-35 h -3.5 v -3.5 -3.5 h -7 -7 v -3.5 -3.5 h -3.5 -3.5 v -3.5 -3.5 h -3.5 -3.5 v 3.5 3.5 h -3.500002 -3.5 v -7 -7 h 3.5 3.500002 v -3.5 -3.5 h -3.500002 -3.5 v -3.5 -3.5 h -3.5 -3.5 v 3.5 3.5 h -3.5 -3.5 v -3.5 -3.5 h -3.499996 -3.5 v -7 -7 h -10.5 -10.499996 v -3.5 -3.5 h -3.499999 -3.5 v 3.5 3.5 h -3.5 -3.5 v -3.5 -3.5 h 3.5 3.5 v -3.500002 -3.5 h -7 -7 v 3.5 3.500002 h -7 -7 v 3.5 3.5 h 3.5 3.5 v 3.5 3.5 h -3.5 -3.5 v 3.5 3.5 h 7 7 v -3.5 -3.5 h 7 7 v 3.5 3.5 h 3.5 3.499999 v -3.5 -3.5 h 3.5 3.5 v 3.5 3.5 h 3.499996 3.5 v 7 7 H 56.483056 45.983057 v -7 -7 h -7 -7 v 3.5 3.5 h 3.5 3.5 v 7 7 h -3.5 -3.5 v -3.5 -3.5 h -7 -7 v 3.5 3.5 h -3.5 -3.5 v -3.5 -3.5 h 3.5 3.5 v -7 -7 h -3.5 -3.5 v -17.5 -17.500002 h 17.5 17.5 v 3.5 3.5 h 3.5 3.499999 v -3.5 -3.5 h 17.499996 17.499996 v 3.5 3.5 h -3.5 -3.5 v 7.000002 7 h 3.5 3.5 v -3.5 -3.5 h 7 7.000002 v 3.5 3.5 h -3.500002 -3.5 v 7 7 h 7.000002 7 v 3.5 3.5 h 3.5 3.5 v -7 -7 h 3.5 3.5 v -3.5 -3.5 h 3.5 3.5 v -3.5 -3.5 h -3.5 -3.5 v -3.500002 -3.5 h -3.5 -3.5 v 3.5 3.500002 h -3.5 -3.5 v -3.500002 -3.5 h -7 -7.000002 v -10.5 -10.5 h 3.5 3.500002 v -3.5 -3.5 h -3.500002 -3.5 v -3.5 -3.500003 h -3.5 -3.5 v 10.500003 10.5 h -3.5 -3.5 v -10.5 -10.500003 h -6.999996 -7 v -3.5 -3.5 h 3.5 3.5 v -3.5 -3.5 h -3.5 -3.5 v -3.5 -3.5 h 3.5 3.5 v -3.5 -3.5 h 3.5 3.499996 v 7 7 h 3.5 3.5 v -3.5 -3.5 h 14.000002 14 v 3.5 3.5 h -10.5 -10.500002 v 7 7 h 3.5 3.500002 v 3.500003 3.5 h 3.5 3.5 v -7.000003 -7 h 7 7 v -3.5 -3.5 h 3.5 3.5 v -3.5 -3.5 h -3.5 -3.5 v -3.5 -3.5 h 3.5 3.5 v 3.5 3.5 h 3.5 3.5 v 3.5 3.5 h -3.5 -3.5 v 3.5 3.5 h -3.5 -3.5 v 3.5 3.5 h 3.5 3.5 v 3.500003 3.5 h 3.5 3.5 v -3.5 -3.500003 h 3.5 3.5 v 3.500003 3.5 h -3.5 -3.5 v 3.5 3.5 h 3.5 3.5 v 10.5 10.5 h 3.5 3.5 v -10.5 -10.5 h 3.5 3.5 v 10.5 10.5 h 7 7 v 3.5 3.500002 h 3.5 3.5 v -3.500002 -3.5 h 3.5 3.5 v -3.5 -3.5 h 3.5 3.5 v 3.5 3.5 h -3.5 -3.5 v 3.5 3.500002 h 3.5 3.5 v 3.5 3.5 h 3.5 3.5 v 3.5 3.5 h -3.5 -3.5 v -3.5 -3.5 h -7 -7 v 3.5 3.5 h -3.5 -3.5 v 10.5 10.5 h 3.5 3.5 v 3.5 3.5 h -10.5 -10.5 v 3.5 3.5 h 3.5 3.5 v 3.5 3.5 h -7 -7 v -7 -7 h -10.5 -10.5 v 7 7 h 3.5 3.5 v -3.5 -3.5 h 3.5 3.5 v 3.5 3.5 h -3.5 -3.5 v 3.5 3.5 z m -21,-21 h 3.5 v -3.5 -3.5 h 7 7 v -3.5 -3.5 h 3.5 3.5 v 3.5 3.5 h 7 7 v -3.5 -3.5 h 3.5 3.5 v 3.5 3.5 h 3.5 3.5 v -3.5 -3.5 h -3.5 -3.5 v -10.5 -10.5 h 3.5 3.5 v 3.5 3.5 h 3.5 3.5 v -3.5 -3.5 h -3.5 -3.5 v -3.5 -3.5 h -7 -7 v 7 7 h -3.5 -3.5 v 3.5 3.5 h -3.5 -3.5 v -3.5 -3.5 h -3.5 -3.5 v 7 7 h -7 -7 v 3.5 3.5 h -3.5 -3.5 v 3.5 3.5 z m 35,-14 h -3.5 v -3.5 -3.5 h 3.5 3.5 v 3.5 3.5 z m -90.999994,0 h 3.5 v -3.5 -3.5 h -3.5 -3.5 v 3.5 3.5 z m 27.999992,-7 h 3.5 v -3.5 -3.5 h -3.5 -3.5 v 3.5 3.5 z m 56.000002,-14 h 3.5 v -7 -7.000002 h -3.5 -3.5 v -10.5 -10.5 h -3.5 -3.5 v -3.5 -3.5 h -7 -7 v 10.5 10.5 h -3.5 -3.5 v -7 -7 h -3.5 -3.5 v 7 7 h 3.5 3.5 v 3.5 3.5 h 3.5 3.5 v -3.5 -3.5 h 3.5 3.5 v -7 -7 h 3.5 3.5 v 14 14.000002 h 3.5 3.5 v 3.5 3.5 z m -76.999998,-7 h 10.5 v -3.500002 -3.5 h -10.5 -10.499996 v 3.5 3.500002 z M 84.483048,38.983055 h 3.5 v -3.5 -3.5 h -3.5 -3.5 v 3.5 3.5 z M 196.48305,122.98306 h -3.5 v -3.5 -3.5 h -3.5 -3.5 v -7 -7 h 3.5 3.5 v 7 7 h 3.5 3.5 v 3.5 3.5 z m -21,-56.000002 h -3.5 v -3.5 -3.5 h -3.5 -3.5 v -7 -7 h -7 -7 v -3.5 -3.500003 h 3.5 3.5 v -3.5 -3.5 h -7 -7 v -3.5 -3.5 h 10.5 10.5 v -3.5 -3.5 h -7 -7 v -3.5 -3.5 h 10.5 10.5 v 3.5 3.5 h 7 7 v 3.5 3.5 h -3.5 -3.5 v 3.5 3.5 h 3.5 3.5 v 3.5 3.5 h -3.5 -3.5 v -3.5 -3.5 h -3.5 -3.5 v -3.5 -3.5 h -3.5 -3.5 v 7 7 h 3.5 3.5 v 10.500003 10.5 h 3.5 3.5 v -3.5 -3.5 h 3.5 3.5 v 3.5 3.5 h -3.5 -3.5 v 3.5 3.5 z m -139.999993,-7 h -24.5 v -24.500003 -24.5 h 24.5 24.499999 v 24.5 24.500003 z m 0,-7 h 17.499999 v -17.500003 -17.5 h -17.499999 -17.5 v 17.5 17.500003 z m 0,-7 h -10.5 v -10.500003 -10.5 h 10.5 10.5 v 10.5 10.500003 z m 34.999995,14 h -3.5 v -7 -7 h 3.5 3.5 v 7 7 z m 146.999998,0 h -24.5 v -24.500003 -24.5 h 24.5 24.5 v 24.5 24.500003 z m 0,-7 h 17.5 v -17.500003 -17.5 h -17.5 -17.5 v 17.5 17.500003 z m 0,-7 h -10.5 v -10.500003 -10.5 h 10.5 10.5 v 10.5 10.500003 z"
     id="path821"
     inkscape:connector-curvature="0" />
</svg>
