<?xml version="1.0" encoding="UTF-8" standalone="no"?>
<!-- Created with Inkscape (http://www.inkscape.org/) -->

<svg
   xmlns:dc="http://purl.org/dc/elements/1.1/"
   xmlns:cc="http://creativecommons.org/ns#"
   xmlns:rdf="http://www.w3.org/1999/02/22-rdf-syntax-ns#"
   xmlns:svg="http://www.w3.org/2000/svg"
   xmlns="http://www.w3.org/2000/svg"
   xmlns:sodipodi="http://sodipodi.sourceforge.net/DTD/sodipodi-0.dtd"
   xmlns:inkscape="http://www.inkscape.org/namespaces/inkscape"
   width="48.438305mm"
   height="50.113033mm"
   viewBox="0 0 48.438305 50.113033"
   version="1.1"
   id="svg910"
   inkscape:version="0.92.2 (5c3e80d, 2017-08-06)"
   sodipodi:docname="OpenSourceHardwareLogoOutput.svg">
  <defs
     id="defs904" />
  <sodipodi:namedview
     id="base"
     pagecolor="#ffffff"
     bordercolor="#666666"
     borderopacity="1.0"
     inkscape:pageopacity="0.0"
     inkscape:pageshadow="2"
     inkscape:zoom="1.979899"
     inkscape:cx="12.629895"
     inkscape:cy="71.704435"
     inkscape:document-units="mm"
     inkscape:current-layer="layer1"
     showgrid="false"
     fit-margin-top="0"
     fit-margin-left="0"
     fit-margin-right="0"
     fit-margin-bottom="0"
     inkscape:window-width="1920"
     inkscape:window-height="1017"
     inkscape:window-x="1912"
     inkscape:window-y="-8"
     inkscape:window-maximized="1" />
  <metadata
     id="metadata907">
    <rdf:RDF>
      <cc:Work
         rdf:about="">
        <dc:format>image/svg+xml</dc:format>
        <dc:type
           rdf:resource="http://purl.org/dc/dcmitype/StillImage" />
        <dc:title></dc:title>
      </cc:Work>
    </rdf:RDF>
  </metadata>
  <g
     inkscape:label="Layer 1"
     inkscape:groupmode="layer"
     id="layer1"
     transform="translate(-76.006912,-102.69505)">
    <path
       style="display:inline;fill:#0099b0;fill-rule:evenodd;stroke-width:0.26458332"
       d="m 89.442245,151.93229 h 0.95594 v -3.24221 c 0,-1.17104 -0.805921,-1.56474 -1.977231,-1.56474 -0.712259,0 -1.236928,0.18706 -1.602318,0.69347 l 0.749566,0.5715 c 0.168539,-0.27173 0.40296,-0.36592 0.899583,-0.36592 0.683948,0 0.97446,0.15981 0.97446,0.60934 v 0.49662 h -1.321329 c -1.021292,0 -1.545961,0.64691 -1.545961,1.40573 0,0.82471 0.618331,1.45256 1.677194,1.45256 0.646642,0 0.974725,-0.14975 1.171311,-0.4781 h 0.01879 z m 0,-1.6682 c 0,0.74057 -0.271727,0.82471 -1.068123,0.82471 -0.646641,0 -0.899848,-0.28126 -0.899848,-0.59955 0,-0.34687 0.262467,-0.57203 0.824971,-0.57203 h 1.143 z"
       id="path4"
       inkscape:connector-curvature="0" />
    <path
       style="display:inline;fill:#0099b0;fill-rule:evenodd;stroke-width:0.26458332"
       d="m 91.448051,151.93229 h 0.955675 v -2.8583 c 0,-0.69294 0.459317,-0.99324 0.927894,-0.99324 0.243681,0 0.402961,0.0656 0.627856,0.23468 l 0.693209,-0.8247 c -0.290513,-0.2249 -0.608806,-0.36539 -0.993246,-0.36539 -0.505883,0 -0.937154,0.18759 -1.236927,0.56224 h -0.01879 v -0.50589 h -0.955675 z"
       id="path6"
       inkscape:connector-curvature="0" />
    <path
       style="display:inline;fill:#0099b0;fill-rule:evenodd;stroke-width:0.26458332"
       d="m 97.511508,151.93229 h 0.955675 v -6.672 h -0.955675 v 2.42729 c -0.356129,-0.33735 -0.740304,-0.56224 -1.227667,-0.56224 -0.581025,0 -1.002506,0.26193 -1.274233,0.61859 -0.262467,0.33682 -0.337344,0.64585 -0.337344,1.80869 0,1.17105 0.07488,1.48008 0.337344,1.81743 0.271727,0.35613 0.693208,0.61859 1.274233,0.61859 0.487363,0 0.927894,-0.22542 1.227667,-0.55298 z m -0.937154,-3.85154 c 0.890322,0 0.937154,0.78766 0.937154,1.47187 0,0.69348 -0.04683,1.48008 -0.937154,1.48008 -0.899584,0 -0.946415,-0.74004 -0.946415,-1.48008 0,-0.7313 0.04683,-1.47187 0.946415,-1.47187"
       id="path8"
       inkscape:connector-curvature="0" />
    <polygon
       style="display:inline;fill:#0099b0;fill-rule:evenodd"
       points="81.64,162.826 87.377,180.781 90.564,180.781 94.318,168.208 94.389,168.208 98.143,180.781 101.332,180.781 107.068,162.826 103.242,162.826 99.809,175.398 99.736,175.398 95.664,162.826 93.043,162.826 88.971,175.398 88.9,175.398 85.464,162.826 "
       id="polygon10"
       transform="matrix(0.26458333,0,0,0.26458333,77.378039,104.10065)" />
    <path
       style="display:inline;fill:#0099b0;fill-rule:evenodd;stroke-width:0.26458332"
       d="m 108.64808,151.93229 h 0.95594 v -3.24221 c 0,-1.17104 -0.80618,-1.56474 -1.97723,-1.56474 -0.71199,0 -1.23719,0.18706 -1.60258,0.69347 l 0.74983,0.5715 c 0.16854,-0.27173 0.40243,-0.36592 0.89905,-0.36592 0.68422,0 0.97473,0.15981 0.97473,0.60934 v 0.49662 h -1.32133 c -1.02103,0 -1.54622,0.64691 -1.54622,1.40573 0,0.82471 0.61859,1.45256 1.67745,1.45256 0.64638,0 0.97473,-0.14975 1.17158,-0.4781 h 0.0185 v 0.42175 z m 0,-1.6682 c 0,0.74057 -0.27172,0.82471 -1.06812,0.82471 -0.64638,0 -0.89958,-0.28126 -0.89958,-0.59955 0,-0.34687 0.26246,-0.57203 0.8247,-0.57203 h 1.143 z"
       id="path12"
       inkscape:connector-curvature="0" />
    <path
       style="display:inline;fill:#0099b0;fill-rule:evenodd;stroke-width:0.26458332"
       d="m 110.65416,151.93229 h 0.95541 v -2.8583 c 0,-0.69294 0.45878,-0.99324 0.92762,-0.99324 0.24395,0 0.40297,0.0656 0.62786,0.23468 l 0.69347,-0.8247 c -0.29051,-0.2249 -0.60933,-0.36539 -0.99324,-0.36539 -0.50589,0 -0.93689,0.18759 -1.23666,0.56224 h -0.019 v -0.50589 h -0.95541 z"
       id="path14"
       inkscape:connector-curvature="0" />
    <path
       style="display:inline;fill:#0099b0;fill-rule:evenodd;stroke-width:0.26458332"
       d="m 117.79261,149.91775 v -0.78767 c 0,-1.2274 -0.90858,-2.00501 -1.95791,-2.00501 -0.91837,0 -1.95845,0.59955 -1.95845,2.44528 0,1.94919 1.13374,2.41803 2.10847,2.41803 0.63711,0 1.24592,-0.2249 1.7145,-0.76835 l -0.69348,-0.59055 c -0.28125,0.29104 -0.67495,0.45932 -1.03981,0.45932 -0.65617,0 -1.13374,-0.3937 -1.13374,-1.17105 z m -2.96042,-0.7874 c 0.0185,-0.72152 0.44027,-1.10596 1.00251,-1.10596 0.56224,0 0.97472,0.38444 1.0025,1.10596 z"
       id="path16"
       inkscape:connector-curvature="0" />
    <path
       style="display:inline;fill:#0099b0;fill-rule:evenodd;stroke-width:0.26458332"
       d="m 77.378039,142.04851 c 0,1.03055 0.149754,1.42425 0.515143,1.82721 0.262467,0.29052 0.702998,0.60881 1.443302,0.60881 0.74004,0 1.180571,-0.31829 1.443038,-0.60881 0.365389,-0.40296 0.515408,-0.79692 0.515408,-1.82721 0,-1.02155 -0.150019,-1.41499 -0.515408,-1.81795 -0.262467,-0.29051 -0.702998,-0.60934 -1.443038,-0.60934 -0.740304,0 -1.180835,0.31883 -1.443302,0.60934 -0.365389,0.40322 -0.515143,0.7964 -0.515143,1.81795 m 2.960952,0.009 c 0,0.68421 -0.05609,0.87128 -0.234157,1.12448 -0.140758,0.19685 -0.440531,0.34687 -0.76835,0.34687 -0.328083,0 -0.627856,-0.14975 -0.76835,-0.34687 -0.178064,-0.25324 -0.23442,-0.44031 -0.23442,-1.13378 0,-0.68421 0.05636,-0.8718 0.23442,-1.12448 0.140494,-0.19685 0.440267,-0.34687 0.76835,-0.34687 0.327819,0 0.627592,0.14976 0.76835,0.34687 0.178065,0.25268 0.234157,0.44027 0.234157,1.13374"
       id="path18"
       inkscape:connector-curvature="0" />
    <path
       style="display:inline;fill:#0099b0;fill-rule:evenodd;stroke-width:0.26458332"
       d="m 90.466712,142.4139 v -0.78713 c 0,-1.22794 -0.908844,-2.00555 -1.958181,-2.00555 -0.918634,0 -1.958447,0.60008 -1.958447,2.44581 0,1.94866 1.13374,2.4175 2.108201,2.4175 0.637381,0 1.246187,-0.2249 1.714764,-0.76835 l -0.693473,-0.59002 c -0.280987,0.29051 -0.674422,0.45932 -1.039812,0.45932 -0.656167,0 -1.134004,-0.3937 -1.134004,-1.17158 z m -2.960952,-0.78687 c 0.01879,-0.72205 0.440531,-1.10596 1.002771,-1.10596 0.562239,0 0.97446,0.38391 1.002506,1.10596 z"
       id="path20"
       inkscape:connector-curvature="0" />
    <path
       style="display:inline;fill:#0099b0;fill-rule:evenodd;stroke-width:0.26458332"
       d="m 91.282422,144.42817 h 0.955675 v -2.82919 c 0,-0.6469 0.402961,-1.02155 0.946415,-1.02155 0.534194,0 0.937154,0.37465 0.937154,1.02155 v 2.82919 h 0.955675 v -3.15753 c 0,-1.07792 -0.843227,-1.64942 -1.583531,-1.64942 -0.505884,0 -0.937154,0.18759 -1.236663,0.56224 h -0.01905 v -0.50588 h -0.955675 z"
       id="path22"
       inkscape:connector-curvature="0" />
    <path
       style="display:inline;fill:#0099b0;fill-rule:evenodd;stroke-width:0.26458332"
       d="m 97.661526,143.63204 c 0.609071,0.5715 1.32133,0.85276 2.08968,0.85276 1.105694,0 1.967704,-0.53393 1.967704,-1.46183 0,-0.75856 -0.39317,-1.35863 -1.37742,-1.42425 l -0.787134,-0.0558 c -0.477838,-0.0378 -0.627592,-0.24394 -0.627592,-0.45005 0,-0.32756 0.20611,-0.5715 0.814917,-0.5715 0.515669,0 0.900109,0.17833 1.274759,0.44026 l 0.59002,-0.69294 c -0.46857,-0.3937 -1.03055,-0.64691 -1.865044,-0.64691 -1.002506,0 -1.770856,0.49663 -1.770856,1.46183 0,0.81491 0.581025,1.28375 1.367896,1.34937 l 0.843494,0.0749 c 0.32834,0.0278 0.58102,0.13124 0.58102,0.46858 0,0.40296 -0.39396,0.60881 -0.937152,0.60881 -0.637117,0 -1.086908,-0.20559 -1.499129,-0.60881 z"
       id="path24"
       inkscape:connector-curvature="0" />
    <path
       style="display:inline;fill:#0099b0;fill-rule:evenodd;stroke-width:0.26458332"
       d="m 102.26237,142.04851 c 0,1.03055 0.15028,1.42425 0.51567,1.82721 0.26247,0.29052 0.70273,0.60881 1.44277,0.60881 0.74057,0 1.18084,-0.31829 1.4433,-0.60881 0.36539,-0.40296 0.51515,-0.79692 0.51515,-1.82721 0,-1.02155 -0.14976,-1.41499 -0.51515,-1.81795 -0.26246,-0.29051 -0.70273,-0.60934 -1.4433,-0.60934 -0.74004,0 -1.1803,0.31883 -1.44277,0.60934 -0.36539,0.40322 -0.51567,0.7964 -0.51567,1.81795 m 2.96095,0.009 c 0,0.68421 -0.0558,0.87128 -0.23416,1.12448 -0.14049,0.19685 -0.44027,0.34687 -0.76835,0.34687 -0.32755,0 -0.62785,-0.14975 -0.76782,-0.34687 -0.17833,-0.2532 -0.23468,-0.44027 -0.23468,-1.13374 0,-0.68421 0.0564,-0.8718 0.23468,-1.12448 0.13997,-0.19685 0.44027,-0.34687 0.76782,-0.34687 0.32808,0 0.62786,0.14976 0.76835,0.34687 0.17833,0.25268 0.23416,0.44027 0.23416,1.13374"
       id="path26"
       inkscape:connector-curvature="0" />
    <path
       style="display:inline;fill:#0099b0;fill-rule:evenodd;stroke-width:0.26458332"
       d="m 106.99523,142.83565 c 0,1.07738 0.84349,1.64888 1.59306,1.64888 0.49609,0 0.92763,-0.18759 1.2274,-0.56224 h 0.0185 v 0.50641 h 0.95541 v -4.75112 h -0.95541 v 2.82972 c 0,0.64638 -0.40296,1.02156 -0.93742,1.02156 -0.54319,0 -0.94615,-0.37518 -0.94615,-1.02156 v -2.82972 h -0.95541 z"
       id="path28"
       inkscape:connector-curvature="0" />
    <path
       style="display:inline;fill:#0099b0;fill-rule:evenodd;stroke-width:0.26458332"
       d="m 111.8379,144.42817 h 0.95594 v -2.85776 c 0,-0.69347 0.45879,-0.99325 0.92763,-0.99325 0.24395,0 0.40296,0.0656 0.62786,0.23416 l 0.69347,-0.82471 c -0.29104,-0.22489 -0.60881,-0.36539 -0.99325,-0.36539 -0.50588,0 -0.93742,0.18759 -1.23719,0.56224 h -0.0185 v -0.50588 h -0.95594 z"
       id="path30"
       inkscape:connector-curvature="0" />
    <path
       style="display:inline;fill:#0099b0;fill-rule:evenodd;stroke-width:0.26458332"
       d="m 118.08657,143.0325 c -0.23416,0.29051 -0.5715,0.49662 -0.96468,0.49662 -0.77761,0 -1.23719,-0.4408 -1.23719,-1.47188 0,-1.03981 0.45932,-1.48008 1.23719,-1.48008 0.39318,0 0.73078,0.20611 0.96468,0.49663 l 0.70273,-0.62786 c -0.41196,-0.4781 -0.98399,-0.82471 -1.70524,-0.82471 -1.09617,0 -2.15503,0.69348 -2.15503,2.43602 0,1.73435 1.05886,2.42729 2.15503,2.42729 0.72152,0 1.29355,-0.34687 1.70524,-0.82418 z"
       id="path32"
       inkscape:connector-curvature="0" />
    <path
       style="display:inline;fill:#0099b0;fill-rule:evenodd;stroke-width:0.26458332"
       d="m 122.94934,142.4139 v -0.78713 c 0,-1.22794 -0.90963,-2.00555 -1.95844,-2.00555 -0.9189,0 -1.95845,0.60008 -1.95845,2.44581 0,1.94866 1.13374,2.4175 2.10847,2.4175 0.63711,0 1.24645,-0.2249 1.7145,-0.76835 l -0.69348,-0.59002 c -0.28125,0.29051 -0.67442,0.45932 -1.03981,0.45932 -0.65617,0 -1.13374,-0.3937 -1.13374,-1.17158 z m -2.96095,-0.78687 c 0.0185,-0.72205 0.44027,-1.10596 1.00251,-1.10596 0.56224,0 0.97419,0.38391 1.0025,1.10596 z"
       id="path34"
       inkscape:connector-curvature="0" />
    <path
       style="display:inline;fill:#0099b0;stroke-width:0.26458332"
       d="m 84.00347,143.52912 c 0.899583,0 0.946414,-0.74057 0.946414,-1.47135 0,-0.74057 -0.04683,-1.48061 -0.946414,-1.48061 -0.890059,0 -0.937154,0.78714 -0.937154,1.48061 0,0.68421 0.04683,1.47135 0.937154,1.47135 m -1.896534,8.40317 v -12.25444 h 0.95938 v 0.49662 c 0.300037,-0.32809 0.740304,-0.55298 1.227666,-0.55298 0.580761,0 1.002771,0.26247 1.274498,0.61859 0.262202,0.33735 0.337079,0.64638 0.337079,1.81796 0,1.16178 -0.07488,1.47134 -0.337079,1.80816 -0.271727,0.35613 -0.693737,0.6186 -1.274498,0.6186 -0.487362,0 -0.871537,-0.2249 -1.227666,-0.56224 l -0.0034,3.76502 c 0.318558,-0.37465 0.749564,-0.56224 1.255448,-0.56224 0.740304,0 1.583531,0.5715 1.583531,1.64888 v 3.15807 H 84.94622 v -2.82972 c 0,-0.64691 -0.402961,-1.02156 -0.937154,-1.02156 -0.543455,0 -0.94615,0.37465 -0.94615,1.02156 v 2.82972 z"
       id="path36"
       inkscape:connector-curvature="0" />
    <path
       style="display:inline;fill:#0099b0;stroke-width:0.26458332"
       d="m 117.68361,119.34171 -4.34949,-0.80884 c -0.10583,-0.0198 -0.22172,-0.11932 -0.25744,-0.22145 l -1.33324,-3.11044 c -0.0497,-0.096 -0.0402,-0.24686 0.0212,-0.33629 l 2.53418,-3.69358 c 0.0606,-0.0889 0.0487,-0.2241 -0.0278,-0.30057 l -3.16521,-3.16521 c -0.0765,-0.0765 -0.2114,-0.0889 -0.3003,-0.0278 l -3.75841,2.57916 c -0.0889,0.0611 -0.2413,0.072 -0.33787,0.0243 l -3.01519,-1.23428 c -0.1024,-0.0339 -0.20215,-0.14843 -0.22225,-0.25453 l -0.83741,-4.49871 c -0.0196,-0.1061 -0.12409,-0.19288 -0.23204,-0.19288 h -4.476749 c -0.107686,0 -0.212196,0.0868 -0.231775,0.19288 l -0.837142,4.49871 c -0.02011,0.1061 -0.119592,0.22066 -0.22225,0.25453 l -3.015456,1.23428 c -0.09684,0.0476 -0.249238,0.0368 -0.337873,-0.0243 l -3.758142,-2.57916 c -0.08916,-0.0611 -0.224367,-0.0487 -0.300567,0.0278 l -3.165475,3.16521 c -0.0762,0.0765 -0.0889,0.21167 -0.02778,0.30057 l 2.534444,3.69358 c 0.06085,0.0894 0.07038,0.24024 0.0209,0.33629 l -1.333498,3.11044 c -0.03545,0.10213 -0.151077,0.20161 -0.25744,0.22145 l -4.349221,0.80884 c -0.106362,0.0201 -0.192881,0.12435 -0.192881,0.2323 l 2.65e-4,4.47649 c 0,0.10795 0.08678,0.21299 0.192881,0.2323 l 4.242594,0.78952 c 0.106097,0.0193 0.219604,0.12012 0.251883,0.22304 l 1.324505,3.30861 c 0.04736,0.0971 0.03625,0.24898 -0.02514,0.33788 l -2.409825,3.51181 c -0.06085,0.0889 -0.04842,0.22437 0.02778,0.30083 l 3.16574,3.16521 c 0.0762,0.0759 0.211402,0.0884 0.300567,0.0278 l 3.449637,-2.36775 c 0.0889,-0.0609 0.23786,-0.0656 0.330729,-0.0114 l 1.521354,0.81227 c 0.09631,0.0492 0.208757,0.008 0.250032,-0.0921 l 3.1369,-7.57952 c 0.04154,-0.0998 0,-0.22701 -0.09208,-0.28337 l -0.380736,-0.2331 c -0.07038,-0.0429 -0.165894,-0.11668 -0.240771,-0.18441 -1.373452,-0.87948 -2.284677,-2.41803 -2.284677,-4.1701 0,-2.7342 2.216679,-4.95062 4.950617,-4.95062 2.73394,0 4.95036,2.21642 4.95036,4.95062 0,1.75207 -0.91096,3.29062 -2.28468,4.1701 -0.0743,0.0677 -0.17013,0.14155 -0.24024,0.18441 l -0.38074,0.2331 c -0.0916,0.0564 -0.13335,0.18362 -0.0921,0.28337 l 3.13664,7.57978 c 0.0413,0.0998 0.15346,0.14103 0.25003,0.0921 l 1.52135,-0.81227 c 0.0931,-0.0542 0.24183,-0.0497 0.33073,0.0114 l 3.4499,2.36776 c 0.0889,0.0606 0.22437,0.0482 0.30031,-0.0278 l 3.16574,-3.16521 c 0.0765,-0.0765 0.0889,-0.21193 0.0278,-0.30083 l -2.41009,-3.51182 c -0.0609,-0.0889 -0.0722,-0.24077 -0.0249,-0.33787 l 1.3245,-3.30862 c 0.0325,-0.10292 0.14526,-0.20372 0.25162,-0.22304 l 4.24259,-0.78952 c 0.10584,-0.0193 0.19288,-0.12435 0.19288,-0.2323 l 5.3e-4,-4.47649 c 2.7e-4,-0.10821 -0.0865,-0.21246 -0.19235,-0.23256"
       id="path2"
       inkscape:connector-curvature="0" />
    <g
       aria-label="S"
       style="font-style:normal;font-variant:normal;font-weight:normal;font-stretch:normal;font-size:13.33333302px;line-height:1.25;font-family:'Alte DIN 1451 Mittelschrift';-inkscape-font-specification:'Alte DIN 1451 Mittelschrift';font-variant-ligatures:normal;font-variant-caps:normal;font-variant-numeric:normal;font-feature-settings:normal;text-align:start;letter-spacing:0px;word-spacing:0px;writing-mode:lr-tb;text-anchor:start;display:inline;fill:#000000;fill-opacity:1;stroke:none"
       id="text902-0"
       transform="matrix(0.26458333,0,0,0.26458333,77.378039,104.10065)">
      <path
         d="m 41.055194,111.72207 1.520833,-1.72916 q 0.854167,0.6875 1.96875,1.10416 1.114583,0.41667 2.333333,0.41667 1.40625,0 2.208334,-0.58333 0.802083,-0.58334 0.802083,-1.53125 0,-1.79167 -1.979167,-2.05209 -0.520833,-0.0625 -0.96875,-0.125 -0.447916,-0.0625 -1.041666,-0.14583 -1.96875,-0.27083 -3,-1.4375 -1.03125,-1.17708 -1.03125,-2.83333 0,-1.9375 1.291666,-3.187503 1.302084,-1.25 3.65625,-1.25 1.40625,0 2.645834,0.447916 1.239583,0.447917 2.28125,1.135417 l -1.28125,1.89583 q -0.833333,-0.52083 -1.791667,-0.84375 -0.958333,-0.32291 -1.958333,-0.32291 -1.0625,0 -1.802084,0.54166 -0.739583,0.54167 -0.739583,1.625 0,0.64584 0.5,1.20834 0.5,0.5625 1.65625,0.73958 0.302083,0.0521 0.729167,0.11458 0.427083,0.0521 0.979166,0.11459 2.125001,0.26041 3.135417,1.54166 1.020834,1.28125 1.020834,2.83334 0,2.09375 -1.447917,3.25 -1.447917,1.15625 -3.885417,1.15625 -3.427083,0 -5.802083,-2.08334 z"
         style="font-size:21.33333397px;fill:#ffffff;fill-opacity:1"
         id="path869"
         inkscape:connector-curvature="0" />
    </g>
    <g
       aria-label="P"
       style="font-style:normal;font-variant:normal;font-weight:normal;font-stretch:normal;font-size:13.33333302px;line-height:1.25;font-family:'Alte DIN 1451 Mittelschrift';-inkscape-font-specification:'Alte DIN 1451 Mittelschrift';font-variant-ligatures:normal;font-variant-caps:normal;font-variant-numeric:normal;font-feature-settings:normal;text-align:start;letter-spacing:0px;word-spacing:0px;writing-mode:lr-tb;text-anchor:start;display:inline;fill:#000000;fill-opacity:1;stroke:none"
       id="text902"
       transform="matrix(0.26458333,0,0,0.26458333,77.378039,104.10065)">
      <path
         inkscape:connector-curvature="0"
         d="m 27.506583,61.443049 v 4.895833 h 3.416667 q 1.28125,0 1.90625,-0.770833 0.635417,-0.770834 0.635417,-1.677084 0,-1.375 -0.989584,-2.020833 -0.635417,-0.427083 -1.635417,-0.427083 z m -2.302083,13 V 59.265965 h 5.510416 q 0.885417,0 1.697917,0.1875 0.822917,0.1875 1.708334,0.875 0.6875,0.53125 1.166666,1.46875 0.479167,0.927084 0.479167,2.15625 0,1.625001 -1.21875,3.093751 -1.208333,1.46875 -3.541667,1.46875 h -3.5 v 5.927083 z"
         style="font-size:21.33333397px;fill:#ffffff;fill-opacity:1"
         id="path872" />
    </g>
    <g
       aria-label="F"
       style="font-style:normal;font-variant:normal;font-weight:normal;font-stretch:normal;font-size:13.33333302px;line-height:1.25;font-family:'Alte DIN 1451 Mittelschrift';-inkscape-font-specification:'Alte DIN 1451 Mittelschrift';font-variant-ligatures:normal;font-variant-caps:normal;font-variant-numeric:normal;font-feature-settings:normal;text-align:start;letter-spacing:0px;word-spacing:0px;writing-mode:lr-tb;text-anchor:start;display:inline;fill:#000000;fill-opacity:1;stroke:none"
       id="text902-9"
       transform="matrix(0.26458333,0,0,0.26458333,77.378039,104.10065)">
      <path
         inkscape:connector-curvature="0"
         d="M 42.71203,36.197097 V 21.020013 h 9.708333 v 2.177083 h -7.40625 v 4.46875 h 6.3125 v 2.052084 h -6.3125 v 6.479167 z"
         style="font-size:21.33333397px;fill:#ffffff;fill-opacity:1"
         id="path875" />
    </g>
    <g
       aria-label="M"
       style="font-style:normal;font-variant:normal;font-weight:normal;font-stretch:normal;font-size:13.33333302px;line-height:1.25;font-family:'Alte DIN 1451 Mittelschrift';-inkscape-font-specification:'Alte DIN 1451 Mittelschrift';font-variant-ligatures:normal;font-variant-caps:normal;font-variant-numeric:normal;font-feature-settings:normal;text-align:start;letter-spacing:0px;word-spacing:0px;writing-mode:lr-tb;text-anchor:start;display:inline;fill:#000000;fill-opacity:1;stroke:none"
       id="text902-9-3"
       transform="matrix(0.26458333,0,0,0.26458333,77.378039,104.10065)">
      <path
         inkscape:connector-curvature="0"
         d="M 79.473012,19.114743 V 3.9376591 h 2.177084 l 4.354167,9.8958339 4.260416,-9.8958339 h 2.177084 V 19.114743 H 90.139679 V 9.6459926 h -0.04167 l -3.17708,7.3020834 H 85.004263 L 81.827179,9.6459926 h -0.05208 v 9.4687504 z"
         style="font-size:21.33333397px;fill:#ffffff;fill-opacity:1"
         id="path878" />
    </g>
    <g
       aria-label="D"
       style="font-style:normal;font-variant:normal;font-weight:normal;font-stretch:normal;font-size:13.33333302px;line-height:1.25;font-family:'Alte DIN 1451 Mittelschrift';-inkscape-font-specification:'Alte DIN 1451 Mittelschrift';font-variant-ligatures:normal;font-variant-caps:normal;font-variant-numeric:normal;font-feature-settings:normal;text-align:start;letter-spacing:0px;word-spacing:0px;writing-mode:lr-tb;text-anchor:start;display:inline;fill:#000000;fill-opacity:1;stroke:none"
       id="text902-9-3-8"
       transform="matrix(0.26458333,0,0,0.26458333,77.378039,104.10065)">
      <path
         inkscape:connector-curvature="0"
         d="M 119.55317,35.972468 V 20.795384 h 5.3125 q 3.11458,0 4.625,2.552084 0.5625,0.96875 0.6875,1.8125 0.125,0.84375 0.125,3.229166 0,2.562501 -0.17709,3.427084 -0.16666,0.854167 -0.67708,1.645833 -0.67708,1.0625 -1.86458,1.791667 -1.17709,0.71875 -2.86459,0.71875 z m 2.30208,-13 v 10.833333 h 2.76042 q 1.89583,0 2.8125,-1.322916 0.375,-0.572917 0.46875,-1.229167 0.10416,-0.666667 0.10416,-2.78125 0,-2.041667 -0.11458,-2.822917 -0.10417,-0.78125 -0.5625,-1.40625 -0.94792,-1.270833 -2.70833,-1.270833 z"
         style="font-size:21.33333397px;fill:#ffffff;fill-opacity:1"
         id="path881" />
    </g>
    <g
       aria-label="B"
       style="font-style:normal;font-variant:normal;font-weight:normal;font-stretch:normal;font-size:13.33333302px;line-height:1.25;font-family:'Alte DIN 1451 Mittelschrift';-inkscape-font-specification:'Alte DIN 1451 Mittelschrift';font-variant-ligatures:normal;font-variant-caps:normal;font-variant-numeric:normal;font-feature-settings:normal;text-align:start;letter-spacing:0px;word-spacing:0px;writing-mode:lr-tb;text-anchor:start;display:inline;fill:#000000;fill-opacity:1;stroke:none"
       id="text902-9-3-8-9"
       transform="matrix(0.26458333,0,0,0.26458333,77.378039,104.10065)">
      <path
         inkscape:connector-curvature="0"
         d="M 135.93068,74.502642 V 59.325559 h 5.88542 q 2.21875,0 3.35417,1.145833 1.14583,1.135417 1.14583,2.927083 0,0.9375 -0.45833,1.802084 -0.45834,0.864583 -1.78125,1.458333 v 0.04167 q 1.25,0.291666 1.86458,1.322916 0.61458,1.020834 0.61458,2.177084 0,1.96875 -1.26041,3.135417 -1.25,1.166666 -2.95834,1.166666 z m 5.84375,-6.739583 h -3.54166 v 4.572917 h 3.54166 q 1.28125,0 1.875,-0.6875 0.60417,-0.697917 0.60417,-1.59375 0,-0.895834 -0.60417,-1.593751 -0.59375,-0.697916 -1.875,-0.697916 z m -0.20833,-6.395834 h -3.33333 v 4.354167 h 3.33333 q 1.23958,0 1.84375,-0.635417 0.60417,-0.635416 0.60417,-1.541666 0,-0.875 -0.60417,-1.520834 -0.60417,-0.65625 -1.84375,-0.65625 z"
         style="font-size:21.33333397px;fill:#ffffff;fill-opacity:1"
         id="path884" />
    </g>
    <g
       aria-label="C"
       style="font-style:normal;font-variant:normal;font-weight:normal;font-stretch:normal;font-size:13.33333302px;line-height:1.25;font-family:'Alte DIN 1451 Mittelschrift';-inkscape-font-specification:'Alte DIN 1451 Mittelschrift';font-variant-ligatures:normal;font-variant-caps:normal;font-variant-numeric:normal;font-feature-settings:normal;text-align:start;letter-spacing:0px;word-spacing:0px;writing-mode:lr-tb;text-anchor:start;display:inline;fill:#000000;fill-opacity:1;stroke:none"
       id="text902-9-3-8-9-5"
       transform="matrix(0.26458333,0,0,0.26458333,77.378039,104.10065)">
      <path
         inkscape:connector-curvature="0"
         d="m 128.31289,108.96368 h 2.42709 q -0.44792,2.125 -1.91667,3.25 -1.46875,1.11458 -3.41667,1.11458 -1.79166,0 -3.01041,-0.85416 -1.20834,-0.86459 -1.73959,-1.86459 -0.375,-0.66666 -0.52083,-1.45833 -0.14583,-0.79167 -0.14583,-3.53125 0,-2.73958 0.14583,-3.53125 0.14583,-0.79167 0.52083,-1.45833 0.53125,-0.989586 1.73959,-1.864586 1.21875,-0.875 3.01041,-0.875 2.15625,0 3.5625,1.333334 1.41667,1.322912 1.77084,3.166662 h -2.42709 q -0.28125,-0.875 -1.05208,-1.53125 -0.76042,-0.65625 -1.85417,-0.65625 -0.8125,0 -1.40625,0.33334 -0.59375,0.33333 -0.9375,0.77083 -0.44791,0.58333 -0.61458,1.28125 -0.15625,0.69792 -0.15625,3.03125 0,2.34375 0.15625,3.04167 0.16667,0.69791 0.61458,1.26041 0.34375,0.45834 0.9375,0.79167 0.59375,0.32292 1.40625,0.32292 1.91667,0 2.90625,-2.07292 z"
         style="font-size:21.33333397px;fill:#ffffff;fill-opacity:1"
         id="path887" />
    </g>
  </g>
</svg>
