<?xml version="1.0" encoding="UTF-8" standalone="no"?>
<!-- Created with Inkscape (http://www.inkscape.org/) -->

<svg
   xmlns:dc="http://purl.org/dc/elements/1.1/"
   xmlns:cc="http://creativecommons.org/ns#"
   xmlns:rdf="http://www.w3.org/1999/02/22-rdf-syntax-ns#"
   xmlns:svg="http://www.w3.org/2000/svg"
   xmlns="http://www.w3.org/2000/svg"
   xmlns:sodipodi="http://sodipodi.sourceforge.net/DTD/sodipodi-0.dtd"
   xmlns:inkscape="http://www.inkscape.org/namespaces/inkscape"
   width="37.32515mm"
   height="34.58482mm"
   viewBox="0 0 37.325149 34.58482"
   version="1.1"
   id="svg1017"
   inkscape:version="0.92.2 (5c3e80d, 2017-08-06)"
   sodipodi:docname="OSHWGear.svg">
  <defs
     id="defs1011" />
  <sodipodi:namedview
     id="base"
     pagecolor="#ffffff"
     bordercolor="#666666"
     borderopacity="1.0"
     inkscape:pageopacity="0.0"
     inkscape:pageshadow="2"
     inkscape:zoom="3.959798"
     inkscape:cx="100.23534"
     inkscape:cy="67.376246"
     inkscape:document-units="mm"
     inkscape:current-layer="layer1"
     showgrid="false"
     fit-margin-top="0"
     fit-margin-left="0"
     fit-margin-right="0"
     fit-margin-bottom="0"
     inkscape:window-width="1920"
     inkscape:window-height="1017"
     inkscape:window-x="1912"
     inkscape:window-y="-8"
     inkscape:window-maximized="1" />
  <metadata
     id="metadata1014">
    <rdf:RDF>
      <cc:Work
         rdf:about="">
        <dc:format>image/svg+xml</dc:format>
        <dc:type
           rdf:resource="http://purl.org/dc/dcmitype/StillImage" />
        <dc:title></dc:title>
      </cc:Work>
    </rdf:RDF>
  </metadata>
  <g
     inkscape:label="Layer 1"
     inkscape:groupmode="layer"
     id="layer1"
     transform="translate(-82.293182,-181.95901)">
    <path
       style="display:inline;opacity:1;fill:#808080;fill-opacity:1;stroke:none;stroke-width:0.60874569;stroke-linecap:round;stroke-linejoin:bevel;stroke-miterlimit:4;stroke-dasharray:none;stroke-dashoffset:0;stroke-opacity:1"
       d="m 88.572642,213.32214 c -1.210727,-1.21115 -1.659844,-1.69142 -1.637104,-1.75068 0.01723,-0.0449 0.576574,-0.87498 1.242977,-1.8446 0.666402,-0.96962 1.227143,-1.81178 1.24609,-1.87148 0.02432,-0.0766 -0.161202,-0.59787 -0.630721,-1.77215 -0.365845,-0.91498 -0.697814,-1.72672 -0.73771,-1.80387 -0.04729,-0.0915 -0.13864,-0.15923 -0.262476,-0.19473 -0.104465,-0.0299 -1.110654,-0.22468 -2.235975,-0.43275 -1.125321,-0.20806 -2.066974,-0.39123 -2.092563,-0.40705 -0.06363,-0.0393 -0.06179,-4.77585 0.0019,-4.81519 0.02662,-0.0164 1.025341,-0.21188 2.219386,-0.43428 1.194045,-0.22241 2.23226,-0.42931 2.307145,-0.45978 0.148688,-0.0605 0.163443,-0.0911 1.075223,-2.23142 0.268421,-0.63009 0.488038,-1.1918 0.488038,-1.24824 0,-0.0564 -0.583885,-0.95329 -1.297523,-1.993 -0.713637,-1.03971 -1.310476,-1.92414 -1.326309,-1.9654 -0.03271,-0.0852 3.260424,-3.41304 3.377484,-3.41304 0.03816,0 0.930211,0.59069 1.982325,1.31265 1.052114,0.72196 1.961574,1.32809 2.021014,1.34695 0.0763,0.0242 0.57281,-0.15574 1.69004,-0.6126 0.87007,-0.3558 1.62551,-0.68228 1.67874,-0.72553 0.0789,-0.0641 0.17692,-0.51085 0.52941,-2.41214 0.31737,-1.71188 0.45449,-2.35042 0.51474,-2.39694 0.0629,-0.0486 0.61919,-0.0634 2.379407,-0.0634 h 2.29729 l 0.0715,0.11414 c 0.0393,0.0628 0.25897,1.12998 0.4881,2.37157 0.35374,1.91677 0.43308,2.27356 0.52574,2.3643 0.06,0.0588 0.71407,0.35402 1.45345,0.6561 1.87026,0.76411 1.80208,0.74021 1.95034,0.68384 0.0698,-0.0265 0.96262,-0.62237 1.98411,-1.3241 1.02149,-0.70172 1.90328,-1.28789 1.95953,-1.3026 0.0815,-0.0213 0.43591,0.30676 1.74583,1.61622 1.0835,1.08311 1.643,1.67764 1.64193,1.74472 -7.9e-4,0.056 -0.42568,0.7181 -0.94398,1.47143 -1.59197,2.31388 -1.65424,2.4094 -1.65424,2.53731 0,0.20422 1.38148,3.37018 1.50389,3.44648 0.0587,0.0366 1.07693,0.24382 2.26272,0.46051 1.18579,0.21669 2.20734,0.42532 2.27011,0.46361 l 0.11415,0.0696 v 2.32614 c 0,1.95576 -0.0116,2.33574 -0.0726,2.38638 -0.0399,0.0331 -1.05006,0.24304 -2.24475,0.46646 -1.38643,0.25928 -2.20315,0.43423 -2.25781,0.48365 -0.10031,0.0907 -1.46159,3.46625 -1.46159,3.6243 0,0.059 0.55125,0.90928 1.22502,1.88958 0.67376,0.9803 1.23617,1.83617 1.24981,1.90194 0.0211,0.10179 -0.21957,0.36401 -1.61788,1.76282 -0.90347,0.90379 -1.67836,1.64325 -1.72198,1.64325 -0.0436,0 -0.87698,-0.54771 -1.8519,-1.21713 -1.3001,-0.89271 -1.81143,-1.21723 -1.91835,-1.21749 -0.087,-2e-4 -0.46849,0.17378 -0.94577,0.43131 -0.44001,0.23742 -0.83097,0.41978 -0.86881,0.40524 -0.0836,-0.0321 -3.20883,-7.55762 -3.21184,-7.73412 -0.002,-0.0984 0.0706,-0.17445 0.34019,-0.35801 1.11018,-0.75595 1.68567,-1.3688 2.1189,-2.25643 0.38672,-0.79236 0.47853,-1.20968 0.4799,-2.18134 0.001,-0.69366 -0.016,-0.87435 -0.11657,-1.24286 -0.50794,-1.8606 -1.95539,-3.2299 -3.83914,-3.63184 -0.47935,-0.10228 -1.46644,-0.0994 -1.97552,0.006 -0.940047,0.19418 -1.721117,0.60857 -2.429767,1.2891 -1.01605,0.97574 -1.52551,2.17127 -1.52551,3.57986 0,1.7633 0.76878,3.14003 2.37979,4.26171 0.30691,0.21368 0.57515,0.41884 0.59609,0.45589 0.0396,0.0701 -3.06389,7.65146 -3.18529,7.78103 -0.0553,0.059 -0.19674,8e-4 -0.89365,-0.36778 -0.4554,-0.24083 -0.88993,-0.43786 -0.96563,-0.43786 -0.0966,0 -0.665998,0.36281 -1.910659,1.21749 -0.975163,0.66962 -1.803896,1.21749 -1.84163,1.21749 -0.03773,0 -0.819405,-0.75106 -1.737047,-1.66901 z"
       id="path2427"
       inkscape:connector-curvature="0" />
  </g>
</svg>
