<?xml version="1.0" encoding="UTF-8" standalone="no"?>
<!-- Created with Inkscape (http://www.inkscape.org/) -->

<svg
   xmlns:dc="http://purl.org/dc/elements/1.1/"
   xmlns:cc="http://creativecommons.org/ns#"
   xmlns:rdf="http://www.w3.org/1999/02/22-rdf-syntax-ns#"
   xmlns:svg="http://www.w3.org/2000/svg"
   xmlns="http://www.w3.org/2000/svg"
   xmlns:sodipodi="http://sodipodi.sourceforge.net/DTD/sodipodi-0.dtd"
   xmlns:inkscape="http://www.inkscape.org/namespaces/inkscape"
   width="37.32515mm"
   height="34.58482mm"
   viewBox="0 0 37.325149 34.58482"
   version="1.1"
   id="svg1017"
   inkscape:version="0.92.2 (5c3e80d, 2017-08-06)"
   sodipodi:docname="OSHWGearSpec.svg">
  <defs
     id="defs1011" />
  <sodipodi:namedview
     id="base"
     pagecolor="#ffffff"
     bordercolor="#666666"
     borderopacity="1.0"
     inkscape:pageopacity="0.0"
     inkscape:pageshadow="2"
     inkscape:zoom="3.959798"
     inkscape:cx="99.97919"
     inkscape:cy="67.556931"
     inkscape:document-units="mm"
     inkscape:current-layer="layer1"
     showgrid="false"
     fit-margin-top="0"
     fit-margin-left="0"
     fit-margin-right="0"
     fit-margin-bottom="0"
     inkscape:window-width="1920"
     inkscape:window-height="1017"
     inkscape:window-x="1912"
     inkscape:window-y="-8"
     inkscape:window-maximized="1" />
  <metadata
     id="metadata1014">
    <rdf:RDF>
      <cc:Work
         rdf:about="">
        <dc:format>image/svg+xml</dc:format>
        <dc:type
           rdf:resource="http://purl.org/dc/dcmitype/StillImage" />
        <dc:title></dc:title>
      </cc:Work>
    </rdf:RDF>
  </metadata>
  <g
     inkscape:label="Layer 1"
     inkscape:groupmode="layer"
     id="layer1"
     transform="translate(-82.293182,-181.95901)">
    <path
       style="display:inline;opacity:1;fill:#808080;fill-opacity:1;stroke:none;stroke-width:0.60874569;stroke-linecap:round;stroke-linejoin:bevel;stroke-miterlimit:4;stroke-dasharray:none;stroke-dashoffset:0;stroke-opacity:1"
       d="m 88.477194,213.16376 c -1.210727,-1.21115 -1.659844,-1.69142 -1.637104,-1.75068 0.01723,-0.0449 0.576574,-0.87498 1.242977,-1.8446 0.666402,-0.96962 1.227143,-1.81178 1.24609,-1.87148 0.02432,-0.0766 -0.161202,-0.59787 -0.630721,-1.77215 -0.365845,-0.91498 -0.697814,-1.72672 -0.73771,-1.80387 -0.04729,-0.0915 -0.13864,-0.15923 -0.262476,-0.19473 -0.104465,-0.0299 -1.110654,-0.22468 -2.235975,-0.43275 -1.125321,-0.20806 -2.066974,-0.39123 -2.092563,-0.40705 -0.06363,-0.0393 -0.06179,-4.77585 0.0019,-4.81519 0.02662,-0.0164 1.025341,-0.21188 2.219386,-0.43428 1.194045,-0.22241 2.23226,-0.42931 2.307145,-0.45978 0.148688,-0.0605 0.163443,-0.0911 1.075223,-2.23142 0.268421,-0.63009 0.488038,-1.1918 0.488038,-1.24824 0,-0.0564 -0.583885,-0.95329 -1.297523,-1.993 -0.713637,-1.03971 -1.310476,-1.92414 -1.326309,-1.9654 -0.03271,-0.0852 3.260424,-3.41304 3.377484,-3.41304 0.03816,0 0.930211,0.59069 1.982325,1.31265 1.052114,0.72196 1.96157,1.32809 2.021011,1.34695 0.07633,0.0242 0.572813,-0.15574 1.690039,-0.6126 0.870079,-0.3558 1.625516,-0.68228 1.678749,-0.72553 0.07886,-0.0641 0.176919,-0.51085 0.529405,-2.41214 0.317369,-1.71188 0.454494,-2.35042 0.514736,-2.39694 0.06292,-0.0486 0.619192,-0.0634 2.379409,-0.0634 h 2.29729 l 0.0715,0.11414 c 0.0393,0.0628 0.25897,1.12998 0.4881,2.37157 0.35374,1.91677 0.43307,2.27356 0.52574,2.3643 0.06,0.0588 0.71407,0.35402 1.45344,0.6561 1.87028,0.76411 1.80209,0.74021 1.95036,0.68384 0.0698,-0.0265 0.96262,-0.62237 1.98411,-1.3241 1.02149,-0.70172 1.90327,-1.28789 1.95953,-1.3026 0.0815,-0.0213 0.4359,0.30676 1.74583,1.61622 1.08349,1.08311 1.643,1.67764 1.64193,1.74472 -8e-4,0.056 -0.42569,0.7181 -0.94398,1.47143 -1.59198,2.31388 -1.65425,2.4094 -1.65425,2.53731 0,0.20422 1.38149,3.37018 1.5039,3.44648 0.0587,0.0366 1.07693,0.24382 2.26272,0.46051 1.18578,0.21669 2.20733,0.42532 2.27011,0.46361 l 0.11414,0.0696 v 2.32614 c 0,1.95576 -0.0116,2.33574 -0.0726,2.38638 -0.0399,0.0331 -1.05005,0.24304 -2.24475,0.46646 -1.38642,0.25928 -2.20314,0.43423 -2.2578,0.48365 -0.10032,0.0907 -1.46159,3.46625 -1.46159,3.6243 0,0.059 0.55125,0.90928 1.22501,1.88958 0.67376,0.9803 1.23618,1.83617 1.24981,1.90194 0.0211,0.10179 -0.21956,0.36401 -1.61787,1.76282 -0.90347,0.90379 -1.67836,1.64325 -1.72198,1.64325 -0.0436,0 -0.87698,-0.54771 -1.8519,-1.21713 -1.3001,-0.89271 -1.81143,-1.21723 -1.91835,-1.21749 -0.087,-2e-4 -0.4685,0.17378 -0.94578,0.43131 -0.44,0.23742 -0.83096,0.41978 -0.86881,0.40524 -0.0836,-0.0321 -3.20883,-7.55762 -3.21185,-7.73412 -0.002,-0.0984 0.0706,-0.17445 0.34019,-0.35801 1.11019,-0.75595 1.68568,-1.3688 2.1189,-2.25643 0.38672,-0.79236 0.47854,-1.20968 0.47991,-2.18134 0.001,-0.69366 -0.016,-0.87435 -0.11657,-1.24286 -0.50794,-1.8606 -1.95539,-3.2299 -3.83914,-3.63184 -0.47935,-0.10228 -1.46644,-0.0994 -1.975518,0.006 -0.940053,0.19418 -1.721122,0.60857 -2.429765,1.2891 -1.016058,0.97574 -1.525516,2.17127 -1.525516,3.57986 0,1.7633 0.768784,3.14003 2.379788,4.26171 0.306909,0.21368 0.575151,0.41884 0.596092,0.45589 0.03964,0.0701 -3.063891,7.65146 -3.18529,7.78103 -0.05526,0.059 -0.196735,8e-4 -0.893652,-0.36778 -0.455397,-0.24083 -0.88993,-0.43786 -0.965629,-0.43786 -0.09662,0 -0.665996,0.36281 -1.910657,1.21749 -0.975163,0.66962 -1.803896,1.21749 -1.84163,1.21749 -0.03773,0 -0.819405,-0.75106 -1.737047,-1.66901 z m 2.776248,-0.1648 c 0.106763,-0.0344 0.294994,-0.15136 0.418293,-0.25989 0.427701,-0.37648 0.48066,-1.0138 0.126961,-1.52789 -0.194923,-0.28331 -0.470591,-0.41872 -0.994056,-0.4883 -0.222632,-0.0296 -0.468336,-0.0788 -0.546009,-0.10943 -0.332724,-0.13106 -0.450121,-0.54583 -0.219709,-0.77625 0.254709,-0.2547 0.746689,-0.26508 1.284697,-0.0271 0.126792,0.0561 0.237946,0.10198 0.24701,0.10198 0.03025,0 0.325726,-0.4488 0.325726,-0.49476 0,-0.0528 -0.340768,-0.22959 -0.663231,-0.34413 -0.32894,-0.11684 -0.99475,-0.10879 -1.27259,0.0154 -0.402104,0.17972 -0.635166,0.49433 -0.686351,0.92651 -0.05932,0.50085 0.220283,1.01523 0.644015,1.18477 0.113025,0.0452 0.42743,0.11538 0.69868,0.15591 0.440761,0.0659 0.508008,0.0902 0.632684,0.22892 0.341604,0.38013 -0.0128,0.86384 -0.632924,0.86384 -0.283618,0 -0.787155,-0.15062 -0.992604,-0.29692 l -0.151016,-0.10753 -0.213223,0.23132 c -0.198639,0.2155 -0.207636,0.2375 -0.13153,0.32159 0.137731,0.15219 0.570208,0.36143 0.903865,0.43731 0.351404,0.0799 0.914253,0.0636 1.221312,-0.0353 z m 20.756888,-0.16251 c 0.28623,-0.13358 0.59393,-0.44721 0.70905,-0.72273 0.12706,-0.3041 0.11268,-0.32468 -0.22696,-0.32468 -0.29864,0 -0.30869,0.005 -0.54869,0.25365 -0.24097,0.24999 -0.24894,0.25364 -0.55429,0.25364 -0.26021,0 -0.33509,-0.0213 -0.46771,-0.13286 -0.29294,-0.2465 -0.32513,-0.36842 -0.32654,-1.23682 -0.001,-0.66097 0.0135,-0.81677 0.0918,-0.97752 0.26524,-0.54521 1.01452,-0.58706 1.34456,-0.0751 0.12049,0.18689 0.12829,0.19023 0.44388,0.19023 0.36913,0 0.3824,-0.0232 0.21604,-0.37708 -0.13122,-0.27918 -0.39367,-0.55313 -0.67127,-0.70072 -0.30324,-0.16122 -0.98262,-0.16233 -1.28376,-0.002 -0.28072,0.14936 -0.64558,0.56498 -0.72308,0.82366 -0.0759,0.25316 -0.0844,1.92378 -0.0111,2.17306 0.11406,0.38796 0.47324,0.76634 0.85785,0.9037 0.31192,0.1114 0.85706,0.0885 1.15026,-0.0483 z m 4.17135,-10.1868 c 0.30528,-0.0769 0.69123,-0.44175 0.76936,-0.72736 0.14267,-0.52149 -0.0171,-0.99779 -0.41758,-1.24464 l -0.14392,-0.0887 0.16143,-0.0942 c 0.16356,-0.0955 0.31156,-0.32999 0.37527,-0.5946 0.0593,-0.24631 -0.0575,-0.65733 -0.25092,-0.88336 -0.27237,-0.31821 -0.48029,-0.36644 -1.57957,-0.36644 h -0.92944 v 2.02915 2.02916 h 0.89065 c 0.50835,0 0.99113,-0.0253 1.12472,-0.0589 z m -30.677155,-0.74588 v -0.75408 l 0.62869,-0.0242 c 0.531738,-0.0205 0.666628,-0.043 0.874699,-0.14635 0.845277,-0.41965 0.901145,-1.65261 0.09742,-2.14995 l -0.248113,-0.15352 -1.006084,-0.0156 -1.006085,-0.0156 v 2.00674 2.00675 h 0.329738 0.329737 z m 4.616321,-10.20333 v -0.86239 h 0.837026 0.837025 v -0.27901 -0.27901 h -0.837025 -0.837026 v -0.58338 -0.58338 h 0.989212 0.989212 v -0.30438 -0.30437 h -1.318949 -1.318949 v 2.02915 2.02915 h 0.329737 0.329737 z m 21.716474,0.67849 c 0.28052,-0.12961 0.56258,-0.40166 0.718,-0.69252 0.10759,-0.20135 0.11449,-0.27385 0.11449,-1.20347 0,-0.94088 -0.006,-1.00036 -0.11961,-1.21749 -0.15398,-0.29387 -0.38585,-0.5385 -0.64132,-0.67659 -0.18352,-0.0992 -0.29387,-0.11127 -1.15408,-0.12633 l -0.95117,-0.0166 v 2.03721 2.03721 l 0.90044,-0.0169 c 0.78838,-0.0148 0.9294,-0.0303 1.13325,-0.12447 z m -11.964779,-5.53382 0.0136,-1.20286 0.399859,0.92385 0.39986,0.92384 h 0.26329 0.2633 l 0.41345,-0.95116 0.41346,-0.95117 0.001,1.23018 10e-4,1.23017 h 0.32974 0.32974 v -2.02915 -2.02915 h -0.31818 -0.31818 l -0.55194,1.29274 -0.55194,1.29274 -0.56379,-1.28006 -0.563795,-1.28006 -0.316231,-0.0151 -0.316231,-0.0151 v 2.03158 2.03157 h 0.328819 0.328819 z"
       id="path2430"
       inkscape:connector-curvature="0" />
    <path
       style="display:inline;opacity:1;fill:#808080;fill-opacity:1;stroke:none;stroke-width:0.60874569;stroke-linecap:round;stroke-linejoin:bevel;stroke-miterlimit:4;stroke-dasharray:none;stroke-dashoffset:0;stroke-opacity:1"
       d="m 85.504525,199.86352 v -0.61299 l 0.613027,0.0169 0.613027,0.0169 0.147905,0.16567 c 0.170126,0.19056 0.198717,0.47668 0.0721,0.72153 -0.138104,0.26706 -0.246645,0.30493 -0.873967,0.30493 h -0.572094 z"
       id="path2432"
       inkscape:connector-curvature="0" />
    <path
       style="display:inline;opacity:1;fill:#808080;fill-opacity:1;stroke:none;stroke-width:0.60874569;stroke-linecap:round;stroke-linejoin:bevel;stroke-miterlimit:4;stroke-dasharray:none;stroke-dashoffset:0;stroke-opacity:1"
       d="m 110.46311,190.48884 v -1.4263 h 0.44581 c 0.57751,0 0.84302,0.11944 1.01486,0.45656 0.10938,0.21457 0.11547,0.27755 0.10146,1.04909 -0.0135,0.74198 -0.0252,0.83455 -0.12167,0.96385 -0.19607,0.26269 -0.40065,0.34135 -0.94461,0.36319 l -0.49585,0.0199 z"
       id="path2434"
       inkscape:connector-curvature="0" />
    <path
       style="display:inline;opacity:1;fill:#808080;fill-opacity:1;stroke:none;stroke-width:0.60874569;stroke-linecap:round;stroke-linejoin:bevel;stroke-miterlimit:4;stroke-dasharray:none;stroke-dashoffset:0;stroke-opacity:1"
       d="m 114.77505,199.76632 v -0.55802 h 0.45022 c 0.57663,0 0.7367,0.034 0.89214,0.18943 0.17814,0.17814 0.21465,0.42586 0.0934,0.63353 -0.1447,0.24777 -0.27786,0.29148 -0.89038,0.29232 l -0.54534,7.5e-4 z"
       id="path2436"
       inkscape:connector-curvature="0" />
    <path
       style="display:inline;opacity:1;fill:#808080;fill-opacity:1;stroke:none;stroke-width:0.60874569;stroke-linecap:round;stroke-linejoin:bevel;stroke-miterlimit:4;stroke-dasharray:none;stroke-dashoffset:0;stroke-opacity:1"
       d="m 114.77505,201.51646 v -0.58338 h 0.60795 c 0.59326,0 0.61176,0.003 0.76592,0.14115 0.20837,0.18618 0.25323,0.51649 0.10269,0.75617 -0.13139,0.20918 -0.34889,0.2688 -0.98195,0.26916 l -0.49461,2.9e-4 z"
       id="path2438"
       inkscape:connector-curvature="0" />
  </g>
</svg>
