<?xml version="1.0" encoding="UTF-8" standalone="no"?>
<!-- Created with Inkscape (http://www.inkscape.org/) -->

<svg
   xmlns:dc="http://purl.org/dc/elements/1.1/"
   xmlns:cc="http://creativecommons.org/ns#"
   xmlns:rdf="http://www.w3.org/1999/02/22-rdf-syntax-ns#"
   xmlns:svg="http://www.w3.org/2000/svg"
   xmlns="http://www.w3.org/2000/svg"
   xmlns:sodipodi="http://sodipodi.sourceforge.net/DTD/sodipodi-0.dtd"
   xmlns:inkscape="http://www.inkscape.org/namespaces/inkscape"
   width="47.707607mm"
   height="14.499371mm"
   viewBox="0 0 47.707607 14.499371"
   version="1.1"
   id="svg1017"
   inkscape:version="0.92.2 (5c3e80d, 2017-08-06)"
   sodipodi:docname="OSHWText.svg">
  <defs
     id="defs1011" />
  <sodipodi:namedview
     id="base"
     pagecolor="#ffffff"
     bordercolor="#666666"
     borderopacity="1.0"
     inkscape:pageopacity="0.0"
     inkscape:pageshadow="2"
     inkscape:zoom="3.959798"
     inkscape:cx="119.1721"
     inkscape:cy="32.45416"
     inkscape:document-units="mm"
     inkscape:current-layer="layer1"
     showgrid="false"
     fit-margin-top="0"
     fit-margin-left="0"
     fit-margin-right="0"
     fit-margin-bottom="0"
     inkscape:window-width="1920"
     inkscape:window-height="1017"
     inkscape:window-x="1912"
     inkscape:window-y="-8"
     inkscape:window-maximized="1" />
  <metadata
     id="metadata1014">
    <rdf:RDF>
      <cc:Work
         rdf:about="">
        <dc:format>image/svg+xml</dc:format>
        <dc:type
           rdf:resource="http://purl.org/dc/dcmitype/StillImage" />
        <dc:title></dc:title>
      </cc:Work>
    </rdf:RDF>
  </metadata>
  <g
     inkscape:label="Layer 1"
     inkscape:groupmode="layer"
     id="layer1"
     transform="translate(-77.215057,-192.75685)">
    <path
       style="display:inline;opacity:1;fill:#808080;fill-opacity:1;stroke:none;stroke-width:0.86089641;stroke-linecap:round;stroke-linejoin:bevel;stroke-miterlimit:4;stroke-dasharray:none;stroke-dashoffset:0;stroke-opacity:1"
       d="m 79.541621,198.51004 c -0.430777,-0.14878 -0.812648,-0.4801 -1.041703,-0.90381 -0.139365,-0.2578 -0.155131,-0.39633 -0.155131,-1.36309 0,-1.196 0.05156,-1.38671 0.499643,-1.84809 0.38414,-0.39553 0.709755,-0.51937 1.365633,-0.51937 0.675505,0 0.98525,0.12474 1.411649,0.56849 0.408992,0.42564 0.510059,0.84309 0.476245,1.96707 -0.02273,0.75545 -0.05317,0.95707 -0.181191,1.19989 -0.222275,0.4216 -0.667544,0.79359 -1.105648,0.92369 -0.485318,0.14412 -0.798142,0.13802 -1.269497,-0.0248 z m 1.203644,-0.91353 c 0.380384,-0.2247 0.469177,-0.48083 0.469177,-1.35337 0,-0.61911 -0.02731,-0.83913 -0.126762,-1.02109 -0.342861,-0.62736 -1.412374,-0.62736 -1.755235,0 -0.09945,0.18196 -0.126762,0.40198 -0.126762,1.02109 0,0.86536 0.08611,1.11961 0.457194,1.34991 0.24522,0.15219 0.827457,0.15405 1.082388,0.003 z"
       id="path2441"
       inkscape:connector-curvature="0" />
    <path
       style="display:inline;opacity:1;fill:#808080;fill-opacity:1;stroke:none;stroke-width:0.86089641;stroke-linecap:round;stroke-linejoin:bevel;stroke-miterlimit:4;stroke-dasharray:none;stroke-dashoffset:0;stroke-opacity:1"
       d="m 83.043847,200.00957 v -6.09802 h 0.430448 0.430448 v 0.21522 c 0,0.25931 0.01827,0.26201 0.309688,0.0458 0.84577,-0.62753 1.976281,-0.32658 2.388231,0.63577 0.18062,0.42194 0.17675,2.4479 -0.006,2.88923 -0.2538,0.61452 -1.015443,1.02669 -1.687424,0.91316 -0.159788,-0.027 -0.451276,-0.15966 -0.647751,-0.29481 l -0.357226,-0.24573 v 1.9068 1.90679 l 0.330877,-0.23762 c 0.310999,-0.22334 0.366653,-0.23762 0.926457,-0.23762 0.546282,0 0.621008,0.0179 0.902747,0.21588 0.18579,0.13059 0.37957,0.35649 0.49043,0.57174 0.17975,0.34901 0.18372,0.39006 0.20673,2.13365 l 0.0235,1.77779 h -0.47184 -0.471838 v -1.54474 c 0,-1.67372 -0.04502,-1.9275 -0.380998,-2.14764 -0.437063,-0.28637 -1.077883,-0.19189 -1.357523,0.20016 -0.155695,0.21827 -0.163597,0.29754 -0.18541,1.86011 l -0.02279,1.63211 h -0.425619 -0.425599 z m 2.357061,-2.39796 c 0.304828,-0.15763 0.391911,-0.42497 0.4224,-1.29672 0.025,-0.71488 0.01198,-0.81955 -0.138391,-1.11199 -0.131688,-0.25612 -0.225299,-0.34227 -0.452958,-0.41685 -0.597978,-0.19589 -1.109261,0.0943 -1.257928,0.71404 -0.112088,0.46723 -0.05514,1.46382 0.10088,1.76554 0.06379,0.12336 0.187913,0.27466 0.275834,0.33625 0.200835,0.14067 0.786463,0.1461 1.050163,0.01 z"
       id="path2443"
       inkscape:connector-curvature="0" />
    <path
       style="display:inline;opacity:1;fill:#808080;fill-opacity:1;stroke:none;stroke-width:0.86089641;stroke-linecap:round;stroke-linejoin:bevel;stroke-miterlimit:4;stroke-dasharray:none;stroke-dashoffset:0;stroke-opacity:1"
       d="m 88.807002,198.51835 c -0.53656,-0.19218 -0.84562,-0.45919 -1.07584,-0.92946 -0.17493,-0.35733 -0.20577,-0.51605 -0.22843,-1.17557 -0.0311,-0.90526 0.0865,-1.40336 0.44143,-1.86927 0.37378,-0.49068 0.76021,-0.66862 1.4488,-0.66713 0.64977,10e-4 0.98427,0.13503 1.37299,0.54847 0.38699,0.41161 0.48139,0.67599 0.51454,1.44111 l 0.0303,0.69948 h -1.47905 -1.47904 v 0.16415 c 0,0.29044 0.30652,0.7852 0.57281,0.9246 0.42818,0.22414 1.15265,0.12932 1.51459,-0.19822 0.10835,-0.0981 0.15116,-0.0812 0.44948,0.17699 l 0.32973,0.28538 -0.23164,0.19579 c -0.56301,0.4759 -1.49654,0.64871 -2.18067,0.40368 z m 1.58739,-2.90294 c -0.0728,-0.33808 -0.21868,-0.59414 -0.43575,-0.76489 -0.24178,-0.19019 -0.8115,-0.20342 -1.11214,-0.0258 -0.22327,0.13189 -0.49379,0.60696 -0.49379,0.86718 0,0.15394 0.0184,0.1567 1.04595,0.1567 h 1.04595 z"
       id="path2445"
       inkscape:connector-curvature="0" />
    <path
       style="display:inline;opacity:1;fill:#808080;fill-opacity:1;stroke:none;stroke-width:0.86089641;stroke-linecap:round;stroke-linejoin:bevel;stroke-miterlimit:4;stroke-dasharray:none;stroke-dashoffset:0;stroke-opacity:1"
       d="m 92.155002,196.24314 v -2.33159 h 0.46632 0.46632 v 0.26452 0.26452 l 0.19728,-0.18897 c 0.74091,-0.70967 1.98,-0.47623 2.46372,0.46416 0.12399,0.24105 0.13691,0.43572 0.13691,2.06257 v 1.79639 h -0.43045 -0.43045 l -1.1e-4,-1.52451 c -1.2e-4,-1.67129 -0.0393,-1.86135 -0.44553,-2.15909 -0.26164,-0.19179 -0.7841,-0.19179 -1.04574,0 -0.40618,0.29774 -0.4454,0.4878 -0.44552,2.15909 l -1.1e-4,1.52451 h -0.46632 -0.46632 z"
       id="path2447"
       inkscape:connector-curvature="0" />
    <path
       style="display:inline;opacity:1;fill:#808080;fill-opacity:1;stroke:none;stroke-width:0.86089641;stroke-linecap:round;stroke-linejoin:bevel;stroke-miterlimit:4;stroke-dasharray:none;stroke-dashoffset:0;stroke-opacity:1"
       d="m 99.910572,198.53295 c -0.43755,-0.11767 -1.02133,-0.41613 -1.19994,-0.6135 -0.11302,-0.12488 -0.10252,-0.14704 0.19461,-0.41072 l 0.31407,-0.27871 0.22125,0.16876 c 0.708978,0.54077 1.980438,0.51031 2.176508,-0.0521 0.17004,-0.48779 -0.0865,-0.66043 -1.1042,-0.74319 -0.675578,-0.0549 -1.078698,-0.21477 -1.347548,-0.53428 -0.24334,-0.28919 -0.29254,-0.48121 -0.25116,-0.98019 0.0704,-0.84842 0.77843,-1.29969 1.935148,-1.23332 0.44558,0.0256 0.64564,0.0788 1.04025,0.27692 0.26872,0.13491 0.48858,0.28025 0.48858,0.32299 0,0.0427 -0.10699,0.19957 -0.23776,0.34851 l -0.23775,0.27079 -0.41689,-0.18709 c -0.47963,-0.21524 -1.10727,-0.25112 -1.43435,-0.082 -0.335798,0.17365 -0.373198,0.66879 -0.0631,0.83477 0.081,0.0433 0.47324,0.10714 0.87163,0.14174 0.91439,0.0794 1.29144,0.25352 1.53126,0.70703 0.33848,0.64007 0.14467,1.41807 -0.44668,1.79309 -0.56585,0.35886 -1.29646,0.44884 -2.03397,0.25051 z"
       id="path2449"
       inkscape:connector-curvature="0" />
    <path
       style="display:inline;opacity:1;fill:#808080;fill-opacity:1;stroke:none;stroke-width:0.86089641;stroke-linecap:round;stroke-linejoin:bevel;stroke-miterlimit:4;stroke-dasharray:none;stroke-dashoffset:0;stroke-opacity:1"
       d="m 104.60212,198.5794 c -0.58408,-0.1422 -1.18158,-0.71151 -1.31885,-1.25663 -0.12329,-0.48966 -0.10205,-1.88643 0.0348,-2.28809 0.40221,-1.18041 2.05091,-1.58999 3.00824,-0.74732 0.52488,0.46202 0.62865,0.73478 0.66477,1.74748 0.0242,0.67794 0.004,0.96033 -0.092,1.29068 -0.27446,0.94411 -1.29072,1.49885 -2.297,1.25388 z m 1.22387,-1.16805 c 0.27232,-0.29714 0.3654,-0.78127 0.29506,-1.53454 -0.0686,-0.73441 -0.28055,-1.00582 -0.88765,-1.13651 -0.16137,-0.0348 -0.32726,-0.006 -0.55812,0.0959 -0.45744,0.20235 -0.60752,0.54394 -0.60964,1.38759 -0.003,1.11892 0.29979,1.52247 1.10288,1.47077 0.37709,-0.0243 0.44832,-0.0549 0.65747,-0.28318 z"
       id="path2451"
       inkscape:connector-curvature="0" />
    <path
       style="display:inline;opacity:1;fill:#808080;fill-opacity:1;stroke:none;stroke-width:0.86089641;stroke-linecap:round;stroke-linejoin:bevel;stroke-miterlimit:4;stroke-dasharray:none;stroke-dashoffset:0;stroke-opacity:1"
       d="m 109.08549,198.58345 c -0.53205,-0.17368 -0.84819,-0.44612 -1.05184,-0.90646 -0.1066,-0.24098 -0.13075,-0.55972 -0.15342,-2.02571 l -0.0269,-1.73973 h 0.47284 0.47283 v 1.50887 c 0,1.60466 0.038,1.83024 0.35634,2.11407 0.12473,0.11122 0.26238,0.14348 0.61217,0.14348 0.34979,0 0.48744,-0.0323 0.61217,-0.14348 0.31832,-0.28383 0.35634,-0.50941 0.35634,-2.11407 v -1.50887 h 0.46632 0.46632 v 2.33159 2.3316 h -0.46632 -0.46632 v -0.2636 -0.2636 l -0.16142,0.14759 c -0.37487,0.34278 -1.07183,0.52453 -1.4891,0.38832 z"
       id="path2453"
       inkscape:connector-curvature="0" />
    <path
       style="display:inline;opacity:1;fill:#808080;fill-opacity:1;stroke:none;stroke-width:0.86089641;stroke-linecap:round;stroke-linejoin:bevel;stroke-miterlimit:4;stroke-dasharray:none;stroke-dashoffset:0;stroke-opacity:1"
       d="m 112.74477,196.24314 v -2.33159 h 0.43045 c 0.42852,0 0.43045,0.001 0.43045,0.21099 0,0.22871 0.10527,0.35077 0.166,0.1925 0.0682,-0.17777 0.77278,-0.47534 1.12149,-0.47366 0.32084,0.002 0.93791,0.2231 0.93501,0.33569 -7.9e-4,0.0315 -0.13801,0.21194 -0.3049,0.40093 l -0.30342,0.34361 -0.29264,-0.11652 c -0.54887,-0.21854 -1.11997,0.082 -1.25408,0.6599 -0.0352,0.15178 -0.0648,0.91357 -0.0658,1.69286 l -0.002,1.41689 h -0.43045 -0.43045 z"
       id="path2455"
       inkscape:connector-curvature="0" />
    <path
       style="display:inline;opacity:1;fill:#808080;fill-opacity:1;stroke:none;stroke-width:0.86089641;stroke-linecap:round;stroke-linejoin:bevel;stroke-miterlimit:4;stroke-dasharray:none;stroke-dashoffset:0;stroke-opacity:1"
       d="m 117.44383,198.58067 c -0.42476,-0.1175 -0.6136,-0.22169 -0.92944,-0.51283 -0.47808,-0.44068 -0.64175,-0.91396 -0.64342,-1.86057 -0.001,-0.66058 0.0215,-0.80243 0.18391,-1.15263 0.23875,-0.51474 0.62685,-0.88742 1.11394,-1.06966 0.74106,-0.27727 1.57262,-0.13675 2.11319,0.35708 l 0.31406,0.2869 -0.31333,0.28626 -0.31332,0.28625 -0.21006,-0.17675 c -0.28822,-0.24253 -0.69643,-0.34295 -1.06102,-0.26103 -0.67778,0.15229 -0.93196,0.5565 -0.93448,1.48611 -0.003,1.03462 0.40053,1.49682 1.26322,1.44757 0.34898,-0.0199 0.49495,-0.0672 0.70699,-0.22891 l 0.26721,-0.20381 0.29408,0.29408 0.29409,0.29408 -0.17208,0.18317 c -0.40774,0.43402 -1.3918,0.70562 -1.97354,0.54469 z"
       id="path2457"
       inkscape:connector-curvature="0" />
    <path
       style="display:inline;opacity:1;fill:#808080;fill-opacity:1;stroke:none;stroke-width:0.86089641;stroke-linecap:round;stroke-linejoin:bevel;stroke-miterlimit:4;stroke-dasharray:none;stroke-dashoffset:0;stroke-opacity:1"
       d="m 121.46135,198.58423 c -0.68913,-0.1811 -1.15372,-0.61689 -1.3701,-1.28518 -0.17961,-0.5547 -0.17961,-1.55711 0,-2.11181 0.45178,-1.3953 2.10655,-1.80155 3.13777,-0.77032 0.40732,0.40732 0.56392,0.8583 0.56392,1.62402 v 0.52504 h -1.48014 -1.48015 l 0.0401,0.29869 c 0.0815,0.60736 0.53526,0.94597 1.20989,0.90281 0.28596,-0.0183 0.48949,-0.0812 0.68831,-0.2128 l 0.2823,-0.18681 0.31606,0.28005 0.31606,0.28004 -0.21523,0.17981 c -0.49866,0.4166 -1.41209,0.63327 -2.00875,0.47646 z m 1.39895,-2.91732 c 0,-0.30824 -0.19526,-0.66919 -0.44407,-0.82088 -0.30462,-0.18573 -0.80849,-0.19031 -1.10411,-0.01 -0.2439,0.14873 -0.46058,0.53738 -0.46058,0.82614 v 0.18644 h 1.00438 1.00438 z"
       id="path2459"
       inkscape:connector-curvature="0" />
    <path
       style="display:inline;opacity:1;fill:#808080;fill-opacity:1;stroke:none;stroke-width:0.86089641;stroke-linecap:round;stroke-linejoin:bevel;stroke-miterlimit:4;stroke-dasharray:none;stroke-dashoffset:0;stroke-opacity:1"
       d="m 116.05725,206.01655 c -0.34013,-0.10885 -0.90858,-0.646 -1.04534,-0.98778 -0.1898,-0.47436 -0.26694,-1.22467 -0.18518,-1.80115 0.17402,-1.22701 0.80722,-1.84991 1.88405,-1.85339 0.78197,-0.003 1.31461,0.30015 1.66942,0.94869 0.17795,0.32528 0.21018,0.47283 0.23513,1.07643 l 0.0289,0.69947 h -1.47904 c -1.67064,0 -1.60389,-0.0279 -1.36419,0.57111 0.24617,0.61525 1.08781,0.81054 1.77008,0.4107 l 0.34049,-0.19954 0.28495,0.2366 c 0.15672,0.13014 0.28553,0.25847 0.28625,0.28519 0.003,0.10667 -0.54779,0.49197 -0.85043,0.59509 -0.36454,0.12421 -1.21371,0.13422 -1.57511,0.0186 z m 1.66595,-2.90417 c -0.10765,-0.45967 -0.26633,-0.68177 -0.58908,-0.82454 -0.66061,-0.29222 -1.30993,0.0556 -1.42475,0.76315 l -0.042,0.25868 h 1.05101 1.051 z"
       id="path2461"
       inkscape:connector-curvature="0" />
    <path
       style="display:inline;opacity:1;fill:#808080;fill-opacity:1;stroke:none;stroke-width:0.86089641;stroke-linecap:round;stroke-linejoin:bevel;stroke-miterlimit:4;stroke-dasharray:none;stroke-dashoffset:0;stroke-opacity:1"
       d="m 111.52516,203.74012 v -2.36747 h 0.46632 0.46632 v 0.2511 c 0,0.29303 0.0237,0.30296 0.23616,0.0992 0.24675,-0.23662 0.58293,-0.35028 1.03607,-0.35028 0.3752,0 0.85161,0.15719 0.90001,0.29695 0.009,0.0252 -0.12316,0.21074 -0.29308,0.41226 -0.30702,0.36411 -0.31026,0.36573 -0.51656,0.25905 -0.28678,-0.1483 -0.63675,-0.13383 -0.91853,0.038 -0.4016,0.24485 -0.44407,0.45371 -0.44407,2.18397 v 1.54474 h -0.46632 -0.46632 z"
       id="path2463"
       inkscape:connector-curvature="0" />
    <path
       style="display:inline;opacity:1;fill:#808080;fill-opacity:1;stroke:none;stroke-width:0.86089641;stroke-linecap:round;stroke-linejoin:bevel;stroke-miterlimit:4;stroke-dasharray:none;stroke-dashoffset:0;stroke-opacity:1"
       d="m 107.4528,205.92574 c -0.50247,-0.25375 -0.73431,-0.63547 -0.73431,-1.20904 0,-0.45425 0.10156,-0.7018 0.40611,-0.98995 0.31406,-0.29714 0.55992,-0.36028 1.55767,-0.4 l 0.92353,-0.0368 -0.0411,-0.34681 c -0.0226,-0.19075 -0.0755,-0.41121 -0.11766,-0.48992 -0.17033,-0.31827 -1.26203,-0.37623 -1.65226,-0.0877 l -0.1889,0.13966 -0.34098,-0.26137 -0.34099,-0.26138 0.2687,-0.23381 c 0.35891,-0.31233 0.71879,-0.39708 1.53461,-0.36141 0.50795,0.0222 0.75464,0.0679 0.96851,0.17933 0.69319,0.3612 0.74622,0.55668 0.75013,2.76542 l 0.003,1.7756 h -0.43044 -0.43046 v -0.21522 c 0,-0.26558 -0.0445,-0.26819 -0.30559,-0.0179 -0.18721,0.17943 -0.26224,0.19931 -0.82895,0.21966 -0.55711,0.02 -0.66312,0.002 -1.0008,-0.16835 z m 1.89174,-0.83917 c 0.10601,-0.10999 0.17256,-0.29639 0.20538,-0.57523 l 0.0485,-0.41252 h -0.79094 c -0.8589,0 -1.0978,0.0654 -1.22023,0.33413 -0.11193,0.24565 -0.10058,0.33734 0.0683,0.55209 0.19666,0.25 0.50714,0.33623 1.06868,0.29679 0.36076,-0.0254 0.49813,-0.0686 0.62022,-0.19526 z"
       id="path2465"
       inkscape:connector-curvature="0" />
    <path
       style="display:inline;opacity:1;fill:#808080;fill-opacity:1;stroke:none;stroke-width:0.86089641;stroke-linecap:round;stroke-linejoin:bevel;stroke-miterlimit:4;stroke-dasharray:none;stroke-dashoffset:0;stroke-opacity:1"
       d="m 101.37254,206.01791 c -0.0261,-0.0719 -1.23255,-3.85854 -1.428548,-4.48384 -0.0489,-0.15608 -0.0351,-0.16142 0.417778,-0.16142 h 0.46837 l 0.0997,0.34077 c 0.0548,0.18743 0.25786,0.92982 0.45116,1.64976 0.1933,0.71994 0.37419,1.30912 0.40198,1.30928 0.0278,1.6e-4 0.2872,-0.73416 0.57646,-1.63182 l 0.52594,-1.63212 0.32492,-0.0213 0.32492,-0.0213 0.53241,1.65344 c 0.29282,0.90939 0.55557,1.65344 0.58388,1.65344 0.0283,0 0.0801,-0.10492 0.11506,-0.23316 0.035,-0.12824 0.236,-0.87076 0.44675,-1.65005 l 0.38316,-1.41689 h 0.45339 c 0.24936,0 0.45417,0.0242 0.45513,0.0538 0.001,0.0296 -0.32957,1.09495 -0.7345,2.36747 l -0.73623,2.31366 -0.39543,-1.8e-4 -0.39543,-1.8e-4 -0.4978,-1.68655 c -0.27379,-0.92761 -0.52019,-1.66198 -0.54757,-1.63194 -0.0397,0.0436 -0.58704,1.84038 -0.93993,3.08569 -0.0642,0.22667 -0.077,0.23316 -0.45953,0.23316 -0.24956,0 -0.40538,-0.0328 -0.42605,-0.0897 z"
       id="path2467"
       inkscape:connector-curvature="0" />
    <path
       style="display:inline;opacity:1;fill:#808080;fill-opacity:1;stroke:none;stroke-width:0.86089641;stroke-linecap:round;stroke-linejoin:bevel;stroke-miterlimit:4;stroke-dasharray:none;stroke-dashoffset:0;stroke-opacity:1"
       d="m 96.452332,205.96861 c -0.34853,-0.18942 -0.68616,-0.58765 -0.77769,-0.91725 -0.0983,-0.35415 -0.0972,-2.27236 10e-4,-2.62803 0.0983,-0.35387 0.57787,-0.87562 0.90377,-0.98318 0.13884,-0.0458 0.45109,-0.0707 0.69389,-0.0552 0.35369,0.0225 0.50918,0.0747 0.78206,0.26245 l 0.3406,0.23434 v -1.22305 -1.22305 h 0.46632 0.46631 v 3.33597 3.33597 h -0.46631 -0.46631 v -0.24961 -0.24962 l -0.32702,0.2305 c -0.28395,0.20015 -0.39494,0.23311 -0.84296,0.25031 -0.40316,0.0155 -0.57241,-0.0109 -0.77419,-0.12055 z m 1.52104,-0.88583 c 0.31821,-0.21395 0.41419,-0.51353 0.41868,-1.30679 0.006,-1.10175 -0.19302,-1.46248 -0.84223,-1.52486 -0.43133,-0.0414 -0.75034,0.10718 -0.9273,0.43202 -0.18451,0.33869 -0.18218,1.77938 0.003,2.12057 0.23837,0.43818 0.90532,0.57632 1.34742,0.27906 z"
       id="path2469"
       inkscape:connector-curvature="0" />
    <path
       style="display:inline;opacity:1;fill:#808080;fill-opacity:1;stroke:none;stroke-width:0.86089641;stroke-linecap:round;stroke-linejoin:bevel;stroke-miterlimit:4;stroke-dasharray:none;stroke-dashoffset:0;stroke-opacity:1"
       d="m 92.370222,203.74012 v -2.36747 h 0.43045 0.43045 v 0.2511 c 0,0.27145 0.0716,0.31653 0.21957,0.13824 0.0515,-0.0621 0.22216,-0.17841 0.37921,-0.25853 0.35709,-0.18217 1.13313,-0.16295 1.43612,0.0356 l 0.19414,0.12721 -0.14517,0.19398 c -0.44139,0.5898 -0.46071,0.60336 -0.68967,0.48397 -0.46673,-0.24339 -1.04397,-0.0498 -1.25824,0.42198 -0.11572,0.25478 -0.13301,0.48856 -0.13439,1.81691 l -0.002,1.5245 h -0.43042 -0.43045 z"
       id="path2471"
       inkscape:connector-curvature="0" />
    <path
       style="display:inline;opacity:1;fill:#808080;fill-opacity:1;stroke:none;stroke-width:0.86089641;stroke-linecap:round;stroke-linejoin:bevel;stroke-miterlimit:4;stroke-dasharray:none;stroke-dashoffset:0;stroke-opacity:1"
       d="m 88.316832,205.97157 c -0.334,-0.15464 -0.64023,-0.46036 -0.74872,-0.74749 -0.17924,-0.47441 -0.023,-1.1847 0.32858,-1.49325 0.34111,-0.2994 0.6211,-0.37252 1.55814,-0.40692 l 0.92277,-0.0339 -0.0329,-0.39668 c -0.0246,-0.29639 -0.0727,-0.42895 -0.19051,-0.52431 -0.33285,-0.26953 -1.28266,-0.25947 -1.5791,0.0167 l -0.15733,0.14657 -0.31949,-0.26181 c -0.35853,-0.29379 -0.37142,-0.32645 -0.19266,-0.48823 0.30764,-0.27841 0.75462,-0.40645 1.42452,-0.40806 0.74371,-0.002 1.17183,0.11728 1.48753,0.41372 0.38269,0.35934 0.4047,0.49462 0.4047,2.48792 v 1.83171 h -0.43045 -0.43045 v -0.21522 c 0,-0.22036 -0.0988,-0.29155 -0.16509,-0.11892 -0.12626,0.32905 -1.32405,0.45531 -1.87954,0.19813 z m 1.74973,-0.79237 c 0.16778,-0.0898 0.2949,-0.43641 0.2949,-0.80412 v -0.27626 h -0.81535 c -0.71623,0 -0.83833,0.0181 -1.00438,0.1487 -0.14452,0.11368 -0.18902,0.2124 -0.18902,0.41932 0,0.29996 0.14343,0.47522 0.47654,0.58228 0.24423,0.0785 1.04449,0.0333 1.23731,-0.0699 z"
       id="path2473"
       inkscape:connector-curvature="0" />
  </g>
</svg>
