<?xml version="1.0" encoding="UTF-8" standalone="no"?>
<!-- Created with Inkscape (http://www.inkscape.org/) -->

<svg
   xmlns:dc="http://purl.org/dc/elements/1.1/"
   xmlns:cc="http://creativecommons.org/ns#"
   xmlns:rdf="http://www.w3.org/1999/02/22-rdf-syntax-ns#"
   xmlns:svg="http://www.w3.org/2000/svg"
   xmlns="http://www.w3.org/2000/svg"
   xmlns:sodipodi="http://sodipodi.sourceforge.net/DTD/sodipodi-0.dtd"
   xmlns:inkscape="http://www.inkscape.org/namespaces/inkscape"
   width="194.03767mm"
   height="219.69556mm"
   viewBox="0 0 194.03767 219.69556"
   version="1.1"
   id="svg1017"
   inkscape:version="0.92.2 (5c3e80d, 2017-08-06)"
   sodipodi:docname="OwlLogoFill.svg">
  <defs
     id="defs1011" />
  <sodipodi:namedview
     id="base"
     pagecolor="#ffffff"
     bordercolor="#666666"
     borderopacity="1.0"
     inkscape:pageopacity="0.0"
     inkscape:pageshadow="2"
     inkscape:zoom="0.49497475"
     inkscape:cx="564.63941"
     inkscape:cy="411.87197"
     inkscape:document-units="mm"
     inkscape:current-layer="layer1"
     showgrid="false"
     fit-margin-top="0"
     fit-margin-left="0"
     fit-margin-right="0"
     fit-margin-bottom="0"
     inkscape:window-width="1920"
     inkscape:window-height="1017"
     inkscape:window-x="1912"
     inkscape:window-y="-8"
     inkscape:window-maximized="1" />
  <metadata
     id="metadata1014">
    <rdf:RDF>
      <cc:Work
         rdf:about="">
        <dc:format>image/svg+xml</dc:format>
        <dc:type
           rdf:resource="http://purl.org/dc/dcmitype/StillImage" />
        <dc:title></dc:title>
      </cc:Work>
    </rdf:RDF>
  </metadata>
  <g
     inkscape:label="Layer 1"
     inkscape:groupmode="layer"
     id="layer1"
     transform="translate(-6.4144688,-69.820892)">
    <path
       style="display:inline;opacity:1;fill:#b3b3b3;fill-opacity:1;stroke:none;stroke-width:3.98419809;stroke-linecap:round;stroke-linejoin:bevel;stroke-miterlimit:4;stroke-dasharray:none;stroke-dashoffset:0;stroke-opacity:1"
       d="m 101.69219,112.53845 c -2.827123,-3.01999 -4.797804,-4.64379 -7.900657,-6.51 -1.0584,-0.63657 -1.802109,-1.23296 -1.652691,-1.32531 0.876845,-0.54192 6.596071,-1.30879 10.883238,-1.45929 4.88925,-0.17164 8.56007,0.12418 12.43595,1.00219 l 1.81324,0.41076 -2.47728,1.54427 c -3.17697,1.98043 -7.16296,5.3837 -8.81807,7.52893 -0.71257,0.92357 -1.37029,1.6717 -1.46159,1.6625 -0.0913,-0.009 -1.36127,-1.29352 -2.82214,-2.85405 z"
       id="path895"
       inkscape:connector-curvature="0" />
    <path
       style="display:inline;opacity:1;fill:#b3b3b3;fill-opacity:1;stroke:none;stroke-width:1.99209905;stroke-linecap:round;stroke-linejoin:bevel;stroke-miterlimit:4;stroke-dasharray:none;stroke-dashoffset:0;stroke-opacity:1"
       d="m 57.989815,104.47059 c -0.29197,-0.64081 -1.361387,-1.72965 -2.374535,-2.41766 -1.166728,-0.79231 -2.255168,-1.22991 -4.110747,-1.65267 -2.473068,-0.563445 -3.521149,-0.871279 -3.38555,-0.994369 0.268148,-0.243416 1.878299,-0.673044 4.945483,-1.319585 1.734789,-0.365681 3.225126,-0.665229 3.311867,-0.665666 0.478247,-0.0024 -0.536633,-0.447587 -3.975899,-1.744056 -6.821345,-2.571385 -12.140123,-4.925655 -11.922728,-5.277406 0.127529,-0.206346 4.026246,-0.03827 7.489049,0.32285 1.396267,0.145611 2.573933,0.229484 2.617034,0.186383 0.0431,-0.0431 -0.714666,-1.490427 -1.683925,-3.216283 -3.121946,-5.558905 -6.714973,-12.732693 -6.489943,-12.957724 0.03734,-0.03734 1.203055,1.163124 2.590471,2.667706 6.722338,7.290028 16.139462,15.331701 25.968818,22.175845 1.730205,1.204735 1.770308,1.246515 1.238152,1.289975 -4.296873,0.35084 -8.650148,1.51383 -12.772594,3.41221 l -1.266082,0.58303 z"
       id="path898"
       inkscape:connector-curvature="0" />
    <path
       style="display:inline;opacity:1;fill:#b3b3b3;fill-opacity:1;stroke:none;stroke-width:1.99209905;stroke-linecap:round;stroke-linejoin:bevel;stroke-miterlimit:4;stroke-dasharray:none;stroke-dashoffset:0;stroke-opacity:1"
       d="m 70.525802,175.03197 c -5.081955,-0.72511 -10.287688,-2.77877 -14.473187,-5.70966 -10.96445,-7.67783 -16.757522,-21.38686 -14.775552,-34.96562 2.154244,-14.75904 13.068135,-26.6788 27.060164,-29.55414 5.752687,-1.18216 11.409603,-0.84305 16.991449,1.01859 6.541746,2.18178 12.526606,6.54712 16.542214,12.06584 l 1.16206,1.59704 1.43051,0.007 1.43052,0.008 0.46513,-0.70554 c 1.54188,-2.33877 4.9363,-5.91526 7.3448,-7.73872 7.62389,-5.77203 17.21714,-8.12087 26.18288,-6.4107 5.54599,1.05787 10.7507,3.48421 15.06824,7.02453 1.62463,1.33217 4.47038,4.28961 5.74241,5.96776 6.23982,8.23204 8.65408,18.89 6.64549,29.33704 -0.43783,2.27724 -1.69086,6.1309 -2.681,8.24531 -4.48629,9.58041 -12.73186,16.53384 -22.60793,19.06509 -3.14069,0.80496 -4.07896,0.91101 -8.0605,0.91101 -3.88445,0 -4.86091,-0.10434 -7.82024,-0.83562 -5.33288,-1.31781 -10.94815,-4.32819 -14.62004,-7.83789 l -0.61019,-0.58323 1.00464,-0.75521 c 0.55256,-0.41537 1.41233,-1.24605 1.9106,-1.84595 0.85552,-1.03004 3.04103,-4.19008 3.81377,-5.51436 l 0.35326,-0.6054 0.97025,0.32111 c 2.81279,0.93093 7.05256,1.13674 10.13949,0.4922 4.06344,-0.84842 7.33311,-2.54974 10.23815,-5.32726 3.18245,-3.04275 5.15432,-6.57728 6.11395,-10.95906 0.50118,-2.28848 0.48702,-6.08805 -0.0312,-8.38342 -0.88876,-3.93632 -2.56819,-7.16974 -5.16676,-9.94762 l -0.97454,-1.04178 1.42185,-0.27937 c 2.67608,-0.52581 4.65195,-1.95009 5.37925,-3.87757 0.49056,-1.30006 0.40366,-3.08068 -0.20886,-4.27992 -0.77394,-1.51526 -2.97245,-3.14804 -4.70441,-3.49384 l -0.51044,-0.10192 -0.31815,1.46751 c -0.17498,0.80713 -0.3188,1.53048 -0.31959,1.60745 -8e-4,0.077 0.26881,0.23285 0.59912,0.34641 2.23736,0.76916 3.12906,2.48732 1.97377,3.80312 -0.27325,0.31122 -0.88956,0.74337 -1.36957,0.96033 l -0.87275,0.39448 -14.15221,0.046 -14.15221,0.046 v 1.10795 1.10795 l -1.3881,1.33619 c -1.68422,1.62124 -3.10806,3.52084 -4.12294,5.50057 -0.68359,1.33349 -1.49309,3.43001 -1.66108,4.30204 -0.0386,0.20056 -0.21472,-0.16094 -0.44471,-0.91304 -1.15128,-3.76482 -3.914,-7.81597 -6.902524,-10.12159 -0.891299,-0.68764 -0.919411,-0.73394 -0.919411,-1.51436 v -0.80504 l -13.07315,-0.0463 -13.073149,-0.0463 -0.787895,-0.38801 c -1.04139,-0.51286 -1.453219,-1.05695 -1.453219,-1.91995 0,-1.26017 1.146387,-2.36203 2.801967,-2.69315 0.52714,-0.10543 0.548626,-0.13844 0.461372,-0.70889 -0.05033,-0.32907 -0.143041,-1.07005 -0.206015,-1.64662 l -0.114496,-1.04832 -0.682873,0.11404 c -2.355208,0.39333 -4.509916,2.03982 -5.246775,4.00925 -0.407633,1.08949 -0.435798,2.67676 -0.06672,3.75995 0.551244,1.61782 2.454212,3.16076 4.438907,3.59911 l 0.855745,0.18901 -0.863339,0.88642 c -1.805855,1.85414 -3.591263,4.63739 -4.524205,7.05272 -1.203643,3.11617 -1.647251,7.51005 -1.097076,10.86643 1.423024,8.68128 8.223586,15.56251 16.940561,17.14152 2.163591,0.39191 5.523564,0.34876 7.665035,-0.0985 0.927388,-0.19367 1.724234,-0.35213 1.770769,-0.35213 0.04653,0 0.51263,0.61631 1.035762,1.36957 2.172295,3.1279 3.678399,4.82619 5.449826,6.14524 l 1.14408,0.85191 -0.812065,0.71403 c -4.578135,4.02543 -9.890445,6.68934 -15.83581,7.94102 -1.779862,0.37472 -2.582912,0.44577 -5.644279,0.49937 -2.482824,0.0435 -4.065185,-0.008 -5.198793,-0.17002 z"
       id="path900"
       inkscape:connector-curvature="0" />
    <path
       style="display:inline;opacity:1;fill:#b3b3b3;fill-opacity:1;stroke:none;stroke-width:1.99209905;stroke-linecap:round;stroke-linejoin:bevel;stroke-miterlimit:4;stroke-dasharray:none;stroke-dashoffset:0;stroke-opacity:1"
       d="m 150.51132,104.79545 c -3.64121,-1.96396 -8.85675,-3.48628 -13.23068,-3.86177 l -1.28895,-0.11066 2.02542,-1.245065 c 8.78101,-5.397854 14.53476,-9.885317 23.12266,-18.033822 4.69323,-4.453104 5.22014,-4.935856 5.30007,-4.855917 0.17004,0.170031 -4.71504,7.210653 -9.00426,12.977413 -1.41188,1.898234 -2.53171,3.486671 -2.48852,3.529862 0.0432,0.04319 1.52804,-0.46935 3.29966,-1.138973 3.19231,-1.206598 6.40492,-2.215756 6.56003,-2.060657 0.22506,0.225065 -4.38401,3.999492 -9.26893,7.590435 l -3.27391,2.406682 4.60198,0.101992 c 2.53108,0.0561 5.08381,0.11213 5.67273,0.12451 1.31038,0.0275 1.1782,0.20566 -0.48973,0.65987 -0.71388,0.1944 -3.14,1.26395 -5.68672,2.50698 -2.44291,1.19236 -4.45992,2.15836 -4.48222,2.14668 -0.0223,-0.0117 -0.63819,-0.34359 -1.36863,-0.73756 z"
       id="path902"
       inkscape:connector-curvature="0" />
    <path
       style="display:inline;opacity:1;fill:#b3b3b3;fill-opacity:1;stroke:none;stroke-width:1.99209905;stroke-linecap:round;stroke-linejoin:bevel;stroke-miterlimit:4;stroke-dasharray:none;stroke-dashoffset:0;stroke-opacity:1"
       d="m 123.14954,155.01615 c -5.70576,-0.63207 -10.9025,-4.20067 -13.56237,-9.31328 -4.13084,-7.93999 -1.65602,-17.64943 5.76807,-22.62987 l 1.12084,-0.75191 h 8.5788 8.57879 l 1.28714,0.86089 c 4.19364,2.80488 6.98838,7.54227 7.56244,12.81916 0.63304,5.81897 -2.06642,11.92811 -6.87016,15.54783 -3.54215,2.6691 -8.13481,3.94671 -12.46355,3.46718 z m 9.80165,-22.32119 c 1.1327,-0.33637 2.37691,-1.46579 2.8652,-2.60084 0.5217,-1.21273 0.42623,-3.07208 -0.21382,-4.16424 -0.88509,-1.51029 -2.35488,-2.34694 -4.0992,-2.33338 -2.51292,0.0195 -4.40584,1.77901 -4.60676,4.28197 -0.12063,1.50286 0.28227,2.59156 1.35346,3.65723 1.30852,1.30178 2.89983,1.69419 4.70112,1.15926 z"
       id="path904"
       inkscape:connector-curvature="0" />
    <path
       style="display:inline;opacity:1;fill:#b3b3b3;fill-opacity:1;stroke:none;stroke-width:1.99209905;stroke-linecap:round;stroke-linejoin:bevel;stroke-miterlimit:4;stroke-dasharray:none;stroke-dashoffset:0;stroke-opacity:1"
       d="m 130.92234,129.42494 c -0.82839,-0.47508 -0.97853,-1.33793 -0.35828,-2.05901 0.49942,-0.58062 1.27488,-0.60711 1.85371,-0.0633 1.1115,1.0442 -0.17981,2.87684 -1.49543,2.12234 z"
       id="path907"
       inkscape:connector-curvature="0" />
    <path
       style="display:inline;opacity:1;fill:#b3b3b3;fill-opacity:1;stroke:none;stroke-width:1.99209905;stroke-linecap:round;stroke-linejoin:bevel;stroke-miterlimit:4;stroke-dasharray:none;stroke-dashoffset:0;stroke-opacity:1"
       d="M 82.643518,155.01615 C 76.93776,154.38408 71.741023,150.81548 69.081151,145.70287 64.95032,137.76288 67.425134,128.05344 74.849218,123.073 l 1.120844,-0.75191 h 8.578792 8.578794 l 1.287145,0.86089 c 4.193636,2.80488 6.988377,7.54227 7.562447,12.81916 0.63303,5.81897 -2.066432,11.92811 -6.870164,15.54783 -3.54216,2.6691 -8.134813,3.94671 -12.463558,3.46718 z m -2.788314,-6.73609 c 1.69713,-0.84572 2.632514,-2.58439 2.471243,-4.59349 -0.104826,-1.30591 -0.560851,-2.20924 -1.558693,-3.08758 -2.981367,-2.6243 -7.726455,-0.44037 -7.692006,3.54025 0.01709,1.97633 1.17992,3.63414 3.056099,4.35702 0.278185,0.10719 1.032727,0.20056 1.676757,0.20751 0.948007,0.0102 1.337694,-0.0705 2.0466,-0.42371 z"
       id="path909"
       inkscape:connector-curvature="0" />
    <path
       style="display:inline;opacity:1;fill:#b3b3b3;fill-opacity:1;stroke:none;stroke-width:1.99209905;stroke-linecap:round;stroke-linejoin:bevel;stroke-miterlimit:4;stroke-dasharray:none;stroke-dashoffset:0;stroke-opacity:1"
       d="m 76.732692,144.95883 c -0.743347,-0.94502 -0.08509,-2.21873 1.146643,-2.21873 0.550027,0 1.165424,0.72585 1.165424,1.37459 0,1.19358 -1.582669,1.77142 -2.312067,0.84414 z"
       id="path911"
       inkscape:connector-curvature="0" />
    <path
       style="display:inline;opacity:1;fill:#b3b3b3;fill-opacity:1;stroke:none;stroke-width:1.99209905;stroke-linecap:round;stroke-linejoin:bevel;stroke-miterlimit:4;stroke-dasharray:none;stroke-dashoffset:0;stroke-opacity:1"
       d="m 103.93797,165.88858 c -0.1088,-0.13109 -1.39542,-0.9987 -2.85915,-1.92801 -1.567543,-0.99522 -3.033332,-2.06765 -3.566444,-2.60935 -0.747842,-0.75989 -3.332699,-4.05392 -3.754498,-4.78456 -0.0744,-0.12888 0.139472,-0.33142 0.595281,-0.56373 2.327441,-1.18626 5.136991,-3.60345 6.950701,-5.98005 1.0732,-1.40625 1.22678,-1.47776 3.20666,-1.49295 1.11234,-0.008 2.63021,0.34169 3.11475,0.71869 0.15185,0.11815 0.72087,0.78014 1.26449,1.47108 1.16824,1.48488 2.88784,3.06223 4.53924,4.16377 0.6545,0.43657 1.27204,0.82111 1.37231,0.85454 0.19574,0.0652 -0.9956,2.02582 -2.5296,4.16291 -1.31805,1.83625 -2.49725,2.84734 -4.7309,4.05641 -1.06404,0.57597 -2.26547,1.29976 -2.66983,1.60841 -0.62329,0.47577 -0.76531,0.52491 -0.93301,0.32284 z m -2.18232,-5.74077 c 0.0367,-0.31644 -0.2439,-0.86991 -1.00982,-1.9921 -1.420261,-2.08091 -1.490376,-2.22892 -1.601189,-3.38001 -0.08308,-0.863 -0.144468,-1.00296 -0.459586,-1.04781 -1.377072,-0.19598 -2.21574,2.30828 -1.36298,4.06985 0.728961,1.50583 2.633421,2.92539 3.801785,2.8338 0.49037,-0.0384 0.58895,-0.11392 0.63179,-0.48373 z m 6.95418,0.0164 c 0.88243,-0.37839 2.13589,-1.62379 2.54804,-2.53166 0.38817,-0.85504 0.41471,-2.11856 0.0602,-2.86564 -0.29505,-0.62178 -0.49413,-0.81728 -0.98076,-0.96316 -0.54128,-0.16227 -0.79082,0.13806 -0.9228,1.1106 -0.12807,0.94374 -0.57114,1.73458 -1.82897,3.26451 -1.75688,2.13694 -1.26302,3.00903 1.12429,1.98535 z"
       id="path913"
       inkscape:connector-curvature="0" />
    <path
       style="display:inline;opacity:1;fill:#b3b3b3;fill-opacity:1;stroke:none;stroke-width:1.99209905;stroke-linecap:round;stroke-linejoin:bevel;stroke-miterlimit:4;stroke-dasharray:none;stroke-dashoffset:0;stroke-opacity:1"
       d="m 101.04085,190.11514 c -9.807359,-1.00997 -18.820311,-4.6951 -27.242046,-11.13847 l -0.48133,-0.36826 2.191107,-0.005 c 8.717391,-0.0209 17.918007,-3.68405 24.170325,-9.62314 l 1.232184,-1.17045 0.65053,0.47125 c 0.3578,0.25918 1.13562,1.00274 1.7285,1.65234 l 1.07796,1.1811 0.90952,-1.18794 c 0.50023,-0.65337 1.26288,-1.44071 1.69478,-1.74964 l 0.78528,-0.56171 1.45583,1.30229 c 4.74052,4.24053 10.10663,7.16051 15.7919,8.59321 3.47733,0.87629 4.51172,0.99343 8.8221,0.99909 l 4.0672,0.005 -1.12485,0.96602 c -2.86025,2.45636 -10.03551,6.142 -15.64198,8.03465 -5.46589,1.84518 -9.57291,2.54519 -15.35577,2.61727 -2.23696,0.0279 -4.36602,0.0199 -4.73124,-0.0177 z"
       id="path915"
       inkscape:connector-curvature="0" />
    <path
       style="display:inline;opacity:1;fill:#b3b3b3;fill-opacity:1;stroke:none;stroke-width:1.99209905;stroke-linecap:round;stroke-linejoin:bevel;stroke-miterlimit:4;stroke-dasharray:none;stroke-dashoffset:0;stroke-opacity:1"
       d="m 71.491383,206.51218 c -2.642856,-1.62319 -5.001474,-7.13377 -6.992405,-16.33678 -0.252029,-1.16499 -0.514319,-2.06144 -0.582864,-1.9921 -0.06855,0.0693 -0.695106,1.39604 -1.392354,2.94822 -2.982876,6.64029 -5.533147,10.99234 -7.762251,13.24631 -2.988728,3.02207 -4.892699,2.56099 -7.164186,-1.73493 -1.380739,-2.61131 -2.377525,-5.99252 -3.246766,-11.01336 -0.28453,-1.64348 -0.574487,-3.13213 -0.644353,-3.3081 -0.098,-0.24684 -0.292206,0.0946 -0.849833,1.49407 -1.495885,3.75423 -3.206874,7.67765 -4.012684,9.2014 -2.51569,4.75703 -5.252164,7.63638 -7.25747,7.63638 -2.49342,0 -5.508676,-4.07295 -7.721031,-10.42941 l -0.559031,-1.60619 1.183476,-1.96088 c 2.308334,-3.82462 5.465543,-7.56834 8.554509,-10.14365 5.405212,-4.5064 12.304,-7.29016 19.605306,-7.91101 3.459031,-0.29412 5.104231,-0.12574 7.265951,0.74365 7.693247,3.09404 13.45061,7.5597 17.355423,13.4616 0.938556,1.41857 3.101612,5.59986 3.101882,5.99607 1.64e-4,0.29121 -1.578305,4.05743 -2.338183,5.57878 -2.04392,4.09213 -4.062572,6.43823 -5.538084,6.43642 -0.278866,-2.6e-4 -0.731136,-0.13826 -1.005052,-0.30649 z"
       id="path917"
       inkscape:connector-curvature="0" />
    <path
       style="display:inline;opacity:1;fill:#b3b3b3;fill-opacity:1;stroke:none;stroke-width:1.99209905;stroke-linecap:round;stroke-linejoin:bevel;stroke-miterlimit:4;stroke-dasharray:none;stroke-dashoffset:0;stroke-opacity:1"
       d="m 49.91031,230.78659 c -2.676802,-0.66155 -5.740614,-3.62938 -8.552473,-8.28456 -0.768765,-1.27273 -2.916417,-5.60456 -3.474857,-7.0088 -0.118007,-0.29674 -0.261522,-0.53882 -0.318924,-0.53796 -0.0574,8e-4 -0.549571,1.10275 -1.09371,2.44862 -2.407857,5.95559 -4.740013,9.52169 -7.14506,10.92551 -1.110126,0.64798 -2.586614,0.68046 -3.818189,0.084 -1.261951,-0.6112 -3.642654,-3.08066 -5.053849,-5.24229 -1.409845,-2.15956 -3.660386,-6.64004 -3.77585,-7.51714 -0.225911,-1.71608 2.485147,-11.89139 4.210542,-15.80325 l 0.401051,-0.90928 0.729675,1.69356 c 3.343379,7.7599 7.883605,10.86424 12.53236,8.5689 2.325587,-1.14827 4.814158,-4.08265 7.142994,-8.42263 l 0.879381,-1.6388 0.555268,1.5558 c 1.560695,4.37291 3.601392,7.29824 5.867681,8.41129 0.798544,0.39219 1.113115,0.44887 2.491038,0.44887 1.46693,0 1.656874,-0.04 2.719557,-0.57311 2.564302,-1.28634 5.889205,-5.31748 8.260631,-10.01524 l 0.515016,-1.02025 0.615257,1.7371 c 1.934985,5.46318 4.03012,8.60578 6.648474,9.97235 1.11483,0.58185 3.211142,0.5651 4.492601,-0.0359 2.062062,-0.96712 4.246737,-3.6519 6.218484,-7.642 l 1.03714,-2.0988 0.275884,1.38917 c 0.552667,2.78284 0.774938,5.04625 0.872513,8.8849 0.09533,3.75018 0.08462,3.94971 -0.249499,4.64824 -0.192008,0.40141 -0.659088,1.47689 -1.037958,2.38993 -2.990643,7.20722 -6.415267,11.37157 -9.3516,11.37157 -1.350224,0 -2.273371,-0.49457 -3.853897,-2.06471 -2.302719,-2.28758 -4.03229,-5.33607 -5.872181,-10.35012 -0.579093,-1.57814 -1.105903,-2.81075 -1.170683,-2.73913 -0.06478,0.0716 -0.623406,1.66164 -1.241388,3.53338 -2.184421,6.61618 -4.048109,10.19966 -6.4614,12.42391 -1.181476,1.08893 -2.881191,1.6919 -3.994029,1.41688 z"
       id="path919"
       inkscape:connector-curvature="0" />
    <path
       style="display:inline;opacity:1;fill:#b3b3b3;fill-opacity:1;stroke:none;stroke-width:1.99209905;stroke-linecap:round;stroke-linejoin:bevel;stroke-miterlimit:4;stroke-dasharray:none;stroke-dashoffset:0;stroke-opacity:1"
       d="m 50.482337,255.48933 c -1.913887,-1.21467 -4.453787,-5.10271 -6.471928,-9.90711 -0.383535,-0.91304 -0.744384,-1.70875 -0.801886,-1.76824 -0.0575,-0.0595 -0.776885,0.0204 -1.598625,0.17763 l -1.494076,0.28581 -0.115786,2.18865 c -0.253228,4.78659 -1.07265,7.33708 -2.684079,8.3543 -0.418598,0.26425 -0.722763,0.31392 -1.556113,0.25414 -2.33222,-0.16731 -5.762527,-2.40159 -9.798055,-6.38182 -3.64226,-3.59235 -4.480883,-4.60676 -5.597549,-6.77087 -1.900912,-3.68399 -3.198453,-7.60174 -3.910112,-11.80607 -0.401302,-2.37081 -0.690654,-6.83133 -0.486845,-7.50501 0.07249,-0.23962 0.13823,-0.35463 0.146078,-0.25558 0.02674,0.33751 1.698279,2.96999 2.855271,4.49671 3.752577,4.95176 7.799324,6.49198 11.80416,4.49276 1.988042,-0.99244 4.680477,-4.09783 6.390437,-7.37059 0.254359,-0.48683 0.51658,-0.88532 0.582713,-0.88554 0.06613,-2.2e-4 0.245504,0.24239 0.3986,0.53913 1.266147,2.45413 4.451928,6.43501 6.391893,7.98717 2.504276,2.00367 4.824754,2.80528 7.097731,2.4519 2.858852,-0.44445 5.179976,-2.25313 7.476046,-5.82552 0.591859,-0.92086 2.107832,-3.90457 2.604071,-5.12529 0.144314,-0.35501 0.242758,-0.24448 1.182777,1.32806 2.083753,3.48588 4.155065,5.63519 6.51922,6.76473 1.195049,0.57096 1.318419,0.59486 3.071154,0.59486 1.712132,0 1.89647,-0.0333 2.953864,-0.53418 2.037638,-0.96516 3.657356,-2.47084 5.43705,-5.05426 0.452397,-0.65671 0.822544,-1.07591 0.822544,-0.93157 0,0.41762 -1.121481,5.319 -1.757727,7.68207 -1.418096,5.26692 -2.387595,8.07969 -3.347332,9.71148 -4.381767,7.45009 -8.704111,11.83859 -11.173666,11.34468 -1.269524,-0.25391 -2.807287,-2.45592 -3.691006,-5.28538 -0.457732,-1.46555 -1.113319,-4.48088 -1.113319,-5.12065 0,-0.4017 -0.02723,-0.40967 -1.618581,-0.47375 -0.890217,-0.0359 -1.644282,-0.0485 -1.675696,-0.0281 -0.03141,0.0204 -0.242882,0.91718 -0.469927,1.99282 -1.118396,5.29852 -2.925947,9.57511 -4.443431,10.51296 -0.72644,0.44897 -1.049498,0.42712 -1.92787,-0.13035 z"
       id="path921"
       inkscape:connector-curvature="0" />
    <path
       style="display:inline;opacity:1;fill:#b3b3b3;fill-opacity:1;stroke:none;stroke-width:1.99209905;stroke-linecap:round;stroke-linejoin:bevel;stroke-miterlimit:4;stroke-dasharray:none;stroke-dashoffset:0;stroke-opacity:1"
       d="m 64.270026,275.31875 c -8.345826,-3.04577 -16.100833,-6.84387 -22.49412,-11.01677 -2.03321,-1.32707 -6.439221,-4.57463 -7.719383,-5.68976 l -0.58103,-0.50613 0.664032,0.12938 c 0.365221,0.0712 1.299017,0.12808 2.075104,0.12649 1.543716,-0.003 2.700808,-0.40339 3.762311,-1.30129 1.089075,-0.92123 2.145953,-2.95423 2.718212,-5.22873 l 0.181811,-0.72263 0.996884,1.63568 c 1.942843,3.18779 3.632695,5.0248 5.441339,5.91519 0.910786,0.44838 1.274368,0.53472 2.251715,0.53472 2.76203,0 4.864166,-2.10536 6.590956,-6.60105 l 0.686313,-1.78682 0.696818,1.4548 c 1.389554,2.90107 2.937642,4.41734 5.061053,4.95702 2.144022,0.54493 4.377028,-0.26686 7.201723,-2.6181 0.621202,-0.51708 0.639752,-0.52173 0.515344,-0.12922 -0.07097,0.22394 -0.648274,1.56506 -1.282887,2.98028 -1.977412,4.40974 -2.265905,5.11889 -2.858596,7.02676 -0.972804,3.13145 -1.154716,4.42881 -1.161981,8.28708 -0.0041,2.18557 -0.06715,3.44193 -0.172492,3.43791 -0.0913,-0.004 -1.249212,-0.40166 -2.573126,-0.88481 z"
       id="path923"
       inkscape:connector-curvature="0" />
    <path
       style="display:inline;opacity:1;fill:#b3b3b3;fill-opacity:1;stroke:none;stroke-width:1.99209905;stroke-linecap:round;stroke-linejoin:bevel;stroke-miterlimit:4;stroke-dasharray:none;stroke-dashoffset:0;stroke-opacity:1"
       d="m 102.36892,267.74765 c -1.46087,-1.54486 -2.693485,-2.80938 -2.739136,-2.81003 -0.04565,-7.9e-4 -0.637194,0.70598 -1.314535,1.57027 l -1.231529,1.57145 -0.80595,-2.1181 c -0.443275,-1.16496 -0.999324,-2.62714 -1.235668,-3.2493 -0.297381,-0.78282 -0.499446,-1.10443 -0.656135,-1.0443 -0.124529,0.0478 -1.861116,1.16298 -3.859083,2.47821 l -3.632668,2.39133 -2.194573,-1.65034 c -1.207016,-0.90768 -2.282132,-1.61374 -2.389151,-1.56901 -0.107019,0.0447 -1.277784,1.02912 -2.601698,2.18753 -1.323917,1.15841 -2.715575,2.36177 -3.092572,2.67415 l -0.685453,0.56795 -2.302698,-1.43201 c -1.266481,-0.78761 -2.328982,-1.4567 -2.36111,-1.48687 -0.131879,-0.12382 0.612069,-2.02293 2.143427,-5.47162 8.683892,-19.55654 12.659754,-34.07047 13.051419,-47.64437 0.27405,-9.49771 -1.625153,-17.86348 -5.526119,-24.34193 -0.309573,-0.51411 -0.562861,-0.97611 -0.562861,-1.02664 0,-0.0505 1.064527,0.41941 2.365615,1.04432 4.981896,2.39282 10.002661,3.92144 15.646279,4.76366 2.843309,0.42431 10.606529,0.42404 13.446669,-5.3e-4 5.58994,-0.83553 11.00771,-2.41977 15.96668,-4.6689 0.89178,-0.40447 1.64615,-0.71067 1.67636,-0.68046 0.0302,0.0302 -0.26779,0.64227 -0.66224,1.36012 -2.44635,4.45215 -3.93039,9.11261 -4.69746,14.75186 -0.37304,2.74247 -0.5037,8.69396 -0.2606,11.86959 0.99587,13.00865 5.07377,27.02209 13.04086,44.81408 1.65209,3.68942 2.09662,4.94634 2.56604,7.25559 0.52223,2.56904 0.61969,2.38103 -1.23432,2.38103 -0.86739,0 -1.57762,-0.0187 -1.57827,-0.0415 -8e-4,-0.0228 -0.15006,-1.1515 -0.33202,-2.50818 -0.18195,-1.35666 -0.33082,-2.5706 -0.33082,-2.69763 0,-0.12703 -0.0697,-0.23096 -0.15485,-0.23096 -0.0852,0 -1.7347,1.00916 -3.66565,2.24259 -1.93094,1.23342 -3.56832,2.20703 -3.63862,2.16358 -0.0703,-0.0434 -1.23331,-1.57553 -2.58446,-3.40464 -1.35115,-1.8291 -2.5015,-3.3251 -2.55635,-3.32443 -0.0548,7.9e-4 -2.02476,1.53209 -4.3776,3.40317 -2.35284,1.87107 -4.33948,3.40196 -4.41474,3.40196 -0.0753,0 -1.24604,-0.96843 -2.60172,-2.15206 -1.5951,-1.39266 -2.5269,-2.09902 -2.64062,-2.00174 -0.0966,0.0827 -1.07218,1.34607 -2.16783,2.80753 -1.09565,1.46147 -2.02945,2.65882 -2.0751,2.66079 -0.0456,0.002 -1.27827,-1.26041 -2.73914,-2.80527 z m 6.05803,-6.76816 c 0.66414,-1.9816 1.76265,-3.76738 3.12867,-5.08606 l 0.6685,-0.64534 -1.00519,-1.29678 -1.00519,-1.29678 -0.62523,0.50245 c -0.70497,0.56653 -2.10033,2.2363 -2.65262,3.17428 -0.20161,0.34239 -0.4152,0.6224 -0.47466,0.62223 -0.0595,-1.6e-4 -0.31973,-0.33525 -0.57836,-0.74464 -0.68943,-1.09128 -1.82895,-2.43293 -2.57687,-3.03398 l -0.65502,-0.52639 -0.99354,1.28432 -0.99354,1.28431 1.04324,1.10115 c 1.2502,1.31962 2.26429,2.99981 2.77603,4.5995 l 0.37587,1.17497 1.59618,0.004 1.59618,0.004 0.37555,-1.12056 z M 86.41949,259.1534 c 0.501544,-1.6119 1.564119,-3.45961 2.686997,-4.67242 0.583454,-0.63019 1.060826,-1.1991 1.060826,-1.26425 0,-0.0651 -0.448345,-0.68012 -0.996318,-1.3666 l -0.996315,-1.24814 -1.120288,1.14327 c -0.616159,0.6288 -1.419103,1.60907 -1.784324,2.1784 -0.365217,0.56932 -0.712962,1.03578 -0.772763,1.03658 -0.0598,7.9e-4 -0.313309,-0.34763 -0.563348,-0.77429 -0.514199,-0.87741 -3.036446,-3.57655 -3.230237,-3.45678 -0.06964,0.043 -0.552299,0.63403 -1.072589,1.31331 l -0.945981,1.23506 0.693018,0.6261 c 1.310685,1.18413 2.650752,3.35137 3.246075,5.24976 l 0.299339,0.95455 h 1.599451 1.599449 z m 39.84199,-0.16601 c 0.50154,-1.6119 1.56411,-3.45961 2.68699,-4.67242 0.58346,-0.63019 1.06083,-1.19909 1.06083,-1.26424 0,-0.0652 -0.44834,-0.68012 -0.99632,-1.3666 l -0.99631,-1.24815 -1.12029,1.14327 c -0.61616,0.6288 -1.41911,1.60908 -1.78433,2.1784 -0.36521,0.56932 -0.71296,1.03578 -0.77276,1.03658 -0.0598,7.9e-4 -0.31331,-0.34763 -0.56335,-0.77429 -0.5142,-0.87742 -3.03644,-3.57654 -3.23024,-3.45677 -0.0696,0.043 -0.55229,0.63402 -1.07258,1.31331 l -0.94598,1.23505 0.69301,0.62611 c 1.31069,1.18412 2.65076,3.35136 3.24608,5.24975 l 0.29934,0.95455 h 1.59945 1.59945 z m -17.52461,-13.08762 c 0.58574,-1.69289 1.46021,-3.1379 2.7028,-4.46624 l 0.97184,-1.03889 -1.00847,-1.26338 -1.00847,-1.26337 -0.63264,0.5084 c -0.74231,0.59654 -2.11621,2.26508 -2.67474,3.24836 l -0.39232,0.69066 -0.70005,-1.04353 c -0.75322,-1.1228 -2.41639,-2.99543 -2.88141,-3.24429 -0.23331,-0.12487 -0.46801,0.0834 -1.29182,1.14616 l -1.00671,1.29874 0.68123,0.64553 c 1.55943,1.47771 3.15123,4.10311 3.38952,5.59042 l 0.10063,0.6281 1.64304,-0.0471 1.64304,-0.0471 z m -15.923687,0.25876 c 0.299527,-0.96934 1.145911,-2.72947 1.714021,-3.56446 0.186367,-0.27391 0.750618,-0.92345 1.25389,-1.44341 l 0.915037,-0.9454 -0.732782,-0.93668 c -0.403032,-0.51517 -0.856109,-1.09408 -1.00684,-1.28647 l -0.274058,-0.34979 -0.59663,0.45507 c -0.642228,0.48985 -2.129851,2.28365 -2.749402,3.31528 -0.20964,0.34907 -0.430257,0.57318 -0.490262,0.49802 -0.06,-0.0752 -0.405374,-0.58013 -0.767488,-1.12216 -0.680368,-1.0184 -2.606653,-3.0817 -2.877063,-3.0817 -0.08431,0 -0.582874,0.56087 -1.107929,1.24638 l -0.954646,1.24637 0.904322,0.95324 c 1.512588,1.5944 2.52046,3.27484 3.043745,5.07487 l 0.277133,0.95331 1.582682,-0.0474 1.582682,-0.0473 z m 30.714097,-0.008 c 0.47437,-1.53502 1.67747,-3.60088 2.77673,-4.76796 0.86174,-0.9149 0.9946,-1.1326 0.83004,-1.36009 -0.10775,-0.14896 -0.56424,-0.73624 -1.01442,-1.30505 l -0.81853,-1.03421 -1.06026,1.04454 c -0.58314,0.5745 -1.42301,1.58382 -1.86636,2.24294 l -0.8061,1.19841 -0.44187,-0.754 c -0.54601,-0.9317 -2.23199,-2.90753 -2.86658,-3.35939 l -0.47092,-0.33533 -1.01288,1.29631 -1.01289,1.2963 0.83016,0.8087 c 1.46456,1.42672 2.92395,3.89303 3.21192,5.42802 l 0.11653,0.62114 1.65961,-0.0471 1.65962,-0.0471 z m -6.56227,-14.05611 c 0.50155,-1.6119 1.56412,-3.45961 2.687,-4.67242 0.58346,-0.63019 1.06083,-1.1991 1.06083,-1.26424 0,-0.0652 -0.44835,-0.68012 -0.99632,-1.36661 l -0.99632,-1.24814 -1.12029,1.14327 c -0.61615,0.6288 -1.4191,1.60907 -1.78432,2.1784 -0.36522,0.56932 -0.71296,1.03578 -0.77277,1.03658 -0.0598,7.9e-4 -0.31331,-0.34763 -0.56334,-0.77429 -0.5142,-0.87741 -3.03645,-3.57655 -3.23024,-3.45677 -0.0696,0.043 -0.5523,0.63402 -1.07259,1.31331 l -0.94598,1.23505 0.69302,0.6261 c 1.31068,1.18413 2.65075,3.35137 3.24607,5.24976 l 0.29934,0.95455 h 1.59945 1.59945 z m -21.581074,-1.16206 c 0.501544,-1.6119 1.564118,-3.45961 2.686997,-4.67242 0.583454,-0.63018 1.060826,-1.19909 1.060826,-1.26424 0,-0.0651 -0.448342,-0.68012 -0.996315,-1.3666 l -0.996318,-1.24815 -1.120288,1.14327 c -0.616159,0.6288 -1.419104,1.60908 -1.784324,2.1784 -0.365217,0.56932 -0.712962,1.03578 -0.772763,1.03658 -0.0598,8e-4 -0.313309,-0.34763 -0.563351,-0.77429 -0.514196,-0.87741 -3.036443,-3.57654 -3.230234,-3.45677 -0.06964,0.043 -0.552299,0.63402 -1.072589,1.31331 l -0.945981,1.23506 0.69302,0.6261 c 1.310685,1.18412 2.65075,3.35136 3.246073,5.24975 l 0.299339,0.95455 h 1.599451 1.599449 z m 13.114654,-12.78263 c 0.50154,-1.6119 1.56412,-3.45961 2.68699,-4.67243 0.58346,-0.63018 1.06083,-1.19909 1.06083,-1.26424 0,-0.0651 -0.44834,-0.68012 -0.99631,-1.3666 l -0.99632,-1.24814 -1.12029,1.14326 c -0.61616,0.6288 -1.4191,1.60908 -1.78432,2.1784 -0.36522,0.56933 -0.71297,1.03579 -0.77277,1.03659 -0.0598,7.9e-4 -0.31331,-0.34764 -0.56335,-0.7743 -0.51419,-0.87741 -3.03644,-3.57654 -3.23023,-3.45677 -0.0696,0.043 -0.5523,0.63403 -1.07259,1.31331 l -0.94598,1.23506 0.69302,0.6261 c 1.31068,1.18413 2.65075,3.35136 3.24607,5.24976 l 0.29934,0.95454 h 1.59945 1.59945 z m -11.865765,-10.5286 c 0.389993,-1.52168 1.584063,-3.65793 2.746269,-4.91322 0.594402,-0.64201 1.080726,-1.21618 1.080726,-1.27594 0,-0.20201 -1.862112,-2.41505 -2.032086,-2.41505 -0.294748,0 -2.200629,2.08981 -2.93792,3.22144 l -0.71039,1.09036 -0.666584,-1.03134 c -0.730946,-1.13091 -2.720771,-3.28046 -3.036705,-3.28046 -0.10932,0 -0.622929,0.55378 -1.141349,1.23062 l -0.942588,1.23063 0.802529,0.80297 c 1.42767,1.42847 2.713892,3.58252 3.185922,5.3355 l 0.183403,0.68112 1.033257,0.0588 c 2.481632,0.1413 2.188093,0.22994 2.435516,-0.73545 z m 21.579625,-1.47058 c 0.30665,-0.99241 1.16352,-2.76415 1.72388,-3.56446 0.19179,-0.27391 0.75161,-0.92386 1.24404,-1.44432 l 0.89534,-0.9463 -1.02375,-1.25286 -1.02375,-1.25286 -0.61739,0.49615 c -0.77242,0.62074 -1.63816,1.6508 -2.47285,2.94223 l -0.64512,0.99813 -0.65365,-1.011 c -0.68418,-1.05822 -2.41278,-3.00245 -2.90244,-3.26451 -0.2333,-0.12486 -0.45547,0.0694 -1.21789,1.0648 -0.98431,1.2851 -1.08856,1.54599 -0.68034,1.70264 0.79558,0.30529 3.05176,3.76354 3.55826,5.45408 0.10943,0.36521 0.22933,0.76013 0.26646,0.87758 0.0503,0.15909 0.47534,0.20143 1.66656,0.16601 l 1.59905,-0.0475 z"
       id="path925"
       inkscape:connector-curvature="0" />
    <path
       style="display:inline;opacity:1;fill:#b3b3b3;fill-opacity:1;stroke:none;stroke-width:1.99209905;stroke-linecap:round;stroke-linejoin:bevel;stroke-miterlimit:4;stroke-dasharray:none;stroke-dashoffset:0;stroke-opacity:1"
       d="m 136.19833,208.29847 c -1.95105,-0.96576 -4.36787,-4.70677 -6.51609,-10.08633 l -0.55338,-1.3858 0.29445,-0.93832 c 0.43188,-1.37624 1.5098,-3.70605 2.5463,-5.50354 2.67772,-4.64367 6.8412,-8.83322 11.67727,-11.75035 1.79386,-1.08206 4.64507,-2.50022 6.80904,-3.38674 l 1.71548,-0.70279 2.90515,0.005 c 7.59421,0.0133 14.78832,2.42204 20.88312,6.99212 1.76546,1.32379 4.8042,4.29682 6.33238,6.19544 1.57693,1.95919 3.15265,4.32313 4.46528,6.69896 l 1.00036,1.81062 -0.464,1.26053 c -2.45415,6.66717 -5.81149,10.96878 -8.56097,10.96878 -3.13461,0 -6.60585,-4.7796 -10.54712,-14.52248 -0.8495,-2.10001 -1.56929,-3.84932 -1.59952,-3.88736 -0.13028,-0.16395 -0.22716,0.26349 -0.86618,3.82147 -1.15432,6.42709 -2.70598,10.68263 -4.76873,13.07858 -0.62526,0.72627 -1.67623,1.33792 -2.30545,1.34175 -0.72652,0.004 -2.14934,-0.85632 -3.22282,-1.9497 -2.40204,-2.44654 -4.6017,-6.16614 -7.67618,-12.98032 -0.71957,-1.59484 -1.37167,-2.96306 -1.44911,-3.0405 -0.0774,-0.0774 -0.45903,1.15272 -0.84798,2.73369 -2.10705,8.56459 -4.88036,14.22231 -7.5081,15.317 -0.79432,0.3309 -0.9048,0.32521 -1.7432,-0.0898 z"
       id="path927"
       inkscape:connector-curvature="0" />
    <path
       style="display:inline;opacity:1;fill:#b3b3b3;fill-opacity:1;stroke:none;stroke-width:1.99209905;stroke-linecap:round;stroke-linejoin:bevel;stroke-miterlimit:4;stroke-dasharray:none;stroke-dashoffset:0;stroke-opacity:1"
       d="m 158.1477,232.50619 c -1.01797,-0.41983 -1.51714,-0.77568 -2.41709,-1.72307 -2.29701,-2.41812 -4.1705,-6.21911 -6.30895,-12.79977 -0.48215,-1.4837 -0.91979,-2.6962 -0.97254,-2.69446 -0.0527,0.002 -0.53709,1.21568 -1.07631,2.69764 -2.22382,6.11175 -5.20389,10.66982 -7.90104,12.08476 -1.03907,0.5451 -2.61178,0.54583 -3.64883,0.002 -2.46432,-1.29303 -5.39495,-5.64317 -7.89298,-11.7161 l -0.81943,-1.9921 -0.003,-4.89724 c -0.003,-4.4359 0.11219,-6.33921 0.52024,-8.60446 0.0968,-0.53714 0.12737,-0.50036 1.06342,1.27739 1.28762,2.4455 2.4935,4.20859 3.71405,5.43024 1.22299,1.22409 2.17204,1.79803 3.56196,2.15411 3.86784,0.9909 7.38787,-2.41471 10.3638,-10.02695 l 0.73664,-1.88427 0.88367,1.63526 c 2.53681,4.69445 5.53619,8.23091 8.01031,9.44466 1.17647,0.57715 1.42904,0.63862 2.65958,0.64736 1.21135,0.009 1.48017,-0.0497 2.4644,-0.53418 2.27181,-1.11836 4.40937,-4.16485 5.94306,-8.47018 l 0.5499,-1.54365 0.87815,1.6772 c 2.26511,4.32619 4.70436,7.12169 7.3588,8.43359 1.18215,0.58425 1.31848,0.61289 2.9174,0.61289 1.60806,0 1.73008,-0.0261 2.95597,-0.63195 1.52367,-0.75305 2.96452,-2.03419 4.28406,-3.80924 1.05845,-1.42383 2.3116,-3.59633 3.06141,-5.30733 0.269,-0.61385 0.53625,-1.1181 0.59389,-1.12056 0.12242,-0.005 1.07621,2.61273 1.69187,4.64377 1.01494,3.34833 2.43654,9.78139 2.43654,11.02592 0,1.0477 -2.33871,5.93698 -4.1759,8.73009 -1.34715,2.04809 -3.73661,4.48209 -4.95838,5.05079 -3.72449,1.73364 -7.19578,-1.73607 -10.9501,-10.94511 -0.48389,-1.18696 -0.94251,-2.22768 -1.01914,-2.31271 -0.0796,-0.0883 -0.39576,0.40966 -0.73769,1.16206 -2.56656,5.6476 -4.66491,8.99392 -7.27721,11.60525 -2.0692,2.06842 -3.26468,2.76337 -4.8987,2.84765 -0.62453,0.0322 -1.30724,-0.0317 -1.59165,-0.14898 z"
       id="path929"
       inkscape:connector-curvature="0" />
    <path
       style="display:inline;opacity:1;fill:#b3b3b3;fill-opacity:1;stroke:none;stroke-width:1.99209905;stroke-linecap:round;stroke-linejoin:bevel;stroke-miterlimit:4;stroke-dasharray:none;stroke-dashoffset:0;stroke-opacity:1"
       d="m 157.18696,257.06284 c -1.36045,-1.40258 -2.88638,-5.29296 -3.87424,-9.87744 l -0.47728,-2.215 -1.57708,0.11541 c -0.8674,0.0635 -1.59999,0.13689 -1.62799,0.16314 -0.028,0.0263 -0.15829,0.81293 -0.28953,1.74817 -0.78421,5.58817 -2.52082,9.12361 -4.48271,9.12601 -1.76195,0.002 -5.0718,-3.12984 -8.1571,-7.71877 -0.36832,-0.54782 -1.27538,-1.99254 -2.01568,-3.21048 -1.16725,-1.92035 -1.4663,-2.58176 -2.25178,-4.98025 -1.55389,-4.74493 -3.32609,-11.24106 -3.21739,-11.7936 0.0355,-0.18051 0.23649,-0.003 0.61247,0.5424 0.8393,1.21642 2.45441,2.79231 3.65993,3.57105 3.52825,2.27918 7.11573,1.62862 10.58314,-1.91916 1.20815,-1.23616 3.0189,-3.78947 3.71978,-5.24521 l 0.38042,-0.79015 1.12555,2.34476 c 1.80873,3.76795 3.53495,6.11845 5.54882,7.55552 5.20651,3.71529 11.20389,0.79502 16.61981,-8.09258 l 0.97421,-1.59869 0.71151,1.38951 c 2.79851,5.46528 6.84461,8.46089 10.61449,7.85865 3.34329,-0.53409 6.29345,-3.14228 9.49643,-8.39563 l 0.99176,-1.62663 v 1.16066 c 0,1.6162 -0.43103,4.94836 -0.92725,7.1684 -1.073,4.80044 -3.50409,10.36641 -6.18142,14.15234 -1.0234,1.44717 -5.91489,6.33268 -7.63551,7.62618 -0.75928,0.57081 -2.02149,1.37881 -2.80491,1.79556 -1.21171,0.6446 -1.60131,0.7691 -2.60925,0.83378 -1.10481,0.0709 -1.22147,0.0452 -1.72697,-0.38013 -1.19983,-1.00959 -1.92206,-3.40273 -2.18377,-7.23601 -0.0898,-1.3147 -0.16431,-2.51183 -0.16567,-2.66029 -0.002,-0.20742 -0.35086,-0.33759 -1.50709,-0.56217 -0.86085,-0.16721 -1.55838,-0.22929 -1.63025,-0.1451 -0.0691,0.0809 -0.3385,0.67008 -0.59868,1.30921 -1.88322,4.6261 -4.55053,8.85579 -6.45426,10.23484 -1.00995,0.73161 -1.76043,0.66109 -2.64251,-0.2483 z"
       id="path931"
       inkscape:connector-curvature="0" />
    <path
       style="display:inline;opacity:1;fill:#b3b3b3;fill-opacity:1;stroke:none;stroke-width:1.99209905;stroke-linecap:round;stroke-linejoin:bevel;stroke-miterlimit:4;stroke-dasharray:none;stroke-dashoffset:0;stroke-opacity:1"
       d="m 143.26238,273.67935 c 0.11393,-5.20358 -0.69718,-8.71342 -3.37793,-14.61718 -0.61357,-1.35127 -1.08754,-2.4849 -1.05326,-2.51919 0.0343,-0.0343 0.50993,0.30902 1.05699,0.7629 0.54706,0.45387 1.55106,1.10192 2.23111,1.44012 1.15313,0.57347 1.33772,0.61481 2.73914,0.61338 1.30618,-10e-4 1.61123,-0.0592 2.33273,-0.44284 1.53599,-0.81664 2.8414,-2.44946 3.73353,-4.66993 0.37711,-0.93861 0.50326,-1.12172 0.59322,-0.86106 0.0628,0.18209 0.38036,0.96606 0.70561,1.74215 1.67152,3.98846 3.50968,5.79816 6.04081,5.94731 1.84243,0.10856 3.1988,-0.5441 5.04837,-2.4292 0.88304,-0.9 3.1285,-4.08354 3.56455,-5.05369 0.11285,-0.25109 0.25507,-0.45652 0.31604,-0.45652 0.061,0 0.19325,0.35702 0.29398,0.79339 0.74535,3.22901 2.55906,5.51874 4.77113,6.02333 1.9822,0.45215 1.93559,0.28033 0.38519,1.41973 -5.70493,4.1926 -13.38031,8.5078 -20.45934,11.50249 -2.31448,0.97911 -8.56581,3.33592 -8.84975,3.33644 -0.0701,1.3e-4 -0.1026,-1.13911 -0.0721,-2.53163 z"
       id="path933"
       inkscape:connector-curvature="0" />
    <path
       style="display:inline;opacity:1;fill:#b3b3b3;fill-opacity:1;stroke:none;stroke-width:1.99209905;stroke-linecap:round;stroke-linejoin:bevel;stroke-miterlimit:4;stroke-dasharray:none;stroke-dashoffset:0;stroke-opacity:1"
       d="m 138.25281,276.78941 c -0.41548,-1.00453 -1.40664,-2.07999 -2.37067,-2.57233 -0.68535,-0.35 -1.03887,-0.41345 -2.30366,-0.41345 -1.74932,0 -2.65963,0.35317 -3.90444,1.51482 l -0.75028,0.70015 -0.52235,-1.14761 -0.52234,-1.14761 0.44258,-0.30858 c 0.24342,-0.16972 1.30168,-0.85324 2.35168,-1.51893 1.05001,-0.6657 2.0684,-1.31468 2.2631,-1.44219 0.34936,-0.2288 0.3568,-0.20996 0.56638,1.43455 l 0.21236,1.66639 h 2.56266 2.56266 l -0.11898,1.95059 c -0.0654,1.07283 -0.13002,1.96423 -0.14351,1.98089 -0.0135,0.0167 -0.15982,-0.29685 -0.32519,-0.69669 z"
       id="path935"
       inkscape:connector-curvature="0" />
    <path
       style="display:inline;opacity:1;fill:#b3b3b3;fill-opacity:1;stroke:none;stroke-width:1.99209905;stroke-linecap:round;stroke-linejoin:bevel;stroke-miterlimit:4;stroke-dasharray:none;stroke-dashoffset:0;stroke-opacity:1"
       d="m 105.04899,276.45216 c -0.41348,-0.99968 -1.40621,-2.07564 -2.36851,-2.56709 -0.68703,-0.35087 -1.03576,-0.41307 -2.30366,-0.4109 -1.310075,0.002 -1.609885,0.0609 -2.434464,0.47652 -0.517215,0.26069 -1.220385,0.76072 -1.5626,1.11118 l -0.622208,0.6372 -0.661119,-1.35863 c -0.771581,-1.58563 -2.079996,-2.9965 -3.352038,-3.61452 -1.204542,-0.58522 -2.983601,-0.64632 -4.316214,-0.14823 -1.365848,0.51051 -3.12388,2.26159 -3.905414,3.88997 -0.30675,0.63913 -0.567799,1.18029 -0.580107,1.20257 -0.0123,0.0223 -0.382019,-0.30409 -0.821571,-0.72525 -0.439555,-0.42117 -1.292868,-0.99968 -1.896256,-1.28557 -0.976407,-0.46265 -1.261387,-0.51981 -2.591138,-0.51981 -1.295464,0 -1.618197,0.061 -2.427796,0.45854 -0.513545,0.2522 -1.268386,0.81632 -1.677421,1.25362 l -0.743702,0.79507 -0.191796,-2.48322 c -0.105487,-1.36577 -0.163962,-2.51106 -0.129945,-2.54507 0.03402,-0.034 0.907526,0.46106 1.941132,1.10018 1.550778,0.95892 1.923251,1.12662 2.13084,0.95944 0.138361,-0.11143 1.488019,-1.27591 2.99924,-2.58774 1.511223,-1.31183 2.836061,-2.41978 2.944082,-2.46212 0.108024,-0.0423 1.108104,0.61147 2.222405,1.45292 l 2.026002,1.5299 0.516731,-0.30149 c 0.284202,-0.16582 1.670759,-1.06997 3.08124,-2.00921 1.410478,-0.93925 2.584053,-1.68817 2.607945,-1.66429 0.02389,0.0239 0.711901,1.79576 1.52891,3.93749 0.81701,2.14172 1.559547,3.89404 1.650085,3.89404 0.134067,0 2.494923,-2.82668 3.466275,-4.15021 0.232433,-0.3167 0.372266,-0.19917 3.032622,2.54907 l 2.78896,2.88109 2.2821,-2.99957 2.2821,-2.99957 1.73151,1.52955 c 0.95234,0.84126 1.97353,1.72993 2.26933,1.97484 l 0.53782,0.44528 4.13566,-3.29128 4.13566,-3.29128 1.69663,2.26322 c 0.93314,1.24478 1.66901,2.29084 1.63526,2.32459 -0.0337,0.0337 -0.27109,-0.0874 -0.52743,-0.26913 -1.27363,-0.90309 -3.35577,-1.11618 -4.98358,-0.51003 -1.3284,0.49466 -3.09805,2.26674 -3.87014,3.87545 -0.30675,0.63913 -0.5678,1.18028 -0.58011,1.20256 -0.0123,0.0223 -0.38202,-0.30408 -0.82157,-0.72524 -0.43956,-0.42117 -1.29287,-0.99968 -1.89626,-1.28558 -0.97711,-0.46297 -1.26042,-0.51972 -2.59114,-0.51897 -1.17812,7.9e-4 -1.65822,0.0765 -2.27027,0.35873 -1.00013,0.46113 -2.21244,1.58282 -2.77467,2.56724 l -0.4429,0.77549 z"
       id="path937"
       inkscape:connector-curvature="0" />
    <path
       style="display:inline;opacity:1;fill:#b3b3b3;fill-opacity:1;stroke:none;stroke-width:1.99209905;stroke-linecap:round;stroke-linejoin:bevel;stroke-miterlimit:4;stroke-dasharray:none;stroke-dashoffset:0;stroke-opacity:1"
       d="m 77.633691,285.73051 c -0.860126,-0.45151 -1.698869,-1.38897 -2.18617,-2.44347 -0.421799,-0.91276 -0.469879,-1.19563 -0.469138,-2.76008 7.93e-4,-1.9326 0.235585,-2.61499 1.221271,-3.55129 0.745152,-0.70783 1.907815,-0.7906 2.904078,-0.20675 2.022766,1.18542 3.078562,4.5219 2.217528,7.00775 -0.620551,1.79157 -2.300769,2.68183 -3.687569,1.95384 z"
       id="path940"
       inkscape:connector-curvature="0" />
    <path
       style="display:inline;opacity:1;fill:#b3b3b3;fill-opacity:1;stroke:none;stroke-width:1.99209905;stroke-linecap:round;stroke-linejoin:bevel;stroke-miterlimit:4;stroke-dasharray:none;stroke-dashoffset:0;stroke-opacity:1"
       d="m 88.247642,285.94231 c -1.656271,-0.73943 -2.916656,-3.89869 -2.649435,-6.64102 0.492813,-5.05744 3.935889,-7.49515 6.059019,-4.28981 0.893641,1.34916 1.213848,2.74421 1.124271,4.89816 -0.08796,2.11513 -0.379979,3.21114 -1.163159,4.36561 -1.033312,1.52319 -2.295125,2.14725 -3.370696,1.66706 z"
       id="path943"
       inkscape:connector-curvature="0" />
    <path
       style="display:inline;opacity:1;fill:#b3b3b3;fill-opacity:1;stroke:none;stroke-width:1.99209905;stroke-linecap:round;stroke-linejoin:bevel;stroke-miterlimit:4;stroke-dasharray:none;stroke-dashoffset:0;stroke-opacity:1"
       d="m 98.004417,284.41719 c -0.976617,-0.68405 -1.394873,-2.52317 -0.961457,-4.22764 0.866217,-3.40651 3.94774,-4.71902 4.98616,-2.12376 0.37227,0.9304 0.35957,2.68344 -0.0266,3.66648 -0.88365,2.24961 -2.790962,3.53045 -3.998128,2.68492 z"
       id="path945"
       inkscape:connector-curvature="0" />
    <path
       style="display:inline;opacity:1;fill:#b3b3b3;fill-opacity:1;stroke:none;stroke-width:1.99209905;stroke-linecap:round;stroke-linejoin:bevel;stroke-miterlimit:4;stroke-dasharray:none;stroke-dashoffset:0;stroke-opacity:1"
       d="m 110.83534,286.06253 c -0.86013,-0.45152 -1.69887,-1.38898 -2.18617,-2.44348 -0.4218,-0.91276 -0.46988,-1.19562 -0.46914,-2.76007 8e-4,-1.93261 0.23559,-2.61499 1.22128,-3.5513 0.74515,-0.70782 1.90781,-0.7906 2.90407,-0.20675 2.02277,1.18542 3.07857,4.52191 2.21753,7.00776 -0.62055,1.79157 -2.30077,2.68182 -3.68757,1.95384 z"
       id="path947"
       inkscape:connector-curvature="0" />
    <path
       style="display:inline;opacity:1;fill:#b3b3b3;fill-opacity:1;stroke:none;stroke-width:1.99209905;stroke-linecap:round;stroke-linejoin:bevel;stroke-miterlimit:4;stroke-dasharray:none;stroke-dashoffset:0;stroke-opacity:1"
       d="m 121.4493,286.27433 c -0.27973,-0.12488 -0.78339,-0.54808 -1.11923,-0.94044 -2.40558,-2.81038 -1.90499,-8.91214 0.89771,-10.94241 1.73682,-1.25814 3.59898,-0.0744 4.48819,2.85314 0.2889,0.95115 0.33211,1.43585 0.26718,2.99704 -0.088,2.11512 -0.37998,3.21113 -1.16316,4.36561 -1.03331,1.52318 -2.29512,2.14725 -3.37069,1.66706 z"
       id="path949"
       inkscape:connector-curvature="0" />
    <path
       style="display:inline;opacity:1;fill:#b3b3b3;fill-opacity:1;stroke:none;stroke-width:1.99209905;stroke-linecap:round;stroke-linejoin:bevel;stroke-miterlimit:4;stroke-dasharray:none;stroke-dashoffset:0;stroke-opacity:1"
       d="m 131.20607,284.7492 c -0.97662,-0.68405 -1.39487,-2.52317 -0.96145,-4.22764 0.86621,-3.4065 3.94774,-4.71901 4.98616,-2.12375 0.37227,0.9304 0.35956,2.68344 -0.0266,3.66648 -0.88365,2.24961 -2.79096,3.53045 -3.99813,2.68491 z"
       id="path951"
       inkscape:connector-curvature="0" />
    <path
       style="display:inline;opacity:1;fill:#b3b3b3;fill-opacity:1;stroke:none;stroke-width:0.49802476;stroke-linecap:round;stroke-linejoin:bevel;stroke-miterlimit:4;stroke-dasharray:none;stroke-dashoffset:0;stroke-opacity:1"
       d="m 104.96933,145.21088 c -0.23967,-0.0188 -0.57117,-0.0232 -0.73666,-0.01 -0.1785,0.0146 -0.30089,0.009 -0.30089,-0.0147 0,-0.0216 0.0855,-0.27121 0.18998,-0.55478 0.19774,-0.53664 0.64006,-2.02813 0.64006,-2.15828 0,-0.0411 0.0147,-0.0838 0.0328,-0.095 0.018,-0.0111 0.0874,0.19786 0.15426,0.46445 0.0668,0.26658 0.25793,0.88623 0.42469,1.37699 0.16676,0.49076 0.3143,0.92498 0.32785,0.96493 0.0281,0.0829 0.003,0.0838 -0.73206,0.0261 z"
       id="path953"
       inkscape:connector-curvature="0" />
  </g>
</svg>
