<?xml version="1.0" encoding="UTF-8" standalone="no"?>
<!-- Created with Inkscape (http://www.inkscape.org/) -->

<svg
   xmlns:dc="http://purl.org/dc/elements/1.1/"
   xmlns:cc="http://creativecommons.org/ns#"
   xmlns:rdf="http://www.w3.org/1999/02/22-rdf-syntax-ns#"
   xmlns:svg="http://www.w3.org/2000/svg"
   xmlns="http://www.w3.org/2000/svg"
   xmlns:sodipodi="http://sodipodi.sourceforge.net/DTD/sodipodi-0.dtd"
   xmlns:inkscape="http://www.inkscape.org/namespaces/inkscape"
   width="93.738091mm"
   height="53.294643mm"
   viewBox="0 0 93.738088 53.294644"
   version="1.1"
   id="svg1017"
   inkscape:version="0.92.2 (5c3e80d, 2017-08-06)"
   sodipodi:docname="OwlLogoEyes.svg">
  <defs
     id="defs1011" />
  <sodipodi:namedview
     id="base"
     pagecolor="#ffffff"
     bordercolor="#666666"
     borderopacity="1.0"
     inkscape:pageopacity="0.0"
     inkscape:pageshadow="2"
     inkscape:zoom="0.7"
     inkscape:cx="285.54525"
     inkscape:cy="121.47227"
     inkscape:document-units="mm"
     inkscape:current-layer="layer1"
     showgrid="false"
     fit-margin-top="0"
     fit-margin-left="0"
     fit-margin-right="0"
     fit-margin-bottom="0"
     inkscape:window-width="1920"
     inkscape:window-height="1017"
     inkscape:window-x="1912"
     inkscape:window-y="-8"
     inkscape:window-maximized="1" />
  <metadata
     id="metadata1014">
    <rdf:RDF>
      <cc:Work
         rdf:about="">
        <dc:format>image/svg+xml</dc:format>
        <dc:type
           rdf:resource="http://purl.org/dc/dcmitype/StillImage" />
        <dc:title></dc:title>
      </cc:Work>
    </rdf:RDF>
  </metadata>
  <g
     inkscape:label="Layer 1"
     inkscape:groupmode="layer"
     id="layer1"
     transform="translate(-54.417442,-173.36005)">
    <path
       style="display:inline;opacity:1;fill:#cccccc;fill-opacity:1;stroke:none;stroke-width:1.58749998;stroke-linecap:round;stroke-linejoin:bevel;stroke-miterlimit:4;stroke-dasharray:none;stroke-dashoffset:0;stroke-opacity:1"
       d="m 78.303527,223.83795 c -3.269481,-0.52804 -6.54127,-1.91834 -9.275348,-3.94142 -1.329981,-0.98412 -3.429375,-3.15093 -4.41684,-4.55868 -5.761641,-8.2139 -4.917329,-19.16148 2.030045,-26.32219 0.582006,-0.59988 1.033065,-1.10895 1.002355,-1.13127 -0.03071,-0.0223 -0.407702,-0.1108 -0.837758,-0.19663 -1.898255,-0.37883 -3.678973,-1.69244 -4.394742,-3.24196 -0.337836,-0.73136 -0.379587,-0.96726 -0.379587,-2.14466 0,-1.16191 0.04361,-1.416 0.358372,-2.08773 0.460981,-0.98378 1.663185,-2.24091 2.694575,-2.8177 0.661554,-0.36996 2.812431,-1.07318 2.901569,-0.94866 0.03333,0.0466 0.329338,2.5549 0.329338,2.79077 0,0.12348 -0.322453,0.29176 -0.892969,0.46601 -1.49988,0.45811 -2.414886,1.47828 -2.413831,2.69126 0.0011,1.08306 0.824712,1.8969 2.309334,2.28148 0.684167,0.17724 2.464826,0.20425 13.460677,0.20425 h 12.672204 v 0.78812 0.78812 l 0.892969,0.71389 c 1.394711,1.11501 3.355655,3.24419 4.314889,4.68506 1.112279,1.67078 2.063501,3.68692 2.643981,5.60396 l 0.45578,1.50525 0.15037,-0.59298 c 0.98417,-3.8811 3.09023,-7.41177 6.09196,-10.21276 l 1.19276,-1.11299 v -1.07936 -1.07937 l 14.05599,-0.0365 14.05599,-0.0365 0.78301,-0.31551 c 2.09319,-0.84346 2.73292,-2.52994 1.49466,-3.94025 -0.3843,-0.43768 -1.78474,-1.23398 -2.17065,-1.23423 -0.0867,-6e-5 -0.19033,-0.0532 -0.2304,-0.11798 -0.0857,-0.13866 0.45007,-2.67121 0.60201,-2.84568 0.14136,-0.16231 1.88805,0.48781 2.62959,0.97874 2.04722,1.35536 3.18245,3.59339 2.7968,5.51368 -0.44213,2.20157 -1.88539,3.72484 -4.32634,4.5662 -0.59337,0.20452 -1.52679,0.40973 -2.07428,0.456 l -0.99544,0.0842 0.7487,0.74255 c 2.87996,2.85627 4.82127,6.4591 5.72857,10.63148 0.25124,1.15537 0.29484,1.75687 0.29484,4.06784 0,2.30364 -0.044,2.91411 -0.29211,4.05444 -1.6116,7.40658 -6.73018,13.17622 -13.78067,15.53353 -7.44401,2.48887 -15.6034,0.5502 -21.17508,-5.03119 -2.47305,-2.47736 -4.32617,-5.63579 -5.26371,-8.97143 l -0.34524,-1.2283 -0.29915,1.12691 c -0.3522,1.32674 -1.06371,3.10099 -1.726642,4.30562 -2.983513,5.4214 -8.007336,9.15561 -14.08723,10.47105 -1.649606,0.3569 -5.603145,0.45186 -7.313321,0.17565 z m 6.945312,-3.22244 c 2.03138,-0.47666 3.574075,-1.08372 5.199567,-2.04606 4.286977,-2.53802 7.204474,-6.61101 8.313893,-11.60666 0.25205,-1.13496 0.30601,-1.76372 0.30561,-3.56113 -5.29e-4,-2.33207 -0.158387,-3.39893 -0.80994,-5.47354 -1.208339,-3.84744 -4.03991,-7.45099 -7.53822,-9.59337 l -0.680648,-0.41683 -8.645913,0.0359 -8.645911,0.0359 -1.252205,0.8599 c -3.729524,2.56108 -6.334339,6.491 -7.301208,11.01544 -0.379849,1.77749 -0.414044,5.01691 -0.0711,6.73575 1.528635,7.66159 7.335488,13.11566 15.2391,14.3133 1.00044,0.1516 4.78695,-0.0404 5.886979,-0.29856 z m 40.348961,0.0504 c 7.00965,-1.54656 12.16535,-6.75541 13.71392,-13.85532 0.33683,-1.54432 0.33762,-5.27521 0.001,-6.8485 -0.50171,-2.34794 -1.42145,-4.54939 -2.702,-6.46732 -1.02386,-1.53348 -3.22605,-3.72729 -4.77126,-4.7531 l -1.23237,-0.81812 h -8.52942 c -9.75045,0 -8.65426,-0.1376 -10.64351,1.33605 -4.44033,3.28942 -7.02444,8.42833 -7.04485,14.00979 -0.0175,4.78771 1.61196,8.88252 4.89931,12.31178 2.56422,2.67494 6.12866,4.59359 9.56184,5.14694 0.54571,0.0879 1.08149,0.18109 1.19063,0.20696 0.54407,0.12899 4.65407,-0.0701 5.55625,-0.26916 z"
       id="path1005"
       inkscape:connector-curvature="0" />
    <path
       style="display:inline;opacity:1;fill:#cccccc;fill-opacity:1;stroke:none;stroke-width:1.58749998;stroke-linecap:round;stroke-linejoin:bevel;stroke-miterlimit:4;stroke-dasharray:none;stroke-dashoffset:0;stroke-opacity:1"
       d="m 127.1853,198.39069 c -1.21843,-0.39972 -2.31154,-1.3601 -2.87738,-2.528 -0.29589,-0.61074 -0.35416,-0.91201 -0.35854,-1.85374 -0.004,-0.96826 0.0459,-1.22857 0.36271,-1.87373 0.44743,-0.91111 1.24551,-1.73383 2.13956,-2.20561 0.59398,-0.31343 0.81321,-0.35224 1.99042,-0.35233 1.25629,-1e-4 1.36511,0.0228 2.16083,0.45419 0.92458,0.50128 1.58038,1.21072 2.03561,2.20208 0.45006,0.98013 0.42797,2.63007 -0.0488,3.64706 -0.42967,0.91646 -1.19988,1.70714 -2.12565,2.18216 -0.56803,0.29145 -0.9098,0.36596 -1.82353,0.39755 -0.61846,0.0214 -1.27331,-0.01 -1.45521,-0.0696 z m 2.27994,-3.31255 c 0.38224,-0.34154 0.43203,-0.46476 0.43203,-1.06919 0,-0.60443 -0.0498,-0.72765 -0.43203,-1.06918 -0.61021,-0.54523 -1.47702,-0.54785 -2.01876,-0.006 -0.67963,0.67962 -0.67963,1.47094 0,2.15057 0.54174,0.54174 1.40855,0.53912 2.01876,-0.006 z"
       id="path1007"
       inkscape:connector-curvature="0" />
    <path
       style="display:inline;opacity:1;fill:#cccccc;fill-opacity:1;stroke:none;stroke-width:1.58749998;stroke-linecap:round;stroke-linejoin:bevel;stroke-miterlimit:4;stroke-dasharray:none;stroke-dashoffset:0;stroke-opacity:1"
       d="m 73.262725,214.20197 c -1.244997,-0.40736 -2.461649,-1.60751 -2.892526,-2.85331 -0.296386,-0.85693 -0.260226,-2.22642 0.08308,-3.14647 0.38681,-1.03663 1.51249,-2.14847 2.581381,-2.54965 1.0541,-0.39562 2.594948,-0.34089 3.549073,0.12606 0.844362,0.41324 1.772597,1.3409 2.188469,2.18712 0.276003,0.56162 0.325073,0.85116 0.325073,1.91823 0,1.06707 -0.04907,1.35661 -0.325073,1.91823 -0.41629,0.84707 -1.346271,1.77602 -2.183,2.18056 -0.798542,0.38609 -2.478201,0.49678 -3.326479,0.21923 z m 2.408197,-3.3126 c 0.368737,-0.36874 0.449792,-0.54992 0.449792,-1.00542 0,-0.7505 -0.663252,-1.45521 -1.36961,-1.45521 -0.944296,0 -1.540807,0.55842 -1.540807,1.44242 0,0.88001 0.592807,1.4582 1.501511,1.46448 0.405421,0.003 0.601078,-0.0882 0.959114,-0.44627 z"
       id="path1009"
       inkscape:connector-curvature="0" />
  </g>
</svg>
