<?xml version="1.0" encoding="UTF-8" standalone="no"?>
<!-- Created with Inkscape (http://www.inkscape.org/) -->

<svg
   xmlns:dc="http://purl.org/dc/elements/1.1/"
   xmlns:cc="http://creativecommons.org/ns#"
   xmlns:rdf="http://www.w3.org/1999/02/22-rdf-syntax-ns#"
   xmlns:svg="http://www.w3.org/2000/svg"
   xmlns="http://www.w3.org/2000/svg"
   xmlns:sodipodi="http://sodipodi.sourceforge.net/DTD/sodipodi-0.dtd"
   xmlns:inkscape="http://www.inkscape.org/namespaces/inkscape"
   width="198.43748mm"
   height="232.59792mm"
   viewBox="0 0 198.43748 232.59792"
   version="1.1"
   id="svg1017"
   inkscape:version="0.92.2 (5c3e80d, 2017-08-06)"
   sodipodi:docname="OwlLogoOutline.svg">
  <defs
     id="defs1011" />
  <sodipodi:namedview
     id="base"
     pagecolor="#ffffff"
     bordercolor="#666666"
     borderopacity="1.0"
     inkscape:pageopacity="0.0"
     inkscape:pageshadow="2"
     inkscape:zoom="0.7"
     inkscape:cx="474.11667"
     inkscape:cy="387.18655"
     inkscape:document-units="mm"
     inkscape:current-layer="layer1"
     showgrid="false"
     fit-margin-top="0"
     fit-margin-left="0"
     fit-margin-right="0"
     fit-margin-bottom="0"
     inkscape:window-width="1920"
     inkscape:window-height="1017"
     inkscape:window-x="1912"
     inkscape:window-y="-8"
     inkscape:window-maximized="1" />
  <metadata
     id="metadata1014">
    <rdf:RDF>
      <cc:Work
         rdf:about="">
        <dc:format>image/svg+xml</dc:format>
        <dc:type
           rdf:resource="http://purl.org/dc/dcmitype/StillImage" />
        <dc:title></dc:title>
      </cc:Work>
    </rdf:RDF>
  </metadata>
  <g
     inkscape:label="Layer 1"
     inkscape:groupmode="layer"
     id="layer1"
     transform="translate(-4.5245881,-64.360344)">
    <path
       style="display:inline;opacity:1;fill:#cccccc;fill-opacity:1;stroke:none;stroke-width:1.99209905;stroke-linecap:round;stroke-linejoin:bevel;stroke-miterlimit:4;stroke-dasharray:none;stroke-dashoffset:0;stroke-opacity:1"
       d="M 47.04563,271.99624 C 28.416984,262.3191 16.475087,249.24009 12.693383,234.37296 c -2.345418,-9.22063 -1.554088,-19.63596 2.390142,-31.45857 2.8143,-8.43571 6.634227,-14.92791 11.872271,-20.17767 6.302422,-6.31651 13.69605,-9.88975 22.773894,-11.00629 l 2.232628,-0.2746 -0.878086,-0.66404 c -1.452829,-1.09867 -4.574582,-4.20859 -5.999022,-5.97629 -9.579626,-11.88813 -11.452313,-28.53478 -4.762206,-42.33211 2.851504,-5.8808 7.245646,-11.11977 12.219678,-14.56906 1.215498,-0.84291 1.251347,-0.88718 1.163198,-1.43666 -0.204621,-1.27551 -1.815383,-2.26785 -4.751157,-2.92705 -4.813303,-1.08078 -6.475275,-2.08689 -6.473701,-3.918976 7.94e-4,-0.947993 0.45529,-1.664511 1.411034,-2.224616 0.422634,-0.247681 0.707456,-0.506314 0.632936,-0.574743 -0.07452,-0.06843 -0.957236,-0.478613 -1.961587,-0.911523 -3.818122,-1.645742 -6.485988,-3.147644 -7.36052,-4.143681 -0.769144,-0.876009 -0.950527,-1.621224 -0.610992,-2.510288 0.551968,-1.445307 2.03509,-1.894147 6.258915,-1.894147 1.444104,0 2.625643,-0.03338 2.625643,-0.07417 0,-0.0408 -0.930413,-1.889713 -2.067584,-4.108705 -4.667433,-9.107688 -5.491882,-12.070535 -3.706718,-13.320916 0.485694,-0.340191 1.733146,-0.320254 2.401692,0.03838 1.039951,0.557875 2.775181,2.151843 5.217846,4.793071 8.05054,8.704956 17.604991,16.719328 29.787826,24.986328 2.29733,1.558916 2.35381,1.585876 3.73519,1.783226 1.60727,0.22961 4.36944,0.8773 5.71361,1.33977 l 0.9173,0.31559 2.20007,-0.72208 c 9.849253,-3.232611 21.542547,-3.22557 31.391097,0.0189 l 1.79967,0.59288 1.5205,-0.44214 c 0.83627,-0.24317 2.35646,-0.61621 3.37819,-0.82896 2.0485,-0.42657 2.1784,-0.48915 7.02375,-3.383853 3.84376,-2.296338 9.48416,-6.038089 12.36762,-8.204471 4.15158,-3.119146 7.09577,-5.685982 13.28066,-11.578489 6.28987,-5.992526 8.74369,-7.860523 10.32566,-7.860523 1.31225,0 2.08385,1.206157 1.71556,2.681711 -0.39478,1.581622 -2.65982,5.406724 -6.40889,10.82305 -1.0362,1.49702 -1.85692,2.748938 -1.82382,2.782037 0.0331,0.0331 0.49208,-0.01966 1.01997,-0.117242 2.60565,-0.481682 4.1554,0.123849 4.45901,1.742257 0.29151,1.553864 -1.95709,4.203785 -6.79889,8.012349 -0.2553,0.200822 -0.42914,0.40018 -0.3863,0.443021 0.0429,0.04284 1.00672,0.15757 2.14195,0.254953 4.35228,0.373345 5.96525,1.12609 5.96525,2.78386 0,0.26495 -0.17029,0.73442 -0.37842,1.04327 -0.63153,0.93712 -1.98456,1.56864 -5.51487,2.57404 -1.42091,0.40466 -3.00232,1.05498 -5.51537,2.2681 -1.9378,0.93542 -3.52525,1.74652 -3.52767,1.80244 -0.002,0.0559 0.51819,0.49029 1.15692,0.96526 0.63873,0.47496 1.98904,1.65672 3.00069,2.62612 5.68327,5.44593 9.59506,12.56511 11.17852,20.3441 0.58124,2.85542 0.77153,4.89161 0.77077,8.24755 -0.002,6.31019 -1.2465,11.73971 -3.97906,17.35176 -2.45782,5.04778 -5.55221,9.07273 -9.63877,12.53734 l -1.85581,1.57337 1.79258,0.12143 c 12.45836,0.84394 23.19361,7.43988 30.36541,18.65707 4.55054,7.11736 8.01163,17.37922 9.3033,27.5836 0.32465,2.56474 0.36632,8.2169 0.078,10.57873 -0.77964,6.38632 -2.77246,12.32166 -5.91718,17.62368 -0.42449,0.7157 -0.78496,1.37596 -0.80104,1.46727 -0.0161,0.0913 -0.78429,1.18306 -1.70712,2.42612 -6.58322,8.86775 -15.35338,16.03008 -27.04266,22.0849 l -2.83653,1.46927 -3.63779,-0.004 -3.63779,-0.004 1.9091,-0.8364 c 6.82004,-2.98796 13.91605,-7.04687 19.09095,-10.91999 l 1.90909,-1.42885 -1.16977,-0.10689 c -1.40927,-0.12877 -2.6267,-0.69742 -3.56657,-1.66589 -0.86721,-0.89359 -1.89269,-2.97296 -2.24324,-4.54863 l -0.28161,-1.26581 -0.89871,1.53693 c -1.93056,3.30158 -3.67758,5.28398 -5.55038,6.29821 -0.94513,0.51182 -1.20402,0.57649 -2.30952,0.57696 -1.05883,0 -1.37263,-0.0702 -2.09799,-0.47224 -1.73326,-0.96069 -3.31268,-3.17186 -4.37633,-6.12682 -0.31956,-0.88781 -0.61838,-1.61418 -0.66403,-1.61418 -0.0456,0 -0.29539,0.56658 -0.55498,1.25907 -0.63337,1.68965 -1.97171,3.62451 -2.99241,4.32619 -2.58127,1.77448 -5.33454,1.18605 -8.69981,-1.85936 -1.19959,-1.08556 -1.23431,-1.25638 0.53866,2.65046 0.70156,1.54592 1.46098,3.30146 1.68761,3.90119 0.98864,2.61623 1.72051,6.39858 1.72051,8.89171 v 1.41216 h -4.63628 -4.63629 l -0.11696,-0.95455 c -0.0643,-0.525 -0.16308,-1.27549 -0.21945,-1.66777 l -0.1025,-0.71323 -2.62028,1.66778 c -1.44115,0.91728 -2.75251,1.66777 -2.91414,1.66777 -0.18947,0 -1.11628,-1.11886 -2.60898,-3.14961 -1.27332,-1.7323 -2.37926,-3.15167 -2.45765,-3.15416 -0.0784,-0.002 -1.9289,1.41483 -4.11223,3.14961 -2.18332,1.73479 -4.06957,3.15416 -4.19166,3.15416 -0.12209,0 -1.16028,-0.82174 -2.30708,-1.82609 -1.1468,-1.00435 -2.15256,-1.82609 -2.23503,-1.82609 -0.0825,0 -0.77084,0.82174 -1.52972,1.82609 l -1.37978,1.82609 h -1.84276 -1.84276 l -1.78435,-1.77883 c -1.576034,-1.57113 -1.808944,-1.747 -1.994814,-1.50617 -2.679783,3.47186 -2.484563,3.27292 -3.217983,3.27917 l -0.6834,0.006 -1.12195,-2.94664 c -0.61708,-1.62066 -1.22097,-3.18972 -1.34199,-3.48681 l -0.22003,-0.54014 -3.11264,2.05572 -3.11263,2.05571 -1.95909,-1.47937 c -1.07749,-0.81365 -2.05235,-1.51343 -2.16633,-1.55504 -0.11399,-0.0416 -1.57709,1.11867 -3.25134,2.57843 -1.674244,1.45993 -3.074792,2.65428 -3.112328,2.65428 -0.03753,0 -0.917313,-0.52293 -1.955065,-1.16206 -1.037751,-0.63913 -1.937028,-1.16206 -1.998387,-1.16206 -0.06136,0 -0.06082,0.67233 0.0011,1.49408 l 0.112787,1.49407 H 68.401408 65.72146 v -1.41217 c 0,-1.71846 0.344196,-4.10178 0.902951,-6.25228 0.524576,-2.01898 0.579022,-2.15826 2.848496,-7.28745 2.538757,-5.73779 2.435768,-5.345 1.084194,-4.1349 -2.498587,2.23703 -4.332205,3.08252 -6.392119,2.94741 -2.464549,-0.16166 -4.172611,-1.60175 -5.758468,-4.85504 -0.556139,-1.14089 -1.005261,-1.88289 -1.055074,-1.74309 -0.04771,0.13387 -0.283959,0.80368 -0.525007,1.48846 -1.136968,3.22996 -2.891486,5.71175 -4.644195,6.56927 -1.217734,0.59578 -2.85605,0.53985 -4.255447,-0.1453 -1.70552,-0.83502 -4.371694,-3.95743 -5.945997,-6.96349 -0.227134,-0.4337 -0.450628,-0.78854 -0.496655,-0.78854 -0.04603,0 -0.212809,0.56814 -0.370625,1.26254 -0.363276,1.59841 -1.236184,3.42198 -2.117096,4.42274 -0.426132,0.48411 -1.096896,0.9802 -1.780085,1.31653 -0.986819,0.48582 -1.238723,0.53878 -2.522886,0.53045 -0.98995,-0.006 -1.731474,-0.1143 -2.422652,-0.35241 l -0.996051,-0.34315 0.830043,0.74119 c 5.261158,4.69807 14.409381,10.29838 22.992144,14.07518 l 2.075103,0.91314 -3.652181,0.003 -3.652184,0.003 -2.822139,-1.46604 z m 58.77015,-3.6746 c 1.06871,-1.41521 2.03682,-2.67254 2.15136,-2.79406 0.17077,-0.18118 0.65244,0.16991 2.67604,1.95059 1.35729,1.19435 2.5139,2.17154 2.57026,2.17154 0.0564,0 2.03531,-1.5321 4.39768,-3.40466 2.36237,-1.87257 4.35065,-3.38533 4.4184,-3.36167 0.0678,0.0236 1.24953,1.56225 2.62618,3.41914 2.42672,3.27323 2.51418,3.36894 2.86948,3.14008 3.74728,-2.41384 6.7907,-4.29754 6.84907,-4.23915 0.0408,0.0408 0.22908,1.22316 0.41851,2.62759 0.18942,1.40443 0.38073,2.61227 0.42513,2.68411 0.0444,0.0718 0.82335,0.13061 1.731,0.13061 h 1.65029 v -0.51344 c 0,-0.95723 -0.66734,-3.79441 -1.31419,-5.58723 -0.35415,-0.98159 -1.36707,-3.39085 -2.25092,-5.3539 -5.72551,-12.7165 -9.69981,-25.02794 -11.44142,-35.44276 -1.26155,-7.54407 -1.43404,-14.83461 -0.49488,-20.91704 0.76632,-4.96309 2.45229,-9.91557 4.68546,-13.76345 0.47204,-0.81336 0.83227,-1.50483 0.8005,-1.5366 -0.0318,-0.0318 -0.83546,0.3068 -1.78599,0.75236 -15.41699,7.22677 -31.629307,7.05338 -46.679657,-0.49924 -0.90658,-0.45494 -1.6219,-0.76657 -1.58961,-0.69251 0.0323,0.0741 0.5037,0.8817 1.04756,1.79474 6.06325,10.17911 7.03988,24.71182 2.8258,42.0494 -2.14424,8.82186 -5.50097,18.34051 -9.97851,28.29597 -1.399794,3.11234 -2.717568,6.37884 -2.717568,6.7363 0,0.0946 2.54883,1.73922 4.726004,3.04947 0.112712,0.0678 1.512557,-1.0327 3.406204,-2.67788 l 3.21485,-2.79302 2.18474,1.64031 c 1.2016,0.90219 2.2371,1.64033 2.3011,1.64033 0.064,0 1.76187,-1.0832 3.77303,-2.40712 2.01116,-1.32391 3.70787,-2.40645 3.77045,-2.40564 0.0626,0 0.58579,1.2521 1.16269,2.78064 0.57689,1.52853 1.13932,2.995 1.24984,3.25881 l 0.20093,0.47966 1.28944,-1.60314 1.289433,-1.60316 2.210544,2.28555 c 1.21579,1.25705 2.41688,2.53148 2.66909,2.83204 0.25221,0.30057 0.51707,0.52468 0.58858,0.49802 0.0715,-0.0266 1.0044,-1.20636 2.0731,-2.62159 z m 52.3124,-10.46967 c 1.86976,-0.90513 4.71781,-5.19332 6.8832,-10.36373 0.70504,-1.68346 0.52412,-1.59949 2.55624,-1.18636 l 0.99605,0.2025 0.11243,2.48371 c 0.22538,4.97895 1.332,7.78577 3.20924,8.13993 2.10912,0.39791 5.47695,-1.58015 9.76687,-5.73646 3.83069,-3.71142 5.22224,-5.62091 7.41052,-10.16879 1.76247,-3.66289 2.7796,-6.87193 3.49943,-11.04063 0.37898,-2.19474 0.61356,-6.76244 0.32613,-6.35071 -0.0956,0.13696 -0.64424,1.04159 -1.21919,2.0103 -4.191,7.06109 -8.91051,9.71596 -13.37487,7.52379 -0.96569,-0.47419 -1.60019,-0.95764 -2.68759,-2.04776 -1.59558,-1.59959 -2.10886,-2.30021 -3.57625,-4.8815 l -1.02006,-1.7944 -0.58958,1.04736 c -1.66949,2.96576 -4.35564,6.31953 -6.34024,7.91605 -6.3064,5.07324 -12.21875,2.25386 -16.65432,-7.94183 l -0.53908,-1.23914 -0.72544,1.2728 c -3.10179,5.4422 -6.36197,8.12564 -9.88661,8.13765 -2.82588,0.01 -5.69859,-1.89459 -8.05007,-5.3361 -0.4431,-0.64851 -0.82778,-1.15697 -0.85483,-1.12992 -0.0708,0.0709 1.34077,5.79989 1.94399,7.88962 0.71015,2.46019 2.66535,8.39336 2.79911,8.49407 0.0606,0.0456 0.69717,1.05416 1.41453,2.24111 2.97259,4.91851 6.36773,8.95173 8.39155,9.96867 1.11184,0.55867 2.13904,0.60729 2.787,0.13192 1.45025,-1.06396 2.82043,-4.54097 3.35885,-8.52351 0.32229,-2.38384 0.15878,-2.1581 1.56312,-2.1581 0.67558,0 1.33029,-0.0391 1.45491,-0.087 0.1716,-0.0658 0.35975,0.50833 0.77522,2.36562 1.1868,5.30539 2.86824,9.18439 4.40925,10.17194 0.64852,0.4156 0.98311,0.41359 1.86049,-0.0111 z M 51.213124,255.88758 c 1.3389,-0.81645 2.835243,-4.16638 4.009861,-8.97705 0.412967,-1.69131 0.775335,-3.16848 0.805262,-3.28261 0.05857,-0.22338 1.609725,-0.28866 2.522305,-0.10613 0.484447,0.0969 0.515294,0.1538 0.697166,1.28656 0.477166,2.9719 1.467893,5.98191 2.477458,7.52697 1.385308,2.12012 2.512671,2.50768 4.46156,1.53381 1.991924,-0.99537 4.460973,-3.67688 7.25161,-7.8756 2.599235,-3.91073 2.89541,-4.56899 4.481577,-9.96049 1.14215,-3.88228 2.74344,-10.59767 2.74188,-11.49872 -2.7e-4,-0.15832 -0.28042,0.17437 -0.62253,0.73932 -0.96367,1.59136 -2.67811,3.6752 -3.77619,4.58983 -0.547828,0.4563 -1.556327,1.09733 -2.241113,1.4245 -1.173629,0.56073 -1.341023,0.59486 -2.917659,0.59486 -1.633204,0 -1.705538,-0.0165 -3.071153,-0.699 -0.776687,-0.38819 -1.858786,-1.11279 -2.433596,-1.6296 -1.264015,-1.13648 -3.163726,-3.6385 -4.268689,-5.6221 -0.760622,-1.36546 -0.833226,-1.44536 -0.979662,-1.07824 -0.08699,0.21808 -0.626359,1.36766 -1.198603,2.55462 -1.749843,3.62955 -3.369272,5.78411 -5.441106,7.23911 -1.632333,1.14634 -3.008624,1.54633 -4.941448,1.43613 -1.281996,-0.0731 -1.653749,-0.17011 -2.844636,-0.74232 -2.975488,-1.42969 -6.114402,-4.71444 -8.651507,-9.05347 -0.467138,-0.79892 -0.887476,-1.45226 -0.934083,-1.45187 -0.0466,2.7e-4 -0.362595,0.542 -0.702204,1.20356 -1.708899,3.32899 -4.400671,6.41665 -6.443001,7.39058 -1.572064,0.74967 -2.944953,0.94922 -4.417787,0.64212 -3.360399,-0.70066 -6.245773,-3.3777 -9.459254,-8.77627 l -0.916535,-1.53975 0.07981,3.23716 c 0.148931,6.04087 1.359784,10.93471 4.086907,16.51782 1.202611,2.46205 1.410293,2.77744 2.842215,4.31622 4.513705,4.85053 7.585504,7.42837 10.497177,8.80919 2.339909,1.10967 3.755464,1.07102 4.846434,-0.13234 1.16064,-1.28019 1.834997,-3.85204 2.019668,-7.70258 l 0.105812,-2.20635 0.846119,-0.1664 c 0.465365,-0.0915 1.110179,-0.21177 1.43292,-0.26727 l 0.586804,-0.10088 0.804198,1.87936 c 2.078699,4.8578 4.528712,8.61015 6.394331,9.7933 0.862515,0.54698 1.548865,0.59356 2.269683,0.15402 z M 160.44013,232.38006 c 3.18096,-1.54065 6.79343,-6.30698 9.78458,-12.90985 0.52823,-1.16606 0.98,-2.09985 1.00393,-2.0751 0.0239,0.0248 0.50451,1.16556 1.06795,2.53513 2.42407,5.89228 4.90842,9.57474 7.23046,10.71744 1.26359,0.62183 2.66696,0.56553 4.01749,-0.16118 2.66421,-1.43359 6.12972,-6.32576 8.51277,-12.01728 l 0.61322,-1.46457 -0.39705,-2.27029 c -0.72919,-4.16957 -1.80324,-8.25369 -3.24777,-12.34974 l -0.68446,-1.94084 -1.17337,2.35609 c -1.54934,3.11109 -2.52075,4.54953 -4.23562,6.272 -2.81785,2.83035 -5.55908,3.46582 -8.56564,1.9857 -2.41913,-1.19094 -5.06355,-4.30444 -7.21759,-8.49793 -0.46258,-0.90054 -0.89439,-1.63735 -0.95958,-1.63735 -0.0652,0 -0.37759,0.76571 -0.69423,1.70159 -0.73014,2.15802 -1.92735,4.54855 -2.97266,5.93566 -2.16924,2.87855 -5.05982,3.73184 -7.91003,2.33503 -2.32364,-1.13876 -5.20407,-4.53055 -7.69341,-9.05923 -0.55207,-1.00435 -1.06653,-1.93171 -1.14324,-2.06079 -0.0962,-0.16189 -0.30973,0.25007 -0.68833,1.32807 -0.68553,1.95189 -2.25393,5.20317 -3.19635,6.62601 -1.00842,1.52248 -2.55393,3.01197 -3.71862,3.58383 -0.85275,0.4187 -1.17327,0.48337 -2.39554,0.48337 -1.2213,0 -1.54307,-0.0648 -2.39255,-0.4819 -1.96916,-0.96687 -4.01006,-3.44946 -6.01701,-7.31919 -0.60913,-1.17453 -1.06753,-1.88923 -1.11797,-1.74309 -0.047,0.13625 -0.21851,1.21887 -0.38109,2.40583 -0.22842,1.66762 -0.29447,3.25226 -0.29063,6.97235 l 0.005,4.81424 0.80242,1.99209 c 3.21106,7.9719 6.72438,12.3715 9.8749,12.366 3.27676,-0.006 6.94749,-4.58096 9.73065,-12.12837 0.51957,-1.40896 0.99539,-2.61679 1.05739,-2.68406 0.062,-0.0673 0.39889,0.75446 0.74866,1.82609 2.33428,7.15188 4.10015,10.80814 6.36864,13.18642 2.09617,2.1976 3.80666,2.5732 6.27472,1.37782 z M 51.07498,230.7251 c 2.268871,-1.05629 4.584271,-4.31621 6.567247,-9.24621 0.305874,-0.76045 1.024009,-2.78802 1.595858,-4.5057 0.571849,-1.71769 1.060352,-3.09971 1.085561,-3.07116 0.02522,0.0285 0.472197,1.20982 0.993307,2.62504 0.521108,1.41522 1.309992,3.32818 1.753079,4.25101 1.704403,3.54985 4.312454,6.77477 6.236351,7.7114 1.124566,0.54748 2.512906,0.54802 3.636534,0.002 1.144746,-0.55687 2.987804,-2.44324 4.228096,-4.32745 1.09642,-1.66564 2.95298,-5.32857 3.82798,-7.55249 0.2872,-0.72995 0.60907,-1.38104 0.71528,-1.44688 0.31439,-0.19491 0.23151,-7.87655 -0.11247,-10.4236 -0.28968,-2.145 -0.74502,-4.62487 -0.89472,-4.87281 -0.047,-0.0779 -0.58586,0.86309 -1.19744,2.09102 -1.45768,2.92677 -2.45134,4.4095 -4.005822,5.9774 -1.622983,1.63701 -2.711151,2.18028 -4.386995,2.19026 -1.536978,0.009 -2.735948,-0.54187 -4.059912,-1.86584 -1.763535,-1.76353 -3.251946,-4.4422 -4.584851,-8.25126 -0.383402,-1.09565 -0.755986,-1.98068 -0.827966,-1.96671 -0.07198,0.014 -0.535935,0.761 -1.031004,1.66008 -2.660891,4.83236 -5.478823,8.13687 -7.932354,9.30205 -1.153396,0.54774 -1.469303,0.62528 -2.562307,0.62891 -1.058633,0.004 -1.409499,-0.0738 -2.325767,-0.51266 -2.359052,-1.12985 -4.36776,-4.02618 -5.969738,-8.60769 -0.286187,-0.81846 -0.547751,-1.51553 -0.581258,-1.54904 -0.03351,-0.0335 -0.456719,0.71085 -0.940472,1.65413 -2.101501,4.09775 -4.926476,7.49989 -7.120306,8.57501 -2.908599,1.42535 -5.404173,0.91537 -7.979738,-1.63078 -1.819217,-1.79843 -3.045219,-3.71909 -4.482063,-7.02164 l -0.803306,-1.84638 -0.399355,0.90634 c -1.571529,3.56661 -3.742721,11.18653 -4.288171,15.04959 l -0.182922,1.29551 0.934446,2.02695 c 1.88275,4.08395 3.849258,7.10115 5.913987,9.07378 1.602404,1.53093 2.700205,2.0975 4.059904,2.09531 3.120988,-0.005 6.028177,-3.53561 9.127408,-11.08456 0.535321,-1.30392 1.025941,-2.40328 1.090261,-2.44303 0.06432,-0.0398 0.472122,0.72827 0.906227,1.70671 1.99004,4.48546 4.430662,8.34529 6.790415,10.73901 2.85678,2.8979 5.002379,3.69127 7.206996,2.66489 z m 85.82923,-22.15273 c 2.55837,-1.32221 5.41192,-7.23295 7.27874,-15.07691 0.35285,-1.48258 0.67889,-2.69455 0.72454,-2.69329 0.0456,0.001 0.70669,1.40105 1.46898,3.11062 3.48259,7.8104 6.87129,12.91054 9.44055,14.2084 1.54421,0.78007 2.67917,0.50647 3.95733,-0.95398 1.9832,-2.26603 3.63255,-6.82581 4.72087,-13.05126 0.27933,-1.59783 0.56196,-3.03311 0.62808,-3.18952 0.0835,-0.19759 0.51965,0.71444 1.42893,2.98814 4.00195,10.00707 7.53847,14.85754 10.83275,14.85754 2.25292,0 4.64332,-2.40602 6.92977,-6.97503 0.93859,-1.87561 2.13025,-4.82228 2.13374,-5.27622 0.003,-0.41695 -1.57064,-3.29081 -2.9727,-5.42815 -3.69896,-5.63889 -8.60091,-10.07163 -14.24809,-12.88428 -4.67202,-2.32697 -9.31043,-3.4678 -14.77927,-3.63501 -3.4459,-0.10535 -3.70238,-0.0565 -6.85513,1.305 -6.88919,2.97512 -12.35336,7.33142 -15.99707,12.75363 -1.2225,1.81921 -2.98209,5.28736 -3.63755,7.16958 l -0.38467,1.10466 0.63968,1.63448 c 1.45373,3.71448 3.38607,7.14893 4.95645,8.80938 1.43184,1.51395 2.49577,1.8622 3.73407,1.22222 z m -64.436662,-1.9301 c 1.15099,-0.66982 2.794881,-2.89318 4.176685,-5.64896 0.77612,-1.54785 2.28176,-5.08876 2.44585,-5.75207 0.0879,-0.35524 -0.11858,-0.92409 -0.96605,-2.66177 -3.636685,-7.45675 -9.708743,-13.01575 -18.242439,-16.70105 -3.152751,-1.36153 -3.409231,-1.41035 -6.855135,-1.305 -5.512956,0.16856 -10.091928,1.30916 -14.945275,3.72279 -5.952308,2.96015 -11.235323,7.99618 -15.065251,14.36093 -0.616305,1.0242 -1.120555,2.03616 -1.120555,2.24878 0,1.0268 2.401353,6.50013 3.726164,8.49293 0.922353,1.38741 2.235612,2.73686 3.085354,3.17036 0.39275,0.20037 0.975487,0.32938 1.487799,0.32938 3.162745,0 6.523273,-4.66927 10.5584,-14.67031 0.805698,-1.99692 1.484577,-3.5657 1.508614,-3.48617 0.02405,0.0795 0.310134,1.63866 0.635765,3.46475 1.202552,6.74372 2.895687,11.21396 5.071459,13.38973 1.376135,1.37614 2.571959,1.41258 4.359084,0.13285 2.523467,-1.80702 5.535467,-6.62503 8.998548,-14.39412 0.620663,-1.3924 1.172433,-2.53159 1.226156,-2.53155 0.05373,5e-5 0.421016,1.47545 0.816198,3.27867 1.709128,7.79875 4.463806,13.71423 6.910498,14.8398 0.7658,0.3523 1.196316,0.29721 2.188131,-0.27997 z m 37.080182,-16.43768 c 7.70351,-0.9876 15.5385,-3.82194 22.90914,-8.28747 1.351,-0.8185 4.74612,-3.38627 4.61076,-3.48716 -0.025,-0.0187 -0.60581,0.0247 -1.29059,0.0964 -3.29215,0.34458 -7.76976,0.0298 -11.20556,-0.78785 -6.247,-1.4866 -11.7508,-4.39668 -16.60211,-8.77822 l -1.53109,-1.38283 -0.85426,0.57529 c -0.46984,0.31641 -1.2359,1.08528 -1.70236,1.7086 l -0.8481,1.1333 -1.53891,-1.55399 c -0.84639,-0.8547 -1.643864,-1.55399 -1.772154,-1.55399 -0.12829,0 -0.8275,0.53415 -1.55382,1.187 -5.658233,5.08591 -12.203293,8.16168 -19.747483,9.28008 -0.73044,0.10829 -2.557467,0.24404 -4.060065,0.30167 l -2.731995,0.10479 1.486935,1.10269 c 5.240975,3.88663 11.395625,7.03759 16.961555,8.6837 3.41592,1.01026 7.414153,1.73025 11.003687,1.98151 1.62879,0.11401 6.50797,-0.0724 8.46642,-0.3235 z M 78.587203,175.27332 c 6.34851,-0.96497 12.58433,-3.9364 17.49106,-8.33464 l 0.89023,-0.79798 -0.84737,-0.54908 c -1.77608,-1.15086 -3.49889,-3.03655 -5.98599,-6.55193 -0.75424,-1.06607 -1.10744,-1.43666 -1.31005,-1.3745 -2.36266,0.72478 -6.26544,0.95292 -8.90271,0.52041 -5.086574,-0.8342 -9.850188,-3.64495 -12.947694,-7.63974 -1.941719,-2.50419 -3.043688,-4.75344 -3.859816,-7.87834 -0.562494,-2.15375 -0.700638,-5.83365 -0.308748,-8.22443 0.678799,-4.14107 2.801189,-8.2985 5.736709,-11.2373 l 0.936633,-0.93769 -0.893434,-0.17942 c -1.925119,-0.38662 -3.718724,-1.6968 -4.459393,-3.25747 -0.605076,-1.27496 -0.562931,-3.01843 0.105288,-4.35565 0.276352,-0.55303 0.841888,-1.31839 1.256747,-1.70079 0.849873,-0.78338 2.465099,-1.59674 3.489754,-1.75729 0.769879,-0.12063 0.737602,-0.18422 0.983726,1.93813 l 0.107936,0.93075 -0.640095,0.10236 c -0.742813,0.11878 -1.826163,0.78083 -2.282651,1.39495 -0.174519,0.23478 -0.346763,0.77036 -0.382759,1.19017 -0.08632,1.00672 0.337156,1.6752 1.389382,2.1932 l 0.80476,0.39618 13.156155,0.0444 13.15615,0.0444 v 0.87601 c 0,0.85554 0.0193,0.89072 0.82585,1.5058 1.19469,0.91109 3.319933,3.20946 4.192777,4.53435 1.35836,2.06187 2.3448,4.24155 2.95281,6.52466 l 0.19895,0.74703 0.40518,-1.41107 c 0.94795,-3.30123 3.03495,-6.71289 5.64111,-9.22158 l 1.3881,-1.33619 v -1.11243 -1.11243 h 13.91456 c 15.76125,0 15.13308,0.0475 16.42216,-1.2416 0.61704,-0.61703 0.70675,-0.79921 0.7062,-1.43419 -0.001,-1.25075 -0.91067,-2.25799 -2.51454,-2.78444 l -0.60607,-0.19894 0.24267,-1.03011 c 0.13347,-0.56656 0.28318,-1.22739 0.33268,-1.46852 0.0855,-0.4166 0.12013,-0.43025 0.69542,-0.27438 1.87385,0.50768 4.04946,2.35711 4.57001,3.88483 0.8899,2.61171 -0.29099,5.29252 -2.92427,6.63858 -0.94457,0.48284 -2.46283,0.89692 -3.28866,0.89692 -0.33082,0 -0.64925,0.0478 -0.70763,0.10614 -0.0584,0.0584 0.44319,0.6901 1.11461,1.40382 3.95615,4.20542 6.01872,10.22599 5.44458,15.89257 -0.80173,7.91275 -5.61017,14.34495 -12.983,17.36721 -3.9015,1.5993 -9.0814,1.85519 -13.24137,0.65414 -0.75464,-0.21788 -1.39859,-0.39614 -1.431,-0.39614 -0.0324,0 -0.49524,0.69101 -1.02852,1.53558 -2.30622,3.65241 -3.98018,5.70665 -5.39983,6.62656 -0.45073,0.29206 -0.79366,0.61073 -0.76208,0.70817 0.11738,0.36214 2.91527,2.65026 4.68124,3.82832 4.15411,2.77117 8.70975,4.54476 13.71835,5.3408 2.15744,0.34288 6.93464,0.38171 9.10779,0.074 12.93907,-1.83203 23.65721,-10.87884 27.95009,-23.59172 3.62638,-10.73907 2.12386,-22.77782 -3.99875,-32.0396 -1.60302,-2.42492 -2.85907,-3.93503 -5.05018,-6.07164 -5.31535,-5.18318 -11.77868,-8.32922 -19.0409,-9.26822 -11.98461,-1.5496 -23.92867,3.62488 -31.28358,13.55287 l -1.19731,1.61617 -1.27302,0.002 -1.27302,0.002 -0.37624,-0.60875 c -0.62231,-1.00694 -2.286574,-3.04484 -3.622524,-4.43582 -11.817673,-12.30445 -30.637049,-13.87473 -44.129669,-3.68216 -7.515725,5.67751 -12.521645,14.20928 -13.88662,23.66747 -0.963268,6.6747 -0.114434,13.44602 2.460266,19.626 3.487814,8.3717 9.969584,15.10022 17.834012,18.51291 4.130997,1.79261 7.022605,2.55237 11.148176,2.92915 1.374204,0.1255 5.708752,-0.0586 7.387372,-0.31373 z m 24.960347,-9.35858 c 0.3327,-0.26281 1.53871,-0.99118 2.68002,-1.61858 2.67557,-1.47084 3.8804,-2.63917 5.94823,-5.76803 0.83718,-1.26674 1.51729,-2.3873 1.51136,-2.49012 -0.006,-0.10283 -0.64708,-0.59783 -1.42478,-1.10001 -1.77487,-1.14606 -3.54922,-2.7725 -4.78552,-4.3866 -0.82818,-1.08127 -1.07988,-1.29466 -1.88032,-1.59414 -1.20982,-0.45265 -2.70841,-0.58204 -3.893,-0.33612 -0.91725,0.19042 -0.98775,0.24384 -1.871404,1.41794 -1.78156,2.36713 -4.669183,4.85619 -7.009733,6.04223 -0.38804,0.19663 -0.70553,0.4138 -0.70553,0.48259 0,0.23577 2.9247,4.02745 3.82821,4.96303 0.8173,0.8463 1.702003,1.47729 5.168707,3.68652 0.61134,0.38959 1.19944,0.81427 1.30689,0.94373 0.27704,0.33381 0.4424,0.29823 1.12687,-0.24244 z M 87.551643,154.86978 c 3.81109,-0.98376 7.29558,-3.26298 9.59346,-6.27513 3.462067,-4.53821 4.569427,-10.30086 3.012127,-15.67481 -1.142434,-3.94226 -3.684367,-7.47635 -6.947037,-9.65856 l -1.28715,-0.86089 h -8.74479 -8.744806 l -1.160285,0.77141 c -1.448512,0.96304 -3.765235,3.28295 -4.700392,4.70686 -2.179106,3.31798 -3.133148,6.73471 -2.966657,10.62453 0.204989,4.78916 2.014657,8.7609 5.503014,12.07767 2.310704,2.19703 4.831707,3.57808 7.910656,4.33358 1.90296,0.46694 2.24015,0.49821 4.71367,0.43714 1.64947,-0.0407 2.54937,-0.15428 3.81819,-0.4818 z m 40.506007,0 c 3.81109,-0.98376 7.29558,-3.26298 9.59346,-6.27513 3.46206,-4.53821 4.56943,-10.30086 3.01212,-15.67481 -1.14242,-3.94226 -3.68435,-7.47635 -6.94702,-9.65856 l -1.28715,-0.86089 h -8.7448 -8.7448 l -1.16029,0.77141 c -1.44851,0.96304 -3.76523,3.28295 -4.70039,4.70686 -2.1791,3.31798 -3.13315,6.73471 -2.96666,10.62453 0.20499,4.78916 2.01466,8.7609 5.50302,12.07767 2.3107,2.19703 4.8317,3.57808 7.91065,4.33358 1.90296,0.46694 2.24016,0.49821 4.71367,0.43714 1.64947,-0.0407 2.54937,-0.15428 3.81819,-0.4818 z m -23.72417,-9.76777 c -0.0572,-0.20543 -0.28129,-0.97114 -0.49798,-1.70158 l -0.39397,-1.32806 -0.19231,0.74703 c -0.19347,0.75161 -0.53746,1.82651 -0.75704,2.36562 -0.10517,0.25821 -0.004,0.29051 0.91349,0.29051 0.99016,0 1.0276,-0.0151 0.92781,-0.37352 z m -0.22829,-30.22228 c 2.82015,-3.55138 7.18553,-7.1959 11.24705,-9.38981 0.75728,-0.40906 1.14468,-0.7025 0.99605,-0.75447 -1.73056,-0.60518 -6.0934,-1.33986 -9.53969,-1.60645 -5.05344,-0.39091 -12.021467,0.27398 -16.351817,1.56028 l -0.74703,0.2219 0.99605,0.5094 c 1.34439,0.68755 4.18618,2.57936 5.81029,3.86797 1.619063,1.28461 4.709887,4.40379 5.727277,5.7798 0.41087,0.5557 0.78439,1.00942 0.83004,1.00826 0.0456,-0.001 0.50995,-0.53975 1.03178,-1.19688 z m 51.15925,-11.26085 c 3.00704,-1.45694 4.99665,-2.31564 5.99487,-2.58733 0.82174,-0.22366 1.56504,-0.47497 1.65178,-0.55846 0.1886,-0.18154 0.44674,-0.16928 -6.2932,-0.29883 l -5.30546,-0.10199 3.47766,-2.573119 c 5.09952,-3.77316 9.2809,-7.274585 9.01518,-7.549188 -0.18586,-0.192071 -3.21459,0.713179 -6.49526,1.941354 -1.71559,0.64226 -3.16031,1.126696 -3.21048,1.076526 -0.0502,-0.05017 0.57522,-0.974773 1.38976,-2.054669 4.30092,-5.702081 10.16924,-14.189119 10.16924,-14.70725 0,-0.242961 -1.30548,0.917434 -5.40156,4.801276 -6.67988,6.333752 -8.66391,8.0553 -13.23108,11.480639 -3.20561,2.404178 -6.83786,4.869651 -10.65543,7.232605 -2.13626,1.322276 -2.26657,1.430886 -1.71682,1.430886 1.28018,0 4.79743,0.55422 6.85068,1.07948 2.55502,0.65361 5.10164,1.61248 7.24492,2.72788 0.85443,0.44466 1.65722,0.81577 1.78396,0.82467 0.12675,0.009 2.2558,-0.96511 4.73124,-2.16448 z m -96.82708,0.86024 c 3.298386,-1.57445 7.028112,-2.62925 11.093064,-3.13722 l 2.231784,-0.2789 -2.231784,-1.570852 C 59.108164,92.156369 50.883633,85.066612 42.664569,76.333097 41.051754,74.619331 40.65427,74.272216 40.734052,74.647204 c 0.256498,1.205578 3.822695,8.290318 6.948459,13.804064 0.776279,1.369333 1.39877,2.501098 1.383318,2.515037 -0.01545,0.01394 -0.924547,-0.07978 -2.020199,-0.208259 -1.095656,-0.128482 -3.486174,-0.282115 -5.312265,-0.341408 -3.924488,-0.127429 -3.938106,-0.109596 -1.014526,1.328449 2.345999,1.153946 5.941457,2.641841 10.508512,4.348695 1.934728,0.723069 3.501929,1.330428 3.482668,1.34969 -0.01926,0.01926 -1.340755,0.30375 -2.936658,0.632195 -2.909335,0.598763 -4.848307,1.112737 -5.303137,1.405741 -0.195942,0.12622 -0.154596,0.190546 0.212112,0.329966 0.547378,0.208106 2.650373,0.740256 3.981307,1.007436 1.588034,0.31879 3.531944,1.39771 4.806905,2.66794 0.67442,0.67192 1.120555,1.25543 1.120555,1.46559 0,0.19206 0.02775,0.34919 0.06167,0.34919 0.03392,0 0.836982,-0.37008 1.78459,-0.82241 z"
       id="path955"
       inkscape:connector-curvature="0" />
    <path
       style="display:inline;opacity:1;fill:#cccccc;fill-opacity:1;stroke:none;stroke-width:1.40862679;stroke-linecap:round;stroke-linejoin:bevel;stroke-miterlimit:4;stroke-dasharray:none;stroke-dashoffset:0;stroke-opacity:1"
       d="m 75.353371,148.72192 c -1.278474,-0.30013 -2.522066,-1.32698 -3.111619,-2.5693 -0.269809,-0.56855 -0.306385,-0.79275 -0.306385,-1.87817 0,-1.12623 0.02977,-1.29318 0.34507,-1.93536 0.884142,-1.80077 2.897812,-2.87193 4.776746,-2.54096 1.52808,0.26916 2.76455,1.20488 3.43327,2.59815 0.33079,0.68919 0.36622,0.87089 0.36622,1.87817 0,1.00438 -0.0361,1.19096 -0.36359,1.87817 -0.93805,1.96851 -3.09849,3.0485 -5.139712,2.5693 z m 1.630782,-3.09047 c 0.46328,-0.19357 0.87811,-0.79438 0.87875,-1.27273 10e-4,-1.05682 -0.90443,-1.76286 -1.906686,-1.48613 -1.303584,0.35994 -1.409171,2.21586 -0.157081,2.76102 0.469286,0.20433 0.691785,0.20392 1.185017,-0.002 z"
       id="path957"
       inkscape:connector-curvature="0" />
    <path
       style="display:inline;opacity:1;fill:#cccccc;fill-opacity:1;stroke:none;stroke-width:1.40862679;stroke-linecap:round;stroke-linejoin:bevel;stroke-miterlimit:4;stroke-dasharray:none;stroke-dashoffset:0;stroke-opacity:1"
       d="m 129.04629,132.82453 c -1.31467,-0.36816 -2.42603,-1.28613 -3.01885,-2.49352 -0.29753,-0.60598 -0.32949,-0.7906 -0.32949,-1.90361 0,-1.39142 0.18902,-1.96825 0.94876,-2.89541 2.1282,-2.59719 6.25112,-2.05704 7.65695,1.00315 0.42316,0.92114 0.49528,2.38142 0.16399,3.32059 -0.79609,2.2568 -3.22136,3.58491 -5.42136,2.9688 z m 1.91095,-3.12727 c 0.35216,-0.18462 0.66778,-0.82403 0.66824,-1.35381 8e-4,-0.91348 -0.92949,-1.61712 -1.83692,-1.38937 -0.17209,0.0432 -0.48938,0.25502 -0.70508,0.47072 -0.32721,0.32721 -0.3922,0.47879 -0.3922,0.91481 0,1.21546 1.18402,1.92487 2.26596,1.35765 z"
       id="path959"
       inkscape:connector-curvature="0" />
    <path
       style="display:inline;opacity:1;fill:#cccccc;fill-opacity:1;stroke:none;stroke-width:1.40862679;stroke-linecap:round;stroke-linejoin:bevel;stroke-miterlimit:4;stroke-dasharray:none;stroke-dashoffset:0;stroke-opacity:1"
       d="m 105.34638,160.38397 c -0.17304,-0.32332 0.0996,-0.82393 1.25084,-2.29674 1.23658,-1.58197 1.58207,-2.2435 1.64804,-3.15551 0.0268,-0.3706 0.11667,-0.7302 0.19969,-0.7991 0.42392,-0.35182 1.32143,0.42137 1.58599,1.36631 0.43981,1.57083 -0.81841,3.72202 -2.73896,4.68283 -0.93985,0.47019 -1.75674,0.55509 -1.9456,0.20221 z"
       id="path961"
       inkscape:connector-curvature="0" />
    <path
       style="display:inline;opacity:1;fill:#cccccc;fill-opacity:1;stroke:none;stroke-width:1.40862679;stroke-linecap:round;stroke-linejoin:bevel;stroke-miterlimit:4;stroke-dasharray:none;stroke-dashoffset:0;stroke-opacity:1"
       d="m 98.533286,160.34279 c -0.92526,-0.46237 -1.994083,-1.51905 -2.422753,-2.39522 -0.6443,-1.3169 -0.48874,-2.8184 0.37012,-3.57249 0.4036,-0.35436 0.903823,-0.4683 1.046003,-0.23825 0.0406,0.0657 0.11573,0.53551 0.167,1.04412 0.10231,1.01485 0.31091,1.43843 1.57635,3.20088 0.829374,1.15512 1.036684,1.56336 0.991684,1.95289 -0.0567,0.49077 -0.755924,0.49404 -1.728404,0.008 z"
       id="path963"
       inkscape:connector-curvature="0" />
    <path
       style="display:inline;opacity:1;fill:#cccccc;fill-opacity:1;stroke:none;stroke-width:1.99209905;stroke-linecap:round;stroke-linejoin:bevel;stroke-miterlimit:4;stroke-dasharray:none;stroke-dashoffset:0;stroke-opacity:1"
       d="m 92.707273,208.3649 -0.76073,-0.0647 -0.29663,-0.94659 c -0.54747,-1.74705 -1.66414,-3.57257 -3.00639,-4.91481 l -0.7742,-0.7742 0.43605,-0.61694 c 0.23983,-0.33931 0.66038,-0.8784 0.93457,-1.19796 l 0.49852,-0.58103 1.23525,1.29172 c 0.67939,0.71045 1.50836,1.73419 1.84216,2.27498 l 0.6069,0.98326 0.81543,-1.24911 c 0.83175,-1.27411 2.14504,-2.79071 2.65117,-3.06158 0.22625,-0.12108 0.46021,0.0712 1.198633,0.98514 l 0.91752,1.13559 -0.8291,0.8121 c -1.110033,1.08728 -2.240393,2.93255 -2.815163,4.59563 l -0.47096,1.36272 -0.71115,0.0153 c -0.39113,0.008 -1.05348,-0.0139 -1.47188,-0.0495 z"
       id="path965"
       inkscape:connector-curvature="0" />
    <path
       style="display:inline;opacity:1;fill:#cccccc;fill-opacity:1;stroke:none;stroke-width:1.99209905;stroke-linecap:round;stroke-linejoin:bevel;stroke-miterlimit:4;stroke-dasharray:none;stroke-dashoffset:0;stroke-opacity:1"
       d="m 113.39639,206.94653 c -0.0358,-0.11413 -0.15583,-0.50632 -0.26661,-0.87154 -0.49972,-1.64737 -1.64575,-3.52172 -2.94793,-4.8214 l -0.8388,-0.83719 0.92947,-1.2063 0.92946,-1.2063 1.0105,1.00166 c 0.55578,0.55092 1.38402,1.56166 1.84054,2.24608 0.45653,0.68442 0.86909,1.24663 0.9168,1.24934 0.0477,0.003 0.23447,-0.27302 0.41502,-0.61274 0.67566,-1.27132 2.79277,-3.69854 3.22601,-3.69854 0.0626,0 0.50919,0.49336 0.9924,1.09636 l 0.87857,1.09636 -0.82565,0.85423 c -1.37785,1.42554 -2.43015,3.20195 -2.94415,4.97003 l -0.27544,0.94746 h -1.4875 c -1.04457,0 -1.50692,-0.0618 -1.55269,-0.20751 z"
       id="path967"
       inkscape:connector-curvature="0" />
    <path
       style="display:inline;opacity:1;fill:#cccccc;fill-opacity:1;stroke:none;stroke-width:1.99209905;stroke-linecap:round;stroke-linejoin:bevel;stroke-miterlimit:4;stroke-dasharray:none;stroke-dashoffset:0;stroke-opacity:1"
       d="m 103.52434,218.34182 c -0.40351,-1.60248 -2.14048,-4.43158 -3.3411,-5.44184 -0.269464,-0.22673 -0.489924,-0.45715 -0.489924,-0.51204 0,-0.15716 1.706374,-2.24575 1.834774,-2.24575 0.24973,0 2.45773,2.48578 2.99273,3.36924 0.31227,0.51566 0.61338,0.93968 0.66915,0.94227 0.0558,0.003 0.42046,-0.48867 0.81044,-1.09169 0.71339,-1.1031 2.57627,-3.21982 2.8337,-3.21982 0.0761,0 0.54921,0.50425 1.05145,1.12056 l 0.91317,1.12055 -0.89316,0.91305 c -1.16924,1.19526 -2.27737,3.0253 -2.76516,4.56655 l -0.39175,1.23778 -1.51587,0.003 -1.51587,0.003 z"
       id="path969"
       inkscape:connector-curvature="0" />
    <path
       style="display:inline;opacity:1;fill:#cccccc;fill-opacity:1;stroke:none;stroke-width:1.99209905;stroke-linecap:round;stroke-linejoin:bevel;stroke-miterlimit:4;stroke-dasharray:none;stroke-dashoffset:0;stroke-opacity:1"
       d="m 90.409693,231.12445 c -0.40351,-1.60247 -2.14049,-4.43157 -3.34111,-5.44183 -0.26946,-0.22674 -0.48992,-0.45715 -0.48992,-0.51204 0,-0.15716 1.70637,-2.24576 1.83477,-2.24576 0.24974,0 2.45774,2.48579 2.99274,3.36924 0.31226,0.51566 0.61338,0.93968 0.66915,0.94227 0.0558,0.003 0.42046,-0.48867 0.81044,-1.09169 0.71339,-1.1031 2.57627,-3.21982 2.8337,-3.21982 0.0761,0 0.54921,0.50426 1.05145,1.12056 l 0.913173,1.12056 -0.893163,0.91304 c -1.16924,1.19527 -2.27737,3.02531 -2.76517,4.56656 l -0.39174,1.23777 -1.51587,0.003 -1.51587,0.003 z"
       id="path971"
       inkscape:connector-curvature="0" />
    <path
       style="display:inline;opacity:1;fill:#cccccc;fill-opacity:1;stroke:none;stroke-width:1.99209905;stroke-linecap:round;stroke-linejoin:bevel;stroke-miterlimit:4;stroke-dasharray:none;stroke-dashoffset:0;stroke-opacity:1"
       d="m 111.99076,232.28651 c -0.40351,-1.60247 -2.14048,-4.43157 -3.34111,-5.44184 -0.26945,-0.22673 -0.48992,-0.45715 -0.48992,-0.51203 0,-0.15716 1.70638,-2.24576 1.83478,-2.24576 0.24973,0 2.45773,2.48579 2.99273,3.36924 0.31227,0.51566 0.61339,0.93968 0.66915,0.94227 0.0558,0.003 0.42046,-0.48867 0.81045,-1.09169 0.71339,-1.1031 2.57626,-3.21982 2.83369,-3.21982 0.076,0 0.54921,0.50425 1.05145,1.12056 l 0.91317,1.12056 -0.89316,0.91304 c -1.16924,1.19527 -2.27737,3.02531 -2.76516,4.56655 l -0.39175,1.23778 -1.51587,0.003 -1.51586,0.003 z"
       id="path973"
       inkscape:connector-curvature="0" />
    <path
       style="display:inline;opacity:1;fill:#cccccc;fill-opacity:1;stroke:none;stroke-width:1.99209905;stroke-linecap:round;stroke-linejoin:bevel;stroke-miterlimit:4;stroke-dasharray:none;stroke-dashoffset:0;stroke-opacity:1"
       d="m 87.834033,246.20748 c -0.56975,-1.81683 -1.86788,-3.95219 -3.14831,-5.17882 -0.32845,-0.31465 -0.59719,-0.63374 -0.59719,-0.70909 0,-0.0754 0.37965,-0.62011 0.84367,-1.21056 l 0.84367,-1.07355 0.55635,0.42436 c 0.69804,0.53242 1.92025,2.00884 2.61825,3.16282 0.29334,0.48496 0.57068,0.88164 0.61634,0.88152 0.0457,-1.3e-4 0.34446,-0.45755 0.66403,-1.01649 0.31956,-0.55894 1.11794,-1.58043 1.77417,-2.26999 l 1.19314,-1.25374 0.92347,1.12661 c 0.5079,0.61964 0.92346,1.17997 0.92346,1.24519 0,0.0652 -0.30609,0.41388 -0.6802,0.7748 -1.28586,1.24052 -2.64999,3.57266 -3.12701,5.34596 l -0.18979,0.70553 h -1.45736 -1.45735 z"
       id="path975"
       inkscape:connector-curvature="0" />
    <path
       style="display:inline;opacity:1;fill:#cccccc;fill-opacity:1;stroke:none;stroke-width:1.99209905;stroke-linecap:round;stroke-linejoin:bevel;stroke-miterlimit:4;stroke-dasharray:none;stroke-dashoffset:0;stroke-opacity:1"
       d="m 103.76819,247.12053 c -0.47476,-1.51769 -0.69151,-2.04543 -1.26427,-3.07805 -0.36926,-0.66576 -1.1479,-1.71559 -1.7303,-2.33296 l -1.058904,-1.1225 0.826204,-1.07021 c 0.4544,-0.58862 0.92492,-1.09239 1.04559,-1.1195 0.2968,-0.0667 2.29434,2.1149 3.03455,3.31411 0.32874,0.53262 0.64481,0.96839 0.70237,0.96839 0.0576,0 0.25239,-0.27795 0.43293,-0.61767 0.67566,-1.27132 2.79277,-3.69855 3.22601,-3.69855 0.0626,0 0.50919,0.49337 0.9924,1.09636 l 0.87857,1.09637 -0.82565,0.85423 c -1.35854,1.40557 -2.37855,3.11733 -2.95732,4.96294 l -0.29934,0.95455 h -1.46897 c -1.02988,0 -1.48837,-0.062 -1.53387,-0.20751 z"
       id="path977"
       inkscape:connector-curvature="0" />
    <path
       style="display:inline;opacity:1;fill:#cccccc;fill-opacity:1;stroke:none;stroke-width:1.99209905;stroke-linecap:round;stroke-linejoin:bevel;stroke-miterlimit:4;stroke-dasharray:none;stroke-dashoffset:0;stroke-opacity:1"
       d="m 118.70866,246.95452 c -0.0359,-0.11413 -0.15577,-0.50632 -0.26647,-0.87154 -0.47302,-1.56052 -1.57238,-3.34718 -2.91119,-4.73124 l -0.8832,-0.91304 0.83788,-1.07906 c 0.46083,-0.59348 0.91454,-1.10681 1.00825,-1.14075 0.25645,-0.0929 2.10891,1.91701 2.93236,3.18153 0.39877,0.61236 0.77229,1.11072 0.83004,1.10748 0.0577,-0.003 0.40382,-0.4951 0.76904,-1.09302 0.68985,-1.12937 2.64528,-3.27973 2.89834,-3.18724 0.0797,0.0291 0.52551,0.53042 0.99075,1.11399 l 0.84587,1.06105 -0.79829,0.84805 c -1.42056,1.5091 -2.53735,3.43888 -3.01264,5.20577 l -0.18979,0.70553 h -1.49288 c -1.04888,0 -1.51228,-0.0617 -1.55807,-0.20751 z"
       id="path979"
       inkscape:connector-curvature="0" />
    <path
       style="display:inline;opacity:1;fill:#cccccc;fill-opacity:1;stroke:none;stroke-width:1.99209905;stroke-linecap:round;stroke-linejoin:bevel;stroke-miterlimit:4;stroke-dasharray:none;stroke-dashoffset:0;stroke-opacity:1"
       d="m 81.445243,259.34586 c -0.40351,-1.60248 -2.14048,-4.43158 -3.34111,-5.44184 -0.26945,-0.22673 -0.48992,-0.45715 -0.48992,-0.51204 0,-0.15716 1.70638,-2.24575 1.83478,-2.24575 0.24973,0 2.45773,2.48578 2.99273,3.36924 0.31227,0.51566 0.61339,0.93968 0.66915,0.94227 0.0558,0.003 0.42047,-0.48867 0.81045,-1.09169 0.71339,-1.1031 2.57627,-3.21982 2.83369,-3.21982 0.0761,0 0.54921,0.50425 1.05145,1.12056 l 0.91317,1.12055 -0.89316,0.91305 c -1.16924,1.19526 -2.27737,3.0253 -2.76516,4.56655 l -0.39175,1.23778 -1.51587,0.003 -1.51586,0.003 z"
       id="path981"
       inkscape:connector-curvature="0" />
    <path
       style="display:inline;opacity:1;fill:#cccccc;fill-opacity:1;stroke:none;stroke-width:1.99209905;stroke-linecap:round;stroke-linejoin:bevel;stroke-miterlimit:4;stroke-dasharray:none;stroke-dashoffset:0;stroke-opacity:1"
       d="m 103.21258,260.89555 c -0.4985,-1.56617 -1.47491,-3.19553 -2.6993,-4.50441 l -0.985274,-1.05326 0.843674,-1.05827 c 0.464,-0.58205 0.90618,-1.08122 0.9826,-1.10925 0.22576,-0.0828 1.88723,1.67013 2.74671,2.89793 0.43785,0.62548 0.84844,1.1988 0.91242,1.27403 0.064,0.0752 0.46931,-0.39415 0.90072,-1.04308 0.82213,-1.23667 2.55424,-3.16612 2.83105,-3.15361 0.0889,0.004 0.54872,0.50416 1.02189,1.11143 l 0.8603,1.10411 -0.97924,1.04681 c -1.12733,1.20512 -2.15779,2.96202 -2.68287,4.57424 l -0.36496,1.12055 -1.5029,-0.004 -1.50289,-0.004 z"
       id="path983"
       inkscape:connector-curvature="0" />
    <path
       style="display:inline;opacity:1;fill:#cccccc;fill-opacity:1;stroke:none;stroke-width:1.99209905;stroke-linecap:round;stroke-linejoin:bevel;stroke-miterlimit:4;stroke-dasharray:none;stroke-dashoffset:0;stroke-opacity:1"
       d="m 121.28722,259.17985 c -0.4035,-1.60248 -2.14048,-4.43158 -3.34111,-5.44184 -0.26945,-0.22673 -0.48992,-0.45715 -0.48992,-0.51204 0,-0.15716 1.70638,-2.24575 1.83478,-2.24575 0.24973,0 2.45773,2.48578 2.99273,3.36924 0.31227,0.51566 0.61339,0.93968 0.66915,0.94227 0.0558,0.003 0.42047,-0.48867 0.81045,-1.09169 0.71339,-1.1031 2.57627,-3.21982 2.83369,-3.21982 0.0761,0 0.54921,0.50425 1.05145,1.12056 l 0.91317,1.12055 -0.89316,0.91305 c -1.16924,1.19527 -2.27737,3.02531 -2.76516,4.56655 l -0.39175,1.23778 -1.51586,0.003 -1.51587,0.003 z"
       id="path985"
       inkscape:connector-curvature="0" />
    <path
       style="display:inline;opacity:1;fill:#cccccc;fill-opacity:1;stroke:none;stroke-width:1.99209905;stroke-linecap:round;stroke-linejoin:bevel;stroke-miterlimit:4;stroke-dasharray:none;stroke-dashoffset:0;stroke-opacity:1"
       d="m 65.840055,288.27385 c 1.009473,-2.01735 1.811094,-3.74085 1.781379,-3.82999 -0.02971,-0.0891 -1.978583,-0.91604 -4.330819,-1.83755 -2.352238,-0.92151 -4.218062,-1.72932 -4.146275,-1.79513 0.07178,-0.0658 1.119153,-0.44323 2.327479,-0.83871 1.208328,-0.39547 2.142125,-0.76659 2.075103,-0.82471 -0.06702,-0.0581 -0.906245,-0.38786 -1.864942,-0.73276 -3.449722,-1.24108 -7.542247,-2.94248 -11.031717,-4.58625 -0.441312,-0.20788 -0.14333,-0.23919 2.988148,-0.31391 l 3.478342,-0.083 2.202876,0.87348 c 1.21158,0.48042 3.166251,1.20347 4.343707,1.60678 l 2.140831,0.73329 -0.09338,-1.56527 -0.09339,-1.56527 h 2.763525 2.763528 l 0.0019,0.70553 c 0.0011,0.38805 0.04749,0.98171 0.103294,1.31925 l 0.101465,0.61371 0.819697,-0.89689 c 0.485826,-0.53156 1.20445,-1.08581 1.7643,-1.36074 0.809149,-0.39735 1.14695,-0.46387 2.355673,-0.46387 1.775114,0 2.883964,0.47347 4.322624,1.84572 0.54565,0.52047 1.016,0.91573 1.04522,0.87836 0.0292,-0.0374 0.15251,-0.32941 0.27398,-0.64897 0.69239,-1.8215 2.45529,-3.84642 3.94503,-4.53139 0.61506,-0.28279 1.09928,-0.36246 2.19973,-0.36191 1.22677,5.3e-4 1.52839,0.0622 2.30928,0.47121 1.33382,0.69869 2.39761,1.88865 3.22351,3.60582 l 0.7107,1.47768 0.65495,-0.67727 c 0.36022,-0.3725 1.10316,-0.91237 1.65099,-1.1997 0.888093,-0.46579 1.148993,-0.5227 2.407123,-0.52498 1.273254,-0.002 1.500244,0.0477 2.324104,0.51187 1.01097,0.5696 1.99561,1.72735 2.3295,2.73906 0.11758,0.35624 0.25784,0.64481 0.31171,0.64126 0.0539,-0.004 0.27963,-0.37958 0.50171,-0.83563 0.49023,-1.0067 1.73675,-2.20794 2.79732,-2.69571 0.60716,-0.27924 1.10013,-0.36052 2.19417,-0.36178 1.77485,-0.002 2.8826,0.47055 4.32263,1.8441 0.54565,0.52046 1.016,0.91572 1.04521,0.87835 0.0292,-0.0374 0.15252,-0.3294 0.27399,-0.64897 0.69238,-1.82149 2.45528,-3.84642 3.94502,-4.53138 0.61506,-0.2828 1.09928,-0.36246 2.19974,-0.36191 1.22677,5.3e-4 1.52838,0.0622 2.30927,0.47121 1.33382,0.69868 2.39761,1.88864 3.22351,3.60582 l 0.71071,1.47768 0.65494,-0.67727 c 0.36022,-0.37251 1.10316,-0.91237 1.65099,-1.1997 0.88809,-0.4658 1.14899,-0.5227 2.40712,-0.52498 1.27325,-0.002 1.50025,0.0477 2.32412,0.51187 1.05957,0.59698 1.95447,1.6839 2.41408,2.93207 l 0.32025,0.86972 0.11669,-1.57708 c 0.0642,-0.86739 0.14735,-1.92853 0.18482,-2.35808 l 0.0681,-0.781 -0.92946,-0.0592 c -0.51119,-0.0325 0.39281,-0.0733 2.00891,-0.0905 l 2.93836,-0.0314 0.0707,-0.87155 c 0.0389,-0.47935 0.0432,0.22862 0.01,1.57326 l -0.0611,2.4448 2.34408,-0.82459 c 1.28925,-0.45352 3.19976,-1.16693 4.24558,-1.58535 l 1.9015,-0.76077 3.50585,0.0178 c 1.92822,0.01 3.52977,0.0417 3.55901,0.0709 0.0761,0.0761 -4.77754,2.24308 -7.42423,3.31473 -1.23261,0.49908 -3.69784,1.40246 -5.47827,2.00749 -4.35678,1.48054 -4.09451,1.34244 -4.21467,2.21914 l -0.10068,0.73454 2.73197,3.41755 c 1.50259,1.87966 2.71633,3.43124 2.69721,3.44796 -0.0191,0.0167 -2.4559,-0.44675 -5.41504,-1.02994 l -5.38026,-1.06034 -0.51303,0.39056 c -1.25871,0.95823 -1.92382,1.18309 -3.50118,1.18368 -1.61751,8e-4 -2.14628,-0.18111 -3.20144,-1.10025 -0.29992,-0.26125 -0.69943,-0.475 -0.88779,-0.475 -0.20574,0 -0.71088,0.39863 -1.2651,0.99835 -0.61981,0.6707 -1.28076,1.17467 -2.01387,1.53558 -0.95526,0.47027 -1.25719,0.53722 -2.42281,0.53722 -1.73991,0 -2.82963,-0.50773 -4.14951,-1.93335 l -0.93291,-1.00766 -0.96255,0.98675 c -1.4081,1.4435 -2.21348,1.78869 -4.16802,1.78642 -1.40599,-0.002 -1.67994,-0.0537 -2.52516,-0.48029 -0.52144,-0.26315 -1.36795,-0.85269 -1.88112,-1.31007 l -0.93304,-0.8316 -2.48138,0.1074 c -2.12642,0.092 -2.5816,0.16079 -3.182124,0.48066 -1.01185,0.53898 -3.376903,0.53948 -4.387833,0.001 -0.52339,-0.27888 -0.97733,-0.37239 -1.80752,-0.37239 -1.06669,0 -1.13646,0.0257 -1.84514,0.67891 -1.18859,1.09561 -2.37046,1.56238 -3.94883,1.55959 -1.5752,-0.003 -2.49067,-0.35553 -3.6169,-1.39366 -1.04827,-0.96626 -1.75771,-0.95199 -3.06471,0.0616 -1.18529,0.91923 -2.1042,1.25164 -3.45996,1.25164 -1.225138,0 -2.350364,-0.34036 -3.354923,-1.0148 -0.392621,-0.2636 -0.80849,-0.47927 -0.924153,-0.47927 -0.115662,0 -2.20101,0.93379 -4.634105,2.0751 -2.433098,1.14131 -4.464101,2.0751 -4.513342,2.0751 -0.04924,0 0.736404,-1.65055 1.745877,-3.6679 z m 56.579045,-2.09967 c 3.17157,-2.53359 3.27447,-9.57035 0.17353,-11.86754 -1.84547,-1.36714 -4.25594,0.52494 -5.06711,3.97739 -0.35179,1.49729 -0.24191,4.07838 0.22959,5.39268 0.98292,2.73992 3.00503,3.82271 4.66399,2.49747 z m -10.00628,-0.41101 c 1.29518,-1.3708 1.58674,-3.76689 0.73098,-6.00733 -0.47956,-1.25556 -1.78502,-2.63779 -2.76389,-2.92647 -3.72015,-1.09707 -5.3113,5.42288 -2.12288,8.69879 0.84327,0.86641 1.45937,1.1195 2.54797,1.04671 0.81656,-0.0546 0.96175,-0.1279 1.60782,-0.8117 z m -23.195377,0.079 c 3.17158,-2.53359 3.27448,-9.57035 0.17354,-11.86753 -1.84547,-1.36714 -4.25594,0.52494 -5.06711,3.97739 -0.35179,1.49728 -0.24191,4.07837 0.22959,5.39267 0.98292,2.73992 3.00503,3.82272 4.66398,2.49747 z m -10.00627,-0.411 c 1.29518,-1.37081 1.58674,-3.76689 0.73098,-6.00734 -0.47956,-1.25555 -1.78502,-2.63779 -2.76389,-2.92646 -3.720147,-1.09707 -5.311296,5.42287 -2.122881,8.69878 0.843269,0.86641 1.459371,1.11951 2.547961,1.04671 0.81657,-0.0546 0.96176,-0.1279 1.60783,-0.81169 z m -8.084034,-0.11552 c 0.14505,-0.0919 0.187177,-0.26163 0.112649,-0.45398 -0.114768,-0.29622 -0.127582,-0.29568 -0.356205,0.015 -0.391645,0.53216 -0.264758,0.76087 0.243556,0.43901 z m 60.727491,-0.29057 c 0.3203,-0.15199 0.86668,-0.63603 1.21417,-1.07565 2.08416,-2.63665 1.46404,-6.94841 -0.99932,-6.94841 -0.70557,0 -1.32149,0.34975 -2.06478,1.17249 -0.90106,0.99737 -1.29832,2.00482 -1.38804,3.52003 -0.16463,2.78047 1.27589,4.26261 3.23797,3.33154 z m -33.201644,-0.33201 c 0.3203,-0.15199 0.86668,-0.63604 1.21417,-1.07566 2.084154,-2.63665 1.464034,-6.94841 -0.99932,-6.94841 -0.70557,0 -1.32149,0.34976 -2.064783,1.1725 -0.90106,0.99736 -1.29832,2.00481 -1.38804,3.52002 -0.16463,2.78047 1.27588,4.26261 3.237973,3.33155 z m 39.221534,-0.6782 c -0.006,-0.14133 -0.76919,-1.03755 -0.8836,-1.03755 -0.0411,0 -0.15129,0.21963 -0.24486,0.48806 -0.15192,0.43577 -0.13142,0.49561 0.19127,0.55842 0.62921,0.12249 0.9426,0.11951 0.93719,-0.009 z m -34.02899,-0.33202 c -0.005,-0.5949 -0.25552,-0.70861 -0.44644,-0.2028 -0.16611,0.44006 -0.15192,0.49332 0.13139,0.49332 0.19277,0 0.31659,-0.11419 0.31505,-0.29052 z m -33.594437,-3.31432 c -0.04507,-0.0451 -0.623051,0.0984 -1.284406,0.31888 l -1.202468,0.40082 1.233594,0.49994 1.233593,0.49993 0.05081,-0.81881 c 0.02795,-0.45035 0.01394,-0.85569 -0.03113,-0.90076 z"
       id="path987"
       inkscape:connector-curvature="0" />
    <path
       style="display:inline;opacity:1;fill:#cccccc;fill-opacity:1;stroke:none;stroke-width:0.49802476;stroke-linecap:round;stroke-linejoin:bevel;stroke-miterlimit:4;stroke-dasharray:none;stroke-dashoffset:0;stroke-opacity:1"
       d="m 101.95941,273.58937 c -1.12018,-1.16891 -2.027444,-2.13455 -2.016134,-2.14585 0.0113,-0.0113 0.482214,0.44083 1.046454,1.00474 l 1.0259,1.02529 h 1.83506 1.83505 l 0.44441,-0.5914 c 0.95553,-1.27161 1.64196,-2.15252 1.66181,-2.13267 0.0247,0.0247 -3.72265,4.96518 -3.76604,4.96518 -0.0164,0 -0.94633,-0.95638 -2.06651,-2.12529 z"
       id="path989"
       inkscape:connector-curvature="0" />
    <path
       style="display:inline;opacity:1;fill:#cccccc;fill-opacity:1;stroke:none;stroke-width:0.49802476;stroke-linecap:round;stroke-linejoin:bevel;stroke-miterlimit:4;stroke-dasharray:none;stroke-dashoffset:0;stroke-opacity:1"
       d="m 93.260813,270.87939 c -0.79573,-2.08931 -1.43752,-3.80802 -1.42619,-3.81935 0.0222,-0.0222 0.40987,0.97055 1.66952,4.27615 l 0.80655,2.11661 0.48114,0.0117 c 0.67604,0.0164 0.75881,-0.0133 1.15006,-0.41304 0.17881,-0.18269 0.3251,-0.3216 0.3251,-0.30869 0,0.0316 -1.49472,1.91067 -1.53088,1.92448 -0.0157,0.006 -0.67956,-1.69855 -1.4753,-3.78786 z"
       id="path991"
       inkscape:connector-curvature="0" />
    <path
       style="display:inline;opacity:1;fill:#cccccc;fill-opacity:1;stroke:none;stroke-width:0.03112655;stroke-linecap:round;stroke-linejoin:bevel;stroke-miterlimit:4;stroke-dasharray:none;stroke-dashoffset:0;stroke-opacity:1"
       d="m 102.01218,273.47032 c -0.001,-0.002 0.61152,-0.003 1.83579,-0.003 1.42563,0 1.8381,-7.9e-4 1.84051,-0.003 0.002,-0.002 0.003,-0.002 0.003,-5.3e-4 0,10e-4 -0.001,0.004 -0.003,0.006 -0.004,0.004 -3.67379,0.005 -3.6763,5.3e-4 z"
       id="path993"
       inkscape:connector-curvature="0" />
  </g>
</svg>
