<?xml version="1.0" encoding="UTF-8" standalone="no"?>
<!-- Created with Inkscape (http://www.inkscape.org/) -->

<svg
   xmlns:dc="http://purl.org/dc/elements/1.1/"
   xmlns:cc="http://creativecommons.org/ns#"
   xmlns:rdf="http://www.w3.org/1999/02/22-rdf-syntax-ns#"
   xmlns:svg="http://www.w3.org/2000/svg"
   xmlns="http://www.w3.org/2000/svg"
   xmlns:sodipodi="http://sodipodi.sourceforge.net/DTD/sodipodi-0.dtd"
   xmlns:inkscape="http://www.inkscape.org/namespaces/inkscape"
   version="1.1"
   id="svg2"
   width="244.95746"
   height="244.04173"
   viewBox="0 0 244.95746 244.04173"
   sodipodi:docname="ShortenedQR.svg"
   inkscape:version="0.92.2 (5c3e80d, 2017-08-06)">
  <metadata
     id="metadata8">
    <rdf:RDF>
      <cc:Work
         rdf:about="">
        <dc:format>image/svg+xml</dc:format>
        <dc:type
           rdf:resource="http://purl.org/dc/dcmitype/StillImage" />
        <dc:title></dc:title>
      </cc:Work>
    </rdf:RDF>
  </metadata>
  <defs
     id="defs6" />
  <sodipodi:namedview
     pagecolor="#ffffff"
     bordercolor="#666666"
     borderopacity="1"
     objecttolerance="10"
     gridtolerance="10"
     guidetolerance="10"
     inkscape:pageopacity="0"
     inkscape:pageshadow="2"
     inkscape:window-width="1920"
     inkscape:window-height="1017"
     id="namedview4"
     showgrid="false"
     fit-margin-top="0"
     fit-margin-left="0"
     fit-margin-right="0"
     fit-margin-bottom="0"
     inkscape:zoom="2.2250293"
     inkscape:cx="113.43784"
     inkscape:cy="107.74877"
     inkscape:window-x="1912"
     inkscape:window-y="-8"
     inkscape:window-maximized="1"
     inkscape:current-layer="svg2" />
  <path
     style="fill:#000000"
     d="m 9.9787292,203.02087 v -31.5 h 31.4999998 31.5 v 31.5 31.5 h -31.5 -31.4999998 z m 53.9999998,0 v -22.5 h -22.5 -22.5 v 22.5 22.5 h 22.5 22.5 z m -36,0 v -13.5 h 13.5 13.5 v 13.5 13.5 h -13.5 -13.5 z m 53.999996,9 v -22.5 h 4.5 4.5 v -4.5 -4.5 h -4.5 -4.5 v -9 -9 h -8.999996 -9 v -4.5 -4.5 h -4.5 -4.5 v 4.5 4.5 h -9 -9 v -4.5 -4.5 h -4.5 -4.5 v -4.5 -4.5 h 9 9 v -4.5 -4.5 h -4.5 -4.5 v -4.5 -4.5 h -4.5 -4.5 v 4.5 4.5 h -4.5 -4.5 v 13.5 13.5 h -4.5 -4.4999998 v -18 -18 h 4.4999998 4.5 v -4.5 -4.5 h -4.5 -4.4999998 V 99.520868 81.520858 h 22.4999998 22.5 v 4.50001 4.5 h 4.5 4.5 v -4.5 -4.50001 h 22.499996 22.500005 v 4.50001 4.5 h -4.5 -4.500005 v 9 9.000002 h 4.500005 4.5 v -4.5 -4.500002 h 18 18 v -9 -9.00001 h -4.5 -4.5 v 4.50001 4.5 h -9 -9 V 77.020858 63.520863 h 4.5 4.5 v -4.5 -4.5 h -4.5 -4.5 v -4.5 -4.5 h -4.5 -4.5 v 13.5 13.5 h -4.5 -4.500005 v -13.5 -13.5 h -9 -9 v -4.5 -4.5 h 4.5 4.5 v -4.5 -4.5 h -4.5 -4.5 v -4.5 -4.5 h 4.5 4.5 v -4.5 -4.5000001 h 4.5 4.5 v 9.0000001 9 h 4.500005 4.5 v -4.5 -4.5 h 9 9 v 4.5 4.5 h 4.5 4.5 v -4.5 -4.5 h 13.5 13.5 v 4.5 4.5 h -9 -9 v 4.5 4.5 h 9 9 v 9 9 h -4.5 -4.5 v -4.5 -4.5 h -4.5 -4.5 v -4.5 -4.5 h -4.5 -4.5 v 4.5 4.5 h -4.5 -4.5 v 4.5 4.5 h 9 9 v 13.5 13.499995 h 13.5 13.5 v 9.00001 9 h 4.5 4.5 v -9 -9.00001 h 4.5 4.5 v 4.50001 4.5 h 4.5 4.5 v -4.5 -4.50001 h 4.5 4.5 v 4.50001 4.5 h -4.5 -4.5 v 9 9.000002 h -4.5 -4.5 v -4.5 -4.500002 h -4.5 -4.5 v 4.500002 4.5 h -9 -9 v 4.5 4.5 h -4.5 -4.5 v 4.5 4.5 h 4.5 4.5 v 4.5 4.5 h 9 9 v -4.5 -4.5 h -4.5 -4.5 v -4.5 -4.5 h 18 18 v 4.5 4.5 h -4.5 -4.5 v 9 9 h -4.5 -4.5 v -4.5 -4.5 h -4.5 -4.5 v 4.5 4.5 h -9 -9 v 4.5 4.5 h 22.5 22.5 v 4.5 4.5 h -4.5 -4.5 v 9 9 h 4.5 4.5 v -4.5 -4.5 h 9 9 v -9 -9 h -4.5 -4.5 v -4.5 -4.5 h -4.5 -4.5 v -4.5 -4.5 h 13.5 13.5 v 22.5 22.5 h -13.5 -13.5 v 9 9 h -4.5 -4.5 v 9 9 h 4.5 4.5 v -4.5 -4.5 h 4.5 4.5 v -4.5 -4.5 h 9 9 v 9 9 h -4.5 -4.5 v 4.5 4.5 h 4.5 4.5 v 4.5 4.5 h -13.5 -13.5 v -4.5 -4.5 h -18 -18 v 4.5 4.5 h -4.5 -4.5 v -13.5 -13.5 h -4.5 -4.5 v 9 9 h -4.5 -4.5 v -4.5 -4.5 h -9 -9 v 4.5 4.5 h 4.5 4.5 v 4.5 4.5 h -9 -9 v -18 -18 h -4.5 -4.5 v 4.5 4.5 h -4.5 -4.500005 v 4.5 4.5 h 4.500005 4.5 v 4.5 4.5 h -9.000005 -9 v 4.5 4.5 h -4.5 -4.5 z m 135.000005,9 v -4.5 h 4.5 4.5 v -4.5 -4.5 h -4.5 -4.5 v 4.5 4.5 h -4.5 -4.5 v 4.5 4.5 h 4.5 4.5 z m -27,-13.5 v -9 h -13.5 -13.5 v 4.5 4.5 h 9 9 v 4.5 4.5 h 4.5 4.5 z m -90.000005,-4.5 v -4.5 h 4.500005 4.5 v -4.5 -4.5 h -9.000005 -9 v 9 9 h 4.5 4.5 z m 36.000005,-9 v -13.5 h 4.5 4.5 v 9 9 h 4.5 4.5 v -13.5 -13.5 h -4.5 -4.5 v -4.5 -4.5 h -13.5 -13.5 v -9 -9 h 4.5 4.5 v 4.5 4.5 h 4.5 4.5 v -4.5 -4.5 h -4.5 -4.5 v -4.5 -4.5 h 9 9 v 9 9 h 4.5 4.5 v -4.5 -4.5 h 4.5 4.5 v -4.5 -4.5 h -9 -9 v -9 -9 h 4.5 4.5 v -9 -9.000002 h 4.5 4.5 v -4.5 -4.5 h -4.5 -4.5 v 4.5 4.5 h -4.5 -4.5 v 4.500002 4.5 h -13.5 -13.5 v 9 9 h -4.5 -4.5 v -4.5 -4.5 h -4.5 -4.500005 v 4.5 4.5 h 4.500005 4.5 v 4.5 4.5 h -4.5 -4.500005 v 9 9 h 4.500005 4.5 v 4.5 4.5 h -9.000005 -9 v -4.5 -4.5 h -4.5 -4.5 v 4.5 4.5 h 4.5 4.5 v 4.5 4.5 h 4.5 4.5 v 4.5 4.5 h 4.500005 4.5 v -4.5 -4.5 h 13.5 13.5 v 4.5 4.5 h -9 -9 v 4.5 4.5 h 4.5 4.5 v 9 9 h 4.5 4.5 z m -18,-63 v -4.5 h 4.5 4.5 v -4.5 -4.5 h 4.5 4.5 v 4.5 4.5 h -4.5 -4.5 v 4.5 4.5 h -4.5 -4.5 z m 72,45 v -13.5 h -13.5 -13.5 v 13.5 13.5 h 13.5 13.5 z m -18,0 v -4.5 h 4.5 4.5 v 4.5 4.5 h -4.5 -4.5 z m -99.000001,-27 v -4.5 h 4.499996 4.5 v -4.5 -4.5 h 4.5 4.5 v -9 -9 h -4.5 -4.5 v -4.5 -4.5 h 4.5 4.5 v -9.000002 -9 h -13.5 -13.499996 v 4.5 4.5 h 9 8.999996 v 4.500002 4.5 h -13.499996 -13.5 v 4.5 4.5 h -4.5 -4.5 v -4.5 -4.5 h -4.5 -4.5 v -4.5 -4.500002 h 4.5 4.5 v -4.5 -4.5 h -4.5 -4.5 v 4.5 4.5 h -9 -9 v 4.500002 4.5 h 9 9 v 9 9 h 4.5 4.5 v 4.5 4.5 h 4.5 4.5 v 4.5 4.5 h 4.5 4.5 v 4.5 4.5 h 4.5 4.5 z m -9,-9 v -4.5 h -4.5 -4.5 v -9 -9 h 9 9 v 4.5 4.5 h 4.499996 4.5 v 4.5 4.5 h -4.5 -4.499996 v 4.5 4.5 h -4.5 -4.5 z m 9,-9 v -4.5 h -4.5 -4.5 v 4.5 4.5 h 4.5 4.5 z M 135.97873,68.020863 v -4.5 h -4.5 -4.5 v 4.5 4.5 h 4.5 4.5 z m -27,-27 v -4.5 h -4.5 -4.500005 v 4.5 4.5 h 4.500005 4.5 z m 18,-4.5 v -9 h -4.5 -4.5 v 9 9 h 4.5 4.5 z m 90,85.500007 v -4.5 h 9 9 v 4.5 4.5 h -9 -9 z m -9,-18 v -4.500002 h 4.5 4.5 v 4.500002 4.5 h -4.5 -4.5 z m 18,-9.000002 v -4.5 h -4.5 -4.5 v -4.5 -4.50001 h 4.5 4.5 v 4.50001 4.5 h 4.5 4.5 v 4.5 4.5 h -4.5 -4.5 z M 9.9787292,41.020863 V 9.5208629 h 31.4999998 31.5 v 31.5000001 31.5 h -31.5 -31.4999998 z m 53.9999998,0 v -22.5 h -22.5 -22.5 v 22.5 22.5 h 22.5 22.5 z m -36,0 v -13.5 h 13.5 13.5 v 13.5 13.5 h -13.5 -13.5 z m 53.999996,22.5 v -9 h 4.5 4.5 v 9 9 h -4.5 -4.5 z m 72.000005,4.5 v -4.5 h 4.5 4.5 v 4.5 4.5 h -4.5 -4.5 z m 18,-27 V 9.5208629 h 31.5 31.5 v 31.5000001 31.5 h -31.5 -31.5 z m 54,0 v -22.5 h -22.5 -22.5 v 22.5 22.5 h 22.5 22.5 z m -36,0 v -13.5 h 13.5 13.5 v 13.5 13.5 h -13.5 -13.5 z"
     id="path817"
     inkscape:connector-curvature="0" />
</svg>
